G04 EAGLE Gerber RS-274X export*
G75*
%MOMM*%
%FSLAX34Y34*%
%LPD*%
%INBottom Copper*%
%IPPOS*%
%AMOC8*
5,1,8,0,0,1.08239X$1,22.5*%
G01*
%ADD10R,0.400000X1.399997*%
%ADD11C,1.000000*%
%ADD12R,0.297181X0.550000*%
%ADD13R,0.550000X0.297181*%
%ADD14R,5.600000X5.600000*%
%ADD15P,1.649562X8X22.500000*%
%ADD16R,1.100000X1.000000*%
%ADD17R,1.000000X1.100000*%
%ADD18R,1.300000X1.500000*%
%ADD19C,1.524000*%
%ADD20R,0.700000X2.000000*%
%ADD21R,9.600000X6.000000*%
%ADD22R,3.050000X2.900000*%
%ADD23C,1.981200*%
%ADD24P,1.429621X8X113.700000*%
%ADD25C,1.320800*%
%ADD26R,0.800000X0.500000*%
%ADD27R,0.800000X1.600000*%
%ADD28R,1.600000X0.800000*%
%ADD29C,0.508000*%
%ADD30C,0.304800*%
%ADD31C,0.406400*%
%ADD32C,0.706400*%
%ADD33C,0.756400*%
%ADD34C,1.300000*%
%ADD35C,0.254000*%
%ADD36C,0.609600*%
%ADD37C,1.524000*%
%ADD38C,1.016000*%
%ADD39C,2.032000*%

G36*
X276851Y-11647D02*
X276851Y-11647D01*
X276885Y-11647D01*
X277005Y-11613D01*
X277128Y-11586D01*
X277158Y-11571D01*
X277191Y-11562D01*
X277336Y-11490D01*
X298592Y782D01*
X298676Y846D01*
X298765Y902D01*
X298802Y942D01*
X298845Y974D01*
X298911Y1057D01*
X298983Y1134D01*
X299009Y1181D01*
X299043Y1223D01*
X299086Y1320D01*
X299137Y1412D01*
X299150Y1464D01*
X299172Y1514D01*
X299190Y1618D01*
X299216Y1720D01*
X299222Y1806D01*
X299225Y1827D01*
X299224Y1843D01*
X299227Y1881D01*
X299227Y172744D01*
X299213Y172849D01*
X299209Y172954D01*
X299193Y173006D01*
X299187Y173059D01*
X299148Y173158D01*
X299117Y173259D01*
X299089Y173305D01*
X299070Y173355D01*
X299008Y173441D01*
X298953Y173531D01*
X298914Y173569D01*
X298883Y173613D01*
X298801Y173680D01*
X298726Y173754D01*
X298655Y173801D01*
X298638Y173815D01*
X298624Y173822D01*
X298592Y173843D01*
X245178Y204681D01*
X245119Y204706D01*
X245064Y204739D01*
X244973Y204767D01*
X244885Y204804D01*
X244821Y204813D01*
X244760Y204832D01*
X244665Y204837D01*
X244570Y204851D01*
X244507Y204844D01*
X244443Y204847D01*
X244349Y204827D01*
X244254Y204817D01*
X244194Y204795D01*
X244131Y204782D01*
X244046Y204740D01*
X243956Y204707D01*
X243903Y204670D01*
X243846Y204642D01*
X243773Y204580D01*
X243695Y204525D01*
X243653Y204477D01*
X243604Y204435D01*
X243504Y204309D01*
X233796Y190441D01*
X233750Y190354D01*
X233696Y190271D01*
X233676Y190214D01*
X233647Y190159D01*
X233624Y190064D01*
X233593Y189971D01*
X233588Y189910D01*
X233574Y189850D01*
X233575Y189752D01*
X233567Y189654D01*
X233578Y189593D01*
X233579Y189532D01*
X233605Y189437D01*
X233622Y189340D01*
X233647Y189285D01*
X233663Y189225D01*
X233712Y189140D01*
X233753Y189050D01*
X233791Y189003D01*
X233821Y188949D01*
X233890Y188879D01*
X233951Y188802D01*
X234029Y188736D01*
X234043Y188721D01*
X234053Y188715D01*
X234074Y188697D01*
X251194Y175857D01*
X251251Y175825D01*
X251303Y175784D01*
X251389Y175746D01*
X251470Y175700D01*
X251534Y175683D01*
X251540Y175680D01*
X252475Y174899D01*
X252490Y174889D01*
X252527Y174857D01*
X253437Y174175D01*
X253539Y173041D01*
X253543Y173024D01*
X253547Y172975D01*
X253720Y171763D01*
X253696Y171674D01*
X253694Y171608D01*
X253684Y171543D01*
X253688Y171382D01*
X257018Y134274D01*
X257027Y134233D01*
X257029Y134190D01*
X257061Y134078D01*
X257086Y133963D01*
X257105Y133926D01*
X257117Y133885D01*
X257161Y133810D01*
X257161Y132738D01*
X257164Y132717D01*
X257166Y132625D01*
X257261Y131569D01*
X257251Y131551D01*
X257229Y131467D01*
X256471Y130709D01*
X256458Y130692D01*
X256395Y130625D01*
X255715Y129812D01*
X255695Y129806D01*
X255620Y129762D01*
X254548Y129762D01*
X254527Y129759D01*
X254435Y129756D01*
X253379Y129662D01*
X253361Y129672D01*
X253248Y129701D01*
X253136Y129738D01*
X253094Y129741D01*
X253053Y129751D01*
X252892Y129762D01*
X222797Y129762D01*
X222752Y129756D01*
X222706Y129758D01*
X222595Y129736D01*
X222482Y129722D01*
X222439Y129705D01*
X222394Y129696D01*
X222245Y129635D01*
X222041Y129536D01*
X221596Y129691D01*
X221467Y129718D01*
X221340Y129751D01*
X221301Y129754D01*
X221285Y129757D01*
X221263Y129756D01*
X221179Y129762D01*
X220708Y129762D01*
X220549Y129921D01*
X220512Y129950D01*
X220481Y129984D01*
X220387Y130047D01*
X220297Y130116D01*
X220255Y130135D01*
X220216Y130160D01*
X220068Y130223D01*
X219854Y130297D01*
X219649Y130721D01*
X219578Y130831D01*
X219511Y130945D01*
X219485Y130974D01*
X219476Y130988D01*
X219460Y131003D01*
X219404Y131066D01*
X219071Y131399D01*
X219071Y131625D01*
X219065Y131670D01*
X219068Y131717D01*
X219053Y131791D01*
X219049Y131856D01*
X219037Y131892D01*
X219031Y131940D01*
X219014Y131983D01*
X219005Y132028D01*
X218944Y132177D01*
X215550Y139192D01*
X215532Y139220D01*
X215520Y139251D01*
X215446Y139353D01*
X215377Y139459D01*
X215353Y139481D01*
X215333Y139508D01*
X215236Y139589D01*
X215143Y139674D01*
X215114Y139690D01*
X215088Y139711D01*
X214974Y139765D01*
X214863Y139824D01*
X214830Y139832D01*
X214801Y139846D01*
X214677Y139870D01*
X214554Y139900D01*
X214521Y139900D01*
X214488Y139906D01*
X214362Y139898D01*
X214236Y139897D01*
X214204Y139888D01*
X214171Y139886D01*
X214051Y139847D01*
X213928Y139815D01*
X213900Y139798D01*
X213868Y139788D01*
X213761Y139721D01*
X213651Y139659D01*
X213628Y139636D01*
X213600Y139618D01*
X213513Y139526D01*
X213422Y139439D01*
X213404Y139411D01*
X213382Y139387D01*
X213321Y139276D01*
X213254Y139168D01*
X213244Y139137D01*
X213228Y139108D01*
X213197Y138986D01*
X213159Y138865D01*
X213157Y138832D01*
X213149Y138800D01*
X213138Y138639D01*
X213138Y132192D01*
X211501Y130555D01*
X188562Y130555D01*
X188464Y130543D01*
X188365Y130540D01*
X188307Y130523D01*
X188247Y130515D01*
X188224Y130507D01*
X178494Y130507D01*
X178407Y130520D01*
X178311Y130545D01*
X178211Y130551D01*
X178190Y130555D01*
X178178Y130553D01*
X178150Y130555D01*
X177395Y130555D01*
X175758Y132192D01*
X175758Y159955D01*
X175741Y160087D01*
X175730Y160220D01*
X175721Y160245D01*
X175718Y160270D01*
X175669Y160394D01*
X175625Y160521D01*
X175606Y160552D01*
X175601Y160566D01*
X175588Y160583D01*
X175544Y160660D01*
X166891Y173609D01*
X166863Y173643D01*
X166840Y173681D01*
X166734Y173802D01*
X163616Y176919D01*
X163522Y176992D01*
X163433Y177071D01*
X163397Y177089D01*
X163365Y177114D01*
X163256Y177161D01*
X163150Y177215D01*
X163110Y177224D01*
X163073Y177240D01*
X162955Y177259D01*
X162839Y177285D01*
X162799Y177284D01*
X162759Y177290D01*
X162640Y177279D01*
X162522Y177275D01*
X162483Y177264D01*
X162442Y177260D01*
X162330Y177220D01*
X162216Y177187D01*
X162181Y177166D01*
X162143Y177153D01*
X162045Y177086D01*
X161942Y177025D01*
X161897Y176985D01*
X161880Y176974D01*
X161867Y176959D01*
X161821Y176919D01*
X161495Y176593D01*
X121539Y176593D01*
X121421Y176578D01*
X121302Y176570D01*
X121264Y176558D01*
X121223Y176553D01*
X121113Y176509D01*
X121000Y176472D01*
X120965Y176451D01*
X120928Y176436D01*
X120832Y176366D01*
X120731Y176302D01*
X120703Y176273D01*
X120670Y176249D01*
X120594Y176157D01*
X120513Y176071D01*
X120493Y176035D01*
X120468Y176004D01*
X120417Y175896D01*
X120359Y175792D01*
X120349Y175753D01*
X120332Y175716D01*
X120310Y175600D01*
X120280Y175484D01*
X120276Y175424D01*
X120272Y175404D01*
X120274Y175384D01*
X120270Y175324D01*
X120270Y167900D01*
X120285Y167782D01*
X120292Y167663D01*
X120305Y167625D01*
X120310Y167585D01*
X120353Y167474D01*
X120390Y167361D01*
X120412Y167327D01*
X120427Y167289D01*
X120496Y167193D01*
X120560Y167092D01*
X120590Y167064D01*
X120613Y167032D01*
X120705Y166956D01*
X120792Y166874D01*
X120827Y166855D01*
X120858Y166829D01*
X120966Y166778D01*
X121070Y166721D01*
X121110Y166711D01*
X121146Y166693D01*
X121263Y166671D01*
X121378Y166641D01*
X121438Y166637D01*
X121458Y166634D01*
X121479Y166635D01*
X121539Y166631D01*
X126369Y166631D01*
X127262Y165738D01*
X127262Y144475D01*
X126369Y143582D01*
X121072Y143582D01*
X120974Y143569D01*
X120875Y143566D01*
X120817Y143549D01*
X120757Y143542D01*
X120664Y143505D01*
X120569Y143478D01*
X120517Y143447D01*
X120461Y143425D01*
X120381Y143367D01*
X120295Y143316D01*
X120220Y143250D01*
X120204Y143238D01*
X120196Y143228D01*
X120175Y143210D01*
X118633Y141668D01*
X103617Y141668D01*
X102498Y142788D01*
X102403Y142861D01*
X102314Y142939D01*
X102278Y142958D01*
X102246Y142983D01*
X102137Y143030D01*
X102031Y143084D01*
X101992Y143093D01*
X101954Y143109D01*
X101837Y143128D01*
X101721Y143154D01*
X101680Y143152D01*
X101640Y143159D01*
X101522Y143148D01*
X101403Y143144D01*
X101364Y143133D01*
X101324Y143129D01*
X101211Y143089D01*
X101097Y143056D01*
X101063Y143035D01*
X101024Y143021D01*
X100926Y142955D01*
X100823Y142894D01*
X100778Y142854D01*
X100761Y142843D01*
X100748Y142828D01*
X100703Y142788D01*
X100376Y142462D01*
X89330Y142462D01*
X88582Y143210D01*
X88503Y143270D01*
X88431Y143338D01*
X88378Y143368D01*
X88330Y143405D01*
X88239Y143444D01*
X88153Y143492D01*
X88094Y143507D01*
X88039Y143531D01*
X87941Y143547D01*
X87845Y143571D01*
X87745Y143578D01*
X87724Y143581D01*
X87712Y143580D01*
X87684Y143582D01*
X84942Y143582D01*
X84844Y143569D01*
X84745Y143566D01*
X84686Y143549D01*
X84626Y143542D01*
X84534Y143505D01*
X84439Y143478D01*
X84387Y143447D01*
X84331Y143425D01*
X84251Y143367D01*
X84165Y143316D01*
X84090Y143250D01*
X84073Y143238D01*
X84065Y143228D01*
X84044Y143210D01*
X65167Y124332D01*
X-71418Y124332D01*
X-71516Y124320D01*
X-71615Y124317D01*
X-71673Y124300D01*
X-71733Y124292D01*
X-71825Y124256D01*
X-71920Y124228D01*
X-71972Y124198D01*
X-72029Y124175D01*
X-72109Y124117D01*
X-72194Y124067D01*
X-72270Y124001D01*
X-72286Y123989D01*
X-72294Y123979D01*
X-72315Y123961D01*
X-76336Y119940D01*
X-76396Y119862D01*
X-76464Y119790D01*
X-76493Y119737D01*
X-76530Y119689D01*
X-76570Y119598D01*
X-76618Y119511D01*
X-76633Y119453D01*
X-76657Y119397D01*
X-76672Y119299D01*
X-76697Y119203D01*
X-76703Y119103D01*
X-76707Y119083D01*
X-76705Y119071D01*
X-76707Y119043D01*
X-76707Y93165D01*
X-82654Y87218D01*
X-82714Y87140D01*
X-82782Y87068D01*
X-82812Y87015D01*
X-82849Y86967D01*
X-82888Y86876D01*
X-82936Y86789D01*
X-82951Y86731D01*
X-82975Y86675D01*
X-82991Y86577D01*
X-83015Y86481D01*
X-83022Y86381D01*
X-83025Y86361D01*
X-83024Y86349D01*
X-83026Y86321D01*
X-83026Y69850D01*
X-83022Y69821D01*
X-83024Y69792D01*
X-83002Y69664D01*
X-82986Y69534D01*
X-82975Y69508D01*
X-82970Y69479D01*
X-82917Y69360D01*
X-82869Y69239D01*
X-82852Y69215D01*
X-82840Y69189D01*
X-82747Y69057D01*
X-78783Y64102D01*
X-78697Y64019D01*
X-78617Y63930D01*
X-78584Y63908D01*
X-78555Y63881D01*
X-78452Y63821D01*
X-78351Y63756D01*
X-78314Y63743D01*
X-78279Y63723D01*
X-78164Y63691D01*
X-78051Y63652D01*
X-78011Y63649D01*
X-77972Y63639D01*
X-77853Y63637D01*
X-77734Y63627D01*
X-77694Y63634D01*
X-77654Y63633D01*
X-77538Y63661D01*
X-77420Y63682D01*
X-77384Y63698D01*
X-77345Y63707D01*
X-77239Y63763D01*
X-77130Y63812D01*
X-77099Y63837D01*
X-77064Y63856D01*
X-76975Y63936D01*
X-76882Y64011D01*
X-76858Y64043D01*
X-76828Y64069D01*
X-76762Y64169D01*
X-76691Y64265D01*
X-76665Y64318D01*
X-76653Y64335D01*
X-76647Y64354D01*
X-76620Y64409D01*
X-75416Y67316D01*
X-73129Y69603D01*
X-70141Y70841D01*
X-66907Y70841D01*
X-63920Y69603D01*
X-61633Y67316D01*
X-60396Y64329D01*
X-60396Y61095D01*
X-61633Y58107D01*
X-63254Y56486D01*
X-63339Y56376D01*
X-63428Y56269D01*
X-63437Y56251D01*
X-63449Y56235D01*
X-63505Y56107D01*
X-63564Y55982D01*
X-63567Y55962D01*
X-63575Y55943D01*
X-63597Y55805D01*
X-63623Y55669D01*
X-63622Y55649D01*
X-63625Y55629D01*
X-63612Y55490D01*
X-63604Y55352D01*
X-63597Y55333D01*
X-63596Y55312D01*
X-63548Y55181D01*
X-63506Y55049D01*
X-63495Y55032D01*
X-63488Y55013D01*
X-63410Y54898D01*
X-63335Y54781D01*
X-63321Y54767D01*
X-63309Y54750D01*
X-63205Y54658D01*
X-63104Y54563D01*
X-63086Y54553D01*
X-63071Y54539D01*
X-62947Y54476D01*
X-62825Y54409D01*
X-62806Y54404D01*
X-62788Y54395D01*
X-62652Y54364D01*
X-62517Y54330D01*
X-62489Y54328D01*
X-62477Y54325D01*
X-62457Y54326D01*
X-62357Y54319D01*
X50821Y54319D01*
X72138Y33003D01*
X72216Y32942D01*
X72288Y32874D01*
X72341Y32845D01*
X72389Y32808D01*
X72480Y32768D01*
X72567Y32721D01*
X72626Y32706D01*
X72681Y32681D01*
X72779Y32666D01*
X72875Y32641D01*
X72975Y32635D01*
X72995Y32632D01*
X73008Y32633D01*
X73036Y32631D01*
X75569Y32631D01*
X76462Y31738D01*
X76462Y27211D01*
X76468Y27161D01*
X76466Y27112D01*
X76488Y27004D01*
X76502Y26895D01*
X76520Y26849D01*
X76530Y26800D01*
X76579Y26702D01*
X76619Y26599D01*
X76648Y26559D01*
X76670Y26515D01*
X76741Y26431D01*
X76806Y26342D01*
X76844Y26310D01*
X76876Y26273D01*
X76966Y26209D01*
X77051Y26139D01*
X77096Y26118D01*
X77137Y26090D01*
X77239Y26051D01*
X77339Y26004D01*
X77387Y25994D01*
X77434Y25977D01*
X77543Y25965D01*
X77651Y25944D01*
X77700Y25947D01*
X77750Y25942D01*
X77859Y25957D01*
X77968Y25964D01*
X78016Y25979D01*
X78065Y25986D01*
X78217Y26038D01*
X78329Y26084D01*
X78355Y26099D01*
X78383Y26108D01*
X78493Y26178D01*
X78606Y26242D01*
X78627Y26263D01*
X78652Y26278D01*
X78741Y26373D01*
X78834Y26463D01*
X78849Y26488D01*
X78870Y26510D01*
X78932Y26624D01*
X79000Y26734D01*
X79009Y26763D01*
X79023Y26788D01*
X79056Y26914D01*
X79094Y27038D01*
X79095Y27068D01*
X79103Y27096D01*
X79113Y27257D01*
X79113Y31738D01*
X80006Y32631D01*
X88269Y32631D01*
X88929Y31971D01*
X89023Y31898D01*
X89113Y31819D01*
X89149Y31800D01*
X89181Y31776D01*
X89290Y31728D01*
X89396Y31674D01*
X89435Y31665D01*
X89473Y31649D01*
X89590Y31631D01*
X89706Y31605D01*
X89747Y31606D01*
X89787Y31599D01*
X89905Y31611D01*
X90024Y31614D01*
X90063Y31625D01*
X90103Y31629D01*
X90215Y31670D01*
X90330Y31703D01*
X90364Y31723D01*
X90403Y31737D01*
X90501Y31804D01*
X90604Y31864D01*
X90649Y31904D01*
X90666Y31915D01*
X90679Y31931D01*
X90724Y31971D01*
X92505Y33751D01*
X102758Y33751D01*
X103481Y33028D01*
X103575Y32955D01*
X103664Y32876D01*
X103700Y32858D01*
X103732Y32833D01*
X103841Y32786D01*
X103947Y32732D01*
X103987Y32723D01*
X104024Y32707D01*
X104141Y32688D01*
X104257Y32662D01*
X104298Y32663D01*
X104338Y32657D01*
X104456Y32668D01*
X104575Y32672D01*
X104614Y32683D01*
X104654Y32687D01*
X104767Y32727D01*
X104881Y32760D01*
X104916Y32781D01*
X104954Y32794D01*
X105052Y32861D01*
X105155Y32922D01*
X105200Y32961D01*
X105217Y32973D01*
X105230Y32988D01*
X105276Y33028D01*
X106019Y33771D01*
X107169Y33751D01*
X107176Y33752D01*
X107191Y33751D01*
X117045Y33751D01*
X117793Y33003D01*
X117872Y32942D01*
X117944Y32874D01*
X117997Y32845D01*
X118045Y32808D01*
X118136Y32768D01*
X118222Y32721D01*
X118281Y32706D01*
X118336Y32681D01*
X118434Y32666D01*
X118530Y32641D01*
X118630Y32635D01*
X118651Y32632D01*
X118663Y32633D01*
X118691Y32631D01*
X126369Y32631D01*
X127262Y31738D01*
X127262Y12039D01*
X127279Y11910D01*
X127289Y11780D01*
X127298Y11752D01*
X127302Y11723D01*
X127350Y11602D01*
X127392Y11479D01*
X127408Y11454D01*
X127419Y11427D01*
X127496Y11322D01*
X127567Y11213D01*
X127589Y11194D01*
X127606Y11170D01*
X127706Y11087D01*
X127803Y10999D01*
X127828Y10986D01*
X127851Y10967D01*
X127969Y10912D01*
X128084Y10851D01*
X128112Y10844D01*
X128139Y10832D01*
X128266Y10807D01*
X128393Y10777D01*
X128435Y10775D01*
X128451Y10772D01*
X128473Y10773D01*
X128554Y10770D01*
X174191Y11584D01*
X174275Y11596D01*
X174361Y11598D01*
X174432Y11619D01*
X174506Y11629D01*
X174585Y11662D01*
X174666Y11686D01*
X174731Y11723D01*
X174800Y11752D01*
X174867Y11803D01*
X174941Y11846D01*
X174994Y11898D01*
X175053Y11943D01*
X175107Y12010D01*
X175167Y12070D01*
X175205Y12134D01*
X175252Y12192D01*
X175287Y12269D01*
X175331Y12342D01*
X175352Y12414D01*
X175382Y12482D01*
X175397Y12566D01*
X175421Y12647D01*
X175435Y12785D01*
X175436Y12795D01*
X175436Y12799D01*
X175437Y12807D01*
X176233Y34952D01*
X176232Y34966D01*
X176234Y34998D01*
X176234Y36142D01*
X177071Y36921D01*
X177080Y36932D01*
X177104Y36953D01*
X177913Y37762D01*
X179056Y37721D01*
X179069Y37722D01*
X179101Y37720D01*
X210708Y37720D01*
X212224Y36203D01*
X212319Y36130D01*
X212408Y36051D01*
X212444Y36033D01*
X212476Y36008D01*
X212585Y35961D01*
X212691Y35907D01*
X212730Y35898D01*
X212767Y35882D01*
X212885Y35863D01*
X213001Y35837D01*
X213042Y35838D01*
X213082Y35832D01*
X213200Y35843D01*
X213319Y35847D01*
X213358Y35858D01*
X213398Y35862D01*
X213510Y35902D01*
X213625Y35935D01*
X213659Y35956D01*
X213697Y35969D01*
X213796Y36036D01*
X213899Y36097D01*
X213944Y36136D01*
X213961Y36148D01*
X213974Y36163D01*
X214019Y36203D01*
X214742Y36926D01*
X252269Y36926D01*
X252287Y36928D01*
X252305Y36926D01*
X252445Y36948D01*
X252585Y36966D01*
X252602Y36973D01*
X252620Y36975D01*
X252771Y37029D01*
X253065Y37156D01*
X253417Y37016D01*
X253418Y37016D01*
X253574Y36975D01*
X253725Y36936D01*
X253886Y36926D01*
X254265Y36926D01*
X254491Y36700D01*
X254505Y36689D01*
X254517Y36675D01*
X254630Y36592D01*
X254742Y36505D01*
X254759Y36498D01*
X254773Y36487D01*
X254919Y36418D01*
X255216Y36300D01*
X255366Y35952D01*
X255366Y35951D01*
X255449Y35811D01*
X255527Y35678D01*
X255528Y35677D01*
X255634Y35556D01*
X255902Y35289D01*
X255902Y34969D01*
X255904Y34951D01*
X255902Y34933D01*
X255924Y34793D01*
X255942Y34653D01*
X255948Y34637D01*
X255951Y34619D01*
X256005Y34467D01*
X275535Y-10893D01*
X275552Y-10922D01*
X275564Y-10955D01*
X275633Y-11059D01*
X275697Y-11167D01*
X275721Y-11191D01*
X275740Y-11220D01*
X275833Y-11303D01*
X275921Y-11392D01*
X275950Y-11410D01*
X275976Y-11433D01*
X276087Y-11491D01*
X276194Y-11555D01*
X276227Y-11564D01*
X276257Y-11580D01*
X276379Y-11609D01*
X276500Y-11644D01*
X276534Y-11645D01*
X276567Y-11653D01*
X276692Y-11651D01*
X276817Y-11655D01*
X276851Y-11647D01*
G37*
G36*
X-188900Y101201D02*
X-188900Y101201D01*
X-188882Y101200D01*
X-188700Y101221D01*
X-188517Y101239D01*
X-188500Y101245D01*
X-188482Y101247D01*
X-188308Y101304D01*
X-188132Y101358D01*
X-188116Y101366D01*
X-188099Y101372D01*
X-187939Y101462D01*
X-187778Y101549D01*
X-187764Y101561D01*
X-187749Y101569D01*
X-187610Y101690D01*
X-187469Y101807D01*
X-187458Y101821D01*
X-187444Y101833D01*
X-187332Y101978D01*
X-187216Y102121D01*
X-187208Y102137D01*
X-187197Y102151D01*
X-187115Y102316D01*
X-187031Y102478D01*
X-187026Y102495D01*
X-187018Y102511D01*
X-186970Y102689D01*
X-186920Y102865D01*
X-186918Y102883D01*
X-186913Y102900D01*
X-186886Y103231D01*
X-186886Y108038D01*
X-186875Y108060D01*
X-186870Y108077D01*
X-186862Y108093D01*
X-186812Y108270D01*
X-186760Y108446D01*
X-186758Y108464D01*
X-186754Y108481D01*
X-186740Y108664D01*
X-186724Y108847D01*
X-186726Y108865D01*
X-186724Y108883D01*
X-186747Y109065D01*
X-186767Y109247D01*
X-186772Y109264D01*
X-186775Y109282D01*
X-186833Y109456D01*
X-186888Y109631D01*
X-186897Y109647D01*
X-186903Y109664D01*
X-186994Y109823D01*
X-187083Y109984D01*
X-187095Y109997D01*
X-187104Y110013D01*
X-187318Y110266D01*
X-195615Y118562D01*
X-197549Y120497D01*
X-197549Y133159D01*
X-197551Y133181D01*
X-197550Y133203D01*
X-197571Y133381D01*
X-197589Y133560D01*
X-197596Y133581D01*
X-197598Y133603D01*
X-197654Y133773D01*
X-197707Y133945D01*
X-197718Y133964D01*
X-197725Y133985D01*
X-197814Y134141D01*
X-197899Y134299D01*
X-197913Y134316D01*
X-197924Y134335D01*
X-198042Y134471D01*
X-198157Y134608D01*
X-198174Y134622D01*
X-198189Y134639D01*
X-198331Y134748D01*
X-198471Y134860D01*
X-198490Y134871D01*
X-198508Y134884D01*
X-198803Y135036D01*
X-199714Y135413D01*
X-201137Y136836D01*
X-201907Y138694D01*
X-201907Y140706D01*
X-201137Y142564D01*
X-199714Y143987D01*
X-198803Y144364D01*
X-198784Y144375D01*
X-198762Y144382D01*
X-198606Y144470D01*
X-198448Y144554D01*
X-198431Y144569D01*
X-198412Y144580D01*
X-198276Y144697D01*
X-198138Y144811D01*
X-198124Y144828D01*
X-198107Y144843D01*
X-197997Y144984D01*
X-197884Y145124D01*
X-197874Y145143D01*
X-197860Y145161D01*
X-197780Y145322D01*
X-197697Y145480D01*
X-197691Y145501D01*
X-197681Y145521D01*
X-197634Y145695D01*
X-197584Y145866D01*
X-197582Y145889D01*
X-197576Y145910D01*
X-197549Y146241D01*
X-197549Y182716D01*
X-196210Y184055D01*
X-180821Y184055D01*
X-180810Y184046D01*
X-180798Y184033D01*
X-180654Y183919D01*
X-180512Y183803D01*
X-180497Y183794D01*
X-180483Y183783D01*
X-180319Y183700D01*
X-180157Y183614D01*
X-180140Y183609D01*
X-180124Y183601D01*
X-179947Y183552D01*
X-179771Y183499D01*
X-179753Y183498D01*
X-179736Y183493D01*
X-179553Y183479D01*
X-179370Y183463D01*
X-179352Y183465D01*
X-179334Y183463D01*
X-179152Y183486D01*
X-178970Y183506D01*
X-178952Y183512D01*
X-178935Y183514D01*
X-178761Y183572D01*
X-178586Y183628D01*
X-178570Y183636D01*
X-178553Y183642D01*
X-178394Y183734D01*
X-178233Y183823D01*
X-178220Y183834D01*
X-178204Y183843D01*
X-177951Y184058D01*
X-177160Y184849D01*
X-152247Y184849D01*
X-150907Y183510D01*
X-150907Y167238D01*
X-150945Y167161D01*
X-152118Y165988D01*
X-159832Y165988D01*
X-159849Y165986D01*
X-159867Y165988D01*
X-160049Y165967D01*
X-160232Y165948D01*
X-160249Y165943D01*
X-160267Y165941D01*
X-160441Y165884D01*
X-160617Y165830D01*
X-160633Y165822D01*
X-160650Y165816D01*
X-160810Y165726D01*
X-160971Y165638D01*
X-160985Y165627D01*
X-161000Y165618D01*
X-161140Y165498D01*
X-161280Y165381D01*
X-161292Y165367D01*
X-161305Y165355D01*
X-161418Y165210D01*
X-161533Y165067D01*
X-161541Y165051D01*
X-161552Y165037D01*
X-161634Y164872D01*
X-161718Y164710D01*
X-161723Y164693D01*
X-161731Y164677D01*
X-161779Y164498D01*
X-161830Y164323D01*
X-161831Y164305D01*
X-161836Y164288D01*
X-161863Y163957D01*
X-161863Y139143D01*
X-161861Y139126D01*
X-161862Y139108D01*
X-161841Y138926D01*
X-161823Y138743D01*
X-161818Y138726D01*
X-161816Y138708D01*
X-161759Y138533D01*
X-161705Y138358D01*
X-161696Y138342D01*
X-161691Y138325D01*
X-161600Y138165D01*
X-161513Y138004D01*
X-161502Y137990D01*
X-161493Y137975D01*
X-161373Y137835D01*
X-161255Y137695D01*
X-161241Y137683D01*
X-161230Y137670D01*
X-161085Y137557D01*
X-160941Y137442D01*
X-160926Y137434D01*
X-160912Y137423D01*
X-160747Y137341D01*
X-160584Y137257D01*
X-160567Y137252D01*
X-160551Y137244D01*
X-160373Y137196D01*
X-160197Y137145D01*
X-160179Y137144D01*
X-160162Y137139D01*
X-159832Y137112D01*
X-154625Y137112D01*
X-153731Y136219D01*
X-153731Y124300D01*
X-153729Y124274D01*
X-153731Y124247D01*
X-153709Y124073D01*
X-153692Y123900D01*
X-153684Y123874D01*
X-153680Y123847D01*
X-153625Y123682D01*
X-153573Y123515D01*
X-153561Y123491D01*
X-153552Y123466D01*
X-153465Y123314D01*
X-153382Y123161D01*
X-153365Y123140D01*
X-153351Y123117D01*
X-153137Y122864D01*
X-148304Y118031D01*
X-147320Y117047D01*
X-147306Y117036D01*
X-147294Y117022D01*
X-147151Y116909D01*
X-147008Y116792D01*
X-146993Y116784D01*
X-146979Y116773D01*
X-146815Y116689D01*
X-146653Y116603D01*
X-146636Y116598D01*
X-146620Y116590D01*
X-146443Y116541D01*
X-146267Y116489D01*
X-146249Y116487D01*
X-146232Y116482D01*
X-146049Y116469D01*
X-145866Y116452D01*
X-145848Y116454D01*
X-145830Y116453D01*
X-145648Y116476D01*
X-145466Y116496D01*
X-145449Y116501D01*
X-145431Y116503D01*
X-145257Y116562D01*
X-145082Y116617D01*
X-145066Y116626D01*
X-145049Y116632D01*
X-144890Y116723D01*
X-144729Y116812D01*
X-144716Y116824D01*
X-144700Y116832D01*
X-144447Y117047D01*
X-137376Y124118D01*
X-137359Y124139D01*
X-137339Y124157D01*
X-137232Y124295D01*
X-137121Y124430D01*
X-137108Y124454D01*
X-137092Y124475D01*
X-137014Y124632D01*
X-136932Y124786D01*
X-136925Y124811D01*
X-136913Y124835D01*
X-136867Y125005D01*
X-136817Y125172D01*
X-136815Y125198D01*
X-136808Y125224D01*
X-136781Y125555D01*
X-136781Y136219D01*
X-135888Y137112D01*
X-131701Y137112D01*
X-131683Y137114D01*
X-131665Y137113D01*
X-131483Y137134D01*
X-131300Y137152D01*
X-131283Y137157D01*
X-131265Y137159D01*
X-131091Y137216D01*
X-130915Y137270D01*
X-130900Y137279D01*
X-130883Y137284D01*
X-130722Y137375D01*
X-130561Y137462D01*
X-130548Y137473D01*
X-130532Y137482D01*
X-130393Y137602D01*
X-130252Y137720D01*
X-130241Y137734D01*
X-130227Y137745D01*
X-130115Y137890D01*
X-130000Y138033D01*
X-129991Y138049D01*
X-129980Y138063D01*
X-129898Y138228D01*
X-129814Y138391D01*
X-129809Y138408D01*
X-129801Y138424D01*
X-129753Y138602D01*
X-129703Y138778D01*
X-129701Y138795D01*
X-129697Y138813D01*
X-129670Y139143D01*
X-129670Y177263D01*
X-129672Y177290D01*
X-129670Y177317D01*
X-129692Y177491D01*
X-129709Y177664D01*
X-129717Y177689D01*
X-129721Y177716D01*
X-129776Y177882D01*
X-129828Y178049D01*
X-129840Y178072D01*
X-129849Y178098D01*
X-129936Y178249D01*
X-130019Y178403D01*
X-130036Y178423D01*
X-130050Y178447D01*
X-130264Y178700D01*
X-144231Y192667D01*
X-144252Y192684D01*
X-144270Y192704D01*
X-144408Y192811D01*
X-144543Y192922D01*
X-144567Y192934D01*
X-144588Y192951D01*
X-144745Y193029D01*
X-144899Y193110D01*
X-144924Y193118D01*
X-144948Y193130D01*
X-145118Y193175D01*
X-145285Y193225D01*
X-145311Y193227D01*
X-145337Y193234D01*
X-145668Y193262D01*
X-153807Y193262D01*
X-159163Y198618D01*
X-159163Y206194D01*
X-153807Y211551D01*
X-146231Y211551D01*
X-140874Y206194D01*
X-140874Y198055D01*
X-140871Y198029D01*
X-140873Y198002D01*
X-140851Y197828D01*
X-140834Y197655D01*
X-140826Y197629D01*
X-140823Y197602D01*
X-140767Y197437D01*
X-140716Y197270D01*
X-140703Y197246D01*
X-140695Y197221D01*
X-140607Y197069D01*
X-140524Y196916D01*
X-140507Y196895D01*
X-140494Y196872D01*
X-140279Y196619D01*
X-126312Y182652D01*
X-124080Y180420D01*
X-124080Y136249D01*
X-124077Y136222D01*
X-124079Y136195D01*
X-124057Y136022D01*
X-124040Y135848D01*
X-124032Y135823D01*
X-124029Y135796D01*
X-123973Y135630D01*
X-123922Y135463D01*
X-123909Y135440D01*
X-123901Y135414D01*
X-123813Y135263D01*
X-123730Y135109D01*
X-123713Y135089D01*
X-123700Y135065D01*
X-123485Y134812D01*
X-120349Y131676D01*
X-120328Y131659D01*
X-120310Y131639D01*
X-120172Y131532D01*
X-120037Y131421D01*
X-120013Y131408D01*
X-119992Y131392D01*
X-119835Y131314D01*
X-119681Y131232D01*
X-119656Y131225D01*
X-119632Y131213D01*
X-119462Y131167D01*
X-119295Y131117D01*
X-119269Y131115D01*
X-119243Y131108D01*
X-118912Y131081D01*
X-113411Y131081D01*
X-113393Y131083D01*
X-113375Y131081D01*
X-113193Y131103D01*
X-113010Y131121D01*
X-112993Y131126D01*
X-112976Y131128D01*
X-112801Y131185D01*
X-112625Y131239D01*
X-112610Y131248D01*
X-112593Y131253D01*
X-112433Y131343D01*
X-112271Y131431D01*
X-112258Y131442D01*
X-112242Y131451D01*
X-112103Y131571D01*
X-111962Y131689D01*
X-111951Y131702D01*
X-111937Y131714D01*
X-111825Y131859D01*
X-111710Y132002D01*
X-111702Y132018D01*
X-111691Y132032D01*
X-111609Y132197D01*
X-111524Y132360D01*
X-111519Y132377D01*
X-111511Y132393D01*
X-111464Y132571D01*
X-111413Y132747D01*
X-111411Y132764D01*
X-111407Y132782D01*
X-111380Y133112D01*
X-111380Y225625D01*
X-111382Y225651D01*
X-111380Y225678D01*
X-111402Y225852D01*
X-111420Y226025D01*
X-111427Y226051D01*
X-111431Y226077D01*
X-111486Y226243D01*
X-111538Y226410D01*
X-111551Y226434D01*
X-111559Y226459D01*
X-111646Y226611D01*
X-111730Y226764D01*
X-111747Y226785D01*
X-111760Y226808D01*
X-111975Y227061D01*
X-112237Y227323D01*
X-113007Y229182D01*
X-113007Y231193D01*
X-112237Y233052D01*
X-111081Y234208D01*
X-111029Y234272D01*
X-110969Y234329D01*
X-110901Y234427D01*
X-110826Y234520D01*
X-110787Y234592D01*
X-110740Y234660D01*
X-110693Y234770D01*
X-110637Y234875D01*
X-110613Y234954D01*
X-110581Y235030D01*
X-110556Y235147D01*
X-110522Y235261D01*
X-110515Y235343D01*
X-110498Y235423D01*
X-110497Y235543D01*
X-110486Y235662D01*
X-110495Y235744D01*
X-110494Y235826D01*
X-110516Y235944D01*
X-110529Y236063D01*
X-110554Y236141D01*
X-110569Y236222D01*
X-110614Y236332D01*
X-110651Y236446D01*
X-110690Y236518D01*
X-110721Y236594D01*
X-110787Y236694D01*
X-110845Y236799D01*
X-110899Y236861D01*
X-110944Y236930D01*
X-111029Y237015D01*
X-111106Y237106D01*
X-111170Y237157D01*
X-111228Y237215D01*
X-111354Y237302D01*
X-111422Y237355D01*
X-111458Y237374D01*
X-111501Y237404D01*
X-133528Y250120D01*
X-133108Y250729D01*
X-133097Y250756D01*
X-133078Y250778D01*
X-133058Y250846D01*
X-133030Y250912D01*
X-133030Y250941D01*
X-133021Y250968D01*
X-133029Y251040D01*
X-133029Y251111D01*
X-133040Y251137D01*
X-133044Y251166D01*
X-133079Y251228D01*
X-133106Y251294D01*
X-133127Y251314D01*
X-133141Y251339D01*
X-133218Y251403D01*
X-133249Y251433D01*
X-133259Y251437D01*
X-133270Y251445D01*
X-149770Y260945D01*
X-149842Y260969D01*
X-149913Y261000D01*
X-149936Y261001D01*
X-149958Y261008D01*
X-150035Y261002D01*
X-150112Y261003D01*
X-150136Y260994D01*
X-150157Y260992D01*
X-150196Y260972D01*
X-150268Y260945D01*
X-166768Y251445D01*
X-166790Y251426D01*
X-166816Y251414D01*
X-166864Y251361D01*
X-166917Y251314D01*
X-166930Y251288D01*
X-166949Y251266D01*
X-166972Y251199D01*
X-167003Y251134D01*
X-167004Y251105D01*
X-167014Y251078D01*
X-167009Y251007D01*
X-167012Y250936D01*
X-167002Y250909D01*
X-167000Y250880D01*
X-166958Y250789D01*
X-166943Y250749D01*
X-166935Y250741D01*
X-166930Y250729D01*
X-166510Y250120D01*
X-197904Y231995D01*
X-198020Y231912D01*
X-198141Y231835D01*
X-198184Y231795D01*
X-198231Y231760D01*
X-198329Y231656D01*
X-198432Y231557D01*
X-198465Y231509D01*
X-198505Y231466D01*
X-198580Y231344D01*
X-198662Y231226D01*
X-198685Y231173D01*
X-198716Y231123D01*
X-198766Y230988D01*
X-198822Y230857D01*
X-198835Y230800D01*
X-198855Y230745D01*
X-198877Y230603D01*
X-198907Y230463D01*
X-198908Y230405D01*
X-198917Y230347D01*
X-198910Y230204D01*
X-198912Y230061D01*
X-198901Y230003D01*
X-198899Y229945D01*
X-198864Y229806D01*
X-198838Y229665D01*
X-198814Y229603D01*
X-198802Y229554D01*
X-198766Y229479D01*
X-198719Y229355D01*
X-198622Y229155D01*
X-198582Y229089D01*
X-198551Y229020D01*
X-198478Y228918D01*
X-198413Y228811D01*
X-198361Y228755D01*
X-198316Y228693D01*
X-198224Y228607D01*
X-198221Y228603D01*
X-198023Y227961D01*
X-197997Y227899D01*
X-197912Y227678D01*
X-197625Y227081D01*
X-197622Y226996D01*
X-197626Y226871D01*
X-197614Y226795D01*
X-197612Y226719D01*
X-197576Y226560D01*
X-197563Y226473D01*
X-197550Y226440D01*
X-197540Y226395D01*
X-197137Y225087D01*
X-197107Y225016D01*
X-197087Y224943D01*
X-197030Y224831D01*
X-196981Y224716D01*
X-196938Y224653D01*
X-196903Y224584D01*
X-196825Y224487D01*
X-196822Y224482D01*
X-196722Y223817D01*
X-196706Y223752D01*
X-196676Y223620D01*
X-196676Y223613D01*
X-196673Y223606D01*
X-196655Y223521D01*
X-196460Y222888D01*
X-196469Y222804D01*
X-196493Y222680D01*
X-196492Y222604D01*
X-196501Y222528D01*
X-196490Y222365D01*
X-196489Y222278D01*
X-196482Y222243D01*
X-196478Y222197D01*
X-196275Y220844D01*
X-196256Y220769D01*
X-196247Y220693D01*
X-196207Y220575D01*
X-196176Y220453D01*
X-196143Y220384D01*
X-196118Y220312D01*
X-196056Y220203D01*
X-196054Y220198D01*
X-196054Y219526D01*
X-196047Y219459D01*
X-196031Y219223D01*
X-195933Y218568D01*
X-195955Y218486D01*
X-195997Y218368D01*
X-196007Y218292D01*
X-196027Y218218D01*
X-196041Y218056D01*
X-196053Y217969D01*
X-196051Y217933D01*
X-196054Y217887D01*
X-196055Y216519D01*
X-196047Y216443D01*
X-196049Y216366D01*
X-196027Y216243D01*
X-196015Y216118D01*
X-195993Y216045D01*
X-195979Y215970D01*
X-195934Y215853D01*
X-195932Y215848D01*
X-196033Y215183D01*
X-196036Y215116D01*
X-196055Y214880D01*
X-196056Y214218D01*
X-196090Y214140D01*
X-196149Y214029D01*
X-196170Y213956D01*
X-196201Y213886D01*
X-196239Y213727D01*
X-196263Y213644D01*
X-196267Y213608D01*
X-196277Y213563D01*
X-196482Y212210D01*
X-196486Y212134D01*
X-196499Y212058D01*
X-196496Y211933D01*
X-196502Y211808D01*
X-196491Y211732D01*
X-196489Y211656D01*
X-196461Y211533D01*
X-196460Y211528D01*
X-196659Y210886D01*
X-196672Y210820D01*
X-196726Y210590D01*
X-196825Y209935D01*
X-196871Y209863D01*
X-196945Y209762D01*
X-196978Y209693D01*
X-197019Y209628D01*
X-197079Y209477D01*
X-197117Y209398D01*
X-197125Y209363D01*
X-197142Y209320D01*
X-197546Y208013D01*
X-197561Y207938D01*
X-197586Y207865D01*
X-197601Y207741D01*
X-197626Y207618D01*
X-197626Y207541D01*
X-197636Y207466D01*
X-197627Y207341D01*
X-197627Y207335D01*
X-197919Y206729D01*
X-197942Y206666D01*
X-198030Y206447D01*
X-198225Y205814D01*
X-198281Y205750D01*
X-198369Y205661D01*
X-198412Y205597D01*
X-198462Y205540D01*
X-198544Y205399D01*
X-198593Y205326D01*
X-198607Y205293D01*
X-198630Y205253D01*
X-199224Y204021D01*
X-199250Y203949D01*
X-199285Y203881D01*
X-199319Y203760D01*
X-199362Y203643D01*
X-199374Y203567D01*
X-199394Y203493D01*
X-199404Y203368D01*
X-199405Y203363D01*
X-199784Y202807D01*
X-199816Y202748D01*
X-199935Y202545D01*
X-200223Y201948D01*
X-200288Y201892D01*
X-200389Y201818D01*
X-200440Y201762D01*
X-200498Y201712D01*
X-200601Y201585D01*
X-200660Y201520D01*
X-200678Y201490D01*
X-200707Y201454D01*
X-201478Y200324D01*
X-201515Y200257D01*
X-201560Y200194D01*
X-201611Y200080D01*
X-201671Y199970D01*
X-201694Y199897D01*
X-201725Y199827D01*
X-201753Y199705D01*
X-201755Y199700D01*
X-202212Y199207D01*
X-202253Y199153D01*
X-202402Y198970D01*
X-202775Y198423D01*
X-202848Y198378D01*
X-202958Y198319D01*
X-203018Y198271D01*
X-203082Y198230D01*
X-203203Y198120D01*
X-203271Y198065D01*
X-203293Y198037D01*
X-203327Y198006D01*
X-204258Y197004D01*
X-204304Y196943D01*
X-204358Y196888D01*
X-204426Y196783D01*
X-204502Y196683D01*
X-204535Y196614D01*
X-204576Y196550D01*
X-204622Y196433D01*
X-204625Y196428D01*
X-205151Y196009D01*
X-205199Y195962D01*
X-205373Y195803D01*
X-205824Y195318D01*
X-205902Y195284D01*
X-206020Y195242D01*
X-206086Y195203D01*
X-206157Y195173D01*
X-206292Y195082D01*
X-206367Y195038D01*
X-206394Y195014D01*
X-206432Y194988D01*
X-207502Y194135D01*
X-207557Y194082D01*
X-207618Y194035D01*
X-207701Y193942D01*
X-207791Y193854D01*
X-207834Y193791D01*
X-207885Y193734D01*
X-207947Y193625D01*
X-207950Y193621D01*
X-208533Y193285D01*
X-208585Y193248D01*
X-208618Y193230D01*
X-208645Y193207D01*
X-208784Y193114D01*
X-209301Y192701D01*
X-209384Y192679D01*
X-209507Y192656D01*
X-209578Y192627D01*
X-209652Y192608D01*
X-209800Y192538D01*
X-209881Y192505D01*
X-209911Y192486D01*
X-209952Y192466D01*
X-211137Y191782D01*
X-211199Y191738D01*
X-211267Y191701D01*
X-211363Y191620D01*
X-211464Y191547D01*
X-211517Y191492D01*
X-211575Y191442D01*
X-211653Y191345D01*
X-211657Y191340D01*
X-212283Y191095D01*
X-212343Y191064D01*
X-212557Y190963D01*
X-213130Y190632D01*
X-213215Y190623D01*
X-213341Y190619D01*
X-213415Y190601D01*
X-213491Y190592D01*
X-213647Y190545D01*
X-213732Y190525D01*
X-213765Y190510D01*
X-213809Y190497D01*
X-215083Y189997D01*
X-215151Y189963D01*
X-215223Y189936D01*
X-215329Y189871D01*
X-215441Y189814D01*
X-215501Y189766D01*
X-215566Y189726D01*
X-215658Y189641D01*
X-215662Y189638D01*
X-216318Y189489D01*
X-216382Y189467D01*
X-216608Y189399D01*
X-217225Y189157D01*
X-217310Y189161D01*
X-217434Y189175D01*
X-217511Y189169D01*
X-217587Y189172D01*
X-217749Y189148D01*
X-217836Y189141D01*
X-217870Y189131D01*
X-217916Y189124D01*
X-219250Y188820D01*
X-219322Y188796D01*
X-219397Y188781D01*
X-219513Y188732D01*
X-219631Y188692D01*
X-219698Y188654D01*
X-219768Y188625D01*
X-219872Y188554D01*
X-219877Y188551D01*
X-220547Y188501D01*
X-220614Y188490D01*
X-220847Y188456D01*
X-221493Y188309D01*
X-221577Y188325D01*
X-221698Y188358D01*
X-221774Y188363D01*
X-221849Y188377D01*
X-222012Y188378D01*
X-222100Y188384D01*
X-222135Y188379D01*
X-222181Y188380D01*
X-223546Y188278D01*
X-223621Y188264D01*
X-223698Y188261D01*
X-223819Y188230D01*
X-223942Y188208D01*
X-224014Y188180D01*
X-224088Y188161D01*
X-224201Y188107D01*
X-224206Y188105D01*
X-224876Y188156D01*
X-224944Y188154D01*
X-225180Y188156D01*
X-225840Y188106D01*
X-225921Y188135D01*
X-226036Y188185D01*
X-226110Y188201D01*
X-226183Y188227D01*
X-226344Y188252D01*
X-226429Y188271D01*
X-226465Y188271D01*
X-226510Y188279D01*
X-227875Y188381D01*
X-227951Y188380D01*
X-228027Y188387D01*
X-228152Y188375D01*
X-228277Y188372D01*
X-228352Y188355D01*
X-228428Y188347D01*
X-228548Y188310D01*
X-228553Y188309D01*
X-229209Y188459D01*
X-229275Y188467D01*
X-229509Y188504D01*
X-230169Y188554D01*
X-230244Y188594D01*
X-230350Y188661D01*
X-230422Y188688D01*
X-230490Y188724D01*
X-230645Y188773D01*
X-230727Y188804D01*
X-230762Y188810D01*
X-230806Y188824D01*
X-231005Y188870D01*
X-231049Y188875D01*
X-231092Y188887D01*
X-231248Y188900D01*
X-231404Y188920D01*
X-231449Y188917D01*
X-231493Y188920D01*
X-231649Y188902D01*
X-231806Y188891D01*
X-231849Y188879D01*
X-231893Y188873D01*
X-232042Y188825D01*
X-232194Y188783D01*
X-232233Y188762D01*
X-232276Y188749D01*
X-232413Y188671D01*
X-232553Y188600D01*
X-232588Y188573D01*
X-232626Y188551D01*
X-232745Y188448D01*
X-232869Y188351D01*
X-232897Y188317D01*
X-232931Y188288D01*
X-233027Y188163D01*
X-233129Y188044D01*
X-233151Y188005D01*
X-233178Y187969D01*
X-233248Y187829D01*
X-233324Y187691D01*
X-233337Y187649D01*
X-233357Y187609D01*
X-233398Y187457D01*
X-233445Y187307D01*
X-233450Y187263D01*
X-233462Y187220D01*
X-233483Y186959D01*
X-233489Y186907D01*
X-233488Y186899D01*
X-233489Y186889D01*
X-233489Y129104D01*
X-233486Y129078D01*
X-233488Y129051D01*
X-233466Y128877D01*
X-233449Y128704D01*
X-233441Y128678D01*
X-233438Y128651D01*
X-233382Y128486D01*
X-233331Y128319D01*
X-233318Y128295D01*
X-233309Y128270D01*
X-233222Y128118D01*
X-233139Y127965D01*
X-233122Y127944D01*
X-233109Y127921D01*
X-232894Y127668D01*
X-207020Y101794D01*
X-207000Y101777D01*
X-206982Y101757D01*
X-206844Y101650D01*
X-206709Y101539D01*
X-206685Y101527D01*
X-206664Y101510D01*
X-206507Y101432D01*
X-206353Y101351D01*
X-206328Y101343D01*
X-206304Y101331D01*
X-206134Y101286D01*
X-205967Y101236D01*
X-205941Y101234D01*
X-205915Y101227D01*
X-205584Y101199D01*
X-188918Y101199D01*
X-188900Y101201D01*
G37*
G36*
X177866Y-68727D02*
X177866Y-68727D01*
X177972Y-68726D01*
X178023Y-68713D01*
X178076Y-68708D01*
X178176Y-68672D01*
X178279Y-68644D01*
X178355Y-68607D01*
X178376Y-68600D01*
X178389Y-68591D01*
X178424Y-68574D01*
X180041Y-67661D01*
X180045Y-67659D01*
X180052Y-67655D01*
X273792Y-13536D01*
X273828Y-13509D01*
X273868Y-13488D01*
X273954Y-13413D01*
X274045Y-13344D01*
X274073Y-13309D01*
X274107Y-13279D01*
X274172Y-13184D01*
X274243Y-13095D01*
X274261Y-13053D01*
X274286Y-13016D01*
X274325Y-12909D01*
X274372Y-12804D01*
X274380Y-12760D01*
X274395Y-12717D01*
X274406Y-12604D01*
X274425Y-12491D01*
X274422Y-12446D01*
X274426Y-12401D01*
X274408Y-12288D01*
X274399Y-12174D01*
X274384Y-12131D01*
X274377Y-12087D01*
X274323Y-11935D01*
X254273Y34633D01*
X254262Y34651D01*
X254256Y34671D01*
X254182Y34788D01*
X254111Y34907D01*
X254097Y34922D01*
X254086Y34939D01*
X253985Y35034D01*
X253887Y35133D01*
X253869Y35143D01*
X253854Y35157D01*
X253733Y35224D01*
X253614Y35295D01*
X253594Y35301D01*
X253576Y35311D01*
X253442Y35345D01*
X253308Y35384D01*
X253288Y35385D01*
X253268Y35390D01*
X253107Y35401D01*
X215900Y35401D01*
X215782Y35386D01*
X215663Y35378D01*
X215625Y35366D01*
X215584Y35361D01*
X215474Y35317D01*
X215361Y35280D01*
X215326Y35259D01*
X215289Y35244D01*
X215193Y35174D01*
X215092Y35110D01*
X215064Y35081D01*
X215031Y35057D01*
X214956Y34965D01*
X214874Y34878D01*
X214854Y34843D01*
X214829Y34812D01*
X214778Y34704D01*
X214720Y34600D01*
X214710Y34561D01*
X214693Y34524D01*
X214671Y34407D01*
X214641Y34292D01*
X214637Y34232D01*
X214633Y34212D01*
X214635Y34191D01*
X214631Y34131D01*
X214631Y15875D01*
X214643Y15777D01*
X214646Y15678D01*
X214663Y15620D01*
X214671Y15559D01*
X214707Y15467D01*
X214735Y15372D01*
X214765Y15320D01*
X214788Y15264D01*
X214846Y15184D01*
X214896Y15098D01*
X214962Y15023D01*
X214974Y15006D01*
X214984Y14999D01*
X215003Y14978D01*
X226923Y3057D01*
X230970Y-7639D01*
X230789Y-9939D01*
X230411Y-11514D01*
X230402Y-11595D01*
X230383Y-11674D01*
X230384Y-11753D01*
X230376Y-11830D01*
X230387Y-11911D01*
X230389Y-11992D01*
X230409Y-12068D01*
X230420Y-12145D01*
X230452Y-12220D01*
X230473Y-12299D01*
X230540Y-12434D01*
X230542Y-12439D01*
X230543Y-12440D01*
X230545Y-12443D01*
X230661Y-12645D01*
X231247Y-17155D01*
X230062Y-21545D01*
X227287Y-25148D01*
X223345Y-27415D01*
X218836Y-28001D01*
X214445Y-26816D01*
X210842Y-24042D01*
X210803Y-23974D01*
X210739Y-23888D01*
X210682Y-23798D01*
X210643Y-23762D01*
X210611Y-23720D01*
X210528Y-23653D01*
X210450Y-23580D01*
X210404Y-23555D01*
X210363Y-23522D01*
X210265Y-23478D01*
X210172Y-23427D01*
X210120Y-23414D01*
X210072Y-23392D01*
X209967Y-23374D01*
X209864Y-23347D01*
X209780Y-23342D01*
X209759Y-23338D01*
X209743Y-23340D01*
X209703Y-23337D01*
X179543Y-23337D01*
X172919Y-11295D01*
X172850Y-11199D01*
X172786Y-11098D01*
X172756Y-11070D01*
X172732Y-11037D01*
X172641Y-10962D01*
X172554Y-10880D01*
X172519Y-10861D01*
X172487Y-10835D01*
X172380Y-10784D01*
X172276Y-10727D01*
X172236Y-10717D01*
X172200Y-10699D01*
X172083Y-10677D01*
X171968Y-10647D01*
X171907Y-10643D01*
X171887Y-10640D01*
X171867Y-10641D01*
X171807Y-10637D01*
X108476Y-10637D01*
X102869Y-5031D01*
X102869Y30956D01*
X102854Y31074D01*
X102847Y31193D01*
X102834Y31232D01*
X102829Y31272D01*
X102786Y31383D01*
X102749Y31496D01*
X102727Y31530D01*
X102712Y31567D01*
X102643Y31664D01*
X102579Y31764D01*
X102549Y31792D01*
X102526Y31825D01*
X102434Y31901D01*
X102347Y31982D01*
X102312Y32002D01*
X102281Y32028D01*
X102173Y32078D01*
X102069Y32136D01*
X102029Y32146D01*
X101993Y32163D01*
X101876Y32186D01*
X101761Y32215D01*
X101701Y32219D01*
X101681Y32223D01*
X101660Y32222D01*
X101600Y32226D01*
X93663Y32226D01*
X93564Y32213D01*
X93465Y32210D01*
X93407Y32193D01*
X93347Y32186D01*
X93255Y32149D01*
X93160Y32122D01*
X93108Y32091D01*
X93051Y32069D01*
X92971Y32011D01*
X92886Y31960D01*
X92810Y31894D01*
X92794Y31882D01*
X92786Y31872D01*
X92765Y31854D01*
X89534Y28623D01*
X89473Y28544D01*
X89405Y28472D01*
X89376Y28419D01*
X89339Y28371D01*
X89300Y28280D01*
X89252Y28194D01*
X89237Y28135D01*
X89213Y28080D01*
X89197Y27982D01*
X89172Y27886D01*
X89166Y27786D01*
X89163Y27766D01*
X89164Y27753D01*
X89162Y27725D01*
X89162Y10475D01*
X89082Y10394D01*
X89021Y10316D01*
X88953Y10244D01*
X88924Y10191D01*
X88887Y10143D01*
X88848Y10052D01*
X88800Y9966D01*
X88785Y9907D01*
X88761Y9851D01*
X88745Y9753D01*
X88720Y9658D01*
X88714Y9558D01*
X88711Y9537D01*
X88712Y9525D01*
X88710Y9497D01*
X88710Y8283D01*
X88723Y8184D01*
X88726Y8086D01*
X88742Y8027D01*
X88750Y7967D01*
X88787Y7875D01*
X88814Y7780D01*
X88845Y7728D01*
X88867Y7672D01*
X88925Y7592D01*
X88976Y7506D01*
X89042Y7431D01*
X89054Y7414D01*
X89063Y7406D01*
X89082Y7385D01*
X89248Y7219D01*
X89248Y-4044D01*
X88796Y-4496D01*
X88736Y-4574D01*
X88668Y-4646D01*
X88638Y-4699D01*
X88601Y-4747D01*
X88562Y-4838D01*
X88514Y-4925D01*
X88499Y-4983D01*
X88475Y-5039D01*
X88459Y-5137D01*
X88435Y-5233D01*
X88428Y-5333D01*
X88425Y-5353D01*
X88426Y-5366D01*
X88425Y-5394D01*
X88425Y-19050D01*
X88437Y-19148D01*
X88440Y-19247D01*
X88457Y-19305D01*
X88464Y-19366D01*
X88501Y-19458D01*
X88528Y-19553D01*
X88559Y-19605D01*
X88581Y-19661D01*
X88640Y-19741D01*
X88690Y-19827D01*
X88733Y-19876D01*
X88734Y-19877D01*
X88736Y-19879D01*
X88756Y-19902D01*
X88768Y-19919D01*
X88778Y-19926D01*
X88796Y-19948D01*
X94256Y-25407D01*
X94264Y-25413D01*
X94269Y-25420D01*
X94388Y-25510D01*
X94508Y-25602D01*
X94516Y-25606D01*
X94523Y-25612D01*
X94668Y-25683D01*
X102566Y-28954D01*
X102575Y-28956D01*
X102583Y-28961D01*
X102728Y-28998D01*
X102872Y-29038D01*
X102882Y-29038D01*
X102891Y-29040D01*
X103051Y-29051D01*
X147906Y-29051D01*
X162243Y-43388D01*
X162243Y-53181D01*
X162256Y-53279D01*
X162259Y-53378D01*
X162276Y-53437D01*
X162283Y-53497D01*
X162320Y-53589D01*
X162347Y-53684D01*
X162378Y-53736D01*
X162400Y-53792D01*
X162458Y-53873D01*
X162509Y-53958D01*
X162575Y-54033D01*
X162587Y-54050D01*
X162596Y-54058D01*
X162615Y-54079D01*
X176903Y-68366D01*
X176986Y-68431D01*
X177065Y-68503D01*
X177112Y-68528D01*
X177154Y-68561D01*
X177251Y-68603D01*
X177345Y-68654D01*
X177397Y-68666D01*
X177446Y-68688D01*
X177551Y-68704D01*
X177654Y-68730D01*
X177707Y-68729D01*
X177760Y-68737D01*
X177866Y-68727D01*
G37*
G36*
X254383Y131289D02*
X254383Y131289D01*
X254399Y131287D01*
X254540Y131309D01*
X254682Y131327D01*
X254697Y131333D01*
X254714Y131335D01*
X254845Y131391D01*
X254978Y131444D01*
X254991Y131454D01*
X255006Y131460D01*
X255120Y131547D01*
X255235Y131631D01*
X255246Y131644D01*
X255259Y131654D01*
X255347Y131766D01*
X255438Y131876D01*
X255445Y131891D01*
X255455Y131904D01*
X255513Y132035D01*
X255573Y132163D01*
X255576Y132180D01*
X255583Y132195D01*
X255606Y132337D01*
X255633Y132476D01*
X255632Y132492D01*
X255635Y132509D01*
X255631Y132670D01*
X252029Y172799D01*
X252001Y172928D01*
X251978Y173058D01*
X251967Y173083D01*
X251961Y173110D01*
X251902Y173228D01*
X251848Y173348D01*
X251831Y173370D01*
X251818Y173394D01*
X251731Y173493D01*
X251649Y173596D01*
X251620Y173622D01*
X251609Y173633D01*
X251591Y173646D01*
X251527Y173701D01*
X231117Y189008D01*
X232051Y190609D01*
X242050Y204893D01*
X242057Y204907D01*
X242067Y204918D01*
X242132Y205048D01*
X242199Y205175D01*
X242202Y205189D01*
X242209Y205203D01*
X242239Y205344D01*
X242272Y205484D01*
X242272Y205499D01*
X242275Y205514D01*
X242269Y205658D01*
X242267Y205802D01*
X242263Y205817D01*
X242262Y205832D01*
X242221Y205970D01*
X242182Y206109D01*
X242175Y206122D01*
X242171Y206136D01*
X242096Y206260D01*
X242024Y206385D01*
X242014Y206396D01*
X242006Y206408D01*
X241903Y206509D01*
X241803Y206613D01*
X241790Y206621D01*
X241779Y206631D01*
X241645Y206720D01*
X168812Y248770D01*
X168749Y248796D01*
X168690Y248831D01*
X168603Y248858D01*
X168518Y248893D01*
X168451Y248903D01*
X168386Y248922D01*
X168294Y248926D01*
X168204Y248939D01*
X168136Y248932D01*
X168068Y248935D01*
X167978Y248916D01*
X167887Y248906D01*
X167824Y248883D01*
X167757Y248868D01*
X167675Y248827D01*
X167589Y248796D01*
X167533Y248757D01*
X167472Y248726D01*
X167403Y248666D01*
X167328Y248614D01*
X167283Y248563D01*
X167232Y248518D01*
X167132Y248392D01*
X167010Y248214D01*
X166938Y248076D01*
X166865Y247937D01*
X166865Y247934D01*
X166863Y247931D01*
X166828Y247778D01*
X166816Y247728D01*
X166384Y247278D01*
X166371Y247261D01*
X166354Y247246D01*
X166255Y247120D01*
X165904Y246612D01*
X165853Y246596D01*
X165850Y246594D01*
X165847Y246593D01*
X165713Y246510D01*
X165582Y246429D01*
X165579Y246426D01*
X165577Y246425D01*
X165573Y246420D01*
X165463Y246320D01*
X164812Y245642D01*
X164717Y245514D01*
X164625Y245392D01*
X164624Y245389D01*
X164622Y245387D01*
X164562Y245241D01*
X164543Y245193D01*
X164044Y244819D01*
X164029Y244804D01*
X164010Y244792D01*
X163891Y244683D01*
X163464Y244238D01*
X163411Y244230D01*
X163408Y244229D01*
X163404Y244229D01*
X163260Y244168D01*
X163117Y244109D01*
X163113Y244107D01*
X163111Y244106D01*
X163106Y244102D01*
X162982Y244021D01*
X162230Y243456D01*
X162117Y243346D01*
X162006Y243239D01*
X162004Y243237D01*
X162002Y243234D01*
X161921Y243101D01*
X161893Y243056D01*
X161341Y242766D01*
X161323Y242754D01*
X161302Y242746D01*
X161168Y242657D01*
X160674Y242286D01*
X160621Y242287D01*
X160617Y242287D01*
X160614Y242287D01*
X160464Y242251D01*
X160311Y242215D01*
X160307Y242213D01*
X160305Y242212D01*
X160300Y242210D01*
X160164Y242149D01*
X159331Y241712D01*
X159203Y241623D01*
X159075Y241534D01*
X159073Y241532D01*
X159070Y241530D01*
X158969Y241412D01*
X158934Y241372D01*
X158343Y241175D01*
X158323Y241165D01*
X158302Y241160D01*
X158155Y241094D01*
X157608Y240807D01*
X157555Y240817D01*
X157552Y240817D01*
X157549Y240817D01*
X157392Y240806D01*
X157238Y240795D01*
X157234Y240794D01*
X157231Y240794D01*
X157226Y240792D01*
X157082Y240754D01*
X156190Y240456D01*
X156049Y240388D01*
X155909Y240322D01*
X155906Y240320D01*
X155904Y240318D01*
X155781Y240215D01*
X155743Y240184D01*
X155128Y240084D01*
X155107Y240078D01*
X155085Y240076D01*
X154930Y240035D01*
X154344Y239840D01*
X154293Y239857D01*
X154290Y239858D01*
X154287Y239859D01*
X154129Y239873D01*
X153977Y239887D01*
X153972Y239886D01*
X153970Y239886D01*
X153964Y239885D01*
X153816Y239871D01*
X152888Y239720D01*
X152738Y239676D01*
X152589Y239633D01*
X152586Y239631D01*
X152583Y239630D01*
X152451Y239551D01*
X152404Y239523D01*
X151780Y239523D01*
X151759Y239521D01*
X151737Y239523D01*
X151577Y239507D01*
X150967Y239408D01*
X150920Y239434D01*
X150917Y239434D01*
X150914Y239436D01*
X150760Y239475D01*
X150612Y239513D01*
X150608Y239513D01*
X150606Y239514D01*
X150600Y239514D01*
X150451Y239523D01*
X149511Y239523D01*
X149357Y239504D01*
X149202Y239485D01*
X149199Y239484D01*
X149196Y239483D01*
X149054Y239427D01*
X148940Y239383D01*
X148890Y239385D01*
X148848Y239375D01*
X148805Y239374D01*
X148693Y239341D01*
X148580Y239316D01*
X148541Y239297D01*
X148499Y239285D01*
X148356Y239212D01*
X89839Y204441D01*
X89762Y204381D01*
X89679Y204328D01*
X89637Y204283D01*
X89588Y204245D01*
X89529Y204168D01*
X89461Y204097D01*
X89432Y204042D01*
X89394Y203994D01*
X89355Y203904D01*
X89308Y203818D01*
X89293Y203758D01*
X89268Y203702D01*
X89253Y203605D01*
X89228Y203510D01*
X89222Y203407D01*
X89219Y203387D01*
X89220Y203376D01*
X89218Y203350D01*
X89218Y145256D01*
X89233Y145138D01*
X89241Y145019D01*
X89253Y144981D01*
X89258Y144941D01*
X89302Y144830D01*
X89339Y144717D01*
X89360Y144683D01*
X89375Y144645D01*
X89445Y144549D01*
X89509Y144448D01*
X89538Y144420D01*
X89562Y144388D01*
X89654Y144312D01*
X89740Y144230D01*
X89776Y144211D01*
X89807Y144185D01*
X89915Y144134D01*
X90019Y144077D01*
X90058Y144067D01*
X90095Y144049D01*
X90211Y144027D01*
X90327Y143997D01*
X90387Y143993D01*
X90407Y143990D01*
X90427Y143991D01*
X90488Y143987D01*
X99219Y143987D01*
X99337Y144002D01*
X99456Y144009D01*
X99494Y144022D01*
X99534Y144027D01*
X99645Y144071D01*
X99758Y144107D01*
X99792Y144129D01*
X99830Y144144D01*
X99926Y144214D01*
X100027Y144278D01*
X100055Y144307D01*
X100087Y144331D01*
X100163Y144422D01*
X100245Y144509D01*
X100264Y144545D01*
X100290Y144576D01*
X100341Y144683D01*
X100398Y144788D01*
X100408Y144827D01*
X100426Y144863D01*
X100448Y144980D01*
X100478Y145096D01*
X100482Y145156D01*
X100485Y145176D01*
X100484Y145196D01*
X100488Y145256D01*
X100488Y186006D01*
X110857Y196375D01*
X138113Y196375D01*
X138211Y196387D01*
X138310Y196390D01*
X138368Y196407D01*
X138428Y196414D01*
X138520Y196451D01*
X138615Y196478D01*
X138667Y196509D01*
X138724Y196531D01*
X138804Y196590D01*
X138889Y196640D01*
X138965Y196706D01*
X138981Y196718D01*
X138989Y196728D01*
X139010Y196746D01*
X168497Y226233D01*
X168536Y226216D01*
X168575Y226210D01*
X168611Y226196D01*
X168731Y226184D01*
X168850Y226164D01*
X168889Y226168D01*
X168928Y226164D01*
X169047Y226182D01*
X169166Y226192D01*
X169203Y226205D01*
X169242Y226211D01*
X169353Y226258D01*
X169466Y226298D01*
X169499Y226319D01*
X169535Y226335D01*
X169669Y226424D01*
X170672Y227191D01*
X175066Y228360D01*
X179574Y227759D01*
X183508Y225478D01*
X186270Y221866D01*
X187439Y217471D01*
X187225Y215862D01*
X187224Y215826D01*
X187217Y215790D01*
X187223Y215667D01*
X187222Y215544D01*
X187231Y215509D01*
X187233Y215472D01*
X187270Y215355D01*
X187299Y215236D01*
X187317Y215204D01*
X187327Y215169D01*
X187392Y215064D01*
X187450Y214956D01*
X187475Y214929D01*
X187494Y214898D01*
X187583Y214813D01*
X187666Y214722D01*
X187697Y214703D01*
X187723Y214677D01*
X187858Y214589D01*
X205106Y204841D01*
X205106Y190837D01*
X198479Y179241D01*
X198458Y179188D01*
X198428Y179140D01*
X198397Y179042D01*
X198357Y178947D01*
X198349Y178891D01*
X198332Y178837D01*
X198327Y178734D01*
X198312Y178632D01*
X198318Y178576D01*
X198315Y178519D01*
X198336Y178418D01*
X198347Y178316D01*
X198367Y178263D01*
X198378Y178207D01*
X198439Y178058D01*
X220723Y132003D01*
X220806Y131876D01*
X220887Y131748D01*
X220893Y131743D01*
X220897Y131737D01*
X221008Y131635D01*
X221119Y131530D01*
X221125Y131527D01*
X221131Y131522D01*
X221265Y131450D01*
X221397Y131377D01*
X221405Y131375D01*
X221411Y131371D01*
X221560Y131335D01*
X221705Y131297D01*
X221715Y131297D01*
X221720Y131295D01*
X221732Y131296D01*
X221866Y131287D01*
X254366Y131287D01*
X254383Y131289D01*
G37*
G36*
X-150003Y-86377D02*
X-150003Y-86377D01*
X-149926Y-86378D01*
X-149901Y-86369D01*
X-149881Y-86367D01*
X-149841Y-86347D01*
X-149770Y-86320D01*
X-133270Y-76820D01*
X-133248Y-76801D01*
X-133222Y-76789D01*
X-133188Y-76751D01*
X-133185Y-76749D01*
X-133182Y-76745D01*
X-133174Y-76736D01*
X-133121Y-76689D01*
X-133108Y-76663D01*
X-133089Y-76641D01*
X-133065Y-76574D01*
X-133035Y-76509D01*
X-133033Y-76480D01*
X-133024Y-76453D01*
X-133029Y-76382D01*
X-133025Y-76311D01*
X-133036Y-76284D01*
X-133038Y-76255D01*
X-133080Y-76164D01*
X-133095Y-76124D01*
X-133102Y-76116D01*
X-133108Y-76104D01*
X-133528Y-75495D01*
X-104667Y-58833D01*
X-101521Y-57017D01*
X-101464Y-56973D01*
X-101402Y-56939D01*
X-101338Y-56878D01*
X-101268Y-56825D01*
X-101224Y-56768D01*
X-101172Y-56719D01*
X-101125Y-56644D01*
X-101070Y-56575D01*
X-101041Y-56510D01*
X-101003Y-56449D01*
X-100977Y-56365D01*
X-100941Y-56285D01*
X-100929Y-56214D01*
X-100907Y-56146D01*
X-100903Y-56058D01*
X-100888Y-55971D01*
X-100894Y-55900D01*
X-100890Y-55828D01*
X-100907Y-55742D01*
X-100914Y-55654D01*
X-100938Y-55587D01*
X-100952Y-55517D01*
X-101012Y-55367D01*
X-101524Y-54304D01*
X-101526Y-54300D01*
X-101528Y-54296D01*
X-101612Y-54168D01*
X-101697Y-54037D01*
X-101700Y-54034D01*
X-101702Y-54030D01*
X-101815Y-53927D01*
X-101840Y-53905D01*
X-102015Y-53336D01*
X-102032Y-53281D01*
X-102038Y-53268D01*
X-102041Y-53254D01*
X-102101Y-53105D01*
X-102126Y-53053D01*
X-102346Y-52596D01*
X-102379Y-52526D01*
X-102372Y-52492D01*
X-102372Y-52488D01*
X-102371Y-52484D01*
X-102378Y-52330D01*
X-102385Y-52174D01*
X-102386Y-52170D01*
X-102386Y-52166D01*
X-102424Y-52009D01*
X-102497Y-51770D01*
X-102900Y-50462D01*
X-102974Y-50222D01*
X-102976Y-50219D01*
X-102977Y-50215D01*
X-103042Y-50072D01*
X-103105Y-49933D01*
X-103108Y-49930D01*
X-103109Y-49926D01*
X-103207Y-49805D01*
X-103227Y-49781D01*
X-103324Y-49136D01*
X-103328Y-49122D01*
X-103328Y-49107D01*
X-103366Y-48951D01*
X-103383Y-48896D01*
X-103454Y-48665D01*
X-103555Y-48337D01*
X-103543Y-48304D01*
X-103542Y-48300D01*
X-103541Y-48296D01*
X-103529Y-48181D01*
X-103512Y-48092D01*
X-103514Y-48049D01*
X-103508Y-47988D01*
X-103508Y-47984D01*
X-103508Y-47980D01*
X-103522Y-47820D01*
X-103800Y-45971D01*
X-103801Y-45967D01*
X-103801Y-45963D01*
X-103843Y-45817D01*
X-103886Y-45665D01*
X-103888Y-45661D01*
X-103889Y-45657D01*
X-103966Y-45526D01*
X-103984Y-45496D01*
X-103984Y-44844D01*
X-103985Y-44829D01*
X-103984Y-44815D01*
X-103998Y-44655D01*
X-104093Y-44020D01*
X-104076Y-43989D01*
X-104075Y-43985D01*
X-104073Y-43982D01*
X-104034Y-43832D01*
X-103995Y-43682D01*
X-103995Y-43678D01*
X-103993Y-43674D01*
X-103983Y-43513D01*
X-103983Y-41643D01*
X-103983Y-41639D01*
X-103983Y-41635D01*
X-104000Y-41501D01*
X-104005Y-41428D01*
X-104013Y-41404D01*
X-104022Y-41328D01*
X-104024Y-41324D01*
X-104024Y-41320D01*
X-104082Y-41176D01*
X-104094Y-41147D01*
X-104005Y-40558D01*
X-103996Y-40502D01*
X-103996Y-40487D01*
X-103992Y-40473D01*
X-103982Y-40312D01*
X-103982Y-39671D01*
X-103961Y-39643D01*
X-103959Y-39639D01*
X-103956Y-39636D01*
X-103896Y-39495D01*
X-103834Y-39351D01*
X-103833Y-39347D01*
X-103832Y-39343D01*
X-103798Y-39186D01*
X-103760Y-38938D01*
X-103556Y-37585D01*
X-103556Y-37584D01*
X-103518Y-37337D01*
X-103518Y-37333D01*
X-103517Y-37329D01*
X-103514Y-37174D01*
X-103511Y-37019D01*
X-103512Y-37015D01*
X-103512Y-37011D01*
X-103547Y-36860D01*
X-103554Y-36830D01*
X-103362Y-36206D01*
X-103359Y-36192D01*
X-103354Y-36178D01*
X-103320Y-36021D01*
X-103224Y-35386D01*
X-103198Y-35362D01*
X-103196Y-35359D01*
X-103193Y-35356D01*
X-103112Y-35224D01*
X-103030Y-35093D01*
X-103029Y-35089D01*
X-103026Y-35085D01*
X-102969Y-34935D01*
X-102418Y-33148D01*
X-102417Y-33144D01*
X-102415Y-33140D01*
X-102390Y-32990D01*
X-102382Y-32949D01*
X-102366Y-32861D01*
X-102366Y-32855D01*
X-102362Y-32835D01*
X-102363Y-32831D01*
X-102362Y-32827D01*
X-102375Y-32676D01*
X-102378Y-32641D01*
X-102094Y-32053D01*
X-102090Y-32039D01*
X-102082Y-32027D01*
X-102036Y-31906D01*
X-102035Y-31904D01*
X-102035Y-31903D01*
X-102025Y-31876D01*
X-101835Y-31263D01*
X-101807Y-31243D01*
X-101804Y-31240D01*
X-101801Y-31237D01*
X-101698Y-31116D01*
X-101600Y-31001D01*
X-101598Y-30998D01*
X-101595Y-30995D01*
X-101516Y-30854D01*
X-101408Y-30628D01*
X-100822Y-29414D01*
X-100705Y-29170D01*
X-100703Y-29166D01*
X-100701Y-29162D01*
X-100652Y-29013D01*
X-100604Y-28868D01*
X-100603Y-28864D01*
X-100602Y-28860D01*
X-100592Y-28703D01*
X-100589Y-28674D01*
X-100254Y-28182D01*
X-100222Y-28135D01*
X-100215Y-28122D01*
X-100206Y-28111D01*
X-100127Y-27971D01*
X-100102Y-27920D01*
X-99848Y-27393D01*
X-99817Y-27377D01*
X-99814Y-27374D01*
X-99810Y-27373D01*
X-99693Y-27270D01*
X-99576Y-27169D01*
X-99574Y-27166D01*
X-99571Y-27163D01*
X-99472Y-27036D01*
X-99140Y-26550D01*
X-98860Y-26140D01*
X-98418Y-25491D01*
X-98416Y-25488D01*
X-98413Y-25485D01*
X-98343Y-25346D01*
X-98273Y-25208D01*
X-98272Y-25204D01*
X-98270Y-25201D01*
X-98237Y-25049D01*
X-98230Y-25019D01*
X-97786Y-24540D01*
X-97778Y-24529D01*
X-97767Y-24519D01*
X-97668Y-24392D01*
X-97306Y-23862D01*
X-97273Y-23851D01*
X-97269Y-23849D01*
X-97265Y-23848D01*
X-97133Y-23763D01*
X-97004Y-23681D01*
X-97001Y-23678D01*
X-96998Y-23676D01*
X-96881Y-23565D01*
X-95609Y-22195D01*
X-95606Y-22192D01*
X-95603Y-22189D01*
X-95523Y-22076D01*
X-95491Y-22038D01*
X-95483Y-22020D01*
X-95423Y-21937D01*
X-95422Y-21933D01*
X-95419Y-21929D01*
X-95363Y-21782D01*
X-95353Y-21755D01*
X-94842Y-21349D01*
X-94832Y-21338D01*
X-94820Y-21331D01*
X-94703Y-21220D01*
X-94664Y-21178D01*
X-94266Y-20749D01*
X-94232Y-20744D01*
X-94228Y-20742D01*
X-94224Y-20741D01*
X-94080Y-20677D01*
X-93940Y-20616D01*
X-93937Y-20613D01*
X-93934Y-20611D01*
X-93801Y-20519D01*
X-92339Y-19354D01*
X-92336Y-19351D01*
X-92333Y-19349D01*
X-92226Y-19237D01*
X-92117Y-19126D01*
X-92115Y-19123D01*
X-92112Y-19120D01*
X-92035Y-18984D01*
X-92021Y-18957D01*
X-91455Y-18631D01*
X-91444Y-18622D01*
X-91430Y-18617D01*
X-91298Y-18524D01*
X-90797Y-18124D01*
X-90761Y-18124D01*
X-90757Y-18123D01*
X-90753Y-18123D01*
X-90606Y-18082D01*
X-90454Y-18041D01*
X-90451Y-18039D01*
X-90447Y-18038D01*
X-90303Y-17966D01*
X-88683Y-17032D01*
X-88680Y-17029D01*
X-88676Y-17028D01*
X-88552Y-16933D01*
X-88430Y-16840D01*
X-88427Y-16837D01*
X-88424Y-16834D01*
X-88328Y-16712D01*
X-88309Y-16687D01*
X-87754Y-16470D01*
X-87701Y-16449D01*
X-87688Y-16442D01*
X-87675Y-16438D01*
X-87530Y-16367D01*
X-87481Y-16339D01*
X-87481Y-16338D01*
X-86974Y-16046D01*
X-86939Y-16051D01*
X-86935Y-16050D01*
X-86931Y-16051D01*
X-86778Y-16032D01*
X-86624Y-16015D01*
X-86620Y-16013D01*
X-86616Y-16013D01*
X-86462Y-15963D01*
X-86229Y-15872D01*
X-84955Y-15372D01*
X-84722Y-15281D01*
X-84718Y-15279D01*
X-84714Y-15278D01*
X-84576Y-15202D01*
X-84442Y-15129D01*
X-84439Y-15126D01*
X-84436Y-15124D01*
X-84323Y-15018D01*
X-84300Y-14996D01*
X-83925Y-14910D01*
X-83744Y-14869D01*
X-83664Y-14851D01*
X-83650Y-14846D01*
X-83636Y-14844D01*
X-83483Y-14795D01*
X-83430Y-14774D01*
X-83429Y-14774D01*
X-82857Y-14550D01*
X-82728Y-14499D01*
X-82722Y-14500D01*
X-82662Y-14486D01*
X-82600Y-14482D01*
X-82507Y-14452D01*
X-82411Y-14431D01*
X-82356Y-14403D01*
X-82297Y-14384D01*
X-82215Y-14332D01*
X-82128Y-14288D01*
X-82081Y-14247D01*
X-82029Y-14214D01*
X-81962Y-14143D01*
X-81888Y-14079D01*
X-81853Y-14028D01*
X-81811Y-13983D01*
X-81763Y-13897D01*
X-81708Y-13816D01*
X-81687Y-13758D01*
X-81657Y-13704D01*
X-81633Y-13610D01*
X-81599Y-13518D01*
X-81593Y-13456D01*
X-81578Y-13396D01*
X-81567Y-13235D01*
X-81567Y10055D01*
X-81580Y10153D01*
X-81583Y10252D01*
X-81600Y10311D01*
X-81607Y10371D01*
X-81644Y10463D01*
X-81671Y10558D01*
X-81702Y10610D01*
X-81724Y10666D01*
X-81782Y10746D01*
X-81833Y10832D01*
X-81899Y10907D01*
X-81911Y10924D01*
X-81921Y10932D01*
X-81939Y10953D01*
X-98488Y27501D01*
X-114826Y43840D01*
X-114833Y43846D01*
X-114839Y43852D01*
X-114989Y43973D01*
X-115138Y44095D01*
X-115146Y44099D01*
X-115153Y44105D01*
X-115324Y44194D01*
X-115494Y44284D01*
X-115502Y44286D01*
X-115510Y44290D01*
X-115695Y44344D01*
X-115880Y44398D01*
X-115888Y44399D01*
X-115897Y44402D01*
X-116088Y44417D01*
X-116281Y44435D01*
X-116289Y44434D01*
X-116298Y44435D01*
X-116487Y44412D01*
X-116681Y44391D01*
X-116689Y44389D01*
X-116698Y44388D01*
X-116880Y44328D01*
X-117065Y44270D01*
X-117072Y44266D01*
X-117081Y44263D01*
X-117249Y44168D01*
X-117417Y44075D01*
X-117424Y44069D01*
X-117432Y44065D01*
X-117577Y43939D01*
X-117724Y43815D01*
X-117730Y43808D01*
X-117736Y43802D01*
X-117854Y43650D01*
X-117974Y43499D01*
X-117978Y43491D01*
X-117983Y43484D01*
X-118069Y43312D01*
X-118156Y43140D01*
X-118158Y43131D01*
X-118162Y43123D01*
X-118212Y42937D01*
X-118264Y42752D01*
X-118265Y42743D01*
X-118267Y42734D01*
X-118294Y42404D01*
X-118294Y41019D01*
X-119187Y40126D01*
X-123820Y40126D01*
X-123838Y40124D01*
X-123855Y40126D01*
X-124038Y40104D01*
X-124220Y40086D01*
X-124238Y40081D01*
X-124255Y40079D01*
X-124430Y40022D01*
X-124605Y39968D01*
X-124621Y39960D01*
X-124638Y39954D01*
X-124798Y39864D01*
X-124959Y39776D01*
X-124973Y39765D01*
X-124989Y39756D01*
X-125128Y39636D01*
X-125269Y39519D01*
X-125280Y39505D01*
X-125293Y39493D01*
X-125406Y39348D01*
X-125521Y39205D01*
X-125529Y39189D01*
X-125540Y39175D01*
X-125622Y39010D01*
X-125707Y38847D01*
X-125711Y38830D01*
X-125719Y38814D01*
X-125767Y38636D01*
X-125818Y38461D01*
X-125819Y38443D01*
X-125824Y38426D01*
X-125851Y38095D01*
X-125851Y33462D01*
X-126744Y32569D01*
X-132239Y32569D01*
X-132257Y32567D01*
X-132274Y32569D01*
X-132457Y32547D01*
X-132639Y32529D01*
X-132656Y32524D01*
X-132674Y32522D01*
X-132849Y32465D01*
X-133024Y32411D01*
X-133040Y32402D01*
X-133057Y32397D01*
X-133217Y32307D01*
X-133378Y32219D01*
X-133392Y32208D01*
X-133408Y32199D01*
X-133547Y32079D01*
X-133688Y31961D01*
X-133699Y31948D01*
X-133712Y31936D01*
X-133825Y31791D01*
X-133940Y31648D01*
X-133948Y31632D01*
X-133959Y31618D01*
X-134041Y31453D01*
X-134125Y31290D01*
X-134130Y31273D01*
X-134138Y31257D01*
X-134186Y31079D01*
X-134237Y30903D01*
X-134238Y30886D01*
X-134243Y30868D01*
X-134270Y30538D01*
X-134270Y22771D01*
X-134267Y22744D01*
X-134269Y22718D01*
X-134247Y22544D01*
X-134230Y22370D01*
X-134222Y22345D01*
X-134219Y22318D01*
X-134163Y22153D01*
X-134112Y21985D01*
X-134099Y21962D01*
X-134091Y21937D01*
X-134003Y21785D01*
X-133920Y21631D01*
X-133903Y21611D01*
X-133890Y21588D01*
X-133675Y21335D01*
X-132097Y19757D01*
X-132097Y-12169D01*
X-136462Y-16534D01*
X-151005Y-16534D01*
X-151031Y-16537D01*
X-151058Y-16535D01*
X-151232Y-16557D01*
X-151405Y-16574D01*
X-151431Y-16582D01*
X-151457Y-16585D01*
X-151623Y-16641D01*
X-151790Y-16692D01*
X-151814Y-16705D01*
X-151839Y-16714D01*
X-151991Y-16801D01*
X-152144Y-16884D01*
X-152165Y-16901D01*
X-152188Y-16914D01*
X-152441Y-17129D01*
X-188907Y-53595D01*
X-188924Y-53616D01*
X-188944Y-53633D01*
X-189051Y-53771D01*
X-189162Y-53907D01*
X-189175Y-53930D01*
X-189191Y-53952D01*
X-189269Y-54108D01*
X-189351Y-54262D01*
X-189358Y-54288D01*
X-189370Y-54312D01*
X-189416Y-54481D01*
X-189466Y-54648D01*
X-189468Y-54675D01*
X-189475Y-54701D01*
X-189502Y-55032D01*
X-189502Y-55941D01*
X-190272Y-57800D01*
X-190921Y-58449D01*
X-190973Y-58513D01*
X-191032Y-58570D01*
X-191101Y-58668D01*
X-191176Y-58761D01*
X-191215Y-58833D01*
X-191262Y-58901D01*
X-191309Y-59011D01*
X-191365Y-59116D01*
X-191388Y-59195D01*
X-191421Y-59271D01*
X-191446Y-59388D01*
X-191480Y-59502D01*
X-191487Y-59584D01*
X-191504Y-59664D01*
X-191505Y-59784D01*
X-191516Y-59903D01*
X-191507Y-59985D01*
X-191508Y-60067D01*
X-191486Y-60184D01*
X-191473Y-60303D01*
X-191448Y-60382D01*
X-191432Y-60463D01*
X-191387Y-60573D01*
X-191351Y-60687D01*
X-191311Y-60759D01*
X-191280Y-60835D01*
X-191214Y-60935D01*
X-191156Y-61040D01*
X-191103Y-61102D01*
X-191058Y-61171D01*
X-190973Y-61256D01*
X-190896Y-61347D01*
X-190831Y-61398D01*
X-190773Y-61456D01*
X-190648Y-61543D01*
X-190580Y-61596D01*
X-190544Y-61615D01*
X-190500Y-61645D01*
X-166510Y-75495D01*
X-166930Y-76104D01*
X-166941Y-76131D01*
X-166959Y-76153D01*
X-166980Y-76221D01*
X-167008Y-76287D01*
X-167008Y-76316D01*
X-167016Y-76343D01*
X-167008Y-76415D01*
X-167008Y-76486D01*
X-166997Y-76512D01*
X-166994Y-76541D01*
X-166959Y-76603D01*
X-166931Y-76669D01*
X-166910Y-76689D01*
X-166896Y-76714D01*
X-166833Y-76766D01*
X-166829Y-76772D01*
X-166820Y-76777D01*
X-166819Y-76778D01*
X-166789Y-76808D01*
X-166778Y-76812D01*
X-166768Y-76820D01*
X-150268Y-86320D01*
X-150195Y-86344D01*
X-150124Y-86375D01*
X-150101Y-86376D01*
X-150079Y-86383D01*
X-150003Y-86377D01*
G37*
G36*
X-279096Y60201D02*
X-279096Y60201D01*
X-279070Y60199D01*
X-278896Y60221D01*
X-278722Y60239D01*
X-278697Y60246D01*
X-278670Y60250D01*
X-278504Y60306D01*
X-278337Y60357D01*
X-278314Y60370D01*
X-278288Y60378D01*
X-278137Y60465D01*
X-277983Y60549D01*
X-277963Y60566D01*
X-277940Y60579D01*
X-277687Y60794D01*
X-259232Y79249D01*
X-241602Y79249D01*
X-229139Y66785D01*
X-229118Y66768D01*
X-229100Y66748D01*
X-228962Y66641D01*
X-228827Y66530D01*
X-228803Y66518D01*
X-228782Y66501D01*
X-228625Y66423D01*
X-228471Y66342D01*
X-228446Y66334D01*
X-228422Y66322D01*
X-228252Y66277D01*
X-228085Y66227D01*
X-228059Y66225D01*
X-228033Y66218D01*
X-227702Y66190D01*
X-196475Y66190D01*
X-196457Y66192D01*
X-196439Y66191D01*
X-196257Y66212D01*
X-196074Y66230D01*
X-196057Y66236D01*
X-196039Y66238D01*
X-195865Y66295D01*
X-195689Y66349D01*
X-195674Y66357D01*
X-195657Y66363D01*
X-195496Y66453D01*
X-195335Y66540D01*
X-195322Y66552D01*
X-195306Y66560D01*
X-195167Y66681D01*
X-195026Y66798D01*
X-195015Y66812D01*
X-195001Y66824D01*
X-194889Y66969D01*
X-194774Y67112D01*
X-194765Y67128D01*
X-194754Y67142D01*
X-194672Y67307D01*
X-194588Y67469D01*
X-194583Y67486D01*
X-194575Y67502D01*
X-194527Y67680D01*
X-194477Y67856D01*
X-194475Y67874D01*
X-194471Y67891D01*
X-194443Y68222D01*
X-194443Y83322D01*
X-194445Y83340D01*
X-194444Y83357D01*
X-194465Y83540D01*
X-194483Y83722D01*
X-194489Y83739D01*
X-194491Y83757D01*
X-194548Y83932D01*
X-194602Y84107D01*
X-194610Y84123D01*
X-194616Y84140D01*
X-194706Y84300D01*
X-194793Y84461D01*
X-194805Y84475D01*
X-194813Y84491D01*
X-194934Y84630D01*
X-195051Y84771D01*
X-195065Y84782D01*
X-195077Y84795D01*
X-195222Y84908D01*
X-195365Y85023D01*
X-195381Y85031D01*
X-195395Y85042D01*
X-195559Y85124D01*
X-195722Y85208D01*
X-195739Y85213D01*
X-195755Y85221D01*
X-195933Y85269D01*
X-196109Y85320D01*
X-196127Y85321D01*
X-196144Y85326D01*
X-196475Y85353D01*
X-199234Y85353D01*
X-199256Y85351D01*
X-199278Y85353D01*
X-199456Y85331D01*
X-199634Y85313D01*
X-199655Y85307D01*
X-199678Y85304D01*
X-199848Y85247D01*
X-200019Y85195D01*
X-200039Y85184D01*
X-200060Y85177D01*
X-200216Y85088D01*
X-200373Y85003D01*
X-200390Y84989D01*
X-200410Y84978D01*
X-200545Y84860D01*
X-200682Y84745D01*
X-200696Y84728D01*
X-200713Y84713D01*
X-200823Y84571D01*
X-200935Y84432D01*
X-200945Y84412D01*
X-200959Y84394D01*
X-201110Y84099D01*
X-201294Y83654D01*
X-202717Y82232D01*
X-204575Y81462D01*
X-206587Y81462D01*
X-208446Y82232D01*
X-209868Y83654D01*
X-210638Y85513D01*
X-210638Y87611D01*
X-210618Y87678D01*
X-210616Y87691D01*
X-210613Y87704D01*
X-210597Y87892D01*
X-210580Y88078D01*
X-210581Y88092D01*
X-210580Y88105D01*
X-210602Y88293D01*
X-210621Y88479D01*
X-210625Y88492D01*
X-210627Y88505D01*
X-210685Y88685D01*
X-210741Y88863D01*
X-210747Y88875D01*
X-210752Y88888D01*
X-210844Y89052D01*
X-210934Y89217D01*
X-210943Y89227D01*
X-210949Y89239D01*
X-211072Y89381D01*
X-211193Y89525D01*
X-211204Y89533D01*
X-211213Y89543D01*
X-211361Y89658D01*
X-211508Y89776D01*
X-211520Y89782D01*
X-211531Y89790D01*
X-211700Y89874D01*
X-211866Y89960D01*
X-211879Y89963D01*
X-211891Y89969D01*
X-212075Y90019D01*
X-212254Y90069D01*
X-212267Y90070D01*
X-212280Y90074D01*
X-212446Y90087D01*
X-245714Y123356D01*
X-245714Y185344D01*
X-245717Y185371D01*
X-245715Y185397D01*
X-245737Y185571D01*
X-245754Y185745D01*
X-245762Y185770D01*
X-245765Y185797D01*
X-245821Y185962D01*
X-245872Y186130D01*
X-245885Y186153D01*
X-245893Y186178D01*
X-245981Y186330D01*
X-246064Y186484D01*
X-246081Y186504D01*
X-246094Y186527D01*
X-246309Y186780D01*
X-249933Y190405D01*
X-249954Y190422D01*
X-249971Y190442D01*
X-250109Y190549D01*
X-250245Y190660D01*
X-250268Y190672D01*
X-250289Y190689D01*
X-250446Y190767D01*
X-250600Y190848D01*
X-250626Y190856D01*
X-250650Y190868D01*
X-250819Y190913D01*
X-250986Y190963D01*
X-251013Y190965D01*
X-251039Y190972D01*
X-251369Y191000D01*
X-252279Y191000D01*
X-254138Y191769D01*
X-255560Y193192D01*
X-256370Y195148D01*
X-256413Y195286D01*
X-256448Y195428D01*
X-256472Y195478D01*
X-256488Y195531D01*
X-256558Y195660D01*
X-256620Y195792D01*
X-256653Y195837D01*
X-256680Y195885D01*
X-256773Y195997D01*
X-256861Y196115D01*
X-256902Y196152D01*
X-256938Y196195D01*
X-257051Y196286D01*
X-257160Y196384D01*
X-257208Y196412D01*
X-257251Y196447D01*
X-257381Y196514D01*
X-257507Y196589D01*
X-257559Y196607D01*
X-257609Y196632D01*
X-257749Y196673D01*
X-257887Y196721D01*
X-257942Y196729D01*
X-257996Y196744D01*
X-258141Y196756D01*
X-258286Y196776D01*
X-258341Y196772D01*
X-258397Y196777D01*
X-258542Y196760D01*
X-258688Y196751D01*
X-258742Y196736D01*
X-258797Y196730D01*
X-258936Y196685D01*
X-259077Y196647D01*
X-259134Y196620D01*
X-259179Y196605D01*
X-259253Y196564D01*
X-259377Y196505D01*
X-282770Y182999D01*
X-283086Y183666D01*
X-283103Y183689D01*
X-283114Y183716D01*
X-283163Y183768D01*
X-283205Y183825D01*
X-283230Y183840D01*
X-283250Y183861D01*
X-283316Y183889D01*
X-283377Y183925D01*
X-283406Y183929D01*
X-283433Y183940D01*
X-283504Y183941D01*
X-283575Y183950D01*
X-283603Y183942D01*
X-283631Y183942D01*
X-283725Y183907D01*
X-283766Y183896D01*
X-283775Y183889D01*
X-283787Y183884D01*
X-300265Y174345D01*
X-300322Y174293D01*
X-300384Y174248D01*
X-300396Y174228D01*
X-300413Y174213D01*
X-300446Y174143D01*
X-300486Y174077D01*
X-300490Y174052D01*
X-300499Y174033D01*
X-300501Y173989D01*
X-300514Y173913D01*
X-300536Y154874D01*
X-300531Y154845D01*
X-300533Y154816D01*
X-300511Y154749D01*
X-300497Y154679D01*
X-300481Y154655D01*
X-300472Y154627D01*
X-300425Y154573D01*
X-300385Y154515D01*
X-300360Y154499D01*
X-300341Y154477D01*
X-300277Y154446D01*
X-300217Y154407D01*
X-300189Y154403D01*
X-300163Y154390D01*
X-300063Y154381D01*
X-300021Y154374D01*
X-300010Y154377D01*
X-299997Y154375D01*
X-299264Y154435D01*
X-299264Y118171D01*
X-299250Y118028D01*
X-299244Y117885D01*
X-299230Y117828D01*
X-299224Y117770D01*
X-299182Y117633D01*
X-299148Y117494D01*
X-299123Y117441D01*
X-299106Y117386D01*
X-299038Y117259D01*
X-298977Y117130D01*
X-298942Y117083D01*
X-298914Y117032D01*
X-298822Y116921D01*
X-298737Y116806D01*
X-298694Y116767D01*
X-298656Y116722D01*
X-298545Y116632D01*
X-298438Y116536D01*
X-298388Y116506D01*
X-298343Y116470D01*
X-298215Y116404D01*
X-298092Y116331D01*
X-298037Y116311D01*
X-297985Y116284D01*
X-297848Y116245D01*
X-297712Y116197D01*
X-297646Y116187D01*
X-297598Y116173D01*
X-297516Y116166D01*
X-297384Y116145D01*
X-297174Y116130D01*
X-297098Y116132D01*
X-297022Y116124D01*
X-296897Y116137D01*
X-296772Y116140D01*
X-296697Y116157D01*
X-296621Y116164D01*
X-296501Y116201D01*
X-296496Y116202D01*
X-295840Y116053D01*
X-295774Y116044D01*
X-295540Y116007D01*
X-294880Y115958D01*
X-294804Y115918D01*
X-294698Y115851D01*
X-294627Y115824D01*
X-294559Y115788D01*
X-294404Y115739D01*
X-294322Y115708D01*
X-294287Y115702D01*
X-294243Y115688D01*
X-292911Y115384D01*
X-292835Y115374D01*
X-292761Y115356D01*
X-292636Y115349D01*
X-292512Y115334D01*
X-292435Y115339D01*
X-292359Y115335D01*
X-292235Y115354D01*
X-292230Y115354D01*
X-291604Y115109D01*
X-291539Y115090D01*
X-291314Y115019D01*
X-290668Y114872D01*
X-290599Y114821D01*
X-290504Y114739D01*
X-290438Y114702D01*
X-290376Y114656D01*
X-290230Y114584D01*
X-290154Y114541D01*
X-290120Y114530D01*
X-290078Y114510D01*
X-288807Y114011D01*
X-288733Y113990D01*
X-288662Y113961D01*
X-288540Y113936D01*
X-288419Y113902D01*
X-288343Y113896D01*
X-288268Y113881D01*
X-288142Y113881D01*
X-288137Y113880D01*
X-287555Y113544D01*
X-287493Y113516D01*
X-287281Y113412D01*
X-286665Y113171D01*
X-286605Y113110D01*
X-286523Y113015D01*
X-286463Y112968D01*
X-286409Y112914D01*
X-286274Y112821D01*
X-286206Y112767D01*
X-286174Y112751D01*
X-286136Y112725D01*
X-284953Y112042D01*
X-284883Y112010D01*
X-284817Y111970D01*
X-284700Y111927D01*
X-284586Y111876D01*
X-284511Y111859D01*
X-284439Y111833D01*
X-284315Y111814D01*
X-284310Y111813D01*
X-283784Y111394D01*
X-283728Y111357D01*
X-283534Y111222D01*
X-282960Y110891D01*
X-282909Y110823D01*
X-282843Y110716D01*
X-282790Y110661D01*
X-282745Y110599D01*
X-282626Y110487D01*
X-282566Y110424D01*
X-282537Y110403D01*
X-282503Y110372D01*
X-281435Y109520D01*
X-281371Y109479D01*
X-281312Y109429D01*
X-281202Y109369D01*
X-281097Y109301D01*
X-281026Y109273D01*
X-280959Y109237D01*
X-280839Y109200D01*
X-280834Y109198D01*
X-280377Y108705D01*
X-280326Y108660D01*
X-280154Y108498D01*
X-279636Y108086D01*
X-279597Y108010D01*
X-279547Y107895D01*
X-279503Y107832D01*
X-279467Y107765D01*
X-279366Y107636D01*
X-279316Y107565D01*
X-279291Y107540D01*
X-279262Y107504D01*
X-278333Y106502D01*
X-278275Y106452D01*
X-278225Y106394D01*
X-278125Y106319D01*
X-278031Y106236D01*
X-277965Y106197D01*
X-277904Y106151D01*
X-277791Y106097D01*
X-277786Y106094D01*
X-277408Y105538D01*
X-277364Y105487D01*
X-277218Y105301D01*
X-276768Y104816D01*
X-276740Y104735D01*
X-276708Y104614D01*
X-276674Y104545D01*
X-276648Y104473D01*
X-276568Y104331D01*
X-276529Y104253D01*
X-276507Y104224D01*
X-276485Y104185D01*
X-275715Y103056D01*
X-275707Y103046D01*
X-275701Y103036D01*
X-275660Y102988D01*
X-275624Y102933D01*
X-275537Y102843D01*
X-275456Y102747D01*
X-275442Y102736D01*
X-275438Y102731D01*
X-275395Y102697D01*
X-275343Y102645D01*
X-275240Y102574D01*
X-275235Y102571D01*
X-274944Y101965D01*
X-274909Y101908D01*
X-274792Y101702D01*
X-274419Y101155D01*
X-274403Y101071D01*
X-274389Y100946D01*
X-274366Y100873D01*
X-274352Y100798D01*
X-274293Y100646D01*
X-274267Y100563D01*
X-274249Y100531D01*
X-274233Y100489D01*
X-273640Y99258D01*
X-273600Y99192D01*
X-273569Y99123D01*
X-273515Y99047D01*
X-273473Y98973D01*
X-273451Y98948D01*
X-273430Y98914D01*
X-273378Y98858D01*
X-273334Y98796D01*
X-273261Y98729D01*
X-273236Y98699D01*
X-273040Y98064D01*
X-273014Y98002D01*
X-272929Y97781D01*
X-272642Y97185D01*
X-272639Y97099D01*
X-272644Y96974D01*
X-272631Y96899D01*
X-272629Y96822D01*
X-272593Y96663D01*
X-272579Y96577D01*
X-272567Y96543D01*
X-272557Y96498D01*
X-272154Y95193D01*
X-272125Y95122D01*
X-272104Y95048D01*
X-272047Y94937D01*
X-271998Y94822D01*
X-271955Y94758D01*
X-271920Y94690D01*
X-271842Y94592D01*
X-271839Y94588D01*
X-271739Y93923D01*
X-271722Y93858D01*
X-271671Y93627D01*
X-271476Y92994D01*
X-271486Y92909D01*
X-271509Y92786D01*
X-271509Y92710D01*
X-271517Y92634D01*
X-271506Y92471D01*
X-271505Y92384D01*
X-271498Y92349D01*
X-271495Y92303D01*
X-271291Y90952D01*
X-271272Y90878D01*
X-271263Y90802D01*
X-271223Y90683D01*
X-271192Y90561D01*
X-271159Y90493D01*
X-271134Y90420D01*
X-271072Y90311D01*
X-271070Y90307D01*
X-271070Y89634D01*
X-271063Y89567D01*
X-271047Y89331D01*
X-270948Y88677D01*
X-270970Y88594D01*
X-271012Y88476D01*
X-271023Y88400D01*
X-271042Y88326D01*
X-271056Y88163D01*
X-271068Y88077D01*
X-271066Y88042D01*
X-271070Y87996D01*
X-271070Y86629D01*
X-271062Y86553D01*
X-271064Y86477D01*
X-271042Y86353D01*
X-271030Y86229D01*
X-271007Y86156D01*
X-270994Y86080D01*
X-270948Y85964D01*
X-270947Y85958D01*
X-271047Y85294D01*
X-271050Y85227D01*
X-271070Y84991D01*
X-271070Y84329D01*
X-271104Y84250D01*
X-271162Y84140D01*
X-271184Y84066D01*
X-271215Y83996D01*
X-271252Y83837D01*
X-271277Y83754D01*
X-271280Y83718D01*
X-271291Y83673D01*
X-271495Y82322D01*
X-271499Y82246D01*
X-271512Y82171D01*
X-271509Y82046D01*
X-271515Y81920D01*
X-271504Y81845D01*
X-271502Y81768D01*
X-271474Y81646D01*
X-271473Y81641D01*
X-271671Y80998D01*
X-271685Y80932D01*
X-271739Y80702D01*
X-271838Y80047D01*
X-271883Y79975D01*
X-271958Y79874D01*
X-271990Y79805D01*
X-272031Y79740D01*
X-272091Y79589D01*
X-272129Y79510D01*
X-272137Y79475D01*
X-272154Y79432D01*
X-272557Y78127D01*
X-272572Y78052D01*
X-272596Y77979D01*
X-272612Y77855D01*
X-272637Y77732D01*
X-272637Y77656D01*
X-272647Y77580D01*
X-272637Y77455D01*
X-272637Y77449D01*
X-272929Y76844D01*
X-272952Y76781D01*
X-273040Y76561D01*
X-273235Y75928D01*
X-273291Y75864D01*
X-273380Y75775D01*
X-273422Y75711D01*
X-273472Y75653D01*
X-273555Y75513D01*
X-273603Y75440D01*
X-273617Y75407D01*
X-273640Y75367D01*
X-274233Y74136D01*
X-274259Y74065D01*
X-274294Y73997D01*
X-274328Y73876D01*
X-274371Y73758D01*
X-274382Y73683D01*
X-274403Y73609D01*
X-274412Y73484D01*
X-274413Y73479D01*
X-274792Y72923D01*
X-274824Y72864D01*
X-274944Y72660D01*
X-275231Y72064D01*
X-275296Y72008D01*
X-275397Y71934D01*
X-275448Y71877D01*
X-275506Y71827D01*
X-275609Y71700D01*
X-275668Y71636D01*
X-275686Y71605D01*
X-275715Y71569D01*
X-276485Y70440D01*
X-276521Y70373D01*
X-276566Y70311D01*
X-276617Y70197D01*
X-276677Y70087D01*
X-276700Y70014D01*
X-276731Y69944D01*
X-276759Y69822D01*
X-276761Y69817D01*
X-277218Y69324D01*
X-277259Y69270D01*
X-277408Y69087D01*
X-277781Y68539D01*
X-277853Y68494D01*
X-277964Y68436D01*
X-278023Y68387D01*
X-278088Y68347D01*
X-278208Y68237D01*
X-278276Y68182D01*
X-278299Y68154D01*
X-278333Y68123D01*
X-279262Y67121D01*
X-279308Y67060D01*
X-279362Y67005D01*
X-279430Y66900D01*
X-279505Y66801D01*
X-279539Y66732D01*
X-279580Y66667D01*
X-279626Y66551D01*
X-279628Y66546D01*
X-280154Y66127D01*
X-280202Y66080D01*
X-280377Y65920D01*
X-280827Y65435D01*
X-280905Y65401D01*
X-281024Y65359D01*
X-281090Y65320D01*
X-281160Y65290D01*
X-281295Y65199D01*
X-281370Y65155D01*
X-281397Y65131D01*
X-281435Y65105D01*
X-282503Y64253D01*
X-282558Y64200D01*
X-282619Y64154D01*
X-282702Y64060D01*
X-282792Y63972D01*
X-282835Y63909D01*
X-282885Y63852D01*
X-282948Y63743D01*
X-283019Y63640D01*
X-283049Y63569D01*
X-283087Y63503D01*
X-283093Y63488D01*
X-283119Y63460D01*
X-283157Y63397D01*
X-283203Y63340D01*
X-283262Y63226D01*
X-283330Y63117D01*
X-283355Y63048D01*
X-283389Y62983D01*
X-283424Y62859D01*
X-283468Y62739D01*
X-283480Y62666D01*
X-283500Y62596D01*
X-283511Y62468D01*
X-283530Y62341D01*
X-283527Y62268D01*
X-283533Y62194D01*
X-283518Y62067D01*
X-283512Y61939D01*
X-283495Y61867D01*
X-283486Y61795D01*
X-283446Y61672D01*
X-283415Y61548D01*
X-283384Y61482D01*
X-283361Y61412D01*
X-283298Y61300D01*
X-283243Y61184D01*
X-283199Y61125D01*
X-283163Y61061D01*
X-283079Y60964D01*
X-283003Y60861D01*
X-282948Y60812D01*
X-282900Y60756D01*
X-282799Y60678D01*
X-282703Y60592D01*
X-282640Y60555D01*
X-282582Y60510D01*
X-282467Y60453D01*
X-282356Y60387D01*
X-282287Y60363D01*
X-282221Y60330D01*
X-282098Y60297D01*
X-281976Y60255D01*
X-281904Y60245D01*
X-281833Y60226D01*
X-281664Y60212D01*
X-281577Y60200D01*
X-281544Y60202D01*
X-281502Y60199D01*
X-279123Y60199D01*
X-279096Y60201D01*
G37*
G36*
X-187084Y-33536D02*
X-187084Y-33536D01*
X-187057Y-33538D01*
X-186883Y-33516D01*
X-186710Y-33499D01*
X-186684Y-33491D01*
X-186658Y-33488D01*
X-186492Y-33432D01*
X-186325Y-33381D01*
X-186301Y-33368D01*
X-186276Y-33359D01*
X-186125Y-33272D01*
X-185971Y-33189D01*
X-185950Y-33172D01*
X-185927Y-33159D01*
X-185674Y-32944D01*
X-177473Y-24743D01*
X-177456Y-24722D01*
X-177436Y-24704D01*
X-177329Y-24567D01*
X-177218Y-24431D01*
X-177205Y-24407D01*
X-177189Y-24386D01*
X-177111Y-24231D01*
X-177029Y-24075D01*
X-177022Y-24050D01*
X-177010Y-24026D01*
X-176964Y-23857D01*
X-176914Y-23690D01*
X-176912Y-23663D01*
X-176905Y-23637D01*
X-176878Y-23306D01*
X-176878Y26798D01*
X-176879Y26807D01*
X-176878Y26816D01*
X-176899Y27009D01*
X-176918Y27199D01*
X-176920Y27207D01*
X-176921Y27216D01*
X-176980Y27400D01*
X-177036Y27584D01*
X-177040Y27592D01*
X-177043Y27600D01*
X-177136Y27768D01*
X-177228Y27938D01*
X-177233Y27945D01*
X-177238Y27952D01*
X-177363Y28099D01*
X-177486Y28247D01*
X-177492Y28253D01*
X-177498Y28259D01*
X-177650Y28379D01*
X-177799Y28499D01*
X-177807Y28503D01*
X-177814Y28509D01*
X-177987Y28597D01*
X-178157Y28685D01*
X-178165Y28687D01*
X-178173Y28691D01*
X-178360Y28743D01*
X-178544Y28796D01*
X-178552Y28797D01*
X-178561Y28799D01*
X-178754Y28813D01*
X-178945Y28829D01*
X-178954Y28828D01*
X-178963Y28829D01*
X-179155Y28804D01*
X-179345Y28782D01*
X-179353Y28779D01*
X-179362Y28778D01*
X-179545Y28717D01*
X-179727Y28657D01*
X-179735Y28653D01*
X-179744Y28650D01*
X-179911Y28554D01*
X-180078Y28459D01*
X-180085Y28454D01*
X-180093Y28449D01*
X-180346Y28234D01*
X-193718Y14862D01*
X-195950Y12630D01*
X-238062Y12630D01*
X-238079Y12628D01*
X-238097Y12630D01*
X-238279Y12608D01*
X-238462Y12590D01*
X-238479Y12585D01*
X-238497Y12583D01*
X-238671Y12526D01*
X-238847Y12472D01*
X-238863Y12463D01*
X-238880Y12458D01*
X-239040Y12368D01*
X-239201Y12280D01*
X-239215Y12269D01*
X-239230Y12260D01*
X-239370Y12140D01*
X-239510Y12022D01*
X-239522Y12009D01*
X-239535Y11997D01*
X-239648Y11852D01*
X-239763Y11709D01*
X-239771Y11693D01*
X-239782Y11679D01*
X-239864Y11514D01*
X-239948Y11351D01*
X-239953Y11334D01*
X-239961Y11318D01*
X-240009Y11140D01*
X-240060Y10964D01*
X-240061Y10947D01*
X-240066Y10929D01*
X-240093Y10599D01*
X-240093Y9293D01*
X-241485Y5932D01*
X-244057Y3360D01*
X-247418Y1968D01*
X-251057Y1968D01*
X-254418Y3360D01*
X-256990Y5932D01*
X-258382Y9293D01*
X-258382Y12932D01*
X-256990Y16293D01*
X-254418Y18865D01*
X-251057Y20257D01*
X-247418Y20257D01*
X-244057Y18865D01*
X-244007Y18814D01*
X-243986Y18797D01*
X-243969Y18777D01*
X-243831Y18670D01*
X-243695Y18559D01*
X-243672Y18547D01*
X-243651Y18530D01*
X-243494Y18453D01*
X-243340Y18371D01*
X-243314Y18363D01*
X-243290Y18351D01*
X-243120Y18306D01*
X-242954Y18256D01*
X-242927Y18254D01*
X-242901Y18247D01*
X-242571Y18219D01*
X-199107Y18219D01*
X-199080Y18222D01*
X-199053Y18220D01*
X-198879Y18242D01*
X-198706Y18259D01*
X-198680Y18267D01*
X-198654Y18271D01*
X-198488Y18326D01*
X-198321Y18378D01*
X-198297Y18390D01*
X-198272Y18399D01*
X-198121Y18486D01*
X-197967Y18569D01*
X-197947Y18586D01*
X-197923Y18600D01*
X-197670Y18814D01*
X-191559Y24925D01*
X-191554Y24932D01*
X-191547Y24938D01*
X-191427Y25087D01*
X-191304Y25237D01*
X-191300Y25245D01*
X-191295Y25252D01*
X-191206Y25422D01*
X-191116Y25592D01*
X-191113Y25601D01*
X-191109Y25609D01*
X-191056Y25792D01*
X-191001Y25978D01*
X-191000Y25987D01*
X-190998Y25996D01*
X-190982Y26187D01*
X-190965Y26379D01*
X-190966Y26388D01*
X-190965Y26397D01*
X-190987Y26586D01*
X-191008Y26780D01*
X-191011Y26788D01*
X-191012Y26797D01*
X-191071Y26979D01*
X-191129Y27163D01*
X-191134Y27171D01*
X-191137Y27180D01*
X-191232Y27348D01*
X-191324Y27516D01*
X-191330Y27522D01*
X-191334Y27530D01*
X-191460Y27676D01*
X-191585Y27823D01*
X-191592Y27828D01*
X-191598Y27835D01*
X-191749Y27952D01*
X-191901Y28072D01*
X-191909Y28076D01*
X-191916Y28082D01*
X-192088Y28167D01*
X-192260Y28255D01*
X-192268Y28257D01*
X-192276Y28261D01*
X-192463Y28311D01*
X-192648Y28363D01*
X-192656Y28363D01*
X-192665Y28366D01*
X-192996Y28393D01*
X-198907Y28393D01*
X-198924Y28391D01*
X-198942Y28392D01*
X-199124Y28371D01*
X-199307Y28353D01*
X-199324Y28348D01*
X-199342Y28346D01*
X-199516Y28289D01*
X-199692Y28235D01*
X-199708Y28226D01*
X-199725Y28221D01*
X-199885Y28130D01*
X-200046Y28043D01*
X-200060Y28032D01*
X-200075Y28023D01*
X-200215Y27903D01*
X-200355Y27785D01*
X-200367Y27771D01*
X-200380Y27760D01*
X-200493Y27615D01*
X-200608Y27471D01*
X-200616Y27456D01*
X-200627Y27442D01*
X-200709Y27277D01*
X-200793Y27114D01*
X-200798Y27097D01*
X-200806Y27081D01*
X-200854Y26903D01*
X-200905Y26727D01*
X-200906Y26709D01*
X-200911Y26692D01*
X-200938Y26362D01*
X-200938Y25556D01*
X-201831Y24663D01*
X-214094Y24663D01*
X-214987Y25556D01*
X-214987Y26362D01*
X-214989Y26379D01*
X-214988Y26397D01*
X-215009Y26579D01*
X-215027Y26762D01*
X-215032Y26779D01*
X-215034Y26797D01*
X-215091Y26971D01*
X-215145Y27147D01*
X-215154Y27163D01*
X-215159Y27180D01*
X-215250Y27340D01*
X-215337Y27501D01*
X-215348Y27515D01*
X-215357Y27530D01*
X-215477Y27670D01*
X-215595Y27810D01*
X-215609Y27822D01*
X-215620Y27835D01*
X-215765Y27948D01*
X-215909Y28063D01*
X-215924Y28071D01*
X-215938Y28082D01*
X-216103Y28164D01*
X-216266Y28248D01*
X-216283Y28253D01*
X-216299Y28261D01*
X-216477Y28309D01*
X-216653Y28360D01*
X-216671Y28361D01*
X-216688Y28366D01*
X-217018Y28393D01*
X-244540Y28393D01*
X-244571Y28390D01*
X-244602Y28392D01*
X-244772Y28370D01*
X-244941Y28353D01*
X-244970Y28344D01*
X-245001Y28340D01*
X-245317Y28238D01*
X-247418Y27368D01*
X-251057Y27368D01*
X-254418Y28760D01*
X-256990Y31332D01*
X-258382Y34693D01*
X-258382Y38332D01*
X-256990Y41693D01*
X-255789Y42893D01*
X-255784Y42900D01*
X-255777Y42906D01*
X-255656Y43056D01*
X-255534Y43205D01*
X-255530Y43213D01*
X-255525Y43220D01*
X-255436Y43390D01*
X-255346Y43560D01*
X-255343Y43569D01*
X-255339Y43577D01*
X-255286Y43761D01*
X-255231Y43946D01*
X-255230Y43955D01*
X-255228Y43964D01*
X-255212Y44155D01*
X-255195Y44347D01*
X-255195Y44356D01*
X-255195Y44365D01*
X-255217Y44554D01*
X-255238Y44748D01*
X-255241Y44756D01*
X-255242Y44765D01*
X-255301Y44947D01*
X-255359Y45131D01*
X-255364Y45139D01*
X-255367Y45148D01*
X-255461Y45315D01*
X-255554Y45484D01*
X-255560Y45491D01*
X-255564Y45498D01*
X-255690Y45643D01*
X-255815Y45791D01*
X-255822Y45796D01*
X-255828Y45803D01*
X-255978Y45920D01*
X-256131Y46040D01*
X-256139Y46044D01*
X-256146Y46050D01*
X-256316Y46135D01*
X-256490Y46223D01*
X-256498Y46225D01*
X-256506Y46229D01*
X-256692Y46279D01*
X-256877Y46331D01*
X-256886Y46331D01*
X-256895Y46334D01*
X-257226Y46361D01*
X-290610Y46361D01*
X-292990Y48741D01*
X-292991Y48742D01*
X-295796Y51547D01*
X-295803Y51553D01*
X-295809Y51560D01*
X-295959Y51680D01*
X-296108Y51802D01*
X-296116Y51807D01*
X-296123Y51812D01*
X-296294Y51901D01*
X-296464Y51991D01*
X-296472Y51994D01*
X-296480Y51998D01*
X-296665Y52051D01*
X-296850Y52106D01*
X-296858Y52107D01*
X-296867Y52109D01*
X-297058Y52125D01*
X-297251Y52142D01*
X-297259Y52141D01*
X-297268Y52142D01*
X-297457Y52120D01*
X-297651Y52099D01*
X-297659Y52096D01*
X-297668Y52095D01*
X-297850Y52036D01*
X-298035Y51977D01*
X-298042Y51973D01*
X-298051Y51970D01*
X-298219Y51875D01*
X-298387Y51783D01*
X-298394Y51777D01*
X-298402Y51772D01*
X-298547Y51646D01*
X-298694Y51522D01*
X-298700Y51515D01*
X-298706Y51509D01*
X-298824Y51358D01*
X-298944Y51206D01*
X-298948Y51198D01*
X-298953Y51191D01*
X-299039Y51019D01*
X-299126Y50847D01*
X-299128Y50839D01*
X-299132Y50831D01*
X-299182Y50644D01*
X-299234Y50459D01*
X-299235Y50450D01*
X-299237Y50442D01*
X-299264Y50111D01*
X-299264Y20190D01*
X-299997Y20250D01*
X-300026Y20246D01*
X-300054Y20251D01*
X-300124Y20234D01*
X-300194Y20226D01*
X-300220Y20211D01*
X-300248Y20205D01*
X-300305Y20162D01*
X-300367Y20127D01*
X-300384Y20104D01*
X-300408Y20087D01*
X-300444Y20025D01*
X-300487Y19968D01*
X-300494Y19940D01*
X-300509Y19915D01*
X-300525Y19817D01*
X-300536Y19776D01*
X-300534Y19765D01*
X-300536Y19751D01*
X-300514Y712D01*
X-300498Y637D01*
X-300490Y560D01*
X-300478Y540D01*
X-300474Y517D01*
X-300430Y454D01*
X-300393Y387D01*
X-300373Y370D01*
X-300361Y353D01*
X-300323Y329D01*
X-300265Y280D01*
X-283787Y-9259D01*
X-283760Y-9268D01*
X-283736Y-9285D01*
X-283666Y-9300D01*
X-283599Y-9322D01*
X-283570Y-9320D01*
X-283542Y-9326D01*
X-283472Y-9313D01*
X-283401Y-9307D01*
X-283375Y-9294D01*
X-283346Y-9288D01*
X-283287Y-9248D01*
X-283224Y-9216D01*
X-283205Y-9193D01*
X-283181Y-9177D01*
X-283124Y-9095D01*
X-283097Y-9063D01*
X-283094Y-9052D01*
X-283086Y-9041D01*
X-282770Y-8374D01*
X-251379Y-26497D01*
X-251248Y-26557D01*
X-251121Y-26623D01*
X-251065Y-26639D01*
X-251012Y-26663D01*
X-250872Y-26695D01*
X-250734Y-26735D01*
X-250676Y-26740D01*
X-250620Y-26753D01*
X-250476Y-26757D01*
X-250333Y-26769D01*
X-250275Y-26763D01*
X-250217Y-26764D01*
X-250076Y-26740D01*
X-249933Y-26723D01*
X-249878Y-26705D01*
X-249820Y-26696D01*
X-249687Y-26644D01*
X-249550Y-26599D01*
X-249499Y-26571D01*
X-249445Y-26550D01*
X-249324Y-26473D01*
X-249199Y-26402D01*
X-249155Y-26365D01*
X-249106Y-26333D01*
X-249002Y-26233D01*
X-248893Y-26140D01*
X-248852Y-26089D01*
X-248816Y-26054D01*
X-248769Y-25986D01*
X-248685Y-25882D01*
X-248570Y-25714D01*
X-248533Y-25646D01*
X-248489Y-25584D01*
X-248437Y-25470D01*
X-248377Y-25360D01*
X-248355Y-25287D01*
X-248323Y-25217D01*
X-248295Y-25095D01*
X-248294Y-25090D01*
X-247837Y-24597D01*
X-247796Y-24543D01*
X-247647Y-24359D01*
X-247275Y-23812D01*
X-247202Y-23767D01*
X-247091Y-23708D01*
X-247032Y-23660D01*
X-246967Y-23619D01*
X-246847Y-23509D01*
X-246779Y-23454D01*
X-246757Y-23427D01*
X-246723Y-23395D01*
X-245792Y-22392D01*
X-245746Y-22331D01*
X-245692Y-22276D01*
X-245625Y-22171D01*
X-245549Y-22071D01*
X-245516Y-22002D01*
X-245474Y-21938D01*
X-245428Y-21821D01*
X-245426Y-21816D01*
X-244901Y-21397D01*
X-244852Y-21350D01*
X-244678Y-21190D01*
X-244228Y-20705D01*
X-244149Y-20671D01*
X-244031Y-20630D01*
X-243965Y-20591D01*
X-243895Y-20560D01*
X-243760Y-20469D01*
X-243685Y-20425D01*
X-243658Y-20401D01*
X-243620Y-20375D01*
X-242550Y-19521D01*
X-242495Y-19468D01*
X-242434Y-19422D01*
X-242352Y-19328D01*
X-242262Y-19240D01*
X-242219Y-19177D01*
X-242168Y-19120D01*
X-242105Y-19011D01*
X-242102Y-19007D01*
X-241520Y-18670D01*
X-241465Y-18631D01*
X-241269Y-18499D01*
X-240752Y-18086D01*
X-240669Y-18064D01*
X-240546Y-18041D01*
X-240475Y-18012D01*
X-240401Y-17993D01*
X-240254Y-17923D01*
X-240173Y-17890D01*
X-240143Y-17870D01*
X-240101Y-17851D01*
X-238917Y-17166D01*
X-238854Y-17122D01*
X-238787Y-17085D01*
X-238691Y-17004D01*
X-238590Y-16931D01*
X-238537Y-16875D01*
X-238479Y-16826D01*
X-238401Y-16728D01*
X-238397Y-16724D01*
X-237771Y-16478D01*
X-237711Y-16448D01*
X-237498Y-16346D01*
X-236924Y-16015D01*
X-236839Y-16006D01*
X-236714Y-16001D01*
X-236640Y-15983D01*
X-236564Y-15975D01*
X-236408Y-15928D01*
X-236323Y-15907D01*
X-236290Y-15892D01*
X-236246Y-15879D01*
X-234972Y-15379D01*
X-234904Y-15344D01*
X-234832Y-15318D01*
X-234726Y-15252D01*
X-234614Y-15195D01*
X-234554Y-15147D01*
X-234489Y-15108D01*
X-234397Y-15022D01*
X-234393Y-15019D01*
X-233737Y-14869D01*
X-233673Y-14848D01*
X-233447Y-14780D01*
X-232831Y-14537D01*
X-232746Y-14541D01*
X-232621Y-14555D01*
X-232545Y-14548D01*
X-232468Y-14551D01*
X-232307Y-14528D01*
X-232220Y-14521D01*
X-232185Y-14511D01*
X-232140Y-14504D01*
X-230806Y-14199D01*
X-230733Y-14175D01*
X-230658Y-14159D01*
X-230543Y-14111D01*
X-230424Y-14071D01*
X-230358Y-14033D01*
X-230287Y-14003D01*
X-230184Y-13933D01*
X-230179Y-13930D01*
X-229509Y-13879D01*
X-229442Y-13868D01*
X-229209Y-13834D01*
X-228563Y-13686D01*
X-228479Y-13702D01*
X-228358Y-13735D01*
X-228282Y-13740D01*
X-228207Y-13754D01*
X-228043Y-13755D01*
X-227956Y-13761D01*
X-227921Y-13756D01*
X-227875Y-13756D01*
X-226510Y-13654D01*
X-226435Y-13640D01*
X-226358Y-13636D01*
X-226237Y-13606D01*
X-226114Y-13584D01*
X-226043Y-13556D01*
X-225968Y-13537D01*
X-225855Y-13483D01*
X-225850Y-13481D01*
X-225180Y-13531D01*
X-225112Y-13529D01*
X-224876Y-13531D01*
X-224216Y-13481D01*
X-224135Y-13509D01*
X-224021Y-13559D01*
X-223946Y-13576D01*
X-223874Y-13601D01*
X-223712Y-13626D01*
X-223627Y-13645D01*
X-223591Y-13646D01*
X-223546Y-13653D01*
X-222181Y-13755D01*
X-222105Y-13753D01*
X-222029Y-13760D01*
X-221904Y-13748D01*
X-221779Y-13745D01*
X-221704Y-13728D01*
X-221628Y-13720D01*
X-221508Y-13683D01*
X-221503Y-13682D01*
X-220847Y-13831D01*
X-220780Y-13840D01*
X-220547Y-13876D01*
X-219887Y-13926D01*
X-219811Y-13966D01*
X-219705Y-14032D01*
X-219634Y-14060D01*
X-219566Y-14096D01*
X-219411Y-14145D01*
X-219329Y-14176D01*
X-219294Y-14182D01*
X-219250Y-14195D01*
X-217916Y-14499D01*
X-217839Y-14509D01*
X-217765Y-14528D01*
X-217640Y-14534D01*
X-217516Y-14550D01*
X-217440Y-14544D01*
X-217363Y-14548D01*
X-217239Y-14529D01*
X-217234Y-14529D01*
X-216608Y-14774D01*
X-216543Y-14792D01*
X-216318Y-14864D01*
X-215672Y-15011D01*
X-215604Y-15062D01*
X-215509Y-15143D01*
X-215442Y-15181D01*
X-215381Y-15226D01*
X-215234Y-15298D01*
X-215158Y-15341D01*
X-215124Y-15352D01*
X-215083Y-15372D01*
X-213809Y-15872D01*
X-213735Y-15893D01*
X-213664Y-15922D01*
X-213542Y-15947D01*
X-213421Y-15981D01*
X-213345Y-15987D01*
X-213270Y-16002D01*
X-213145Y-16002D01*
X-213139Y-16002D01*
X-212557Y-16338D01*
X-212495Y-16366D01*
X-212283Y-16470D01*
X-211667Y-16712D01*
X-211606Y-16772D01*
X-211525Y-16867D01*
X-211464Y-16914D01*
X-211410Y-16969D01*
X-211276Y-17061D01*
X-211207Y-17115D01*
X-211175Y-17131D01*
X-211137Y-17157D01*
X-209952Y-17841D01*
X-209882Y-17873D01*
X-209817Y-17912D01*
X-209699Y-17955D01*
X-209585Y-18007D01*
X-209510Y-18024D01*
X-209439Y-18050D01*
X-209315Y-18069D01*
X-209309Y-18070D01*
X-208784Y-18489D01*
X-208727Y-18525D01*
X-208533Y-18660D01*
X-207959Y-18991D01*
X-207908Y-19060D01*
X-207842Y-19166D01*
X-207789Y-19221D01*
X-207744Y-19283D01*
X-207625Y-19395D01*
X-207565Y-19458D01*
X-207536Y-19479D01*
X-207502Y-19510D01*
X-206432Y-20363D01*
X-206368Y-20405D01*
X-206309Y-20454D01*
X-206199Y-20514D01*
X-206094Y-20581D01*
X-206023Y-20609D01*
X-205955Y-20646D01*
X-205836Y-20683D01*
X-205831Y-20685D01*
X-205373Y-21178D01*
X-205323Y-21222D01*
X-205151Y-21384D01*
X-204633Y-21797D01*
X-204593Y-21873D01*
X-204543Y-21987D01*
X-204499Y-22050D01*
X-204463Y-22118D01*
X-204363Y-22246D01*
X-204313Y-22318D01*
X-204287Y-22343D01*
X-204258Y-22379D01*
X-203327Y-23381D01*
X-203270Y-23432D01*
X-203219Y-23489D01*
X-203119Y-23565D01*
X-203025Y-23648D01*
X-202959Y-23686D01*
X-202898Y-23732D01*
X-202786Y-23787D01*
X-202781Y-23790D01*
X-202402Y-24345D01*
X-202359Y-24396D01*
X-202212Y-24582D01*
X-201762Y-25067D01*
X-201734Y-25148D01*
X-201701Y-25269D01*
X-201667Y-25338D01*
X-201642Y-25410D01*
X-201562Y-25552D01*
X-201523Y-25630D01*
X-201501Y-25659D01*
X-201478Y-25699D01*
X-200707Y-26829D01*
X-200658Y-26887D01*
X-200616Y-26952D01*
X-200529Y-27041D01*
X-200448Y-27137D01*
X-200389Y-27185D01*
X-200335Y-27240D01*
X-200232Y-27310D01*
X-200227Y-27314D01*
X-199935Y-27920D01*
X-199900Y-27977D01*
X-199784Y-28182D01*
X-199410Y-28729D01*
X-199395Y-28814D01*
X-199381Y-28938D01*
X-199357Y-29011D01*
X-199343Y-29086D01*
X-199285Y-29238D01*
X-199258Y-29321D01*
X-199241Y-29353D01*
X-199224Y-29396D01*
X-198630Y-30628D01*
X-198590Y-30694D01*
X-198558Y-30764D01*
X-198485Y-30865D01*
X-198420Y-30972D01*
X-198368Y-31028D01*
X-198323Y-31090D01*
X-198232Y-31175D01*
X-198228Y-31180D01*
X-198030Y-31822D01*
X-198004Y-31883D01*
X-197918Y-32104D01*
X-197781Y-32389D01*
X-197694Y-32531D01*
X-197613Y-32676D01*
X-197590Y-32703D01*
X-197571Y-32733D01*
X-197458Y-32855D01*
X-197349Y-32981D01*
X-197322Y-33003D01*
X-197298Y-33028D01*
X-197162Y-33126D01*
X-197031Y-33228D01*
X-197000Y-33243D01*
X-196971Y-33264D01*
X-196820Y-33333D01*
X-196671Y-33407D01*
X-196637Y-33416D01*
X-196605Y-33431D01*
X-196443Y-33468D01*
X-196282Y-33512D01*
X-196243Y-33515D01*
X-196213Y-33522D01*
X-196126Y-33524D01*
X-195951Y-33539D01*
X-187110Y-33539D01*
X-187084Y-33536D01*
G37*
G36*
X149997Y-86377D02*
X149997Y-86377D01*
X150074Y-86378D01*
X150099Y-86369D01*
X150119Y-86367D01*
X150159Y-86347D01*
X150230Y-86320D01*
X166730Y-76820D01*
X166752Y-76801D01*
X166778Y-76789D01*
X166812Y-76751D01*
X166815Y-76749D01*
X166818Y-76745D01*
X166826Y-76736D01*
X166879Y-76689D01*
X166892Y-76663D01*
X166911Y-76641D01*
X166935Y-76574D01*
X166965Y-76509D01*
X166967Y-76480D01*
X166976Y-76453D01*
X166971Y-76382D01*
X166975Y-76311D01*
X166965Y-76284D01*
X166963Y-76255D01*
X166920Y-76164D01*
X166905Y-76124D01*
X166898Y-76116D01*
X166892Y-76104D01*
X166472Y-75495D01*
X170453Y-73197D01*
X170576Y-73104D01*
X170697Y-73013D01*
X170701Y-73008D01*
X170706Y-73005D01*
X170801Y-72885D01*
X170897Y-72766D01*
X170900Y-72760D01*
X170904Y-72756D01*
X170966Y-72615D01*
X171030Y-72477D01*
X171031Y-72471D01*
X171033Y-72465D01*
X171059Y-72313D01*
X171086Y-72164D01*
X171085Y-72158D01*
X171086Y-72152D01*
X171074Y-71998D01*
X171062Y-71847D01*
X171060Y-71841D01*
X171060Y-71835D01*
X171010Y-71690D01*
X170961Y-71545D01*
X170958Y-71540D01*
X170956Y-71534D01*
X170871Y-71407D01*
X170788Y-71279D01*
X170783Y-71274D01*
X170780Y-71269D01*
X170666Y-71167D01*
X170554Y-71063D01*
X170547Y-71059D01*
X170544Y-71056D01*
X170535Y-71052D01*
X170417Y-70979D01*
X16283Y11415D01*
X15579Y12525D01*
X15554Y12551D01*
X15528Y12592D01*
X13395Y14962D01*
X13366Y14982D01*
X13334Y15019D01*
X10835Y16999D01*
X10804Y17015D01*
X10765Y17046D01*
X7971Y18582D01*
X7938Y18592D01*
X7895Y18616D01*
X7815Y18644D01*
X6381Y19143D01*
X4948Y19642D01*
X4947Y19642D01*
X4884Y19664D01*
X4849Y19669D01*
X4803Y19685D01*
X1659Y20217D01*
X1624Y20216D01*
X1576Y20224D01*
X-195Y20224D01*
X-280Y20269D01*
X-338Y20292D01*
X-392Y20323D01*
X-486Y20348D01*
X-577Y20383D01*
X-639Y20390D01*
X-699Y20407D01*
X-796Y20408D01*
X-893Y20419D01*
X-955Y20411D01*
X-1017Y20412D01*
X-1112Y20389D01*
X-1208Y20376D01*
X-1266Y20352D01*
X-1326Y20338D01*
X-1473Y20271D01*
X-1563Y20224D01*
X-1613Y20224D01*
X-1647Y20217D01*
X-1696Y20217D01*
X-4840Y19685D01*
X-4873Y19672D01*
X-4921Y19664D01*
X-7932Y18616D01*
X-7962Y18598D01*
X-8009Y18582D01*
X-10803Y17046D01*
X-10830Y17023D01*
X-10872Y16999D01*
X-13371Y15019D01*
X-13394Y14992D01*
X-13432Y14962D01*
X-15218Y12978D01*
X-43783Y-2178D01*
X-58348Y35384D01*
X-58364Y35413D01*
X-58373Y35445D01*
X-58439Y35552D01*
X-58499Y35664D01*
X-58522Y35688D01*
X-58539Y35716D01*
X-58629Y35805D01*
X-58715Y35897D01*
X-58743Y35915D01*
X-58767Y35938D01*
X-58877Y36001D01*
X-58982Y36069D01*
X-59014Y36080D01*
X-59043Y36096D01*
X-59165Y36130D01*
X-59284Y36170D01*
X-59317Y36172D01*
X-59349Y36181D01*
X-59510Y36194D01*
X-68397Y36345D01*
X-70535Y38483D01*
X-70556Y38500D01*
X-70574Y38520D01*
X-70711Y38627D01*
X-70847Y38738D01*
X-70871Y38751D01*
X-70892Y38767D01*
X-71049Y38845D01*
X-71203Y38927D01*
X-71228Y38934D01*
X-71252Y38946D01*
X-71422Y38992D01*
X-71588Y39041D01*
X-71615Y39044D01*
X-71641Y39051D01*
X-71972Y39078D01*
X-89394Y39078D01*
X-89403Y39077D01*
X-89412Y39078D01*
X-89605Y39057D01*
X-89794Y39038D01*
X-89803Y39035D01*
X-89812Y39034D01*
X-89996Y38976D01*
X-90179Y38920D01*
X-90187Y38916D01*
X-90196Y38913D01*
X-90364Y38820D01*
X-90533Y38728D01*
X-90540Y38722D01*
X-90548Y38718D01*
X-90695Y38593D01*
X-90843Y38470D01*
X-90848Y38463D01*
X-90855Y38458D01*
X-90975Y38306D01*
X-91095Y38157D01*
X-91099Y38149D01*
X-91105Y38142D01*
X-91192Y37969D01*
X-91280Y37799D01*
X-91283Y37791D01*
X-91287Y37783D01*
X-91339Y37596D01*
X-91392Y37412D01*
X-91393Y37403D01*
X-91395Y37395D01*
X-91409Y37200D01*
X-91425Y37011D01*
X-91424Y37002D01*
X-91424Y36993D01*
X-91400Y36801D01*
X-91378Y36611D01*
X-91375Y36603D01*
X-91374Y36594D01*
X-91313Y36412D01*
X-91253Y36228D01*
X-91249Y36221D01*
X-91246Y36212D01*
X-91150Y36045D01*
X-91055Y35878D01*
X-91049Y35871D01*
X-91045Y35863D01*
X-90830Y35610D01*
X-72410Y17190D01*
X-72366Y17156D01*
X-71151Y15932D01*
X-71149Y15930D01*
X-71148Y15929D01*
X-71146Y15926D01*
X-70254Y15035D01*
X-70259Y13774D01*
X-70259Y13772D01*
X-70259Y13769D01*
X-70259Y12091D01*
X-70263Y12041D01*
X-70266Y12021D01*
X-70265Y12010D01*
X-70266Y11986D01*
X-70287Y6820D01*
X-70336Y-5484D01*
X-70338Y-5956D01*
X-70320Y-6099D01*
X-70306Y-6242D01*
X-70301Y-6256D01*
X-70299Y-6272D01*
X-70247Y-6406D01*
X-70198Y-6541D01*
X-70189Y-6554D01*
X-70183Y-6568D01*
X-70099Y-6684D01*
X-70018Y-6803D01*
X-70007Y-6813D01*
X-69998Y-6826D01*
X-69887Y-6918D01*
X-69779Y-7013D01*
X-69761Y-7024D01*
X-69753Y-7030D01*
X-69737Y-7037D01*
X-69640Y-7094D01*
X-69219Y-7306D01*
X-69219Y-7307D01*
X-52071Y-15946D01*
X-51759Y-16103D01*
X-51622Y-16152D01*
X-51486Y-16203D01*
X-51472Y-16205D01*
X-51460Y-16209D01*
X-51315Y-16223D01*
X-51170Y-16239D01*
X-51156Y-16237D01*
X-51143Y-16238D01*
X-51000Y-16215D01*
X-50855Y-16194D01*
X-50837Y-16188D01*
X-50829Y-16187D01*
X-50813Y-16180D01*
X-50703Y-16142D01*
X-50380Y-16009D01*
X-49757Y-15751D01*
X-47646Y-15751D01*
X-46525Y-16215D01*
X-45696Y-16559D01*
X-44203Y-18051D01*
X-43395Y-20002D01*
X-43395Y-21260D01*
X-43378Y-21391D01*
X-43367Y-21523D01*
X-43359Y-21549D01*
X-43355Y-21576D01*
X-43307Y-21699D01*
X-43263Y-21824D01*
X-43248Y-21846D01*
X-43238Y-21871D01*
X-43160Y-21978D01*
X-43087Y-22089D01*
X-43067Y-22107D01*
X-43051Y-22129D01*
X-42949Y-22213D01*
X-42851Y-22302D01*
X-42827Y-22314D01*
X-42806Y-22332D01*
X-42687Y-22388D01*
X-42569Y-22449D01*
X-42543Y-22456D01*
X-42519Y-22467D01*
X-42389Y-22492D01*
X-42260Y-22522D01*
X-42233Y-22522D01*
X-42206Y-22527D01*
X-42074Y-22519D01*
X-41942Y-22516D01*
X-41916Y-22509D01*
X-41889Y-22507D01*
X-41763Y-22466D01*
X-41635Y-22431D01*
X-41601Y-22414D01*
X-41586Y-22409D01*
X-41568Y-22398D01*
X-41491Y-22359D01*
X-17265Y-8373D01*
X-16971Y-9000D01*
X-16953Y-9023D01*
X-16943Y-9051D01*
X-16894Y-9103D01*
X-16852Y-9160D01*
X-16827Y-9174D01*
X-16807Y-9195D01*
X-16741Y-9224D01*
X-16680Y-9260D01*
X-16651Y-9264D01*
X-16624Y-9275D01*
X-16553Y-9276D01*
X-16483Y-9285D01*
X-16455Y-9278D01*
X-16426Y-9278D01*
X-16333Y-9243D01*
X-16291Y-9232D01*
X-16283Y-9225D01*
X-16270Y-9220D01*
X-19Y136D01*
X16232Y-9220D01*
X16260Y-9229D01*
X16284Y-9246D01*
X16354Y-9261D01*
X16421Y-9283D01*
X16450Y-9281D01*
X16478Y-9287D01*
X16548Y-9273D01*
X16619Y-9267D01*
X16645Y-9254D01*
X16673Y-9248D01*
X16732Y-9208D01*
X16795Y-9176D01*
X16814Y-9153D01*
X16838Y-9137D01*
X16895Y-9055D01*
X16922Y-9022D01*
X16925Y-9011D01*
X16933Y-9000D01*
X17228Y-8373D01*
X133490Y-75495D01*
X133070Y-76104D01*
X133059Y-76131D01*
X133041Y-76153D01*
X133020Y-76221D01*
X132992Y-76287D01*
X132992Y-76316D01*
X132984Y-76343D01*
X132992Y-76415D01*
X132992Y-76486D01*
X133003Y-76512D01*
X133006Y-76541D01*
X133041Y-76603D01*
X133069Y-76669D01*
X133090Y-76689D01*
X133104Y-76714D01*
X133167Y-76766D01*
X133171Y-76772D01*
X133180Y-76777D01*
X133181Y-76778D01*
X133211Y-76808D01*
X133222Y-76812D01*
X133232Y-76820D01*
X149732Y-86320D01*
X149805Y-86344D01*
X149876Y-86375D01*
X149899Y-86376D01*
X149921Y-86383D01*
X149997Y-86377D01*
G37*
G36*
X-97873Y126312D02*
X-97873Y126312D01*
X-97864Y126312D01*
X-97672Y126336D01*
X-97482Y126358D01*
X-97473Y126361D01*
X-97464Y126362D01*
X-97282Y126423D01*
X-97099Y126483D01*
X-97091Y126487D01*
X-97083Y126490D01*
X-96915Y126586D01*
X-96748Y126681D01*
X-96741Y126687D01*
X-96734Y126691D01*
X-96481Y126906D01*
X-95918Y127469D01*
X-92320Y131066D01*
X-92317Y131071D01*
X-92312Y131074D01*
X-92190Y131226D01*
X-92065Y131378D01*
X-92063Y131383D01*
X-92059Y131387D01*
X-91968Y131560D01*
X-91877Y131733D01*
X-91875Y131739D01*
X-91872Y131744D01*
X-91818Y131930D01*
X-91762Y132119D01*
X-91761Y132125D01*
X-91760Y132130D01*
X-91726Y132460D01*
X-91250Y155478D01*
X-8766Y156460D01*
X-8009Y156043D01*
X-7975Y156033D01*
X-7932Y156009D01*
X-4921Y154961D01*
X-4886Y154956D01*
X-4840Y154940D01*
X-1696Y154408D01*
X-1661Y154409D01*
X-1613Y154401D01*
X1576Y154401D01*
X1610Y154408D01*
X1659Y154408D01*
X4803Y154940D01*
X4835Y154953D01*
X4884Y154961D01*
X7895Y156009D01*
X7925Y156027D01*
X7971Y156043D01*
X10765Y157579D01*
X10792Y157602D01*
X10835Y157626D01*
X13334Y159606D01*
X13356Y159633D01*
X13395Y159663D01*
X15528Y162033D01*
X15546Y162063D01*
X15579Y162100D01*
X16094Y162912D01*
X147819Y241144D01*
X148368Y241055D01*
X148402Y241057D01*
X148448Y241049D01*
X151514Y241049D01*
X151548Y241056D01*
X151594Y241055D01*
X154621Y241547D01*
X154653Y241559D01*
X154699Y241566D01*
X157607Y242537D01*
X157637Y242554D01*
X157681Y242569D01*
X160396Y243994D01*
X160423Y244015D01*
X160464Y244037D01*
X162915Y245879D01*
X162938Y245904D01*
X162976Y245932D01*
X165100Y248143D01*
X165118Y248172D01*
X165150Y248205D01*
X166892Y250729D01*
X166904Y250756D01*
X166922Y250778D01*
X166942Y250846D01*
X166970Y250912D01*
X166970Y250941D01*
X166979Y250968D01*
X166971Y251040D01*
X166971Y251111D01*
X166960Y251137D01*
X166956Y251166D01*
X166921Y251228D01*
X166894Y251294D01*
X166873Y251314D01*
X166859Y251339D01*
X166782Y251403D01*
X166751Y251433D01*
X166741Y251437D01*
X166730Y251445D01*
X150230Y260945D01*
X150158Y260969D01*
X150087Y261000D01*
X150064Y261001D01*
X150042Y261008D01*
X149965Y261002D01*
X149888Y261003D01*
X149864Y260994D01*
X149844Y260992D01*
X149804Y260972D01*
X149732Y260945D01*
X133232Y251445D01*
X133211Y251426D01*
X133184Y251414D01*
X133137Y251361D01*
X133083Y251314D01*
X133071Y251288D01*
X133051Y251266D01*
X133028Y251199D01*
X132997Y251134D01*
X132996Y251105D01*
X132986Y251078D01*
X132991Y251007D01*
X132988Y250936D01*
X132998Y250909D01*
X133000Y250880D01*
X133042Y250789D01*
X133057Y250749D01*
X133065Y250741D01*
X133070Y250729D01*
X133490Y250120D01*
X17228Y182998D01*
X16933Y183625D01*
X16916Y183648D01*
X16905Y183676D01*
X16857Y183728D01*
X16814Y183785D01*
X16789Y183799D01*
X16769Y183820D01*
X16704Y183849D01*
X16643Y183885D01*
X16614Y183889D01*
X16587Y183900D01*
X16516Y183901D01*
X16445Y183910D01*
X16417Y183903D01*
X16388Y183903D01*
X16295Y183868D01*
X16254Y183857D01*
X16245Y183850D01*
X16232Y183845D01*
X-19Y174489D01*
X-16270Y183845D01*
X-16297Y183854D01*
X-16321Y183871D01*
X-16391Y183886D01*
X-16458Y183908D01*
X-16487Y183906D01*
X-16516Y183912D01*
X-16586Y183898D01*
X-16657Y183892D01*
X-16682Y183879D01*
X-16711Y183873D01*
X-16770Y183833D01*
X-16833Y183801D01*
X-16851Y183778D01*
X-16876Y183762D01*
X-16932Y183680D01*
X-16959Y183647D01*
X-16963Y183636D01*
X-16971Y183625D01*
X-18328Y180740D01*
X-18336Y180706D01*
X-18357Y180662D01*
X-19215Y177591D01*
X-19217Y177556D01*
X-19230Y177509D01*
X-19483Y175101D01*
X-88735Y175101D01*
X-66968Y185220D01*
X-66805Y185317D01*
X-66641Y185411D01*
X-66632Y185419D01*
X-66621Y185425D01*
X-66481Y185552D01*
X-66338Y185677D01*
X-66331Y185687D01*
X-66322Y185695D01*
X-66210Y185845D01*
X-66094Y185997D01*
X-66089Y186008D01*
X-66082Y186018D01*
X-66001Y186188D01*
X-65918Y186359D01*
X-65915Y186371D01*
X-65910Y186382D01*
X-65865Y186564D01*
X-65817Y186749D01*
X-65816Y186761D01*
X-65813Y186773D01*
X-65805Y186962D01*
X-65795Y187151D01*
X-65796Y187163D01*
X-65796Y187175D01*
X-65825Y187362D01*
X-65852Y187549D01*
X-65856Y187561D01*
X-65858Y187573D01*
X-65923Y187749D01*
X-65987Y187929D01*
X-65993Y187939D01*
X-65997Y187951D01*
X-66096Y188111D01*
X-66194Y188274D01*
X-66202Y188283D01*
X-66208Y188293D01*
X-66338Y188432D01*
X-66465Y188572D01*
X-66475Y188579D01*
X-66483Y188588D01*
X-66636Y188698D01*
X-66789Y188810D01*
X-66800Y188815D01*
X-66810Y188822D01*
X-66983Y188900D01*
X-67154Y188980D01*
X-67166Y188983D01*
X-67177Y188988D01*
X-67362Y189030D01*
X-67546Y189074D01*
X-67558Y189075D01*
X-67570Y189077D01*
X-67758Y189082D01*
X-67948Y189090D01*
X-67961Y189088D01*
X-67972Y189088D01*
X-68034Y189077D01*
X-68277Y189042D01*
X-69231Y188824D01*
X-69304Y188800D01*
X-69379Y188784D01*
X-69494Y188736D01*
X-69613Y188696D01*
X-69680Y188658D01*
X-69750Y188628D01*
X-69853Y188558D01*
X-69858Y188555D01*
X-70529Y188504D01*
X-70595Y188493D01*
X-70829Y188459D01*
X-71474Y188311D01*
X-71558Y188327D01*
X-71679Y188360D01*
X-71756Y188365D01*
X-71831Y188379D01*
X-71994Y188380D01*
X-72081Y188386D01*
X-72117Y188381D01*
X-72163Y188381D01*
X-73527Y188279D01*
X-73603Y188265D01*
X-73679Y188261D01*
X-73800Y188231D01*
X-73924Y188209D01*
X-73995Y188181D01*
X-74069Y188162D01*
X-74182Y188108D01*
X-74187Y188106D01*
X-74858Y188156D01*
X-74925Y188154D01*
X-75161Y188156D01*
X-75822Y188106D01*
X-75902Y188134D01*
X-76017Y188184D01*
X-76092Y188201D01*
X-76164Y188226D01*
X-76325Y188251D01*
X-76410Y188270D01*
X-76446Y188271D01*
X-76492Y188278D01*
X-77856Y188380D01*
X-77933Y188378D01*
X-78009Y188385D01*
X-78134Y188373D01*
X-78259Y188370D01*
X-78333Y188353D01*
X-78410Y188345D01*
X-78529Y188308D01*
X-78535Y188307D01*
X-79190Y188456D01*
X-79257Y188465D01*
X-79490Y188501D01*
X-80151Y188551D01*
X-80226Y188591D01*
X-80332Y188657D01*
X-80404Y188685D01*
X-80471Y188721D01*
X-80627Y188770D01*
X-80708Y188801D01*
X-80744Y188807D01*
X-80788Y188820D01*
X-82122Y189124D01*
X-82198Y189134D01*
X-82272Y189153D01*
X-82397Y189159D01*
X-82521Y189175D01*
X-82598Y189169D01*
X-82674Y189173D01*
X-82798Y189154D01*
X-82803Y189154D01*
X-83429Y189399D01*
X-83494Y189417D01*
X-83719Y189489D01*
X-84365Y189636D01*
X-84434Y189687D01*
X-84529Y189768D01*
X-84595Y189806D01*
X-84657Y189851D01*
X-84804Y189923D01*
X-84880Y189966D01*
X-84914Y189977D01*
X-84955Y189997D01*
X-86229Y190497D01*
X-86303Y190518D01*
X-86373Y190547D01*
X-86496Y190572D01*
X-86616Y190606D01*
X-86693Y190612D01*
X-86768Y190627D01*
X-86893Y190627D01*
X-86898Y190627D01*
X-87481Y190963D01*
X-87543Y190991D01*
X-87754Y191095D01*
X-88371Y191337D01*
X-88431Y191397D01*
X-88513Y191492D01*
X-88573Y191539D01*
X-88627Y191594D01*
X-88761Y191686D01*
X-88830Y191740D01*
X-88862Y191756D01*
X-88900Y191782D01*
X-90085Y192466D01*
X-90155Y192498D01*
X-90220Y192537D01*
X-90338Y192580D01*
X-90452Y192632D01*
X-90527Y192649D01*
X-90599Y192675D01*
X-90723Y192694D01*
X-90728Y192695D01*
X-91254Y193114D01*
X-91310Y193150D01*
X-91464Y193257D01*
X-91479Y193269D01*
X-91486Y193272D01*
X-91505Y193285D01*
X-92078Y193616D01*
X-92129Y193685D01*
X-92196Y193791D01*
X-92248Y193846D01*
X-92294Y193908D01*
X-92412Y194020D01*
X-92472Y194083D01*
X-92502Y194104D01*
X-92535Y194135D01*
X-93070Y194562D01*
X-93159Y194619D01*
X-93241Y194684D01*
X-93328Y194728D01*
X-93409Y194780D01*
X-93506Y194819D01*
X-93600Y194866D01*
X-93694Y194892D01*
X-93783Y194928D01*
X-93887Y194946D01*
X-93988Y194974D01*
X-94085Y194981D01*
X-94180Y194998D01*
X-94285Y194996D01*
X-94390Y195004D01*
X-94486Y194992D01*
X-94582Y194990D01*
X-94685Y194967D01*
X-94789Y194953D01*
X-94881Y194923D01*
X-94975Y194901D01*
X-95071Y194859D01*
X-95171Y194825D01*
X-95255Y194777D01*
X-95343Y194738D01*
X-95428Y194677D01*
X-95520Y194624D01*
X-95608Y194549D01*
X-95671Y194504D01*
X-95711Y194462D01*
X-95773Y194409D01*
X-99353Y190829D01*
X-99370Y190808D01*
X-99391Y190791D01*
X-99497Y190653D01*
X-99608Y190517D01*
X-99621Y190494D01*
X-99637Y190473D01*
X-99715Y190317D01*
X-99797Y190162D01*
X-99805Y190136D01*
X-99817Y190112D01*
X-99862Y189943D01*
X-99912Y189776D01*
X-99914Y189749D01*
X-99921Y189723D01*
X-99948Y189393D01*
X-99948Y128342D01*
X-99947Y128333D01*
X-99948Y128324D01*
X-99928Y128134D01*
X-99908Y127942D01*
X-99906Y127933D01*
X-99905Y127924D01*
X-99847Y127741D01*
X-99790Y127557D01*
X-99786Y127549D01*
X-99783Y127540D01*
X-99690Y127372D01*
X-99598Y127203D01*
X-99593Y127196D01*
X-99588Y127188D01*
X-99464Y127041D01*
X-99341Y126893D01*
X-99334Y126888D01*
X-99328Y126881D01*
X-99177Y126762D01*
X-99027Y126641D01*
X-99019Y126637D01*
X-99012Y126631D01*
X-98839Y126543D01*
X-98670Y126455D01*
X-98661Y126453D01*
X-98653Y126449D01*
X-98466Y126397D01*
X-98283Y126344D01*
X-98274Y126343D01*
X-98265Y126341D01*
X-98073Y126327D01*
X-97881Y126311D01*
X-97873Y126312D01*
G37*
%LPC*%
G36*
X198867Y48799D02*
X198867Y48799D01*
X196437Y51230D01*
X196437Y113870D01*
X198085Y115519D01*
X198092Y115520D01*
X198191Y115523D01*
X198249Y115539D01*
X198309Y115547D01*
X198402Y115584D01*
X198497Y115611D01*
X198549Y115642D01*
X198605Y115664D01*
X198685Y115722D01*
X198771Y115773D01*
X198846Y115839D01*
X198862Y115851D01*
X198870Y115860D01*
X198891Y115879D01*
X199362Y116350D01*
X208625Y116350D01*
X209096Y115879D01*
X209174Y115818D01*
X209246Y115750D01*
X209299Y115721D01*
X209347Y115684D01*
X209438Y115645D01*
X209525Y115597D01*
X209584Y115582D01*
X209639Y115558D01*
X209737Y115542D01*
X209833Y115517D01*
X209933Y115511D01*
X209953Y115508D01*
X209966Y115509D01*
X209994Y115507D01*
X219425Y115507D01*
X219523Y115520D01*
X219622Y115523D01*
X219681Y115539D01*
X219741Y115547D01*
X219763Y115556D01*
X229494Y115556D01*
X229581Y115542D01*
X229677Y115517D01*
X229777Y115511D01*
X229797Y115508D01*
X229809Y115509D01*
X229837Y115507D01*
X233726Y115507D01*
X269073Y80160D01*
X269152Y80100D01*
X269224Y80032D01*
X269277Y80002D01*
X269325Y79965D01*
X269416Y79926D01*
X269502Y79878D01*
X269561Y79863D01*
X269616Y79839D01*
X269714Y79823D01*
X269810Y79799D01*
X269910Y79792D01*
X269931Y79789D01*
X269943Y79790D01*
X269971Y79788D01*
X286590Y79788D01*
X288227Y78151D01*
X288227Y66943D01*
X288228Y66934D01*
X288227Y66924D01*
X288248Y66776D01*
X288267Y66627D01*
X288270Y66619D01*
X288272Y66609D01*
X288324Y66457D01*
X288830Y65234D01*
X288830Y60686D01*
X288324Y59463D01*
X288321Y59454D01*
X288317Y59446D01*
X288279Y59301D01*
X288240Y59157D01*
X288240Y59147D01*
X288237Y59138D01*
X288227Y58978D01*
X288227Y50436D01*
X286590Y48799D01*
X198867Y48799D01*
G37*
%LPD*%
G36*
X285551Y50339D02*
X285551Y50339D01*
X285669Y50347D01*
X285708Y50359D01*
X285748Y50364D01*
X285859Y50408D01*
X285972Y50445D01*
X286006Y50467D01*
X286044Y50481D01*
X286140Y50551D01*
X286241Y50615D01*
X286268Y50644D01*
X286301Y50668D01*
X286377Y50760D01*
X286459Y50847D01*
X286478Y50882D01*
X286504Y50913D01*
X286555Y51021D01*
X286612Y51125D01*
X286622Y51164D01*
X286639Y51201D01*
X286662Y51318D01*
X286692Y51433D01*
X286695Y51493D01*
X286699Y51513D01*
X286698Y51534D01*
X286702Y51594D01*
X286702Y76994D01*
X286687Y77112D01*
X286679Y77231D01*
X286667Y77269D01*
X286662Y77309D01*
X286618Y77420D01*
X286581Y77533D01*
X286560Y77567D01*
X286545Y77605D01*
X286475Y77701D01*
X286411Y77802D01*
X286382Y77830D01*
X286358Y77862D01*
X286266Y77938D01*
X286180Y78020D01*
X286144Y78039D01*
X286113Y78065D01*
X286005Y78116D01*
X285901Y78173D01*
X285862Y78183D01*
X285825Y78201D01*
X285709Y78223D01*
X285593Y78253D01*
X285533Y78257D01*
X285513Y78260D01*
X285493Y78259D01*
X285433Y78263D01*
X268813Y78263D01*
X233466Y113610D01*
X233388Y113671D01*
X233316Y113739D01*
X233263Y113768D01*
X233215Y113805D01*
X233124Y113844D01*
X233037Y113892D01*
X232979Y113907D01*
X232923Y113931D01*
X232825Y113947D01*
X232729Y113972D01*
X232629Y113978D01*
X232609Y113981D01*
X232597Y113980D01*
X232569Y113982D01*
X199231Y113982D01*
X199113Y113967D01*
X198994Y113959D01*
X198956Y113947D01*
X198916Y113942D01*
X198805Y113898D01*
X198692Y113861D01*
X198658Y113840D01*
X198620Y113825D01*
X198524Y113755D01*
X198423Y113691D01*
X198395Y113662D01*
X198363Y113638D01*
X198287Y113546D01*
X198205Y113460D01*
X198186Y113424D01*
X198160Y113393D01*
X198109Y113285D01*
X198052Y113181D01*
X198042Y113142D01*
X198024Y113105D01*
X198002Y112989D01*
X197972Y112873D01*
X197968Y112813D01*
X197965Y112793D01*
X197966Y112773D01*
X197962Y112713D01*
X197962Y52388D01*
X197974Y52289D01*
X197977Y52190D01*
X197994Y52132D01*
X198002Y52072D01*
X198038Y51980D01*
X198066Y51885D01*
X198097Y51833D01*
X198119Y51776D01*
X198177Y51696D01*
X198227Y51611D01*
X198294Y51535D01*
X198306Y51519D01*
X198315Y51511D01*
X198334Y51490D01*
X199128Y50696D01*
X199206Y50636D01*
X199278Y50568D01*
X199331Y50538D01*
X199379Y50501D01*
X199470Y50462D01*
X199556Y50414D01*
X199615Y50399D01*
X199671Y50375D01*
X199769Y50359D01*
X199864Y50335D01*
X199964Y50328D01*
X199985Y50325D01*
X199997Y50326D01*
X200025Y50325D01*
X285433Y50325D01*
X285551Y50339D01*
G37*
G36*
X210462Y132096D02*
X210462Y132096D01*
X210581Y132103D01*
X210619Y132116D01*
X210659Y132121D01*
X210770Y132164D01*
X210883Y132201D01*
X210917Y132223D01*
X210955Y132238D01*
X211051Y132308D01*
X211152Y132371D01*
X211180Y132401D01*
X211212Y132424D01*
X211288Y132516D01*
X211370Y132603D01*
X211389Y132638D01*
X211415Y132669D01*
X211466Y132777D01*
X211523Y132881D01*
X211533Y132921D01*
X211551Y132957D01*
X211573Y133074D01*
X211603Y133189D01*
X211607Y133250D01*
X211610Y133270D01*
X211609Y133290D01*
X211613Y133350D01*
X211613Y144463D01*
X211594Y144614D01*
X211576Y144767D01*
X211574Y144772D01*
X211573Y144778D01*
X211517Y144920D01*
X211462Y145064D01*
X211458Y145070D01*
X211456Y145074D01*
X211451Y145081D01*
X211377Y145200D01*
X179627Y189650D01*
X179553Y189730D01*
X179486Y189815D01*
X179426Y189868D01*
X179411Y189884D01*
X179397Y189893D01*
X179365Y189921D01*
X175063Y193211D01*
X185663Y210670D01*
X185741Y210846D01*
X185793Y210960D01*
X185793Y210961D01*
X185818Y211107D01*
X185846Y211274D01*
X185841Y211340D01*
X185820Y211591D01*
X185778Y211713D01*
X185716Y211891D01*
X185716Y211892D01*
X185632Y212019D01*
X185541Y212157D01*
X185540Y212157D01*
X185426Y212260D01*
X185305Y212370D01*
X185304Y212370D01*
X185167Y212453D01*
X168276Y221301D01*
X168227Y221320D01*
X168181Y221346D01*
X168078Y221375D01*
X167978Y221412D01*
X167926Y221418D01*
X167875Y221432D01*
X167768Y221435D01*
X167661Y221446D01*
X167610Y221438D01*
X167557Y221440D01*
X167453Y221415D01*
X167347Y221400D01*
X167298Y221380D01*
X167247Y221368D01*
X167152Y221318D01*
X167053Y221277D01*
X167012Y221245D01*
X166965Y221221D01*
X166885Y221150D01*
X166800Y221085D01*
X166767Y221044D01*
X166728Y221009D01*
X166631Y220881D01*
X155382Y204009D01*
X145524Y194151D01*
X111919Y194151D01*
X111821Y194138D01*
X111722Y194135D01*
X111663Y194118D01*
X111603Y194111D01*
X111511Y194074D01*
X111416Y194047D01*
X111364Y194016D01*
X111308Y193994D01*
X111228Y193936D01*
X111142Y193885D01*
X111067Y193819D01*
X111050Y193807D01*
X111042Y193797D01*
X111021Y193779D01*
X103084Y185841D01*
X103023Y185763D01*
X102955Y185691D01*
X102926Y185638D01*
X102889Y185590D01*
X102849Y185499D01*
X102802Y185412D01*
X102787Y185354D01*
X102762Y185298D01*
X102747Y185200D01*
X102722Y185104D01*
X102716Y185004D01*
X102713Y184984D01*
X102714Y184972D01*
X102712Y184944D01*
X102712Y145256D01*
X102724Y145158D01*
X102727Y145059D01*
X102744Y145001D01*
X102752Y144941D01*
X102788Y144849D01*
X102816Y144754D01*
X102847Y144701D01*
X102869Y144645D01*
X102927Y144565D01*
X102977Y144480D01*
X103044Y144404D01*
X103056Y144388D01*
X103065Y144380D01*
X103084Y144359D01*
X103878Y143565D01*
X103956Y143504D01*
X104028Y143436D01*
X104081Y143407D01*
X104129Y143370D01*
X104220Y143331D01*
X104306Y143283D01*
X104365Y143268D01*
X104421Y143244D01*
X104519Y143228D01*
X104614Y143203D01*
X104714Y143197D01*
X104735Y143194D01*
X104747Y143195D01*
X104775Y143193D01*
X115944Y143193D01*
X116062Y143208D01*
X116180Y143216D01*
X116219Y143228D01*
X116259Y143233D01*
X116370Y143277D01*
X116483Y143314D01*
X116517Y143335D01*
X116555Y143350D01*
X116651Y143420D01*
X116752Y143484D01*
X116779Y143513D01*
X116812Y143537D01*
X116888Y143629D01*
X116970Y143715D01*
X116989Y143751D01*
X117015Y143782D01*
X117066Y143890D01*
X117123Y143994D01*
X117133Y144033D01*
X117150Y144070D01*
X117173Y144186D01*
X117203Y144302D01*
X117206Y144362D01*
X117210Y144382D01*
X117209Y144402D01*
X117213Y144463D01*
X117213Y165738D01*
X118373Y166898D01*
X118433Y166976D01*
X118501Y167048D01*
X118530Y167101D01*
X118567Y167149D01*
X118607Y167240D01*
X118655Y167326D01*
X118670Y167385D01*
X118694Y167441D01*
X118709Y167539D01*
X118734Y167634D01*
X118740Y167734D01*
X118744Y167755D01*
X118742Y167767D01*
X118744Y167795D01*
X118744Y178068D01*
X118795Y178118D01*
X160338Y178118D01*
X160436Y178131D01*
X160535Y178134D01*
X160593Y178151D01*
X160653Y178158D01*
X160745Y178195D01*
X160840Y178222D01*
X160892Y178253D01*
X160949Y178275D01*
X161029Y178333D01*
X161114Y178384D01*
X161190Y178450D01*
X161206Y178462D01*
X161214Y178471D01*
X161235Y178490D01*
X162719Y179974D01*
X168007Y174686D01*
X177283Y160802D01*
X177283Y133350D01*
X177298Y133232D01*
X177306Y133113D01*
X177318Y133075D01*
X177323Y133034D01*
X177367Y132924D01*
X177404Y132811D01*
X177425Y132776D01*
X177440Y132739D01*
X177510Y132643D01*
X177574Y132542D01*
X177603Y132514D01*
X177627Y132481D01*
X177719Y132406D01*
X177806Y132324D01*
X177841Y132304D01*
X177872Y132279D01*
X177980Y132228D01*
X178084Y132170D01*
X178123Y132160D01*
X178160Y132143D01*
X178277Y132121D01*
X178392Y132091D01*
X178452Y132087D01*
X178472Y132083D01*
X178492Y132085D01*
X178553Y132081D01*
X210344Y132081D01*
X210462Y132096D01*
G37*
G36*
X-153833Y39078D02*
X-153833Y39078D01*
X-153815Y39077D01*
X-153633Y39099D01*
X-153450Y39119D01*
X-153433Y39125D01*
X-153415Y39127D01*
X-153242Y39185D01*
X-153066Y39241D01*
X-153051Y39249D01*
X-153034Y39255D01*
X-152875Y39347D01*
X-152714Y39436D01*
X-152700Y39447D01*
X-152685Y39456D01*
X-152432Y39671D01*
X-150984Y41118D01*
X-128875Y41118D01*
X-128857Y41120D01*
X-128839Y41119D01*
X-128657Y41140D01*
X-128474Y41158D01*
X-128457Y41164D01*
X-128439Y41166D01*
X-128265Y41223D01*
X-128089Y41277D01*
X-128074Y41285D01*
X-128057Y41291D01*
X-127896Y41381D01*
X-127735Y41468D01*
X-127722Y41480D01*
X-127706Y41488D01*
X-127567Y41609D01*
X-127426Y41726D01*
X-127415Y41740D01*
X-127401Y41752D01*
X-127289Y41897D01*
X-127174Y42040D01*
X-127165Y42056D01*
X-127154Y42070D01*
X-127072Y42235D01*
X-126988Y42397D01*
X-126983Y42414D01*
X-126975Y42430D01*
X-126927Y42608D01*
X-126877Y42784D01*
X-126875Y42802D01*
X-126871Y42819D01*
X-126843Y43150D01*
X-126843Y98138D01*
X-126844Y98143D01*
X-126844Y98146D01*
X-126845Y98157D01*
X-126844Y98173D01*
X-126865Y98356D01*
X-126883Y98538D01*
X-126889Y98555D01*
X-126891Y98573D01*
X-126948Y98748D01*
X-127002Y98923D01*
X-127010Y98939D01*
X-127016Y98956D01*
X-127106Y99116D01*
X-127193Y99277D01*
X-127205Y99291D01*
X-127213Y99307D01*
X-127334Y99446D01*
X-127451Y99587D01*
X-127465Y99598D01*
X-127477Y99611D01*
X-127622Y99724D01*
X-127765Y99839D01*
X-127781Y99847D01*
X-127795Y99858D01*
X-127960Y99940D01*
X-128122Y100024D01*
X-128139Y100029D01*
X-128155Y100037D01*
X-128333Y100085D01*
X-128509Y100136D01*
X-128527Y100137D01*
X-128544Y100142D01*
X-128875Y100169D01*
X-156106Y100169D01*
X-156133Y100166D01*
X-156160Y100168D01*
X-156333Y100146D01*
X-156506Y100129D01*
X-156532Y100121D01*
X-156559Y100118D01*
X-156591Y100107D01*
X-171244Y100107D01*
X-171329Y100132D01*
X-171356Y100135D01*
X-171382Y100142D01*
X-171713Y100169D01*
X-183863Y100169D01*
X-183881Y100167D01*
X-183898Y100169D01*
X-184081Y100147D01*
X-184263Y100129D01*
X-184280Y100124D01*
X-184298Y100122D01*
X-184473Y100065D01*
X-184648Y100011D01*
X-184664Y100002D01*
X-184681Y99997D01*
X-184841Y99907D01*
X-185002Y99819D01*
X-185016Y99808D01*
X-185032Y99799D01*
X-185171Y99679D01*
X-185312Y99561D01*
X-185323Y99548D01*
X-185336Y99536D01*
X-185449Y99391D01*
X-185564Y99248D01*
X-185572Y99232D01*
X-185583Y99218D01*
X-185665Y99053D01*
X-185749Y98890D01*
X-185754Y98873D01*
X-185762Y98857D01*
X-185810Y98679D01*
X-185861Y98503D01*
X-185862Y98486D01*
X-185867Y98468D01*
X-185894Y98138D01*
X-185894Y43150D01*
X-185892Y43132D01*
X-185894Y43114D01*
X-185872Y42932D01*
X-185854Y42749D01*
X-185849Y42732D01*
X-185847Y42714D01*
X-185790Y42540D01*
X-185736Y42364D01*
X-185727Y42349D01*
X-185722Y42332D01*
X-185632Y42171D01*
X-185544Y42010D01*
X-185533Y41997D01*
X-185524Y41981D01*
X-185404Y41842D01*
X-185286Y41701D01*
X-185273Y41690D01*
X-185261Y41676D01*
X-185116Y41564D01*
X-184973Y41449D01*
X-184957Y41440D01*
X-184943Y41429D01*
X-184778Y41347D01*
X-184615Y41263D01*
X-184598Y41258D01*
X-184582Y41250D01*
X-184404Y41202D01*
X-184228Y41152D01*
X-184211Y41150D01*
X-184193Y41146D01*
X-183863Y41118D01*
X-156752Y41118D01*
X-155305Y39671D01*
X-155291Y39659D01*
X-155279Y39646D01*
X-155135Y39532D01*
X-154993Y39416D01*
X-154977Y39407D01*
X-154963Y39396D01*
X-154799Y39313D01*
X-154637Y39227D01*
X-154620Y39222D01*
X-154604Y39214D01*
X-154427Y39165D01*
X-154251Y39112D01*
X-154234Y39111D01*
X-154216Y39106D01*
X-154033Y39092D01*
X-153850Y39076D01*
X-153833Y39078D01*
G37*
G36*
X47545Y139586D02*
X47545Y139586D01*
X47644Y139589D01*
X47702Y139606D01*
X47762Y139614D01*
X47855Y139650D01*
X47950Y139678D01*
X48002Y139708D01*
X48058Y139731D01*
X48138Y139789D01*
X48224Y139839D01*
X48299Y139905D01*
X48315Y139917D01*
X48323Y139927D01*
X48344Y139945D01*
X49814Y141415D01*
X49899Y141524D01*
X49988Y141632D01*
X49996Y141650D01*
X50009Y141666D01*
X50064Y141794D01*
X50123Y141919D01*
X50127Y141939D01*
X50135Y141958D01*
X50157Y142096D01*
X50183Y142232D01*
X50182Y142252D01*
X50185Y142272D01*
X50172Y142411D01*
X50163Y142549D01*
X50157Y142568D01*
X50155Y142589D01*
X50108Y142720D01*
X50065Y142852D01*
X50054Y142869D01*
X50047Y142888D01*
X49969Y143003D01*
X49895Y143120D01*
X49880Y143134D01*
X49869Y143151D01*
X49765Y143243D01*
X49663Y143338D01*
X49646Y143348D01*
X49630Y143362D01*
X49506Y143425D01*
X49385Y143492D01*
X49365Y143497D01*
X49347Y143506D01*
X49211Y143537D01*
X49077Y143571D01*
X49049Y143573D01*
X49037Y143576D01*
X49016Y143575D01*
X48916Y143582D01*
X41906Y143582D01*
X41013Y144475D01*
X41013Y144689D01*
X41009Y144718D01*
X41011Y144748D01*
X40989Y144876D01*
X40973Y145004D01*
X40962Y145032D01*
X40957Y145061D01*
X40904Y145179D01*
X40856Y145300D01*
X40839Y145324D01*
X40826Y145351D01*
X40745Y145452D01*
X40669Y145557D01*
X40646Y145576D01*
X40628Y145599D01*
X40524Y145677D01*
X40424Y145760D01*
X40397Y145773D01*
X40374Y145791D01*
X40229Y145861D01*
X39137Y146314D01*
X37645Y147806D01*
X36837Y149757D01*
X36837Y151868D01*
X37645Y153819D01*
X39137Y155311D01*
X40229Y155764D01*
X40255Y155778D01*
X40283Y155787D01*
X40393Y155857D01*
X40505Y155921D01*
X40527Y155942D01*
X40552Y155957D01*
X40641Y156052D01*
X40734Y156142D01*
X40749Y156168D01*
X40770Y156189D01*
X40832Y156303D01*
X40900Y156414D01*
X40909Y156442D01*
X40923Y156468D01*
X40955Y156593D01*
X40994Y156717D01*
X40995Y156747D01*
X41003Y156776D01*
X41013Y156936D01*
X41013Y165738D01*
X41906Y166631D01*
X50169Y166631D01*
X51062Y165738D01*
X51062Y145728D01*
X51080Y145590D01*
X51093Y145451D01*
X51100Y145432D01*
X51102Y145412D01*
X51153Y145283D01*
X51200Y145152D01*
X51212Y145135D01*
X51219Y145116D01*
X51301Y145004D01*
X51379Y144889D01*
X51394Y144875D01*
X51406Y144859D01*
X51513Y144770D01*
X51617Y144678D01*
X51635Y144669D01*
X51651Y144656D01*
X51777Y144597D01*
X51901Y144534D01*
X51920Y144529D01*
X51939Y144521D01*
X52075Y144495D01*
X52211Y144464D01*
X52231Y144465D01*
X52251Y144461D01*
X52389Y144469D01*
X52529Y144474D01*
X52548Y144479D01*
X52568Y144481D01*
X52701Y144523D01*
X52834Y144562D01*
X52852Y144572D01*
X52871Y144579D01*
X52988Y144653D01*
X53108Y144724D01*
X53129Y144742D01*
X53140Y144749D01*
X53154Y144764D01*
X53229Y144830D01*
X53341Y144942D01*
X53402Y145020D01*
X53470Y145092D01*
X53499Y145145D01*
X53536Y145193D01*
X53575Y145284D01*
X53623Y145371D01*
X53638Y145429D01*
X53662Y145485D01*
X53678Y145583D01*
X53703Y145679D01*
X53709Y145779D01*
X53712Y145799D01*
X53711Y145812D01*
X53713Y145840D01*
X53713Y165738D01*
X54606Y166631D01*
X62869Y166631D01*
X63762Y165738D01*
X63762Y145728D01*
X63780Y145590D01*
X63793Y145451D01*
X63800Y145432D01*
X63802Y145412D01*
X63853Y145283D01*
X63900Y145152D01*
X63912Y145135D01*
X63919Y145116D01*
X64001Y145004D01*
X64079Y144889D01*
X64094Y144875D01*
X64106Y144859D01*
X64213Y144770D01*
X64317Y144678D01*
X64335Y144669D01*
X64351Y144656D01*
X64477Y144597D01*
X64601Y144534D01*
X64620Y144529D01*
X64639Y144521D01*
X64775Y144495D01*
X64911Y144464D01*
X64931Y144465D01*
X64951Y144461D01*
X65089Y144469D01*
X65229Y144474D01*
X65248Y144479D01*
X65268Y144481D01*
X65401Y144523D01*
X65534Y144562D01*
X65552Y144572D01*
X65571Y144579D01*
X65688Y144653D01*
X65808Y144724D01*
X65829Y144742D01*
X65840Y144749D01*
X65854Y144764D01*
X65929Y144830D01*
X66041Y144942D01*
X66102Y145020D01*
X66170Y145092D01*
X66199Y145145D01*
X66236Y145193D01*
X66275Y145284D01*
X66323Y145371D01*
X66338Y145429D01*
X66362Y145485D01*
X66378Y145583D01*
X66403Y145679D01*
X66409Y145779D01*
X66412Y145799D01*
X66411Y145812D01*
X66413Y145840D01*
X66413Y165738D01*
X67306Y166631D01*
X75569Y166631D01*
X76462Y165738D01*
X76462Y147315D01*
X76480Y147177D01*
X76493Y147038D01*
X76500Y147020D01*
X76502Y146999D01*
X76553Y146870D01*
X76600Y146739D01*
X76612Y146723D01*
X76619Y146704D01*
X76701Y146591D01*
X76779Y146476D01*
X76794Y146463D01*
X76806Y146446D01*
X76913Y146358D01*
X77017Y146266D01*
X77035Y146257D01*
X77051Y146244D01*
X77177Y146184D01*
X77301Y146121D01*
X77320Y146117D01*
X77339Y146108D01*
X77475Y146082D01*
X77611Y146051D01*
X77631Y146052D01*
X77651Y146048D01*
X77789Y146057D01*
X77929Y146061D01*
X77948Y146067D01*
X77968Y146068D01*
X78101Y146111D01*
X78234Y146150D01*
X78252Y146160D01*
X78271Y146166D01*
X78388Y146241D01*
X78508Y146311D01*
X78529Y146330D01*
X78540Y146336D01*
X78554Y146351D01*
X78629Y146418D01*
X78741Y146530D01*
X78802Y146608D01*
X78870Y146680D01*
X78899Y146733D01*
X78936Y146781D01*
X78975Y146872D01*
X79023Y146958D01*
X79038Y147017D01*
X79062Y147073D01*
X79078Y147171D01*
X79103Y147266D01*
X79109Y147367D01*
X79112Y147387D01*
X79111Y147399D01*
X79113Y147427D01*
X79113Y165738D01*
X80006Y166631D01*
X86424Y166631D01*
X86542Y166646D01*
X86660Y166653D01*
X86699Y166666D01*
X86739Y166671D01*
X86850Y166715D01*
X86963Y166751D01*
X86997Y166773D01*
X87035Y166788D01*
X87131Y166858D01*
X87232Y166921D01*
X87259Y166951D01*
X87292Y166975D01*
X87368Y167066D01*
X87450Y167153D01*
X87469Y167189D01*
X87495Y167220D01*
X87546Y167327D01*
X87603Y167432D01*
X87613Y167471D01*
X87630Y167507D01*
X87653Y167624D01*
X87683Y167740D01*
X87686Y167800D01*
X87690Y167820D01*
X87689Y167840D01*
X87693Y167900D01*
X87693Y201431D01*
X87678Y201551D01*
X87670Y201665D01*
X87664Y201685D01*
X87662Y201709D01*
X87655Y201727D01*
X87653Y201746D01*
X87605Y201867D01*
X87572Y201968D01*
X87563Y201983D01*
X87554Y202008D01*
X87543Y202024D01*
X87536Y202042D01*
X87455Y202154D01*
X87402Y202236D01*
X87391Y202247D01*
X87375Y202271D01*
X87360Y202284D01*
X87349Y202299D01*
X87241Y202389D01*
X87233Y202395D01*
X87171Y202454D01*
X87159Y202461D01*
X87136Y202481D01*
X87119Y202490D01*
X87104Y202502D01*
X86978Y202562D01*
X86959Y202571D01*
X86892Y202608D01*
X86881Y202611D01*
X86852Y202625D01*
X86834Y202629D01*
X86816Y202638D01*
X86679Y202664D01*
X86652Y202670D01*
X86584Y202687D01*
X86569Y202688D01*
X86542Y202694D01*
X86523Y202694D01*
X86504Y202697D01*
X86465Y202695D01*
X86424Y202698D01*
X86420Y202698D01*
X86344Y202688D01*
X86224Y202684D01*
X86206Y202679D01*
X86187Y202678D01*
X86139Y202662D01*
X86104Y202658D01*
X86022Y202625D01*
X85919Y202595D01*
X85895Y202583D01*
X85884Y202580D01*
X85867Y202569D01*
X85825Y202547D01*
X85808Y202541D01*
X85799Y202534D01*
X85775Y202522D01*
X17723Y162105D01*
X17636Y162037D01*
X17543Y161976D01*
X17489Y161923D01*
X17472Y161910D01*
X17461Y161896D01*
X17428Y161863D01*
X16847Y161218D01*
X16832Y161197D01*
X16813Y161179D01*
X16719Y161049D01*
X16395Y160539D01*
X16339Y160519D01*
X16333Y160515D01*
X16326Y160513D01*
X16200Y160427D01*
X16074Y160344D01*
X16066Y160337D01*
X16063Y160334D01*
X16055Y160326D01*
X15958Y160231D01*
X15232Y159424D01*
X15145Y159299D01*
X15057Y159176D01*
X15054Y159169D01*
X15050Y159163D01*
X14997Y159020D01*
X14974Y158960D01*
X14498Y158583D01*
X14480Y158564D01*
X14458Y158550D01*
X14343Y158437D01*
X13939Y157988D01*
X13880Y157979D01*
X13874Y157976D01*
X13866Y157974D01*
X13728Y157911D01*
X13590Y157850D01*
X13582Y157844D01*
X13577Y157842D01*
X13568Y157835D01*
X13457Y157758D01*
X12606Y157083D01*
X12500Y156975D01*
X12393Y156867D01*
X12389Y156861D01*
X12384Y156856D01*
X12308Y156725D01*
X12275Y156668D01*
X11743Y156376D01*
X11722Y156361D01*
X11698Y156350D01*
X11566Y156258D01*
X11093Y155883D01*
X11033Y155883D01*
X11026Y155882D01*
X11018Y155881D01*
X10872Y155842D01*
X10725Y155805D01*
X10716Y155800D01*
X10711Y155799D01*
X10701Y155794D01*
X10579Y155736D01*
X9627Y155213D01*
X9506Y155125D01*
X9381Y155036D01*
X9376Y155030D01*
X9370Y155026D01*
X9274Y154910D01*
X9231Y154859D01*
X8658Y154660D01*
X8635Y154648D01*
X8609Y154642D01*
X8464Y154573D01*
X7935Y154282D01*
X7876Y154292D01*
X7868Y154292D01*
X7861Y154293D01*
X7709Y154279D01*
X7559Y154266D01*
X7549Y154264D01*
X7545Y154263D01*
X7534Y154259D01*
X7404Y154223D01*
X6378Y153866D01*
X6242Y153798D01*
X6105Y153732D01*
X6100Y153728D01*
X6093Y153724D01*
X5979Y153626D01*
X5928Y153583D01*
X5330Y153482D01*
X5305Y153475D01*
X5279Y153472D01*
X5124Y153429D01*
X4554Y153231D01*
X4498Y153250D01*
X4490Y153251D01*
X4483Y153253D01*
X4332Y153264D01*
X4181Y153277D01*
X4171Y153276D01*
X4166Y153277D01*
X4155Y153275D01*
X4021Y153261D01*
X2950Y153079D01*
X2804Y153035D01*
X2659Y152993D01*
X2652Y152990D01*
X2645Y152988D01*
X2516Y152909D01*
X2459Y152876D01*
X1852Y152876D01*
X1826Y152872D01*
X1801Y152875D01*
X1640Y152858D01*
X1045Y152757D01*
X993Y152786D01*
X986Y152788D01*
X979Y152791D01*
X832Y152828D01*
X685Y152866D01*
X675Y152866D01*
X670Y152867D01*
X659Y152867D01*
X524Y152876D01*
X-562Y152876D01*
X-712Y152857D01*
X-863Y152839D01*
X-870Y152837D01*
X-877Y152836D01*
X-1018Y152780D01*
X-1079Y152757D01*
X-1678Y152858D01*
X-1704Y152859D01*
X-1729Y152866D01*
X-1890Y152876D01*
X-2493Y152876D01*
X-2540Y152913D01*
X-2547Y152916D01*
X-2553Y152920D01*
X-2692Y152981D01*
X-2831Y153043D01*
X-2840Y153045D01*
X-2844Y153047D01*
X-2856Y153048D01*
X-2987Y153079D01*
X-4058Y153261D01*
X-4209Y153267D01*
X-4361Y153275D01*
X-4368Y153274D01*
X-4376Y153274D01*
X-4524Y153242D01*
X-4588Y153229D01*
X-5162Y153429D01*
X-5187Y153435D01*
X-5211Y153445D01*
X-5367Y153482D01*
X-5963Y153583D01*
X-6002Y153627D01*
X-6009Y153631D01*
X-6014Y153637D01*
X-6140Y153719D01*
X-6267Y153803D01*
X-6276Y153807D01*
X-6280Y153810D01*
X-6291Y153813D01*
X-6416Y153866D01*
X-7441Y154223D01*
X-7591Y154255D01*
X-7738Y154288D01*
X-7745Y154288D01*
X-7752Y154289D01*
X-7904Y154283D01*
X-7969Y154281D01*
X-8501Y154573D01*
X-8525Y154583D01*
X-8547Y154597D01*
X-8695Y154660D01*
X-9249Y154853D01*
X-9385Y154882D01*
X-9521Y154915D01*
X-9549Y154916D01*
X-9560Y154919D01*
X-9581Y154918D01*
X-9682Y154923D01*
X-81771Y154065D01*
X-81882Y154050D01*
X-81993Y154043D01*
X-82039Y154028D01*
X-82086Y154021D01*
X-82190Y153979D01*
X-82296Y153945D01*
X-82336Y153919D01*
X-82381Y153901D01*
X-82470Y153834D01*
X-82564Y153775D01*
X-82597Y153740D01*
X-82636Y153711D01*
X-82706Y153624D01*
X-82782Y153543D01*
X-82805Y153501D01*
X-82836Y153464D01*
X-82882Y153362D01*
X-82936Y153264D01*
X-82948Y153218D01*
X-82968Y153174D01*
X-82987Y153065D01*
X-83015Y152957D01*
X-83020Y152883D01*
X-83024Y152861D01*
X-83022Y152843D01*
X-83026Y152796D01*
X-83026Y140843D01*
X-83011Y140725D01*
X-83003Y140606D01*
X-82991Y140568D01*
X-82986Y140527D01*
X-82942Y140417D01*
X-82905Y140304D01*
X-82884Y140269D01*
X-82869Y140232D01*
X-82799Y140136D01*
X-82735Y140035D01*
X-82706Y140007D01*
X-82682Y139974D01*
X-82590Y139898D01*
X-82503Y139817D01*
X-82468Y139797D01*
X-82437Y139772D01*
X-82329Y139721D01*
X-82225Y139663D01*
X-82186Y139653D01*
X-82149Y139636D01*
X-82032Y139614D01*
X-81917Y139584D01*
X-81857Y139580D01*
X-81837Y139576D01*
X-81816Y139578D01*
X-81756Y139574D01*
X47447Y139574D01*
X47545Y139586D01*
G37*
G36*
X222383Y-19385D02*
X222383Y-19385D01*
X222475Y-19384D01*
X222540Y-19365D01*
X222608Y-19357D01*
X222693Y-19323D01*
X222781Y-19299D01*
X222840Y-19265D01*
X222904Y-19240D01*
X222978Y-19186D01*
X223057Y-19141D01*
X223106Y-19093D01*
X223161Y-19053D01*
X223219Y-18982D01*
X223285Y-18919D01*
X223353Y-18821D01*
X223364Y-18808D01*
X223367Y-18801D01*
X223377Y-18787D01*
X227004Y-12820D01*
X227057Y-12703D01*
X227114Y-12589D01*
X227121Y-12559D01*
X227134Y-12530D01*
X227156Y-12404D01*
X227183Y-12279D01*
X227182Y-12247D01*
X227188Y-12216D01*
X227177Y-12089D01*
X227173Y-11961D01*
X227164Y-11931D01*
X227162Y-11899D01*
X227120Y-11778D01*
X227084Y-11656D01*
X227063Y-11615D01*
X227058Y-11599D01*
X227046Y-11581D01*
X227011Y-11512D01*
X210819Y15719D01*
X210819Y34925D01*
X210804Y35043D01*
X210797Y35162D01*
X210784Y35200D01*
X210779Y35241D01*
X210736Y35351D01*
X210699Y35464D01*
X210677Y35499D01*
X210662Y35536D01*
X210593Y35632D01*
X210529Y35733D01*
X210499Y35761D01*
X210476Y35794D01*
X210384Y35870D01*
X210297Y35951D01*
X210262Y35971D01*
X210231Y35996D01*
X210123Y36047D01*
X210019Y36105D01*
X209979Y36115D01*
X209943Y36132D01*
X209826Y36154D01*
X209711Y36184D01*
X209651Y36188D01*
X209631Y36192D01*
X209610Y36190D01*
X209550Y36194D01*
X179029Y36194D01*
X178933Y36182D01*
X178837Y36180D01*
X178776Y36162D01*
X178713Y36154D01*
X178623Y36119D01*
X178531Y36093D01*
X178476Y36061D01*
X178417Y36037D01*
X178339Y35981D01*
X178256Y35932D01*
X178211Y35888D01*
X178160Y35851D01*
X178099Y35776D01*
X178030Y35709D01*
X177998Y35654D01*
X177957Y35606D01*
X177916Y35518D01*
X177867Y35436D01*
X177849Y35375D01*
X177822Y35318D01*
X177804Y35223D01*
X177776Y35131D01*
X177765Y35024D01*
X177762Y35006D01*
X177763Y34995D01*
X177760Y34971D01*
X176866Y10106D01*
X152360Y9669D01*
X152273Y9656D01*
X152185Y9653D01*
X152116Y9634D01*
X152045Y9623D01*
X151964Y9589D01*
X151936Y9582D01*
X147485Y9582D01*
X147478Y9581D01*
X147462Y9581D01*
X117157Y9041D01*
X117157Y30956D01*
X117142Y31074D01*
X117134Y31193D01*
X117122Y31232D01*
X117117Y31272D01*
X117073Y31383D01*
X117036Y31496D01*
X117015Y31530D01*
X117000Y31567D01*
X116930Y31664D01*
X116866Y31764D01*
X116837Y31792D01*
X116813Y31825D01*
X116721Y31901D01*
X116635Y31982D01*
X116599Y32002D01*
X116568Y32028D01*
X116460Y32078D01*
X116356Y32136D01*
X116317Y32146D01*
X116280Y32163D01*
X116164Y32186D01*
X116048Y32215D01*
X115988Y32219D01*
X115968Y32223D01*
X115948Y32222D01*
X115888Y32226D01*
X107156Y32226D01*
X107049Y32212D01*
X106941Y32207D01*
X106892Y32192D01*
X106841Y32186D01*
X106740Y32146D01*
X106637Y32114D01*
X106593Y32088D01*
X106545Y32069D01*
X106458Y32005D01*
X106365Y31949D01*
X106329Y31912D01*
X106288Y31882D01*
X106219Y31799D01*
X106143Y31721D01*
X106118Y31676D01*
X106085Y31637D01*
X106039Y31539D01*
X105985Y31445D01*
X105971Y31396D01*
X105949Y31349D01*
X105929Y31243D01*
X105900Y31139D01*
X105894Y31058D01*
X105890Y31037D01*
X105891Y31020D01*
X105887Y30978D01*
X105296Y-3318D01*
X105307Y-3421D01*
X105309Y-3526D01*
X105324Y-3579D01*
X105330Y-3634D01*
X105367Y-3731D01*
X105395Y-3832D01*
X105423Y-3880D01*
X105442Y-3931D01*
X105502Y-4017D01*
X105554Y-4107D01*
X105612Y-4174D01*
X105625Y-4192D01*
X105636Y-4201D01*
X105660Y-4229D01*
X109399Y-8033D01*
X109481Y-8098D01*
X109557Y-8170D01*
X109605Y-8196D01*
X109649Y-8231D01*
X109744Y-8273D01*
X109836Y-8323D01*
X109889Y-8337D01*
X109939Y-8359D01*
X110042Y-8377D01*
X110143Y-8403D01*
X110232Y-8408D01*
X110253Y-8412D01*
X110268Y-8411D01*
X110304Y-8413D01*
X197912Y-8413D01*
X208524Y-19025D01*
X208602Y-19086D01*
X208674Y-19153D01*
X208727Y-19183D01*
X208775Y-19220D01*
X208866Y-19259D01*
X208953Y-19307D01*
X209011Y-19322D01*
X209067Y-19346D01*
X209165Y-19362D01*
X209260Y-19386D01*
X209361Y-19393D01*
X209381Y-19396D01*
X209393Y-19395D01*
X209421Y-19397D01*
X222292Y-19397D01*
X222383Y-19385D01*
G37*
G36*
X89539Y-25749D02*
X89539Y-25749D01*
X89671Y-25737D01*
X89697Y-25728D01*
X89724Y-25724D01*
X89846Y-25674D01*
X89970Y-25629D01*
X89993Y-25614D01*
X90019Y-25603D01*
X90124Y-25525D01*
X90233Y-25451D01*
X90252Y-25430D01*
X90274Y-25414D01*
X90357Y-25311D01*
X90444Y-25212D01*
X90456Y-25188D01*
X90474Y-25166D01*
X90529Y-25046D01*
X90589Y-24929D01*
X90595Y-24902D01*
X90606Y-24877D01*
X90629Y-24747D01*
X90658Y-24619D01*
X90657Y-24591D01*
X90662Y-24564D01*
X90653Y-24433D01*
X90649Y-24301D01*
X90641Y-24274D01*
X90639Y-24247D01*
X90597Y-24122D01*
X90560Y-23996D01*
X90546Y-23972D01*
X90537Y-23946D01*
X90465Y-23835D01*
X90399Y-23722D01*
X90373Y-23692D01*
X90364Y-23679D01*
X90348Y-23664D01*
X90292Y-23601D01*
X86899Y-20208D01*
X86899Y-6206D01*
X86884Y-6088D01*
X86877Y-5970D01*
X86864Y-5931D01*
X86859Y-5891D01*
X86815Y-5780D01*
X86779Y-5667D01*
X86757Y-5633D01*
X86742Y-5595D01*
X86672Y-5499D01*
X86609Y-5398D01*
X86579Y-5371D01*
X86555Y-5338D01*
X86464Y-5262D01*
X86377Y-5180D01*
X86341Y-5161D01*
X86310Y-5135D01*
X86203Y-5084D01*
X86098Y-5027D01*
X86059Y-5017D01*
X86023Y-5000D01*
X85906Y-4977D01*
X85790Y-4947D01*
X85730Y-4944D01*
X85710Y-4940D01*
X85690Y-4941D01*
X85630Y-4937D01*
X76092Y-4937D01*
X74861Y-3706D01*
X74854Y-3701D01*
X74848Y-3693D01*
X74729Y-3604D01*
X74610Y-3512D01*
X74601Y-3508D01*
X74594Y-3502D01*
X74449Y-3431D01*
X73194Y-2911D01*
X71701Y-1419D01*
X70893Y532D01*
X70893Y2643D01*
X71701Y4594D01*
X73194Y6086D01*
X74449Y6606D01*
X74458Y6611D01*
X74466Y6614D01*
X74596Y6690D01*
X74726Y6764D01*
X74732Y6770D01*
X74740Y6775D01*
X74861Y6881D01*
X75394Y7415D01*
X75480Y7525D01*
X75568Y7632D01*
X75577Y7650D01*
X75589Y7666D01*
X75645Y7794D01*
X75704Y7919D01*
X75708Y7939D01*
X75716Y7958D01*
X75738Y8096D01*
X75764Y8232D01*
X75762Y8252D01*
X75766Y8272D01*
X75753Y8411D01*
X75744Y8549D01*
X75738Y8568D01*
X75736Y8589D01*
X75689Y8720D01*
X75646Y8852D01*
X75635Y8869D01*
X75628Y8888D01*
X75550Y9003D01*
X75476Y9120D01*
X75461Y9134D01*
X75450Y9151D01*
X75346Y9243D01*
X75244Y9338D01*
X75226Y9348D01*
X75211Y9362D01*
X75088Y9425D01*
X74966Y9492D01*
X74946Y9497D01*
X74928Y9506D01*
X74792Y9537D01*
X74658Y9571D01*
X74630Y9573D01*
X74618Y9576D01*
X74597Y9575D01*
X74497Y9582D01*
X67306Y9582D01*
X66413Y10475D01*
X66413Y29579D01*
X66400Y29677D01*
X66397Y29776D01*
X66381Y29835D01*
X66373Y29895D01*
X66337Y29987D01*
X66309Y30082D01*
X66278Y30134D01*
X66256Y30190D01*
X66198Y30270D01*
X66148Y30356D01*
X66081Y30431D01*
X66069Y30448D01*
X66060Y30455D01*
X66041Y30477D01*
X65929Y30589D01*
X65819Y30674D01*
X65712Y30763D01*
X65694Y30771D01*
X65678Y30784D01*
X65550Y30839D01*
X65424Y30898D01*
X65405Y30902D01*
X65386Y30910D01*
X65249Y30932D01*
X65112Y30958D01*
X65092Y30957D01*
X65072Y30960D01*
X64933Y30947D01*
X64795Y30938D01*
X64775Y30932D01*
X64755Y30930D01*
X64624Y30883D01*
X64492Y30840D01*
X64475Y30829D01*
X64456Y30823D01*
X64341Y30745D01*
X64223Y30670D01*
X64209Y30655D01*
X64193Y30644D01*
X64101Y30540D01*
X64005Y30438D01*
X63996Y30421D01*
X63982Y30406D01*
X63919Y30282D01*
X63852Y30160D01*
X63847Y30140D01*
X63838Y30122D01*
X63807Y29986D01*
X63772Y29852D01*
X63771Y29824D01*
X63768Y29812D01*
X63769Y29791D01*
X63762Y29691D01*
X63762Y10475D01*
X62869Y9582D01*
X54606Y9582D01*
X53713Y10475D01*
X53713Y29579D01*
X53700Y29677D01*
X53697Y29776D01*
X53681Y29835D01*
X53673Y29895D01*
X53637Y29987D01*
X53609Y30082D01*
X53578Y30134D01*
X53556Y30190D01*
X53498Y30270D01*
X53448Y30356D01*
X53381Y30431D01*
X53369Y30448D01*
X53360Y30455D01*
X53341Y30477D01*
X53229Y30589D01*
X53119Y30674D01*
X53012Y30763D01*
X52994Y30771D01*
X52978Y30784D01*
X52850Y30839D01*
X52724Y30898D01*
X52705Y30902D01*
X52686Y30910D01*
X52549Y30932D01*
X52412Y30958D01*
X52392Y30957D01*
X52372Y30960D01*
X52233Y30947D01*
X52095Y30938D01*
X52075Y30932D01*
X52055Y30930D01*
X51924Y30883D01*
X51792Y30840D01*
X51775Y30829D01*
X51756Y30823D01*
X51641Y30745D01*
X51523Y30670D01*
X51509Y30655D01*
X51493Y30644D01*
X51401Y30540D01*
X51305Y30438D01*
X51296Y30421D01*
X51282Y30406D01*
X51219Y30282D01*
X51152Y30160D01*
X51147Y30140D01*
X51138Y30122D01*
X51107Y29986D01*
X51072Y29852D01*
X51071Y29824D01*
X51068Y29812D01*
X51069Y29791D01*
X51062Y29691D01*
X51062Y10475D01*
X50169Y9582D01*
X41906Y9582D01*
X41013Y10475D01*
X41013Y27198D01*
X41000Y27296D01*
X40997Y27395D01*
X40981Y27453D01*
X40973Y27513D01*
X40936Y27606D01*
X40909Y27701D01*
X40878Y27753D01*
X40856Y27809D01*
X40798Y27889D01*
X40747Y27975D01*
X40681Y28050D01*
X40669Y28067D01*
X40660Y28074D01*
X40641Y28095D01*
X30030Y38706D01*
X29952Y38767D01*
X29880Y38835D01*
X29827Y38864D01*
X29779Y38901D01*
X29688Y38940D01*
X29601Y38988D01*
X29543Y39003D01*
X29487Y39027D01*
X29389Y39043D01*
X29293Y39068D01*
X29193Y39074D01*
X29173Y39077D01*
X29161Y39076D01*
X29133Y39078D01*
X-56123Y39078D01*
X-56192Y39069D01*
X-56261Y39070D01*
X-56349Y39049D01*
X-56439Y39038D01*
X-56503Y39013D01*
X-56570Y38997D01*
X-56650Y38954D01*
X-56734Y38921D01*
X-56790Y38880D01*
X-56852Y38848D01*
X-56919Y38787D01*
X-56992Y38734D01*
X-57036Y38681D01*
X-57087Y38634D01*
X-57137Y38559D01*
X-57195Y38489D01*
X-57224Y38427D01*
X-57262Y38369D01*
X-57292Y38283D01*
X-57330Y38202D01*
X-57343Y38134D01*
X-57366Y38068D01*
X-57373Y37978D01*
X-57390Y37889D01*
X-57386Y37820D01*
X-57391Y37751D01*
X-57376Y37662D01*
X-57370Y37572D01*
X-57349Y37506D01*
X-57337Y37438D01*
X-57300Y37355D01*
X-57272Y37269D01*
X-57235Y37211D01*
X-57207Y37148D01*
X-57114Y37016D01*
X-51157Y29569D01*
X-43169Y1611D01*
X-43132Y1525D01*
X-43105Y1437D01*
X-43070Y1380D01*
X-43044Y1318D01*
X-42987Y1245D01*
X-42939Y1166D01*
X-42891Y1119D01*
X-42850Y1066D01*
X-42777Y1009D01*
X-42710Y944D01*
X-42652Y911D01*
X-42599Y870D01*
X-42515Y833D01*
X-42434Y787D01*
X-42370Y769D01*
X-42308Y742D01*
X-42217Y727D01*
X-42127Y703D01*
X-42060Y702D01*
X-41994Y691D01*
X-41902Y699D01*
X-41809Y698D01*
X-41744Y713D01*
X-41678Y719D01*
X-41590Y750D01*
X-41500Y772D01*
X-41394Y820D01*
X-41378Y825D01*
X-41371Y830D01*
X-41353Y838D01*
X-16753Y13891D01*
X-16681Y13941D01*
X-16603Y13984D01*
X-16552Y14033D01*
X-16517Y14057D01*
X-16376Y14106D01*
X-16370Y14110D01*
X-16363Y14112D01*
X-16238Y14198D01*
X-16111Y14281D01*
X-16104Y14288D01*
X-16100Y14291D01*
X-16093Y14299D01*
X-15996Y14394D01*
X-15269Y15201D01*
X-15182Y15326D01*
X-15094Y15449D01*
X-15092Y15456D01*
X-15088Y15462D01*
X-15035Y15605D01*
X-15011Y15665D01*
X-14536Y16042D01*
X-14517Y16061D01*
X-14496Y16075D01*
X-14381Y16188D01*
X-13977Y16637D01*
X-13918Y16646D01*
X-13911Y16649D01*
X-13904Y16651D01*
X-13766Y16714D01*
X-13627Y16775D01*
X-13619Y16781D01*
X-13615Y16783D01*
X-13606Y16790D01*
X-13495Y16867D01*
X-12644Y17542D01*
X-12538Y17650D01*
X-12430Y17757D01*
X-12426Y17764D01*
X-12421Y17769D01*
X-12346Y17900D01*
X-12312Y17957D01*
X-11780Y18249D01*
X-11759Y18264D01*
X-11735Y18275D01*
X-11603Y18367D01*
X-11130Y18742D01*
X-11070Y18742D01*
X-11063Y18743D01*
X-11056Y18744D01*
X-10909Y18783D01*
X-10762Y18820D01*
X-10753Y18825D01*
X-10749Y18826D01*
X-10739Y18831D01*
X-10617Y18889D01*
X-9665Y19412D01*
X-9542Y19501D01*
X-9418Y19589D01*
X-9413Y19595D01*
X-9407Y19599D01*
X-9310Y19716D01*
X-9269Y19766D01*
X-8695Y19965D01*
X-8672Y19977D01*
X-8647Y19983D01*
X-8501Y20052D01*
X-7972Y20343D01*
X-7913Y20333D01*
X-7906Y20333D01*
X-7899Y20332D01*
X-7746Y20346D01*
X-7596Y20359D01*
X-7587Y20361D01*
X-7582Y20362D01*
X-7571Y20366D01*
X-7441Y20402D01*
X-6416Y20759D01*
X-6279Y20827D01*
X-6143Y20893D01*
X-6137Y20897D01*
X-6131Y20901D01*
X-6016Y20999D01*
X-5966Y21042D01*
X-5367Y21143D01*
X-5343Y21151D01*
X-5317Y21153D01*
X-5162Y21196D01*
X-4591Y21394D01*
X-4535Y21375D01*
X-4528Y21374D01*
X-4521Y21372D01*
X-4369Y21361D01*
X-4218Y21348D01*
X-4208Y21349D01*
X-4204Y21348D01*
X-4192Y21350D01*
X-4058Y21364D01*
X-2987Y21546D01*
X-2842Y21589D01*
X-2696Y21632D01*
X-2690Y21635D01*
X-2683Y21638D01*
X-2553Y21716D01*
X-2497Y21749D01*
X-2258Y21749D01*
X-2189Y21758D01*
X-2119Y21757D01*
X-2032Y21778D01*
X-1943Y21789D01*
X-1878Y21815D01*
X-1810Y21831D01*
X-1663Y21897D01*
X-1151Y22169D01*
X-1110Y22162D01*
X-978Y22134D01*
X-954Y22135D01*
X-930Y22131D01*
X-795Y22142D01*
X-660Y22147D01*
X-628Y22155D01*
X-613Y22156D01*
X-593Y22163D01*
X-589Y22164D01*
X-93Y21899D01*
X-26Y21874D01*
X37Y21839D01*
X122Y21817D01*
X204Y21786D01*
X276Y21777D01*
X345Y21759D01*
X506Y21749D01*
X524Y21749D01*
X675Y21768D01*
X826Y21786D01*
X833Y21788D01*
X840Y21789D01*
X980Y21845D01*
X1042Y21868D01*
X1640Y21767D01*
X1666Y21766D01*
X1691Y21759D01*
X1852Y21749D01*
X2456Y21749D01*
X2503Y21712D01*
X2509Y21709D01*
X2515Y21705D01*
X2655Y21644D01*
X2793Y21582D01*
X2803Y21580D01*
X2807Y21578D01*
X2819Y21576D01*
X2950Y21546D01*
X4021Y21364D01*
X4172Y21358D01*
X4324Y21350D01*
X4331Y21351D01*
X4338Y21351D01*
X4487Y21383D01*
X4551Y21396D01*
X5124Y21196D01*
X5149Y21190D01*
X5173Y21180D01*
X5330Y21143D01*
X5925Y21042D01*
X5965Y20998D01*
X5971Y20994D01*
X5976Y20988D01*
X6103Y20906D01*
X6230Y20822D01*
X6239Y20818D01*
X6243Y20815D01*
X6254Y20812D01*
X6378Y20759D01*
X7404Y20402D01*
X7553Y20370D01*
X7700Y20337D01*
X7708Y20337D01*
X7715Y20336D01*
X7867Y20342D01*
X7932Y20344D01*
X8464Y20052D01*
X8488Y20042D01*
X8509Y20028D01*
X8658Y19965D01*
X9228Y19767D01*
X9260Y19716D01*
X9265Y19711D01*
X9269Y19705D01*
X9380Y19603D01*
X9491Y19498D01*
X9500Y19493D01*
X9503Y19490D01*
X9513Y19485D01*
X9627Y19412D01*
X10579Y18889D01*
X10720Y18833D01*
X10861Y18775D01*
X10868Y18774D01*
X10875Y18772D01*
X11025Y18753D01*
X11090Y18744D01*
X11566Y18367D01*
X11588Y18353D01*
X11607Y18335D01*
X11743Y18249D01*
X12272Y17958D01*
X12295Y17903D01*
X12299Y17897D01*
X12302Y17891D01*
X12395Y17771D01*
X12487Y17650D01*
X12494Y17643D01*
X12497Y17639D01*
X12506Y17632D01*
X12606Y17542D01*
X13457Y16867D01*
X13587Y16789D01*
X13716Y16708D01*
X13723Y16706D01*
X13729Y16702D01*
X13875Y16658D01*
X13937Y16639D01*
X14343Y16188D01*
X14363Y16171D01*
X14378Y16150D01*
X14498Y16042D01*
X14971Y15667D01*
X14985Y15609D01*
X14988Y15603D01*
X14990Y15596D01*
X15062Y15461D01*
X15132Y15327D01*
X15138Y15320D01*
X15140Y15315D01*
X15148Y15307D01*
X15232Y15201D01*
X15958Y14394D01*
X16073Y14295D01*
X16187Y14194D01*
X16194Y14191D01*
X16199Y14186D01*
X16335Y14119D01*
X16393Y14089D01*
X16719Y13576D01*
X16735Y13556D01*
X16747Y13533D01*
X16847Y13407D01*
X17408Y12784D01*
X17497Y12647D01*
X17546Y12572D01*
X17675Y12453D01*
X17780Y12357D01*
X17917Y12272D01*
X88796Y-25618D01*
X88919Y-25665D01*
X89040Y-25717D01*
X89068Y-25721D01*
X89093Y-25731D01*
X89224Y-25746D01*
X89354Y-25767D01*
X89382Y-25764D01*
X89409Y-25767D01*
X89539Y-25749D01*
G37*
G36*
X-157937Y101636D02*
X-157937Y101636D01*
X-157917Y101634D01*
X-157816Y101656D01*
X-157714Y101672D01*
X-157696Y101682D01*
X-157676Y101686D01*
X-157587Y101739D01*
X-157496Y101787D01*
X-157482Y101802D01*
X-157465Y101812D01*
X-157398Y101891D01*
X-157327Y101966D01*
X-157318Y101984D01*
X-157305Y101999D01*
X-157267Y102095D01*
X-157223Y102189D01*
X-157221Y102209D01*
X-157213Y102227D01*
X-157195Y102394D01*
X-157195Y106432D01*
X-157198Y106451D01*
X-157196Y106471D01*
X-157218Y106572D01*
X-157235Y106675D01*
X-157244Y106692D01*
X-157248Y106712D01*
X-157302Y106801D01*
X-157350Y106892D01*
X-157364Y106906D01*
X-157374Y106923D01*
X-157453Y106990D01*
X-157528Y107061D01*
X-157546Y107070D01*
X-157561Y107083D01*
X-157658Y107121D01*
X-157751Y107165D01*
X-157771Y107167D01*
X-157790Y107175D01*
X-157956Y107193D01*
X-158567Y107193D01*
X-168451Y117077D01*
X-168525Y117130D01*
X-168595Y117190D01*
X-168625Y117202D01*
X-168651Y117221D01*
X-168738Y117248D01*
X-168823Y117282D01*
X-168864Y117286D01*
X-168886Y117293D01*
X-168918Y117292D01*
X-168990Y117300D01*
X-177019Y117300D01*
X-177912Y118193D01*
X-177912Y118269D01*
X-177915Y118288D01*
X-177913Y118308D01*
X-177935Y118409D01*
X-177952Y118512D01*
X-177961Y118529D01*
X-177966Y118549D01*
X-178019Y118638D01*
X-178067Y118729D01*
X-178081Y118743D01*
X-178092Y118760D01*
X-178170Y118827D01*
X-178245Y118898D01*
X-178263Y118907D01*
X-178279Y118920D01*
X-178375Y118958D01*
X-178468Y119002D01*
X-178488Y119004D01*
X-178507Y119012D01*
X-178673Y119030D01*
X-179866Y119030D01*
X-181008Y120172D01*
X-181008Y181769D01*
X-181011Y181788D01*
X-181009Y181808D01*
X-181031Y181909D01*
X-181047Y182012D01*
X-181057Y182029D01*
X-181061Y182049D01*
X-181114Y182138D01*
X-181162Y182229D01*
X-181177Y182243D01*
X-181187Y182260D01*
X-181266Y182327D01*
X-181341Y182398D01*
X-181359Y182407D01*
X-181374Y182420D01*
X-181470Y182458D01*
X-181564Y182502D01*
X-181584Y182504D01*
X-181602Y182512D01*
X-181769Y182530D01*
X-195263Y182530D01*
X-195282Y182527D01*
X-195302Y182529D01*
X-195403Y182507D01*
X-195505Y182490D01*
X-195523Y182481D01*
X-195542Y182477D01*
X-195631Y182424D01*
X-195723Y182375D01*
X-195736Y182361D01*
X-195753Y182351D01*
X-195821Y182272D01*
X-195892Y182197D01*
X-195900Y182179D01*
X-195913Y182164D01*
X-195952Y182067D01*
X-195996Y181974D01*
X-195998Y181954D01*
X-196005Y181935D01*
X-196024Y181769D01*
X-196024Y121444D01*
X-196009Y121354D01*
X-196002Y121263D01*
X-195989Y121233D01*
X-195984Y121201D01*
X-195941Y121120D01*
X-195906Y121036D01*
X-195880Y121004D01*
X-195869Y120984D01*
X-195846Y120961D01*
X-195831Y120943D01*
X-195826Y120934D01*
X-195820Y120929D01*
X-195801Y120905D01*
X-183895Y108999D01*
X-183821Y108946D01*
X-183751Y108887D01*
X-183721Y108875D01*
X-183695Y108856D01*
X-183608Y108829D01*
X-183523Y108795D01*
X-183482Y108790D01*
X-183460Y108783D01*
X-183428Y108784D01*
X-183356Y108776D01*
X-173248Y108776D01*
X-173231Y108771D01*
X-173146Y108737D01*
X-173106Y108732D01*
X-173083Y108726D01*
X-173051Y108726D01*
X-172980Y108718D01*
X-171755Y108718D01*
X-170862Y107825D01*
X-170862Y106601D01*
X-170847Y106511D01*
X-170840Y106420D01*
X-170828Y106390D01*
X-170822Y106358D01*
X-170780Y106277D01*
X-170744Y106194D01*
X-170718Y106161D01*
X-170707Y106141D01*
X-170684Y106119D01*
X-170639Y106063D01*
X-170624Y106047D01*
X-170624Y102394D01*
X-170621Y102374D01*
X-170623Y102354D01*
X-170601Y102253D01*
X-170584Y102151D01*
X-170575Y102133D01*
X-170570Y102114D01*
X-170517Y102025D01*
X-170469Y101934D01*
X-170455Y101920D01*
X-170444Y101903D01*
X-170366Y101835D01*
X-170291Y101764D01*
X-170273Y101756D01*
X-170257Y101743D01*
X-170161Y101704D01*
X-170068Y101661D01*
X-170048Y101658D01*
X-170029Y101651D01*
X-169863Y101633D01*
X-157956Y101633D01*
X-157937Y101636D01*
G37*
G36*
X-98352Y-56578D02*
X-98352Y-56578D01*
X-98325Y-56578D01*
X-98227Y-56541D01*
X-98188Y-56530D01*
X-98180Y-56524D01*
X-98169Y-56520D01*
X-51369Y-29520D01*
X-51349Y-29502D01*
X-51324Y-29491D01*
X-51275Y-29437D01*
X-51220Y-29388D01*
X-51209Y-29364D01*
X-51190Y-29344D01*
X-51166Y-29275D01*
X-51134Y-29209D01*
X-51133Y-29182D01*
X-51124Y-29156D01*
X-51129Y-29083D01*
X-51126Y-29010D01*
X-51135Y-28985D01*
X-51137Y-28958D01*
X-51181Y-28862D01*
X-51195Y-28824D01*
X-51201Y-28817D01*
X-51206Y-28806D01*
X-53480Y-25470D01*
X-53502Y-25447D01*
X-53526Y-25411D01*
X-56271Y-22451D01*
X-56297Y-22432D01*
X-56326Y-22400D01*
X-59482Y-19881D01*
X-59510Y-19867D01*
X-59544Y-19839D01*
X-63040Y-17819D01*
X-63070Y-17809D01*
X-63107Y-17787D01*
X-66865Y-16311D01*
X-66897Y-16305D01*
X-66936Y-16289D01*
X-70873Y-15389D01*
X-70904Y-15388D01*
X-70946Y-15378D01*
X-74973Y-15075D01*
X-75004Y-15079D01*
X-75047Y-15075D01*
X-79074Y-15375D01*
X-79104Y-15384D01*
X-79148Y-15386D01*
X-83084Y-16283D01*
X-83113Y-16297D01*
X-83156Y-16305D01*
X-86915Y-17779D01*
X-86941Y-17797D01*
X-86982Y-17812D01*
X-90479Y-19829D01*
X-90503Y-19850D01*
X-90541Y-19871D01*
X-93698Y-22388D01*
X-93719Y-22412D01*
X-93753Y-22439D01*
X-96500Y-25397D01*
X-96517Y-25425D01*
X-96547Y-25456D01*
X-98823Y-28791D01*
X-98835Y-28820D01*
X-98860Y-28856D01*
X-100613Y-32493D01*
X-100621Y-32524D01*
X-100640Y-32562D01*
X-101832Y-36420D01*
X-101835Y-36452D01*
X-101848Y-36493D01*
X-102451Y-40485D01*
X-102450Y-40517D01*
X-102457Y-40560D01*
X-102458Y-44598D01*
X-102455Y-44612D01*
X-102457Y-44621D01*
X-102452Y-44641D01*
X-102453Y-44672D01*
X-101852Y-48665D01*
X-101841Y-48695D01*
X-101835Y-48737D01*
X-100647Y-52596D01*
X-100631Y-52624D01*
X-100619Y-52666D01*
X-98869Y-56304D01*
X-98852Y-56326D01*
X-98843Y-56351D01*
X-98793Y-56404D01*
X-98748Y-56462D01*
X-98725Y-56476D01*
X-98706Y-56496D01*
X-98639Y-56525D01*
X-98576Y-56561D01*
X-98549Y-56565D01*
X-98524Y-56576D01*
X-98451Y-56576D01*
X-98379Y-56585D01*
X-98352Y-56578D01*
G37*
G36*
X-75016Y189704D02*
X-75016Y189704D01*
X-74973Y189700D01*
X-70946Y190003D01*
X-70916Y190011D01*
X-70873Y190014D01*
X-66936Y190914D01*
X-66907Y190927D01*
X-66865Y190936D01*
X-63107Y192412D01*
X-63080Y192429D01*
X-63040Y192444D01*
X-59544Y194464D01*
X-59520Y194485D01*
X-59482Y194506D01*
X-56326Y197025D01*
X-56306Y197049D01*
X-56271Y197076D01*
X-53526Y200036D01*
X-53509Y200064D01*
X-53480Y200095D01*
X-51206Y203431D01*
X-51196Y203457D01*
X-51178Y203477D01*
X-51157Y203547D01*
X-51129Y203615D01*
X-51129Y203642D01*
X-51122Y203668D01*
X-51130Y203741D01*
X-51130Y203814D01*
X-51141Y203839D01*
X-51144Y203866D01*
X-51179Y203929D01*
X-51208Y203996D01*
X-51228Y204015D01*
X-51241Y204039D01*
X-51322Y204106D01*
X-51351Y204134D01*
X-51360Y204138D01*
X-51369Y204145D01*
X-98169Y231145D01*
X-98195Y231154D01*
X-98217Y231169D01*
X-98288Y231185D01*
X-98358Y231208D01*
X-98385Y231206D01*
X-98412Y231212D01*
X-98483Y231198D01*
X-98556Y231193D01*
X-98580Y231180D01*
X-98607Y231175D01*
X-98668Y231134D01*
X-98733Y231101D01*
X-98750Y231080D01*
X-98773Y231065D01*
X-98833Y230979D01*
X-98859Y230948D01*
X-98862Y230938D01*
X-98869Y230929D01*
X-100619Y227291D01*
X-100627Y227260D01*
X-100647Y227221D01*
X-101835Y223362D01*
X-101839Y223331D01*
X-101852Y223290D01*
X-102453Y219297D01*
X-102451Y219265D01*
X-102458Y219223D01*
X-102457Y215185D01*
X-102451Y215155D01*
X-102453Y215143D01*
X-102451Y215135D01*
X-102451Y215110D01*
X-101848Y211118D01*
X-101837Y211088D01*
X-101832Y211045D01*
X-100640Y207187D01*
X-100625Y207159D01*
X-100613Y207118D01*
X-98860Y203481D01*
X-98841Y203455D01*
X-98823Y203416D01*
X-96547Y200081D01*
X-96524Y200059D01*
X-96500Y200022D01*
X-93753Y197064D01*
X-93727Y197045D01*
X-93698Y197013D01*
X-90541Y194496D01*
X-90512Y194482D01*
X-90479Y194454D01*
X-86982Y192437D01*
X-86952Y192427D01*
X-86915Y192404D01*
X-83156Y190930D01*
X-83124Y190925D01*
X-83084Y190908D01*
X-79148Y190011D01*
X-79116Y190010D01*
X-79074Y190000D01*
X-75047Y189700D01*
X-75016Y189704D01*
G37*
G36*
X-201554Y-56573D02*
X-201554Y-56573D01*
X-201481Y-56568D01*
X-201457Y-56555D01*
X-201431Y-56550D01*
X-201370Y-56509D01*
X-201305Y-56476D01*
X-201288Y-56455D01*
X-201265Y-56440D01*
X-201204Y-56354D01*
X-201178Y-56323D01*
X-201176Y-56313D01*
X-201169Y-56304D01*
X-199418Y-52666D01*
X-199410Y-52635D01*
X-199391Y-52596D01*
X-198202Y-48737D01*
X-198199Y-48706D01*
X-198185Y-48665D01*
X-197585Y-44672D01*
X-197587Y-44640D01*
X-197579Y-44598D01*
X-197581Y-40560D01*
X-197587Y-40529D01*
X-197586Y-40485D01*
X-198189Y-36493D01*
X-198200Y-36463D01*
X-198206Y-36420D01*
X-199397Y-32562D01*
X-199413Y-32534D01*
X-199425Y-32493D01*
X-201178Y-28856D01*
X-201197Y-28830D01*
X-201215Y-28791D01*
X-203491Y-25456D01*
X-203513Y-25434D01*
X-203537Y-25397D01*
X-206284Y-22439D01*
X-206310Y-22420D01*
X-206339Y-22388D01*
X-209497Y-19871D01*
X-209525Y-19857D01*
X-209558Y-19829D01*
X-213056Y-17812D01*
X-213086Y-17802D01*
X-213123Y-17779D01*
X-216882Y-16305D01*
X-216913Y-16300D01*
X-216953Y-16283D01*
X-220890Y-15386D01*
X-220922Y-15385D01*
X-220964Y-15375D01*
X-224990Y-15075D01*
X-225022Y-15079D01*
X-225065Y-15075D01*
X-229091Y-15378D01*
X-229122Y-15386D01*
X-229165Y-15389D01*
X-233101Y-16289D01*
X-233130Y-16302D01*
X-233172Y-16311D01*
X-236930Y-17787D01*
X-236957Y-17804D01*
X-236998Y-17819D01*
X-240494Y-19839D01*
X-240518Y-19860D01*
X-240555Y-19881D01*
X-243711Y-22400D01*
X-243732Y-22424D01*
X-243766Y-22451D01*
X-246511Y-25411D01*
X-246528Y-25439D01*
X-246558Y-25470D01*
X-248831Y-28806D01*
X-248842Y-28832D01*
X-248859Y-28852D01*
X-248880Y-28922D01*
X-248908Y-28990D01*
X-248908Y-29017D01*
X-248916Y-29043D01*
X-248908Y-29116D01*
X-248908Y-29189D01*
X-248897Y-29214D01*
X-248894Y-29241D01*
X-248858Y-29304D01*
X-248829Y-29371D01*
X-248810Y-29390D01*
X-248796Y-29414D01*
X-248715Y-29481D01*
X-248686Y-29509D01*
X-248677Y-29513D01*
X-248668Y-29520D01*
X-201868Y-56520D01*
X-201842Y-56529D01*
X-201820Y-56544D01*
X-201749Y-56560D01*
X-201680Y-56583D01*
X-201652Y-56581D01*
X-201626Y-56587D01*
X-201554Y-56573D01*
G37*
G36*
X-220964Y190000D02*
X-220964Y190000D01*
X-220933Y190009D01*
X-220890Y190011D01*
X-216953Y190908D01*
X-216924Y190922D01*
X-216882Y190930D01*
X-213123Y192404D01*
X-213096Y192422D01*
X-213056Y192437D01*
X-209558Y194454D01*
X-209534Y194475D01*
X-209497Y194496D01*
X-206339Y197013D01*
X-206319Y197037D01*
X-206284Y197064D01*
X-203537Y200022D01*
X-203521Y200050D01*
X-203491Y200081D01*
X-201215Y203416D01*
X-201203Y203445D01*
X-201178Y203481D01*
X-199425Y207118D01*
X-199417Y207149D01*
X-199397Y207187D01*
X-198206Y211045D01*
X-198203Y211077D01*
X-198189Y211118D01*
X-197586Y215110D01*
X-197588Y215142D01*
X-197581Y215185D01*
X-197579Y219223D01*
X-197586Y219254D01*
X-197585Y219297D01*
X-198185Y223290D01*
X-198196Y223320D01*
X-198202Y223362D01*
X-199391Y227221D01*
X-199406Y227249D01*
X-199418Y227291D01*
X-201169Y230929D01*
X-201185Y230951D01*
X-201195Y230976D01*
X-201245Y231029D01*
X-201289Y231087D01*
X-201313Y231101D01*
X-201331Y231121D01*
X-201398Y231150D01*
X-201462Y231186D01*
X-201489Y231190D01*
X-201513Y231201D01*
X-201587Y231201D01*
X-201659Y231210D01*
X-201685Y231203D01*
X-201712Y231203D01*
X-201811Y231166D01*
X-201850Y231155D01*
X-201857Y231149D01*
X-201868Y231145D01*
X-248668Y204145D01*
X-248689Y204127D01*
X-248713Y204116D01*
X-248763Y204062D01*
X-248817Y204013D01*
X-248829Y203989D01*
X-248847Y203969D01*
X-248872Y203900D01*
X-248903Y203834D01*
X-248904Y203807D01*
X-248913Y203781D01*
X-248909Y203708D01*
X-248912Y203635D01*
X-248903Y203610D01*
X-248901Y203583D01*
X-248857Y203487D01*
X-248843Y203449D01*
X-248836Y203442D01*
X-248831Y203431D01*
X-246558Y200095D01*
X-246535Y200072D01*
X-246511Y200036D01*
X-243766Y197076D01*
X-243740Y197057D01*
X-243711Y197025D01*
X-240555Y194506D01*
X-240527Y194492D01*
X-240494Y194464D01*
X-236998Y192444D01*
X-236968Y192434D01*
X-236930Y192412D01*
X-233172Y190936D01*
X-233141Y190930D01*
X-233101Y190914D01*
X-229165Y190014D01*
X-229133Y190013D01*
X-229091Y190003D01*
X-225065Y189700D01*
X-225033Y189704D01*
X-224990Y189700D01*
X-220964Y190000D01*
G37*
G36*
X-299993Y59816D02*
X-299993Y59816D01*
X-299981Y59815D01*
X-295957Y60116D01*
X-295927Y60125D01*
X-295884Y60127D01*
X-291949Y61025D01*
X-291920Y61038D01*
X-291878Y61047D01*
X-288121Y62522D01*
X-288095Y62539D01*
X-288054Y62554D01*
X-284559Y64572D01*
X-284536Y64593D01*
X-284498Y64614D01*
X-281343Y67130D01*
X-281322Y67154D01*
X-281288Y67181D01*
X-278543Y70139D01*
X-278527Y70166D01*
X-278497Y70197D01*
X-276224Y73531D01*
X-276211Y73561D01*
X-276186Y73596D01*
X-274435Y77232D01*
X-274428Y77263D01*
X-274408Y77301D01*
X-273219Y81157D01*
X-273216Y81189D01*
X-273202Y81230D01*
X-272601Y85220D01*
X-272602Y85252D01*
X-272595Y85295D01*
X-272595Y89330D01*
X-272601Y89361D01*
X-272601Y89405D01*
X-273202Y93395D01*
X-273213Y93425D01*
X-273219Y93468D01*
X-274408Y97324D01*
X-274423Y97352D01*
X-274435Y97393D01*
X-276186Y101029D01*
X-276206Y101055D01*
X-276224Y101094D01*
X-278497Y104428D01*
X-278520Y104450D01*
X-278543Y104486D01*
X-281288Y107444D01*
X-281314Y107463D01*
X-281343Y107495D01*
X-284498Y110011D01*
X-284526Y110026D01*
X-284559Y110053D01*
X-288054Y112071D01*
X-288084Y112081D01*
X-288121Y112103D01*
X-291878Y113578D01*
X-291909Y113583D01*
X-291949Y113600D01*
X-295884Y114498D01*
X-295915Y114498D01*
X-295957Y114509D01*
X-299981Y114810D01*
X-300008Y114807D01*
X-300035Y114811D01*
X-300106Y114795D01*
X-300179Y114785D01*
X-300202Y114772D01*
X-300229Y114765D01*
X-300287Y114722D01*
X-300351Y114685D01*
X-300367Y114664D01*
X-300389Y114648D01*
X-300426Y114585D01*
X-300470Y114526D01*
X-300476Y114500D01*
X-300490Y114477D01*
X-300508Y114373D01*
X-300518Y114333D01*
X-300516Y114324D01*
X-300518Y114313D01*
X-300518Y60313D01*
X-300513Y60286D01*
X-300515Y60259D01*
X-300493Y60189D01*
X-300478Y60118D01*
X-300463Y60095D01*
X-300455Y60069D01*
X-300407Y60014D01*
X-300366Y59954D01*
X-300343Y59939D01*
X-300325Y59918D01*
X-300260Y59886D01*
X-300198Y59847D01*
X-300171Y59842D01*
X-300147Y59830D01*
X-300042Y59820D01*
X-300002Y59814D01*
X-299993Y59816D01*
G37*
G36*
X-165080Y121479D02*
X-165080Y121479D01*
X-165061Y121477D01*
X-164959Y121499D01*
X-164857Y121516D01*
X-164840Y121525D01*
X-164820Y121530D01*
X-164731Y121583D01*
X-164640Y121631D01*
X-164626Y121646D01*
X-164609Y121656D01*
X-164542Y121734D01*
X-164471Y121809D01*
X-164462Y121827D01*
X-164449Y121843D01*
X-164410Y121939D01*
X-164367Y122033D01*
X-164365Y122052D01*
X-164357Y122071D01*
X-164339Y122238D01*
X-164339Y167514D01*
X-153194Y167514D01*
X-153174Y167517D01*
X-153154Y167515D01*
X-153053Y167537D01*
X-152951Y167554D01*
X-152933Y167563D01*
X-152914Y167567D01*
X-152825Y167620D01*
X-152734Y167669D01*
X-152720Y167683D01*
X-152703Y167693D01*
X-152635Y167772D01*
X-152564Y167847D01*
X-152556Y167865D01*
X-152543Y167880D01*
X-152504Y167976D01*
X-152461Y168070D01*
X-152458Y168090D01*
X-152451Y168108D01*
X-152433Y168275D01*
X-152433Y182563D01*
X-152436Y182582D01*
X-152434Y182602D01*
X-152456Y182703D01*
X-152472Y182805D01*
X-152482Y182823D01*
X-152486Y182842D01*
X-152539Y182931D01*
X-152587Y183023D01*
X-152602Y183036D01*
X-152612Y183053D01*
X-152691Y183121D01*
X-152766Y183192D01*
X-152784Y183200D01*
X-152799Y183213D01*
X-152895Y183252D01*
X-152989Y183296D01*
X-153009Y183298D01*
X-153027Y183305D01*
X-153194Y183324D01*
X-176213Y183324D01*
X-176232Y183321D01*
X-176252Y183323D01*
X-176353Y183301D01*
X-176455Y183284D01*
X-176473Y183275D01*
X-176492Y183270D01*
X-176581Y183217D01*
X-176673Y183169D01*
X-176686Y183155D01*
X-176703Y183144D01*
X-176771Y183066D01*
X-176842Y182991D01*
X-176850Y182973D01*
X-176863Y182957D01*
X-176902Y182861D01*
X-176946Y182768D01*
X-176948Y182748D01*
X-176955Y182729D01*
X-176974Y182563D01*
X-176974Y172378D01*
X-176959Y172288D01*
X-176952Y172197D01*
X-176939Y172167D01*
X-176934Y172135D01*
X-176891Y172055D01*
X-176856Y171971D01*
X-176830Y171938D01*
X-176819Y171918D01*
X-176796Y171896D01*
X-176751Y171840D01*
X-176387Y171476D01*
X-176387Y167286D01*
X-176751Y166922D01*
X-176794Y166863D01*
X-176836Y166818D01*
X-176844Y166802D01*
X-176863Y166779D01*
X-176875Y166749D01*
X-176894Y166723D01*
X-176921Y166636D01*
X-176923Y166632D01*
X-176940Y166595D01*
X-176941Y166587D01*
X-176955Y166551D01*
X-176960Y166510D01*
X-176967Y166488D01*
X-176966Y166455D01*
X-176974Y166384D01*
X-176974Y139522D01*
X-176959Y139432D01*
X-176952Y139341D01*
X-176939Y139311D01*
X-176934Y139279D01*
X-176891Y139199D01*
X-176856Y139115D01*
X-176830Y139082D01*
X-176819Y139062D01*
X-176796Y139040D01*
X-176751Y138984D01*
X-176387Y138620D01*
X-176387Y134430D01*
X-176751Y134066D01*
X-176804Y133992D01*
X-176863Y133923D01*
X-176875Y133893D01*
X-176894Y133867D01*
X-176921Y133780D01*
X-176955Y133695D01*
X-176960Y133654D01*
X-176967Y133632D01*
X-176966Y133599D01*
X-176974Y133528D01*
X-176974Y122238D01*
X-176971Y122218D01*
X-176973Y122198D01*
X-176951Y122097D01*
X-176934Y121995D01*
X-176925Y121977D01*
X-176920Y121958D01*
X-176867Y121869D01*
X-176819Y121777D01*
X-176805Y121764D01*
X-176794Y121747D01*
X-176716Y121679D01*
X-176641Y121608D01*
X-176623Y121600D01*
X-176607Y121587D01*
X-176511Y121548D01*
X-176418Y121504D01*
X-176398Y121502D01*
X-176379Y121495D01*
X-176213Y121476D01*
X-165100Y121476D01*
X-165080Y121479D01*
G37*
G36*
X-217001Y33984D02*
X-217001Y33984D01*
X-216983Y33983D01*
X-216801Y34004D01*
X-216618Y34022D01*
X-216601Y34027D01*
X-216583Y34029D01*
X-216409Y34086D01*
X-216233Y34140D01*
X-216217Y34149D01*
X-216200Y34154D01*
X-216040Y34245D01*
X-215879Y34332D01*
X-215865Y34343D01*
X-215850Y34352D01*
X-215710Y34472D01*
X-215570Y34590D01*
X-215558Y34604D01*
X-215545Y34615D01*
X-215432Y34760D01*
X-215317Y34904D01*
X-215309Y34919D01*
X-215298Y34933D01*
X-215216Y35098D01*
X-215132Y35261D01*
X-215127Y35278D01*
X-215119Y35294D01*
X-215071Y35472D01*
X-215020Y35648D01*
X-215019Y35666D01*
X-215014Y35683D01*
X-214987Y36013D01*
X-214987Y36819D01*
X-214094Y37712D01*
X-201831Y37712D01*
X-200938Y36819D01*
X-200938Y36013D01*
X-200936Y35996D01*
X-200937Y35978D01*
X-200916Y35796D01*
X-200898Y35613D01*
X-200893Y35596D01*
X-200891Y35578D01*
X-200834Y35404D01*
X-200780Y35228D01*
X-200771Y35212D01*
X-200766Y35195D01*
X-200675Y35035D01*
X-200588Y34874D01*
X-200577Y34860D01*
X-200568Y34845D01*
X-200448Y34705D01*
X-200330Y34565D01*
X-200316Y34553D01*
X-200305Y34540D01*
X-200160Y34427D01*
X-200016Y34312D01*
X-200001Y34304D01*
X-199987Y34293D01*
X-199822Y34211D01*
X-199659Y34127D01*
X-199642Y34122D01*
X-199626Y34114D01*
X-199448Y34066D01*
X-199272Y34015D01*
X-199254Y34014D01*
X-199237Y34009D01*
X-198907Y33982D01*
X-191531Y33982D01*
X-191504Y33985D01*
X-191478Y33983D01*
X-191304Y34005D01*
X-191130Y34022D01*
X-191105Y34030D01*
X-191078Y34033D01*
X-190912Y34089D01*
X-190745Y34140D01*
X-190722Y34153D01*
X-190697Y34162D01*
X-190545Y34249D01*
X-190391Y34332D01*
X-190371Y34349D01*
X-190348Y34362D01*
X-190095Y34577D01*
X-188013Y36659D01*
X-188008Y36665D01*
X-188001Y36671D01*
X-187880Y36821D01*
X-187758Y36970D01*
X-187754Y36978D01*
X-187748Y36985D01*
X-187660Y37155D01*
X-187570Y37326D01*
X-187567Y37334D01*
X-187563Y37342D01*
X-187510Y37526D01*
X-187455Y37712D01*
X-187454Y37721D01*
X-187452Y37729D01*
X-187436Y37920D01*
X-187418Y38113D01*
X-187419Y38122D01*
X-187419Y38130D01*
X-187441Y38319D01*
X-187462Y38513D01*
X-187465Y38521D01*
X-187466Y38530D01*
X-187525Y38712D01*
X-187583Y38897D01*
X-187588Y38905D01*
X-187590Y38913D01*
X-187685Y39080D01*
X-187778Y39249D01*
X-187784Y39256D01*
X-187788Y39264D01*
X-187913Y39409D01*
X-188039Y39556D01*
X-188046Y39562D01*
X-188051Y39568D01*
X-188202Y39685D01*
X-188355Y39806D01*
X-188363Y39810D01*
X-188370Y39815D01*
X-188541Y39900D01*
X-188713Y39988D01*
X-188722Y39990D01*
X-188730Y39994D01*
X-188916Y40044D01*
X-189101Y40096D01*
X-189110Y40097D01*
X-189119Y40099D01*
X-189450Y40126D01*
X-193550Y40126D01*
X-194443Y41019D01*
X-194443Y53061D01*
X-194445Y53079D01*
X-194444Y53096D01*
X-194465Y53279D01*
X-194483Y53461D01*
X-194489Y53478D01*
X-194491Y53496D01*
X-194548Y53671D01*
X-194602Y53846D01*
X-194610Y53862D01*
X-194616Y53879D01*
X-194706Y54039D01*
X-194793Y54200D01*
X-194805Y54214D01*
X-194813Y54230D01*
X-194934Y54369D01*
X-195051Y54510D01*
X-195065Y54521D01*
X-195077Y54534D01*
X-195222Y54647D01*
X-195365Y54762D01*
X-195381Y54770D01*
X-195395Y54781D01*
X-195560Y54863D01*
X-195722Y54947D01*
X-195739Y54952D01*
X-195755Y54960D01*
X-195933Y55008D01*
X-196109Y55059D01*
X-196127Y55060D01*
X-196144Y55065D01*
X-196475Y55092D01*
X-225371Y55092D01*
X-225397Y55089D01*
X-225424Y55091D01*
X-225598Y55069D01*
X-225772Y55052D01*
X-225797Y55044D01*
X-225824Y55041D01*
X-225989Y54985D01*
X-226156Y54934D01*
X-226180Y54921D01*
X-226205Y54913D01*
X-226357Y54825D01*
X-226510Y54742D01*
X-226531Y54725D01*
X-226554Y54712D01*
X-226807Y54497D01*
X-234944Y46361D01*
X-241249Y46361D01*
X-241258Y46360D01*
X-241267Y46361D01*
X-241459Y46340D01*
X-241650Y46321D01*
X-241658Y46318D01*
X-241667Y46317D01*
X-241850Y46260D01*
X-242035Y46203D01*
X-242043Y46198D01*
X-242051Y46196D01*
X-242220Y46103D01*
X-242389Y46011D01*
X-242396Y46005D01*
X-242404Y46001D01*
X-242551Y45876D01*
X-242698Y45753D01*
X-242704Y45746D01*
X-242711Y45740D01*
X-242830Y45589D01*
X-242950Y45439D01*
X-242955Y45432D01*
X-242960Y45425D01*
X-243048Y45252D01*
X-243136Y45082D01*
X-243138Y45074D01*
X-243142Y45066D01*
X-243194Y44880D01*
X-243247Y44695D01*
X-243248Y44686D01*
X-243250Y44678D01*
X-243265Y44485D01*
X-243280Y44294D01*
X-243279Y44285D01*
X-243280Y44276D01*
X-243256Y44083D01*
X-243233Y43894D01*
X-243231Y43886D01*
X-243229Y43877D01*
X-243168Y43694D01*
X-243108Y43511D01*
X-243104Y43503D01*
X-243101Y43495D01*
X-243006Y43330D01*
X-242911Y43161D01*
X-242905Y43154D01*
X-242900Y43146D01*
X-242686Y42893D01*
X-241485Y41693D01*
X-240093Y38332D01*
X-240093Y36013D01*
X-240091Y35996D01*
X-240092Y35978D01*
X-240071Y35796D01*
X-240053Y35613D01*
X-240048Y35596D01*
X-240046Y35578D01*
X-239989Y35404D01*
X-239935Y35228D01*
X-239926Y35212D01*
X-239921Y35195D01*
X-239830Y35035D01*
X-239743Y34874D01*
X-239732Y34860D01*
X-239723Y34845D01*
X-239603Y34705D01*
X-239485Y34565D01*
X-239471Y34553D01*
X-239460Y34540D01*
X-239315Y34427D01*
X-239171Y34312D01*
X-239156Y34304D01*
X-239142Y34293D01*
X-238977Y34211D01*
X-238814Y34127D01*
X-238797Y34122D01*
X-238781Y34114D01*
X-238603Y34066D01*
X-238427Y34015D01*
X-238409Y34014D01*
X-238392Y34009D01*
X-238062Y33982D01*
X-217018Y33982D01*
X-217001Y33984D01*
G37*
G36*
X-156593Y-11860D02*
X-156593Y-11860D01*
X-156584Y-11861D01*
X-156392Y-11836D01*
X-156202Y-11814D01*
X-156194Y-11812D01*
X-156185Y-11810D01*
X-156002Y-11749D01*
X-155820Y-11689D01*
X-155812Y-11685D01*
X-155803Y-11682D01*
X-155638Y-11587D01*
X-155469Y-11492D01*
X-155462Y-11486D01*
X-155454Y-11481D01*
X-155201Y-11267D01*
X-154372Y-10437D01*
X-140226Y-10437D01*
X-140208Y-10435D01*
X-140190Y-10436D01*
X-140008Y-10415D01*
X-139825Y-10397D01*
X-139808Y-10392D01*
X-139790Y-10390D01*
X-139616Y-10333D01*
X-139440Y-10279D01*
X-139425Y-10270D01*
X-139408Y-10265D01*
X-139247Y-10174D01*
X-139086Y-10087D01*
X-139073Y-10076D01*
X-139057Y-10067D01*
X-138918Y-9947D01*
X-138777Y-9829D01*
X-138766Y-9815D01*
X-138752Y-9804D01*
X-138640Y-9659D01*
X-138525Y-9515D01*
X-138516Y-9500D01*
X-138505Y-9486D01*
X-138423Y-9321D01*
X-138339Y-9158D01*
X-138334Y-9141D01*
X-138326Y-9125D01*
X-138278Y-8947D01*
X-138228Y-8771D01*
X-138226Y-8753D01*
X-138222Y-8736D01*
X-138194Y-8406D01*
X-138194Y16390D01*
X-138197Y16416D01*
X-138195Y16443D01*
X-138217Y16617D01*
X-138234Y16790D01*
X-138242Y16816D01*
X-138246Y16842D01*
X-138301Y17008D01*
X-138353Y17175D01*
X-138365Y17199D01*
X-138374Y17224D01*
X-138461Y17376D01*
X-138544Y17529D01*
X-138561Y17550D01*
X-138575Y17573D01*
X-138789Y17826D01*
X-140367Y19404D01*
X-140367Y25876D01*
X-140369Y25894D01*
X-140368Y25912D01*
X-140389Y26094D01*
X-140407Y26277D01*
X-140413Y26294D01*
X-140415Y26312D01*
X-140472Y26486D01*
X-140526Y26662D01*
X-140534Y26677D01*
X-140540Y26694D01*
X-140630Y26855D01*
X-140717Y27016D01*
X-140729Y27029D01*
X-140737Y27045D01*
X-140858Y27184D01*
X-140975Y27325D01*
X-140989Y27336D01*
X-141001Y27350D01*
X-141146Y27462D01*
X-141289Y27577D01*
X-141305Y27586D01*
X-141319Y27597D01*
X-141484Y27679D01*
X-141646Y27763D01*
X-141663Y27768D01*
X-141679Y27776D01*
X-141857Y27824D01*
X-142033Y27874D01*
X-142051Y27876D01*
X-142068Y27880D01*
X-142399Y27908D01*
X-147787Y27908D01*
X-151448Y31568D01*
X-151448Y32192D01*
X-151451Y32218D01*
X-151449Y32245D01*
X-151471Y32418D01*
X-151488Y32592D01*
X-151496Y32618D01*
X-151499Y32645D01*
X-151555Y32810D01*
X-151606Y32977D01*
X-151619Y33001D01*
X-151628Y33026D01*
X-151715Y33178D01*
X-151798Y33331D01*
X-151815Y33352D01*
X-151829Y33375D01*
X-152043Y33628D01*
X-152353Y33938D01*
X-152360Y33944D01*
X-152366Y33951D01*
X-152516Y34071D01*
X-152665Y34193D01*
X-152673Y34198D01*
X-152680Y34203D01*
X-152851Y34292D01*
X-153021Y34382D01*
X-153029Y34384D01*
X-153037Y34389D01*
X-153222Y34442D01*
X-153407Y34497D01*
X-153415Y34498D01*
X-153424Y34500D01*
X-153615Y34516D01*
X-153808Y34533D01*
X-153816Y34532D01*
X-153825Y34533D01*
X-154014Y34511D01*
X-154208Y34490D01*
X-154216Y34487D01*
X-154225Y34486D01*
X-154407Y34427D01*
X-154592Y34368D01*
X-154599Y34364D01*
X-154608Y34361D01*
X-154776Y34266D01*
X-154944Y34173D01*
X-154951Y34168D01*
X-154959Y34163D01*
X-155104Y34037D01*
X-155251Y33913D01*
X-155257Y33906D01*
X-155263Y33900D01*
X-155381Y33749D01*
X-155501Y33597D01*
X-155505Y33589D01*
X-155510Y33582D01*
X-155596Y33410D01*
X-155683Y33238D01*
X-155685Y33229D01*
X-155689Y33221D01*
X-155739Y33035D01*
X-155791Y32850D01*
X-155792Y32841D01*
X-155794Y32833D01*
X-155821Y32502D01*
X-155821Y25338D01*
X-155917Y25222D01*
X-155929Y25198D01*
X-155946Y25177D01*
X-156024Y25020D01*
X-156105Y24866D01*
X-156113Y24840D01*
X-156125Y24816D01*
X-156170Y24647D01*
X-156220Y24480D01*
X-156222Y24453D01*
X-156229Y24428D01*
X-156257Y24097D01*
X-156257Y2187D01*
X-157150Y1294D01*
X-158098Y1294D01*
X-158116Y1292D01*
X-158133Y1294D01*
X-158316Y1272D01*
X-158498Y1254D01*
X-158515Y1249D01*
X-158533Y1247D01*
X-158708Y1190D01*
X-158883Y1136D01*
X-158899Y1128D01*
X-158916Y1122D01*
X-159076Y1032D01*
X-159237Y944D01*
X-159251Y933D01*
X-159267Y924D01*
X-159406Y804D01*
X-159547Y686D01*
X-159558Y673D01*
X-159571Y661D01*
X-159684Y516D01*
X-159799Y373D01*
X-159807Y357D01*
X-159818Y343D01*
X-159901Y177D01*
X-159984Y15D01*
X-159989Y-2D01*
X-159997Y-18D01*
X-160045Y-196D01*
X-160096Y-372D01*
X-160097Y-389D01*
X-160102Y-407D01*
X-160129Y-737D01*
X-160129Y-1711D01*
X-160126Y-1737D01*
X-160128Y-1764D01*
X-160106Y-1938D01*
X-160089Y-2111D01*
X-160081Y-2137D01*
X-160078Y-2164D01*
X-160022Y-2329D01*
X-159971Y-2496D01*
X-159958Y-2520D01*
X-159950Y-2545D01*
X-159863Y-2697D01*
X-159779Y-2850D01*
X-159762Y-2871D01*
X-159749Y-2894D01*
X-159534Y-3147D01*
X-158669Y-4012D01*
X-158669Y-9830D01*
X-158668Y-9839D01*
X-158669Y-9848D01*
X-158648Y-10040D01*
X-158629Y-10231D01*
X-158626Y-10239D01*
X-158626Y-10248D01*
X-158568Y-10431D01*
X-158511Y-10616D01*
X-158507Y-10624D01*
X-158504Y-10632D01*
X-158411Y-10801D01*
X-158319Y-10970D01*
X-158314Y-10977D01*
X-158309Y-10985D01*
X-158183Y-11134D01*
X-158061Y-11279D01*
X-158055Y-11285D01*
X-158049Y-11292D01*
X-157898Y-11411D01*
X-157748Y-11531D01*
X-157740Y-11536D01*
X-157733Y-11541D01*
X-157561Y-11628D01*
X-157390Y-11717D01*
X-157382Y-11719D01*
X-157374Y-11723D01*
X-157188Y-11775D01*
X-157003Y-11828D01*
X-156995Y-11829D01*
X-156986Y-11831D01*
X-156793Y-11846D01*
X-156602Y-11861D01*
X-156593Y-11860D01*
G37*
D10*
X-133256Y128588D03*
X-145256Y128588D03*
X-157256Y128588D03*
D11*
X-150019Y252513D03*
X701Y164833D03*
X701Y9793D03*
X-150019Y-77888D03*
X-221519Y211213D03*
X-78519Y211213D03*
X-78519Y-36588D03*
X-221519Y-36588D03*
X149981Y252513D03*
X149981Y-77888D03*
X-293086Y169913D03*
X-293086Y4713D03*
X-293119Y87313D03*
D12*
X-183876Y104444D03*
X-178875Y104444D03*
X-173873Y104444D03*
X-168872Y104444D03*
X-163871Y104444D03*
X-158870Y104444D03*
X-153868Y104444D03*
X-148867Y104444D03*
X-143866Y104444D03*
X-138865Y104444D03*
X-133863Y104444D03*
X-128862Y104444D03*
D13*
X-122569Y98151D03*
X-122569Y93150D03*
X-122569Y88148D03*
X-122569Y83147D03*
X-122569Y78146D03*
X-122569Y73145D03*
X-122569Y68143D03*
X-122569Y63142D03*
X-122569Y58141D03*
X-122569Y53140D03*
X-122569Y48138D03*
X-122569Y43137D03*
D12*
X-128862Y36844D03*
X-133863Y36844D03*
X-138865Y36844D03*
X-143866Y36844D03*
X-148867Y36844D03*
X-153868Y36844D03*
X-158870Y36844D03*
X-163871Y36844D03*
X-168872Y36844D03*
X-173873Y36844D03*
X-178875Y36844D03*
X-183876Y36844D03*
D13*
X-190169Y43137D03*
X-190169Y48138D03*
X-190169Y53140D03*
X-190169Y58141D03*
X-190169Y63142D03*
X-190169Y68143D03*
X-190169Y73145D03*
X-190169Y78146D03*
X-190169Y83147D03*
X-190169Y88148D03*
X-190169Y93150D03*
X-190169Y98151D03*
D14*
X-156369Y70644D03*
D15*
X-150019Y202406D03*
D16*
X-207963Y48188D03*
X-207963Y31188D03*
D17*
X-157725Y173038D03*
X-140725Y173038D03*
X-116681Y124056D03*
X-116681Y141056D03*
D16*
X-187888Y134144D03*
X-170888Y134144D03*
X-187888Y123825D03*
X-170888Y123825D03*
X-163281Y22225D03*
X-146281Y22225D03*
D18*
X-188888Y146050D03*
X-169888Y146050D03*
X-188888Y161131D03*
X-169888Y161131D03*
X-164281Y10319D03*
X-145281Y10319D03*
D19*
X-249238Y61913D03*
X-249238Y36513D03*
X-249238Y11113D03*
D20*
X147638Y21106D03*
X134938Y21106D03*
X122238Y21106D03*
X109538Y21106D03*
X96838Y21106D03*
X84138Y21106D03*
X71438Y21106D03*
X58738Y21106D03*
X46038Y21106D03*
X33338Y21106D03*
X33338Y155106D03*
X46038Y155106D03*
X58738Y155106D03*
X71438Y155106D03*
X84138Y155106D03*
X96838Y155106D03*
X109538Y155106D03*
X122238Y155106D03*
X134938Y155106D03*
X147638Y155106D03*
D21*
X90488Y88106D03*
D22*
X153488Y88106D03*
X27488Y88106D03*
D16*
X82224Y1588D03*
X65224Y1588D03*
D23*
X166144Y-24268D02*
X176020Y-41442D01*
X219618Y-16372D02*
X209742Y802D01*
X209383Y174367D02*
X219319Y191507D01*
X175808Y216729D02*
X165872Y199589D01*
D24*
X-69588Y113501D03*
D25*
X-68524Y62712D03*
D23*
X257588Y62960D02*
X277400Y62960D01*
X277400Y113252D02*
X257588Y113252D01*
D26*
X-169181Y177800D03*
X-191181Y177800D03*
X-142194Y-7144D03*
X-164194Y-7144D03*
D27*
X203200Y25863D03*
X203200Y59863D03*
X223838Y25863D03*
X223838Y59863D03*
X224631Y140031D03*
X224631Y106031D03*
X203994Y140825D03*
X203994Y106825D03*
X183356Y59863D03*
X183356Y25863D03*
D28*
X281319Y24606D03*
X247319Y24606D03*
X278938Y144463D03*
X244938Y144463D03*
D27*
X183356Y106031D03*
X183356Y140031D03*
D29*
X-164194Y10231D02*
X-164194Y-7144D01*
X-164194Y10231D02*
X-164281Y10319D01*
X-164281Y21225D01*
X-163281Y22225D01*
D30*
X-158870Y26637D02*
X-158870Y36844D01*
X-158870Y26637D02*
X-164281Y21225D01*
D31*
X-164194Y-7144D02*
X-164194Y-9413D01*
X-165894Y-11113D01*
D32*
X-165894Y-11113D03*
D30*
X-153868Y29812D02*
X-153868Y36844D01*
X-153868Y29812D02*
X-146281Y22225D01*
X-145281Y21225D01*
X-145281Y10319D01*
D33*
X-182563Y6350D03*
X-182563Y-1588D03*
X-127794Y3969D03*
X-127794Y-4763D03*
X-152400Y0D03*
D30*
X-153868Y36844D02*
X-153868Y68143D01*
X-156369Y70644D01*
D33*
X-181769Y68263D03*
X-181769Y54769D03*
X-243681Y99219D03*
X-221456Y77788D03*
X-226219Y127794D03*
X-218281Y120650D03*
X-96044Y159544D03*
X-96044Y169863D03*
X-116681Y169863D03*
X-116681Y159544D03*
X-103188Y24606D03*
X-96838Y17463D03*
X-81756Y33338D03*
X-75406Y26194D03*
X-199231Y46038D03*
D32*
X-181444Y136525D03*
D30*
X-183825Y134144D01*
X-187888Y134144D01*
D32*
X-196850Y139700D03*
D30*
X-195238Y139700D01*
X-188888Y146050D01*
D32*
X-181444Y169381D03*
D31*
X-188888Y161937D01*
X-188888Y161131D01*
D30*
X-170888Y123825D02*
X-157304Y110242D01*
X-156121Y110242D01*
X-153868Y107988D01*
X-153868Y104444D01*
D34*
X49213Y111125D03*
X65881Y111125D03*
X82550Y111125D03*
X98425Y111125D03*
X115094Y111125D03*
X130969Y111125D03*
X20638Y95250D03*
X37306Y95250D03*
X53181Y95250D03*
X69056Y95250D03*
X84138Y95250D03*
X98425Y95250D03*
X115094Y95250D03*
X130969Y95250D03*
X161131Y95250D03*
X161131Y80963D03*
X130969Y80169D03*
X115094Y80963D03*
X98425Y80963D03*
X84138Y80169D03*
X69056Y80169D03*
X53975Y80169D03*
X38100Y80169D03*
X21431Y80169D03*
X52388Y65881D03*
X67469Y65881D03*
X84138Y65881D03*
X100013Y65881D03*
X115888Y65881D03*
X130969Y65881D03*
X146844Y95250D03*
X146844Y80963D03*
D33*
X-43656Y30163D03*
X-38894Y17463D03*
X23813Y153988D03*
X11906Y147638D03*
X-163513Y171450D03*
D35*
X-138936Y107557D02*
X-138936Y104515D01*
X-138865Y104444D01*
X-138936Y107557D02*
X-122437Y124056D01*
X-116681Y124056D01*
X-126875Y134250D01*
X-126875Y179262D02*
X-150019Y202406D01*
X-126875Y179262D02*
X-126875Y134250D01*
X-243913Y31188D02*
X-249238Y36513D01*
X-243913Y31188D02*
X-207963Y31188D01*
X-189532Y31188D01*
X-183876Y36844D01*
D30*
X-108331Y229807D02*
X-107950Y230188D01*
X-108331Y229807D02*
X-108331Y109538D01*
D32*
X-107950Y230188D03*
D30*
X-108331Y109538D02*
X-119718Y98151D01*
X-122569Y98151D01*
X-83281Y211213D02*
X-78519Y211213D01*
X-83281Y211213D02*
X-102997Y191497D01*
X-102997Y107687D01*
X-117535Y93150D01*
X-122569Y93150D01*
X-78519Y11844D02*
X-78519Y-36588D01*
X-78519Y11844D02*
X-114813Y48138D01*
X-122569Y48138D01*
X-112671Y53140D02*
X-73308Y13777D01*
X-73397Y-8615D01*
X-48702Y-21057D01*
D33*
X-48702Y-21057D03*
D30*
X-112671Y53140D02*
X-122569Y53140D01*
D35*
X-133256Y124286D02*
X-133256Y128588D01*
X-133256Y124286D02*
X-143938Y113604D01*
X-143938Y104516D01*
X-143866Y104444D01*
X-157256Y123031D02*
X-157256Y128588D01*
X-157256Y123031D02*
X-148867Y114642D01*
X-148867Y104444D01*
X-178802Y33730D02*
X-197108Y15425D01*
X-178802Y36771D02*
X-178875Y36844D01*
X-178802Y36771D02*
X-178802Y33730D01*
X-244925Y15425D02*
X-249238Y11113D01*
X-244925Y15425D02*
X-197108Y15425D01*
D30*
X-242865Y76200D02*
X-257969Y76200D01*
X-277019Y57150D01*
X-286544Y57150D01*
D32*
X-286544Y57150D03*
D30*
X-229807Y63142D02*
X-190169Y63142D01*
X-229807Y63142D02*
X-242865Y76200D01*
X-289347Y49410D02*
X-296294Y56356D01*
X-296294Y84138D02*
X-293119Y87313D01*
X-296294Y84138D02*
X-296294Y56356D01*
X-289347Y49410D02*
X-236206Y49410D01*
X-227475Y58141D02*
X-190169Y58141D01*
X-227475Y58141D02*
X-236206Y49410D01*
X-173829Y-25411D02*
X-185006Y-36588D01*
X-221519Y-36588D01*
X-163871Y33298D02*
X-163871Y36844D01*
X-163871Y33298D02*
X-166896Y30273D01*
X-170044Y30273D01*
X-173829Y26488D01*
X-173829Y-25411D01*
X-148400Y36377D02*
X-148867Y36844D01*
X-148400Y36377D02*
X-148400Y32831D01*
X-146525Y30956D01*
X-138906Y30956D01*
X-137319Y29369D01*
D32*
X-194559Y-54935D03*
D30*
X-137725Y-13486D02*
X-135146Y-10906D01*
X-153109Y-13486D02*
X-194559Y-54935D01*
X-153109Y-13486D02*
X-137725Y-13486D01*
X-135146Y18494D02*
X-137319Y20667D01*
X-135146Y18494D02*
X-135146Y-10906D01*
X-137319Y20667D02*
X-137319Y29369D01*
D32*
X-251273Y196056D03*
D30*
X-242665Y187448D01*
X-242665Y124619D01*
X-211196Y93150D01*
X-190169Y93150D01*
X-236538Y196194D02*
X-221519Y211213D01*
X-236538Y196194D02*
X-236538Y127000D01*
X-207688Y98151D01*
X-190169Y98151D01*
D32*
X-205581Y86519D03*
D35*
X-203952Y88148D01*
X-190169Y88148D01*
D30*
X-96825Y95749D02*
X-90533Y95749D01*
X-86709Y99572D01*
X-96825Y95749D02*
X-100442Y95749D01*
X-113044Y83147D01*
X-122569Y83147D01*
X71438Y155106D02*
X73025Y153519D01*
X73025Y147615D01*
X57364Y131953D01*
X-86709Y123635D02*
X-86709Y99572D01*
X-86709Y123635D02*
X-78391Y131953D01*
X57364Y131953D01*
D32*
X-96825Y95749D03*
D30*
X-105217Y68143D02*
X-122569Y68143D01*
X59531Y28598D02*
X59531Y21900D01*
X58738Y21106D01*
X59531Y28598D02*
X41431Y46699D01*
X-83773Y46699D01*
X-101613Y64538D02*
X-105217Y68143D01*
X-101613Y64538D02*
X-83773Y46699D01*
X-101613Y64538D02*
X-107151Y64538D01*
D32*
X-107151Y64538D03*
D30*
X71438Y29392D02*
X71438Y21106D01*
X71438Y29392D02*
X49559Y51271D01*
X-80851Y51271D02*
X-97737Y68157D01*
X-102725Y73145D01*
X-122569Y73145D01*
X-80851Y51271D02*
X49559Y51271D01*
X-96655Y69239D02*
X-97737Y68157D01*
D32*
X-96655Y69239D03*
D35*
X46038Y22225D02*
X46831Y23019D01*
X46038Y22225D02*
X46038Y21106D01*
D30*
X-115413Y63142D02*
X-122569Y63142D01*
X-107495Y55224D02*
X-94398Y42127D01*
X-107495Y55224D02*
X-115413Y63142D01*
X46038Y27011D02*
X46038Y21106D01*
X46038Y27011D02*
X30921Y42127D01*
X-94398Y42127D01*
X-107495Y55224D02*
X-107269Y55450D01*
X-104888Y55450D01*
D32*
X-104888Y55450D03*
D30*
X58738Y155106D02*
X60325Y153519D01*
X60325Y147615D01*
X49236Y136525D01*
X-82550Y136525D01*
X-95250Y123825D01*
X-95250Y106363D01*
X-114842Y88148D02*
X-122569Y88148D01*
D32*
X-95250Y106363D03*
D30*
X-96628Y106363D02*
X-114842Y88148D01*
X-96628Y106363D02*
X-95250Y106363D01*
X84138Y155106D02*
X84336Y154908D01*
X84336Y147813D01*
X63904Y127381D01*
X-79756Y120831D02*
X-79756Y94428D01*
X-88100Y86083D01*
X-100013Y86083D01*
X-101931Y86083D01*
X-109869Y78146D01*
X-122569Y78146D01*
X-73206Y127381D02*
X63904Y127381D01*
X-73206Y127381D02*
X-79756Y120831D01*
D32*
X-100013Y86083D03*
D33*
X42144Y150813D03*
D31*
X46038Y154707D01*
X46038Y155106D01*
D33*
X76200Y1588D03*
D36*
X82224Y1588D01*
D33*
X80963Y21431D03*
D36*
X84138Y21106D02*
X84138Y6350D01*
D29*
X83813Y21431D02*
X80963Y21431D01*
X83813Y21431D02*
X84138Y21106D01*
D37*
X212940Y-9525D02*
X214680Y-7785D01*
D38*
X173407Y208386D02*
X170840Y208159D01*
X170974Y207486D01*
D39*
X170840Y208159D02*
X170840Y205765D01*
M02*
