G04 EAGLE Gerber RS-274X export*
G75*
%MOMM*%
%FSLAX34Y34*%
%LPD*%
%INSolderpaste Bottom*%
%IPPOS*%
%AMOC8*
5,1,8,0,0,1.08239X$1,22.5*%
G01*
%ADD10R,0.400000X1.399997*%
%ADD11R,0.297181X0.550000*%
%ADD12R,0.550000X0.297181*%
%ADD13R,1.100000X1.000000*%
%ADD14R,1.000000X1.100000*%
%ADD15R,1.300000X1.500000*%
%ADD16R,6.001059X3.800669*%
%ADD17R,0.700000X2.000000*%
%ADD18R,0.800000X0.500000*%
%ADD19R,0.800000X1.600000*%
%ADD20R,1.600000X0.800000*%

G36*
X-128919Y85742D02*
X-128919Y85742D01*
X-128917Y85742D01*
X-128874Y85761D01*
X-128830Y85780D01*
X-128829Y85782D01*
X-128827Y85783D01*
X-128795Y85868D01*
X-128795Y98092D01*
X-128795Y98094D01*
X-128795Y98096D01*
X-128814Y98139D01*
X-128833Y98182D01*
X-128835Y98183D01*
X-128836Y98185D01*
X-128921Y98218D01*
X-141145Y98218D01*
X-141147Y98217D01*
X-141149Y98218D01*
X-141192Y98198D01*
X-141235Y98180D01*
X-141236Y98178D01*
X-141238Y98177D01*
X-141271Y98092D01*
X-141271Y85868D01*
X-141270Y85866D01*
X-141271Y85864D01*
X-141251Y85821D01*
X-141233Y85777D01*
X-141231Y85776D01*
X-141230Y85774D01*
X-141145Y85742D01*
X-128921Y85742D01*
X-128919Y85742D01*
G37*
G36*
X-143143Y85742D02*
X-143143Y85742D01*
X-143141Y85742D01*
X-143098Y85761D01*
X-143054Y85780D01*
X-143053Y85782D01*
X-143051Y85783D01*
X-143019Y85868D01*
X-143019Y98092D01*
X-143019Y98094D01*
X-143019Y98096D01*
X-143038Y98139D01*
X-143057Y98182D01*
X-143059Y98183D01*
X-143060Y98185D01*
X-143145Y98218D01*
X-155369Y98218D01*
X-155371Y98217D01*
X-155373Y98218D01*
X-155416Y98198D01*
X-155459Y98180D01*
X-155460Y98178D01*
X-155462Y98177D01*
X-155495Y98092D01*
X-155495Y85868D01*
X-155494Y85866D01*
X-155495Y85864D01*
X-155475Y85821D01*
X-155457Y85777D01*
X-155455Y85776D01*
X-155454Y85774D01*
X-155369Y85742D01*
X-143145Y85742D01*
X-143143Y85742D01*
G37*
G36*
X-157367Y85742D02*
X-157367Y85742D01*
X-157365Y85742D01*
X-157322Y85761D01*
X-157278Y85780D01*
X-157277Y85782D01*
X-157275Y85783D01*
X-157243Y85868D01*
X-157243Y98092D01*
X-157243Y98094D01*
X-157243Y98096D01*
X-157262Y98139D01*
X-157281Y98182D01*
X-157283Y98183D01*
X-157284Y98185D01*
X-157369Y98218D01*
X-169593Y98218D01*
X-169595Y98217D01*
X-169597Y98218D01*
X-169640Y98198D01*
X-169683Y98180D01*
X-169684Y98178D01*
X-169686Y98177D01*
X-169719Y98092D01*
X-169719Y85868D01*
X-169718Y85866D01*
X-169719Y85864D01*
X-169699Y85821D01*
X-169681Y85777D01*
X-169679Y85776D01*
X-169678Y85774D01*
X-169593Y85742D01*
X-157369Y85742D01*
X-157367Y85742D01*
G37*
G36*
X-171591Y85742D02*
X-171591Y85742D01*
X-171589Y85742D01*
X-171546Y85761D01*
X-171502Y85780D01*
X-171501Y85782D01*
X-171499Y85783D01*
X-171467Y85868D01*
X-171467Y98092D01*
X-171467Y98094D01*
X-171467Y98096D01*
X-171486Y98139D01*
X-171505Y98182D01*
X-171507Y98183D01*
X-171508Y98185D01*
X-171593Y98218D01*
X-183817Y98218D01*
X-183819Y98217D01*
X-183821Y98218D01*
X-183864Y98198D01*
X-183907Y98180D01*
X-183908Y98178D01*
X-183910Y98177D01*
X-183943Y98092D01*
X-183943Y85868D01*
X-183942Y85866D01*
X-183943Y85864D01*
X-183923Y85821D01*
X-183905Y85777D01*
X-183903Y85776D01*
X-183902Y85774D01*
X-183817Y85742D01*
X-171593Y85742D01*
X-171591Y85742D01*
G37*
G36*
X-128919Y71518D02*
X-128919Y71518D01*
X-128917Y71518D01*
X-128874Y71537D01*
X-128830Y71556D01*
X-128829Y71558D01*
X-128827Y71559D01*
X-128795Y71644D01*
X-128795Y83868D01*
X-128795Y83870D01*
X-128795Y83872D01*
X-128814Y83915D01*
X-128833Y83958D01*
X-128835Y83959D01*
X-128836Y83961D01*
X-128921Y83994D01*
X-141145Y83994D01*
X-141147Y83993D01*
X-141149Y83994D01*
X-141192Y83974D01*
X-141235Y83956D01*
X-141236Y83954D01*
X-141238Y83953D01*
X-141271Y83868D01*
X-141271Y71644D01*
X-141270Y71642D01*
X-141271Y71640D01*
X-141251Y71597D01*
X-141233Y71553D01*
X-141231Y71552D01*
X-141230Y71550D01*
X-141145Y71518D01*
X-128921Y71518D01*
X-128919Y71518D01*
G37*
G36*
X-171591Y71518D02*
X-171591Y71518D01*
X-171589Y71518D01*
X-171546Y71537D01*
X-171502Y71556D01*
X-171501Y71558D01*
X-171499Y71559D01*
X-171467Y71644D01*
X-171467Y83868D01*
X-171467Y83870D01*
X-171467Y83872D01*
X-171486Y83915D01*
X-171505Y83958D01*
X-171507Y83959D01*
X-171508Y83961D01*
X-171593Y83994D01*
X-183817Y83994D01*
X-183819Y83993D01*
X-183821Y83994D01*
X-183864Y83974D01*
X-183907Y83956D01*
X-183908Y83954D01*
X-183910Y83953D01*
X-183943Y83868D01*
X-183943Y71644D01*
X-183942Y71642D01*
X-183943Y71640D01*
X-183923Y71597D01*
X-183905Y71553D01*
X-183903Y71552D01*
X-183902Y71550D01*
X-183817Y71518D01*
X-171593Y71518D01*
X-171591Y71518D01*
G37*
G36*
X-157367Y71518D02*
X-157367Y71518D01*
X-157365Y71518D01*
X-157322Y71537D01*
X-157278Y71556D01*
X-157277Y71558D01*
X-157275Y71559D01*
X-157243Y71644D01*
X-157243Y83868D01*
X-157243Y83870D01*
X-157243Y83872D01*
X-157262Y83915D01*
X-157281Y83958D01*
X-157283Y83959D01*
X-157284Y83961D01*
X-157369Y83994D01*
X-169593Y83994D01*
X-169595Y83993D01*
X-169597Y83994D01*
X-169640Y83974D01*
X-169683Y83956D01*
X-169684Y83954D01*
X-169686Y83953D01*
X-169719Y83868D01*
X-169719Y71644D01*
X-169718Y71642D01*
X-169719Y71640D01*
X-169699Y71597D01*
X-169681Y71553D01*
X-169679Y71552D01*
X-169678Y71550D01*
X-169593Y71518D01*
X-157369Y71518D01*
X-157367Y71518D01*
G37*
G36*
X-143143Y71518D02*
X-143143Y71518D01*
X-143141Y71518D01*
X-143098Y71537D01*
X-143054Y71556D01*
X-143053Y71558D01*
X-143051Y71559D01*
X-143019Y71644D01*
X-143019Y83868D01*
X-143019Y83870D01*
X-143019Y83872D01*
X-143038Y83915D01*
X-143057Y83958D01*
X-143059Y83959D01*
X-143060Y83961D01*
X-143145Y83994D01*
X-155369Y83994D01*
X-155371Y83993D01*
X-155373Y83994D01*
X-155416Y83974D01*
X-155459Y83956D01*
X-155460Y83954D01*
X-155462Y83953D01*
X-155495Y83868D01*
X-155495Y71644D01*
X-155494Y71642D01*
X-155495Y71640D01*
X-155475Y71597D01*
X-155457Y71553D01*
X-155455Y71552D01*
X-155454Y71550D01*
X-155369Y71518D01*
X-143145Y71518D01*
X-143143Y71518D01*
G37*
G36*
X-157367Y57294D02*
X-157367Y57294D01*
X-157365Y57294D01*
X-157322Y57313D01*
X-157278Y57332D01*
X-157277Y57334D01*
X-157275Y57335D01*
X-157243Y57420D01*
X-157243Y69644D01*
X-157243Y69646D01*
X-157243Y69648D01*
X-157262Y69691D01*
X-157281Y69734D01*
X-157283Y69735D01*
X-157284Y69737D01*
X-157369Y69770D01*
X-169593Y69770D01*
X-169595Y69769D01*
X-169597Y69770D01*
X-169640Y69750D01*
X-169683Y69732D01*
X-169684Y69730D01*
X-169686Y69729D01*
X-169719Y69644D01*
X-169719Y57420D01*
X-169718Y57418D01*
X-169719Y57416D01*
X-169699Y57373D01*
X-169681Y57329D01*
X-169679Y57328D01*
X-169678Y57326D01*
X-169593Y57294D01*
X-157369Y57294D01*
X-157367Y57294D01*
G37*
G36*
X-128919Y57294D02*
X-128919Y57294D01*
X-128917Y57294D01*
X-128874Y57313D01*
X-128830Y57332D01*
X-128829Y57334D01*
X-128827Y57335D01*
X-128795Y57420D01*
X-128795Y69644D01*
X-128795Y69646D01*
X-128795Y69648D01*
X-128814Y69691D01*
X-128833Y69734D01*
X-128835Y69735D01*
X-128836Y69737D01*
X-128921Y69770D01*
X-141145Y69770D01*
X-141147Y69769D01*
X-141149Y69770D01*
X-141192Y69750D01*
X-141235Y69732D01*
X-141236Y69730D01*
X-141238Y69729D01*
X-141271Y69644D01*
X-141271Y57420D01*
X-141270Y57418D01*
X-141271Y57416D01*
X-141251Y57373D01*
X-141233Y57329D01*
X-141231Y57328D01*
X-141230Y57326D01*
X-141145Y57294D01*
X-128921Y57294D01*
X-128919Y57294D01*
G37*
G36*
X-143143Y57294D02*
X-143143Y57294D01*
X-143141Y57294D01*
X-143098Y57313D01*
X-143054Y57332D01*
X-143053Y57334D01*
X-143051Y57335D01*
X-143019Y57420D01*
X-143019Y69644D01*
X-143019Y69646D01*
X-143019Y69648D01*
X-143038Y69691D01*
X-143057Y69734D01*
X-143059Y69735D01*
X-143060Y69737D01*
X-143145Y69770D01*
X-155369Y69770D01*
X-155371Y69769D01*
X-155373Y69770D01*
X-155416Y69750D01*
X-155459Y69732D01*
X-155460Y69730D01*
X-155462Y69729D01*
X-155495Y69644D01*
X-155495Y57420D01*
X-155494Y57418D01*
X-155495Y57416D01*
X-155475Y57373D01*
X-155457Y57329D01*
X-155455Y57328D01*
X-155454Y57326D01*
X-155369Y57294D01*
X-143145Y57294D01*
X-143143Y57294D01*
G37*
G36*
X-171591Y57294D02*
X-171591Y57294D01*
X-171589Y57294D01*
X-171546Y57313D01*
X-171502Y57332D01*
X-171501Y57334D01*
X-171499Y57335D01*
X-171467Y57420D01*
X-171467Y69644D01*
X-171467Y69646D01*
X-171467Y69648D01*
X-171486Y69691D01*
X-171505Y69734D01*
X-171507Y69735D01*
X-171508Y69737D01*
X-171593Y69770D01*
X-183817Y69770D01*
X-183819Y69769D01*
X-183821Y69770D01*
X-183864Y69750D01*
X-183907Y69732D01*
X-183908Y69730D01*
X-183910Y69729D01*
X-183943Y69644D01*
X-183943Y57420D01*
X-183942Y57418D01*
X-183943Y57416D01*
X-183923Y57373D01*
X-183905Y57329D01*
X-183903Y57328D01*
X-183902Y57326D01*
X-183817Y57294D01*
X-171593Y57294D01*
X-171591Y57294D01*
G37*
G36*
X-143143Y43070D02*
X-143143Y43070D01*
X-143141Y43070D01*
X-143098Y43089D01*
X-143054Y43108D01*
X-143053Y43110D01*
X-143051Y43111D01*
X-143019Y43196D01*
X-143019Y55420D01*
X-143019Y55422D01*
X-143019Y55424D01*
X-143038Y55467D01*
X-143057Y55510D01*
X-143059Y55511D01*
X-143060Y55513D01*
X-143145Y55546D01*
X-155369Y55546D01*
X-155371Y55545D01*
X-155373Y55546D01*
X-155416Y55526D01*
X-155459Y55508D01*
X-155460Y55506D01*
X-155462Y55505D01*
X-155495Y55420D01*
X-155495Y43196D01*
X-155494Y43194D01*
X-155495Y43192D01*
X-155475Y43149D01*
X-155457Y43105D01*
X-155455Y43104D01*
X-155454Y43102D01*
X-155369Y43070D01*
X-143145Y43070D01*
X-143143Y43070D01*
G37*
G36*
X-157367Y43070D02*
X-157367Y43070D01*
X-157365Y43070D01*
X-157322Y43089D01*
X-157278Y43108D01*
X-157277Y43110D01*
X-157275Y43111D01*
X-157243Y43196D01*
X-157243Y55420D01*
X-157243Y55422D01*
X-157243Y55424D01*
X-157262Y55467D01*
X-157281Y55510D01*
X-157283Y55511D01*
X-157284Y55513D01*
X-157369Y55546D01*
X-169593Y55546D01*
X-169595Y55545D01*
X-169597Y55546D01*
X-169640Y55526D01*
X-169683Y55508D01*
X-169684Y55506D01*
X-169686Y55505D01*
X-169719Y55420D01*
X-169719Y43196D01*
X-169718Y43194D01*
X-169719Y43192D01*
X-169699Y43149D01*
X-169681Y43105D01*
X-169679Y43104D01*
X-169678Y43102D01*
X-169593Y43070D01*
X-157369Y43070D01*
X-157367Y43070D01*
G37*
G36*
X-171591Y43070D02*
X-171591Y43070D01*
X-171589Y43070D01*
X-171546Y43089D01*
X-171502Y43108D01*
X-171501Y43110D01*
X-171499Y43111D01*
X-171467Y43196D01*
X-171467Y55420D01*
X-171467Y55422D01*
X-171467Y55424D01*
X-171486Y55467D01*
X-171505Y55510D01*
X-171507Y55511D01*
X-171508Y55513D01*
X-171593Y55546D01*
X-183817Y55546D01*
X-183819Y55545D01*
X-183821Y55546D01*
X-183864Y55526D01*
X-183907Y55508D01*
X-183908Y55506D01*
X-183910Y55505D01*
X-183943Y55420D01*
X-183943Y43196D01*
X-183942Y43194D01*
X-183943Y43192D01*
X-183923Y43149D01*
X-183905Y43105D01*
X-183903Y43104D01*
X-183902Y43102D01*
X-183817Y43070D01*
X-171593Y43070D01*
X-171591Y43070D01*
G37*
G36*
X-128919Y43070D02*
X-128919Y43070D01*
X-128917Y43070D01*
X-128874Y43089D01*
X-128830Y43108D01*
X-128829Y43110D01*
X-128827Y43111D01*
X-128795Y43196D01*
X-128795Y55420D01*
X-128795Y55422D01*
X-128795Y55424D01*
X-128814Y55467D01*
X-128833Y55510D01*
X-128835Y55511D01*
X-128836Y55513D01*
X-128921Y55546D01*
X-141145Y55546D01*
X-141147Y55545D01*
X-141149Y55546D01*
X-141192Y55526D01*
X-141235Y55508D01*
X-141236Y55506D01*
X-141238Y55505D01*
X-141271Y55420D01*
X-141271Y43196D01*
X-141270Y43194D01*
X-141271Y43192D01*
X-141251Y43149D01*
X-141233Y43105D01*
X-141231Y43104D01*
X-141230Y43102D01*
X-141145Y43070D01*
X-128921Y43070D01*
X-128919Y43070D01*
G37*
D10*
X-133256Y128588D03*
X-145256Y128588D03*
X-157256Y128588D03*
D11*
X-183876Y104444D03*
X-178875Y104444D03*
X-173873Y104444D03*
X-168872Y104444D03*
X-163871Y104444D03*
X-158870Y104444D03*
X-153868Y104444D03*
X-148867Y104444D03*
X-143866Y104444D03*
X-138865Y104444D03*
X-133863Y104444D03*
X-128862Y104444D03*
D12*
X-122569Y98151D03*
X-122569Y93150D03*
X-122569Y88148D03*
X-122569Y83147D03*
X-122569Y78146D03*
X-122569Y73145D03*
X-122569Y68143D03*
X-122569Y63142D03*
X-122569Y58141D03*
X-122569Y53140D03*
X-122569Y48138D03*
X-122569Y43137D03*
D11*
X-128862Y36844D03*
X-133863Y36844D03*
X-138865Y36844D03*
X-143866Y36844D03*
X-148867Y36844D03*
X-153868Y36844D03*
X-158870Y36844D03*
X-163871Y36844D03*
X-168872Y36844D03*
X-173873Y36844D03*
X-178875Y36844D03*
X-183876Y36844D03*
D12*
X-190169Y43137D03*
X-190169Y48138D03*
X-190169Y53140D03*
X-190169Y58141D03*
X-190169Y63142D03*
X-190169Y68143D03*
X-190169Y73145D03*
X-190169Y78146D03*
X-190169Y83147D03*
X-190169Y88148D03*
X-190169Y93150D03*
X-190169Y98151D03*
D13*
X-207963Y48188D03*
X-207963Y31188D03*
D14*
X-157725Y173038D03*
X-140725Y173038D03*
X-116681Y124056D03*
X-116681Y141056D03*
D13*
X-187888Y134144D03*
X-170888Y134144D03*
X-187888Y123825D03*
X-170888Y123825D03*
X-163281Y22225D03*
X-146281Y22225D03*
D15*
X-188888Y146050D03*
X-169888Y146050D03*
X-188888Y161131D03*
X-169888Y161131D03*
X-164281Y10319D03*
X-145281Y10319D03*
D16*
X90482Y88103D03*
D17*
X147638Y21106D03*
X134938Y21106D03*
X122238Y21106D03*
X109538Y21106D03*
X96838Y21106D03*
X84138Y21106D03*
X71438Y21106D03*
X58738Y21106D03*
X46038Y21106D03*
X33338Y21106D03*
X33338Y155106D03*
X46038Y155106D03*
X58738Y155106D03*
X71438Y155106D03*
X84138Y155106D03*
X96838Y155106D03*
X109538Y155106D03*
X122238Y155106D03*
X134938Y155106D03*
X147638Y155106D03*
D13*
X82224Y1588D03*
X65224Y1588D03*
D18*
X-169181Y177800D03*
X-191181Y177800D03*
X-142194Y-7144D03*
X-164194Y-7144D03*
D19*
X203200Y25863D03*
X203200Y59863D03*
X223838Y25863D03*
X223838Y59863D03*
X224631Y140031D03*
X224631Y106031D03*
X203994Y140825D03*
X203994Y106825D03*
X183356Y59863D03*
X183356Y25863D03*
D20*
X281319Y24606D03*
X247319Y24606D03*
X278938Y144463D03*
X244938Y144463D03*
D19*
X183356Y106031D03*
X183356Y140031D03*
M02*
