M48
;GenerationSoftware,Autodesk,EAGLE,9.6.2*%
;CreationDate,2022-12-19T22:56:02Z*%
FMAT,2
ICI,OFF
METRIC,TZ,000.000
T5C0.350
T4C0.650
T3C0.813
T2C1.016
T1C1.321
%
G90
M71
T1
X46929Y32405
X51280Y29882
X51313Y10810
X46953Y8303
X56594Y22914
X56594Y17885
T2
X14843Y31829
X4921Y15240
X4921Y17780
X4921Y12700
T3
X22886Y22939
X22993Y17860
T4
X38338Y22146
X36751Y22146
X35243Y22146
X43180Y20082
X41593Y20082
X40005Y20082
X38418Y20082
X35322Y20082
X43180Y18256
X41593Y18256
X40005Y18256
X38418Y18256
X36830Y18256
X35322Y18256
X32306Y20082
X32306Y22146
X47942Y20003
X44767Y22225
X44847Y20082
X44926Y18336
X33734Y22146
X33814Y20082
X36830Y20082
X46434Y20003
X47863Y22146
X46355Y22146
X39926Y22146
X43101Y22146
X41513Y22146
T5
X33258Y14367
X8414Y26273
X19050Y32385
X22832Y11626
X3492Y20638
X15262Y13551
X5432Y28654
X4604Y23971
X19447Y18018
X35719Y12157
X17066Y25717
X19504Y19072
X24289Y13316
X27310Y13474
X33734Y29289
X16192Y28019
X13176Y8493
X18494Y15161
X24209Y11986
X8573Y16907
X20399Y30004
X17939Y30559
X5874Y21352
X24924Y11986
X21114Y11986
X20320Y11986
X36830Y12157
M30