M48
;GenerationSoftware,Autodesk,EAGLE,9.6.2*%
;CreationDate,2023-11-20T19:35:20Z*%
FMAT,2
ICI,OFF
METRIC,TZ,000.000
T6C0.300
T5C0.350
T4C0.650
T3C0.813
T2C1.016
T1C1.321
%
G90
M71
T1
X26749Y11325
X26749Y6296
X17084Y20816
X21435Y18294
X21468Y-778
X17108Y-3285
T2
X-24924Y1111
X-24924Y3651
X-24924Y6191
X-15002Y20241
T3
X-6852Y6271
X-6959Y11350
T4
X6906Y8017
X5398Y8017
X3810Y8017
X2143Y8017
X5239Y6588
X6747Y6588
X8414Y6588
X10001Y6588
X11589Y6588
X13097Y6588
X14684Y9525
X14684Y8096
X4921Y11112
X6588Y11112
X8255Y11112
X9843Y11112
X11509Y11112
X13097Y11112
X2064Y9525
X3731Y9525
X5318Y9525
X6906Y9525
X8414Y9525
X9843Y9525
X11509Y9525
X13097Y9525
X16113Y9525
X16113Y8096
X13097Y8017
X11509Y8096
X9843Y8096
X8414Y8017
T5
X-21828Y12065
X-18256Y635
X-18256Y-159
X-12779Y397
X-12779Y-476
X-15240Y0
X-18177Y6826
X-18177Y5477
X-24368Y9922
X-22146Y7779
X-22622Y12779
X-9604Y15954
X-4366Y3016
X-3889Y1746
X2381Y15399
X1191Y14764
X-16351Y17145
X-4870Y-2106
X4214Y15081
X7620Y159
X8096Y2143
X-9684Y1746
X-19923Y4604
X-7541Y2619
X-8176Y3334
X-10319Y2461
X-11668Y15954
X-11668Y16986
X-9604Y16986
T6
X-10795Y23019
X-28654Y5715
X-19456Y-5494
X-16589Y-1111
X-18144Y16938
X-18144Y13652
X-20558Y8652
X-9683Y9575
X-10715Y6454
X-19685Y13970
X-9665Y6924
X-10489Y5545
X-9525Y10636
X-10001Y8608
X-25127Y19606
M30