M48
;GenerationSoftware,Autodesk,EAGLE,9.6.2*%
;CreationDate,2022-08-22T18:44:53Z*%
FMAT,2
ICI,OFF
METRIC,TZ,000.000
T6C0.350
T5C0.750
T4C0.813
T3C1.016
T2C1.100
T1C1.321
%
G90
M71
T1
X46953Y8303
X51313Y10810
X51280Y29882
X46929Y32405
T2
X56523Y16820
X56523Y20320
X56523Y23820
T3
X14843Y31829
X4921Y17780
X4921Y15240
X4921Y12700
X19923Y11192
X19923Y13732
T4
X29607Y22860
X29607Y17780
T5
X47625Y19300
X47625Y21300
T6
X5432Y28654
X13176Y8493
X34291Y28673
X5874Y21352
X18256Y30797
X20638Y30162
X8573Y16907
X18653Y15319
X13106Y16612
X20320Y17066
X27464Y26670
X27543Y23257
X27226Y17542
X24606Y14843
X8414Y26273
X19606Y31353
X22832Y10674
X3492Y20638
X15262Y13551
X4604Y23971
M30