G04 EAGLE Gerber RS-274X export*
G75*
%MOMM*%
%FSLAX34Y34*%
%LPD*%
%INBottom Copper*%
%IPPOS*%
%AMOC8*
5,1,8,0,0,1.08239X$1,22.5*%
G01*
%ADD10R,0.400000X1.399997*%
%ADD11C,1.000000*%
%ADD12R,0.254000X0.812800*%
%ADD13R,0.812800X0.254000*%
%ADD14R,5.384800X5.384800*%
%ADD15P,1.649562X8X22.500000*%
%ADD16R,1.100000X1.000000*%
%ADD17R,1.500000X1.300000*%
%ADD18R,1.300000X1.500000*%
%ADD19C,1.524000*%
%ADD20R,0.700000X2.000000*%
%ADD21R,9.600000X6.000000*%
%ADD22R,3.050000X2.900000*%
%ADD23R,1.120000X1.240000*%
%ADD24C,1.700000*%
%ADD25R,1.240000X1.120000*%
%ADD26C,1.981200*%
%ADD27P,1.429621X8X112.500000*%
%ADD28C,1.320800*%
%ADD29R,1.258000X1.258000*%
%ADD30C,1.258000*%
%ADD31C,0.254000*%
%ADD32C,0.609600*%
%ADD33C,0.508000*%
%ADD34C,0.756400*%
%ADD35C,0.406400*%
%ADD36C,0.304800*%
%ADD37C,1.016000*%
%ADD38C,2.032000*%
%ADD39C,1.270000*%
%ADD40C,2.540000*%
%ADD41C,1.397000*%
%ADD42C,1.524000*%

G36*
X449241Y29511D02*
X449241Y29511D01*
X449318Y29510D01*
X449342Y29519D01*
X449363Y29520D01*
X449402Y29541D01*
X449474Y29567D01*
X465974Y39067D01*
X465996Y39086D01*
X466022Y39099D01*
X466056Y39137D01*
X466059Y39139D01*
X466062Y39143D01*
X466070Y39152D01*
X466123Y39199D01*
X466136Y39225D01*
X466155Y39247D01*
X466178Y39314D01*
X466209Y39378D01*
X466211Y39407D01*
X466220Y39434D01*
X466215Y39506D01*
X466218Y39577D01*
X466208Y39604D01*
X466206Y39633D01*
X466164Y39723D01*
X466149Y39763D01*
X466142Y39771D01*
X466136Y39784D01*
X465716Y40392D01*
X581977Y107514D01*
X582274Y106887D01*
X582291Y106864D01*
X582301Y106837D01*
X582350Y106785D01*
X582393Y106727D01*
X582418Y106713D01*
X582437Y106692D01*
X582503Y106663D01*
X582565Y106627D01*
X582593Y106624D01*
X582619Y106612D01*
X582691Y106611D01*
X582762Y106602D01*
X582789Y106610D01*
X582818Y106610D01*
X582913Y106645D01*
X582953Y106656D01*
X582962Y106663D01*
X582974Y106667D01*
X599474Y116167D01*
X599533Y116219D01*
X599595Y116265D01*
X599606Y116284D01*
X599623Y116299D01*
X599657Y116369D01*
X599697Y116436D01*
X599701Y116461D01*
X599709Y116478D01*
X599711Y116523D01*
X599724Y116600D01*
X599724Y135600D01*
X599719Y135628D01*
X599721Y135656D01*
X599699Y135724D01*
X599685Y135795D01*
X599669Y135818D01*
X599660Y135845D01*
X599613Y135900D01*
X599572Y135959D01*
X599548Y135974D01*
X599530Y135996D01*
X599465Y136027D01*
X599405Y136066D01*
X599377Y136071D01*
X599351Y136083D01*
X599250Y136092D01*
X599208Y136099D01*
X599198Y136097D01*
X599185Y136098D01*
X598470Y136041D01*
X598470Y270359D01*
X599185Y270302D01*
X599214Y270306D01*
X599242Y270301D01*
X599311Y270318D01*
X599383Y270326D01*
X599407Y270341D01*
X599435Y270347D01*
X599493Y270390D01*
X599555Y270426D01*
X599572Y270448D01*
X599595Y270465D01*
X599632Y270527D01*
X599675Y270584D01*
X599682Y270612D01*
X599697Y270636D01*
X599713Y270736D01*
X599724Y270777D01*
X599722Y270787D01*
X599724Y270800D01*
X599724Y289800D01*
X599709Y289876D01*
X599700Y289954D01*
X599689Y289973D01*
X599685Y289995D01*
X599641Y290059D01*
X599602Y290127D01*
X599583Y290143D01*
X599572Y290159D01*
X599534Y290183D01*
X599474Y290233D01*
X582974Y299733D01*
X582947Y299742D01*
X582923Y299758D01*
X582853Y299773D01*
X582785Y299796D01*
X582757Y299793D01*
X582729Y299799D01*
X582659Y299786D01*
X582587Y299780D01*
X582562Y299767D01*
X582534Y299761D01*
X582474Y299721D01*
X582411Y299688D01*
X582393Y299666D01*
X582369Y299650D01*
X582311Y299567D01*
X582284Y299535D01*
X582281Y299524D01*
X582274Y299514D01*
X581977Y298886D01*
X465716Y366008D01*
X466136Y366616D01*
X466147Y366643D01*
X466166Y366665D01*
X466186Y366734D01*
X466214Y366799D01*
X466214Y366828D01*
X466222Y366856D01*
X466214Y366927D01*
X466215Y366998D01*
X466203Y367025D01*
X466200Y367054D01*
X466165Y367116D01*
X466137Y367181D01*
X466117Y367202D01*
X466102Y367227D01*
X466025Y367290D01*
X465995Y367320D01*
X465985Y367324D01*
X465974Y367333D01*
X449474Y376833D01*
X449401Y376857D01*
X449331Y376888D01*
X449307Y376888D01*
X449285Y376896D01*
X449209Y376890D01*
X449132Y376891D01*
X449108Y376881D01*
X449087Y376880D01*
X449048Y376859D01*
X448976Y376833D01*
X432476Y367333D01*
X432454Y367314D01*
X432428Y367301D01*
X432380Y367248D01*
X432327Y367201D01*
X432314Y367175D01*
X432295Y367154D01*
X432272Y367086D01*
X432241Y367022D01*
X432240Y366993D01*
X432230Y366966D01*
X432235Y366894D01*
X432232Y366823D01*
X432242Y366796D01*
X432244Y366767D01*
X432286Y366677D01*
X432301Y366637D01*
X432308Y366629D01*
X432314Y366616D01*
X432734Y366008D01*
X316472Y298886D01*
X316177Y299513D01*
X316159Y299536D01*
X316149Y299563D01*
X316100Y299615D01*
X316058Y299672D01*
X316033Y299687D01*
X316013Y299708D01*
X315948Y299737D01*
X315886Y299772D01*
X315857Y299776D01*
X315831Y299788D01*
X315760Y299789D01*
X315689Y299798D01*
X315661Y299790D01*
X315632Y299791D01*
X315539Y299756D01*
X315498Y299744D01*
X315489Y299737D01*
X315476Y299733D01*
X299225Y290376D01*
X282974Y299733D01*
X282947Y299742D01*
X282923Y299759D01*
X282853Y299773D01*
X282785Y299796D01*
X282756Y299793D01*
X282728Y299799D01*
X282658Y299785D01*
X282587Y299780D01*
X282561Y299766D01*
X282533Y299761D01*
X282474Y299721D01*
X282411Y299688D01*
X282392Y299666D01*
X282368Y299649D01*
X282311Y299567D01*
X282284Y299535D01*
X282281Y299524D01*
X282273Y299513D01*
X281978Y298886D01*
X251247Y316628D01*
X251115Y316687D01*
X250986Y316754D01*
X250932Y316770D01*
X250880Y316794D01*
X250739Y316826D01*
X250600Y316866D01*
X250543Y316871D01*
X250488Y316884D01*
X250343Y316888D01*
X250198Y316900D01*
X250142Y316893D01*
X250085Y316895D01*
X249942Y316870D01*
X249798Y316853D01*
X249744Y316836D01*
X249689Y316826D01*
X249553Y316774D01*
X249416Y316729D01*
X249366Y316701D01*
X249313Y316681D01*
X249191Y316603D01*
X249065Y316531D01*
X249022Y316494D01*
X248974Y316464D01*
X248869Y316363D01*
X248760Y316269D01*
X248722Y316222D01*
X248701Y316202D01*
X248697Y316197D01*
X248684Y316184D01*
X248636Y316116D01*
X248551Y316010D01*
X248546Y316002D01*
X248510Y315936D01*
X248466Y315875D01*
X248459Y315860D01*
X248455Y315853D01*
X248422Y315777D01*
X248414Y315760D01*
X248354Y315648D01*
X248332Y315577D01*
X248301Y315508D01*
X248272Y315384D01*
X248240Y315280D01*
X247640Y314633D01*
X247600Y314580D01*
X247451Y314396D01*
X246952Y313662D01*
X246903Y313644D01*
X246797Y313577D01*
X246686Y313519D01*
X246627Y313471D01*
X246562Y313430D01*
X246441Y313320D01*
X246374Y313265D01*
X246351Y313237D01*
X246317Y313206D01*
X245728Y312570D01*
X245681Y312509D01*
X245628Y312454D01*
X245560Y312349D01*
X245484Y312249D01*
X245451Y312180D01*
X245410Y312116D01*
X245364Y312000D01*
X245315Y311899D01*
X244627Y311350D01*
X244578Y311302D01*
X244404Y311143D01*
X243801Y310492D01*
X243750Y310481D01*
X243635Y310431D01*
X243517Y310390D01*
X243451Y310351D01*
X243381Y310320D01*
X243245Y310229D01*
X243170Y310185D01*
X243143Y310161D01*
X243105Y310135D01*
X242428Y309595D01*
X242373Y309541D01*
X242312Y309495D01*
X242229Y309401D01*
X242139Y309314D01*
X242096Y309251D01*
X242046Y309193D01*
X241983Y309084D01*
X241920Y308993D01*
X241157Y308552D01*
X241103Y308513D01*
X240906Y308381D01*
X240213Y307827D01*
X240160Y307824D01*
X240039Y307792D01*
X239916Y307768D01*
X239845Y307740D01*
X239772Y307720D01*
X239624Y307650D01*
X239543Y307617D01*
X239513Y307598D01*
X239472Y307578D01*
X238721Y307144D01*
X238668Y307107D01*
X238630Y307086D01*
X238624Y307081D01*
X238592Y307063D01*
X238496Y306982D01*
X238394Y306909D01*
X238342Y306853D01*
X238283Y306804D01*
X238205Y306706D01*
X238129Y306625D01*
X237309Y306302D01*
X237249Y306272D01*
X237036Y306170D01*
X236267Y305727D01*
X236215Y305731D01*
X236091Y305717D01*
X235966Y305713D01*
X235891Y305695D01*
X235815Y305686D01*
X235659Y305639D01*
X235574Y305619D01*
X235542Y305604D01*
X235497Y305591D01*
X234691Y305274D01*
X234623Y305239D01*
X234551Y305213D01*
X234444Y305147D01*
X234332Y305090D01*
X234288Y305055D01*
X234282Y305050D01*
X234272Y305042D01*
X234207Y305002D01*
X234115Y304917D01*
X234028Y304848D01*
X233169Y304652D01*
X233105Y304630D01*
X232879Y304562D01*
X232053Y304238D01*
X232002Y304250D01*
X231877Y304255D01*
X231753Y304269D01*
X231676Y304262D01*
X231600Y304265D01*
X231439Y304242D01*
X231351Y304234D01*
X231317Y304224D01*
X231272Y304218D01*
X230426Y304025D01*
X230354Y304000D01*
X230279Y303985D01*
X230164Y303936D01*
X230045Y303897D01*
X229978Y303858D01*
X229908Y303828D01*
X229805Y303758D01*
X229708Y303702D01*
X228829Y303636D01*
X228763Y303625D01*
X228529Y303591D01*
X227664Y303393D01*
X227615Y303413D01*
X227492Y303436D01*
X227372Y303469D01*
X227295Y303474D01*
X227220Y303488D01*
X227057Y303489D01*
X226970Y303495D01*
X226934Y303490D01*
X226888Y303490D01*
X226024Y303425D01*
X225948Y303412D01*
X225872Y303408D01*
X225751Y303377D01*
X225627Y303355D01*
X225556Y303327D01*
X225482Y303308D01*
X225369Y303254D01*
X225265Y303214D01*
X224386Y303279D01*
X224319Y303277D01*
X224083Y303279D01*
X223198Y303212D01*
X223153Y303239D01*
X223035Y303281D01*
X222920Y303331D01*
X222845Y303347D01*
X222773Y303372D01*
X222612Y303398D01*
X222527Y303416D01*
X222491Y303417D01*
X222445Y303424D01*
X221581Y303488D01*
X221504Y303487D01*
X221428Y303494D01*
X221303Y303482D01*
X221178Y303478D01*
X221104Y303462D01*
X221028Y303454D01*
X220908Y303417D01*
X220799Y303392D01*
X219940Y303588D01*
X219873Y303596D01*
X219640Y303633D01*
X218755Y303699D01*
X218714Y303732D01*
X218604Y303791D01*
X218498Y303858D01*
X218426Y303885D01*
X218359Y303921D01*
X218203Y303970D01*
X218121Y304001D01*
X218086Y304007D01*
X218042Y304021D01*
X217197Y304213D01*
X217121Y304223D01*
X217047Y304242D01*
X216922Y304248D01*
X216798Y304263D01*
X216721Y304258D01*
X216645Y304262D01*
X216521Y304243D01*
X216410Y304235D01*
X215589Y304556D01*
X215524Y304575D01*
X215299Y304646D01*
X214440Y304842D01*
X214436Y304847D01*
X214419Y304859D01*
X214399Y304882D01*
X214298Y304956D01*
X214203Y305038D01*
X214151Y305068D01*
X214117Y305093D01*
X214102Y305101D01*
X214075Y305121D01*
X213929Y305193D01*
X213853Y305236D01*
X213818Y305247D01*
X213777Y305267D01*
X212970Y305583D01*
X212896Y305604D01*
X212826Y305634D01*
X212703Y305659D01*
X212583Y305693D01*
X212506Y305698D01*
X212431Y305713D01*
X212306Y305714D01*
X212195Y305722D01*
X211432Y306162D01*
X211370Y306190D01*
X211158Y306294D01*
X210332Y306618D01*
X210303Y306661D01*
X210214Y306750D01*
X210133Y306845D01*
X210073Y306892D01*
X210019Y306946D01*
X209884Y307039D01*
X209815Y307093D01*
X209783Y307109D01*
X209761Y307124D01*
X209761Y307125D01*
X209760Y307125D01*
X209746Y307135D01*
X208995Y307568D01*
X208925Y307600D01*
X208860Y307640D01*
X208742Y307682D01*
X208628Y307734D01*
X208553Y307751D01*
X208481Y307777D01*
X208357Y307796D01*
X208235Y307824D01*
X208159Y307826D01*
X208083Y307837D01*
X207920Y307832D01*
X207833Y307835D01*
X207797Y307829D01*
X207751Y307827D01*
X207431Y307791D01*
X207320Y307767D01*
X207207Y307753D01*
X207123Y307725D01*
X207038Y307706D01*
X206933Y307661D01*
X206825Y307624D01*
X206749Y307581D01*
X206668Y307546D01*
X206575Y307480D01*
X206476Y307424D01*
X206397Y307356D01*
X206338Y307315D01*
X206293Y307268D01*
X206223Y307209D01*
X197477Y298463D01*
X197460Y298443D01*
X197440Y298425D01*
X197333Y298287D01*
X197222Y298152D01*
X197210Y298128D01*
X197193Y298107D01*
X197115Y297950D01*
X197034Y297796D01*
X197026Y297771D01*
X197014Y297746D01*
X196969Y297577D01*
X196919Y297410D01*
X196917Y297384D01*
X196910Y297358D01*
X196882Y297027D01*
X196882Y233426D01*
X196885Y233399D01*
X196883Y233372D01*
X196905Y233198D01*
X196907Y233180D01*
X196907Y211316D01*
X196858Y211256D01*
X196854Y211248D01*
X196848Y211241D01*
X196760Y211071D01*
X196669Y210900D01*
X196667Y210892D01*
X196663Y210884D01*
X196609Y210698D01*
X196555Y210515D01*
X196554Y210506D01*
X196551Y210497D01*
X196535Y210305D01*
X196518Y210114D01*
X196519Y210105D01*
X196518Y210096D01*
X196541Y209906D01*
X196561Y209713D01*
X196564Y209705D01*
X196565Y209696D01*
X196625Y209513D01*
X196683Y209329D01*
X196687Y209322D01*
X196690Y209313D01*
X196784Y209146D01*
X196878Y208977D01*
X196884Y208970D01*
X196888Y208962D01*
X197014Y208816D01*
X197138Y208670D01*
X197145Y208665D01*
X197151Y208658D01*
X197303Y208540D01*
X197454Y208420D01*
X197462Y208416D01*
X197469Y208411D01*
X197641Y208325D01*
X197813Y208238D01*
X197822Y208236D01*
X197830Y208232D01*
X198017Y208181D01*
X198201Y208130D01*
X198210Y208129D01*
X198219Y208127D01*
X198549Y208100D01*
X198694Y208100D01*
X198721Y208103D01*
X198748Y208101D01*
X198922Y208123D01*
X199095Y208140D01*
X199121Y208148D01*
X199147Y208151D01*
X199313Y208207D01*
X199480Y208258D01*
X199504Y208271D01*
X199529Y208279D01*
X199681Y208367D01*
X199834Y208450D01*
X199854Y208467D01*
X199878Y208480D01*
X200131Y208695D01*
X251628Y260192D01*
X335082Y260192D01*
X335100Y260194D01*
X335118Y260192D01*
X335300Y260214D01*
X335483Y260232D01*
X335500Y260237D01*
X335517Y260239D01*
X335692Y260296D01*
X335868Y260350D01*
X335883Y260359D01*
X335900Y260364D01*
X336060Y260454D01*
X336222Y260542D01*
X336235Y260553D01*
X336251Y260562D01*
X336390Y260682D01*
X336531Y260800D01*
X336542Y260813D01*
X336556Y260825D01*
X336668Y260970D01*
X336783Y261113D01*
X336791Y261129D01*
X336802Y261143D01*
X336884Y261308D01*
X336969Y261471D01*
X336974Y261488D01*
X336982Y261504D01*
X337029Y261682D01*
X337080Y261858D01*
X337082Y261875D01*
X337086Y261893D01*
X337113Y262223D01*
X337113Y281972D01*
X337114Y281974D01*
X337225Y282109D01*
X337238Y282133D01*
X337254Y282154D01*
X337332Y282310D01*
X337414Y282465D01*
X337422Y282491D01*
X337434Y282515D01*
X337479Y282684D01*
X337529Y282851D01*
X337531Y282878D01*
X337538Y282904D01*
X337565Y283234D01*
X337565Y283373D01*
X337562Y283404D01*
X337564Y283436D01*
X337542Y283605D01*
X337525Y283774D01*
X337516Y283804D01*
X337512Y283835D01*
X337411Y284151D01*
X336840Y285527D01*
X336840Y287942D01*
X337764Y290172D01*
X339472Y291879D01*
X341702Y292803D01*
X344116Y292803D01*
X345472Y292242D01*
X345485Y292238D01*
X345497Y292232D01*
X345677Y292179D01*
X345857Y292125D01*
X345871Y292124D01*
X345884Y292120D01*
X346072Y292105D01*
X346258Y292087D01*
X346271Y292088D01*
X346285Y292087D01*
X346471Y292109D01*
X346659Y292129D01*
X346671Y292133D01*
X346685Y292134D01*
X346863Y292192D01*
X347043Y292248D01*
X347055Y292255D01*
X347067Y292259D01*
X347231Y292351D01*
X347396Y292442D01*
X347406Y292450D01*
X347418Y292457D01*
X347561Y292580D01*
X347704Y292701D01*
X347713Y292711D01*
X347723Y292720D01*
X347838Y292869D01*
X347955Y293016D01*
X347961Y293028D01*
X347970Y293038D01*
X348053Y293206D01*
X348139Y293374D01*
X348143Y293387D01*
X348149Y293399D01*
X348198Y293581D01*
X348249Y293761D01*
X348250Y293774D01*
X348253Y293787D01*
X348281Y294118D01*
X348281Y304111D01*
X349620Y305451D01*
X362514Y305451D01*
X363854Y304111D01*
X363854Y292217D01*
X362343Y290706D01*
X362330Y290702D01*
X362174Y290613D01*
X362017Y290528D01*
X362000Y290513D01*
X361980Y290502D01*
X361845Y290384D01*
X361708Y290270D01*
X361694Y290253D01*
X361677Y290238D01*
X361567Y290095D01*
X361455Y289956D01*
X361445Y289936D01*
X361431Y289919D01*
X361280Y289624D01*
X360590Y287958D01*
X359380Y286748D01*
X359374Y286741D01*
X359367Y286735D01*
X359246Y286585D01*
X359125Y286437D01*
X359121Y286429D01*
X359115Y286422D01*
X359027Y286251D01*
X358936Y286081D01*
X358934Y286072D01*
X358930Y286064D01*
X358877Y285880D01*
X358822Y285695D01*
X358821Y285686D01*
X358818Y285677D01*
X358803Y285487D01*
X358785Y285294D01*
X358786Y285285D01*
X358785Y285276D01*
X358808Y285086D01*
X358829Y284894D01*
X358831Y284885D01*
X358832Y284876D01*
X358892Y284694D01*
X358950Y284510D01*
X358954Y284502D01*
X358957Y284494D01*
X359051Y284326D01*
X359145Y284158D01*
X359151Y284151D01*
X359155Y284143D01*
X359280Y283998D01*
X359405Y283851D01*
X359412Y283845D01*
X359418Y283838D01*
X359569Y283721D01*
X359721Y283601D01*
X359729Y283597D01*
X359736Y283591D01*
X360514Y282814D01*
X360527Y282803D01*
X360539Y282789D01*
X360683Y282675D01*
X360825Y282559D01*
X360841Y282551D01*
X360855Y282539D01*
X361019Y282456D01*
X361181Y282370D01*
X361198Y282365D01*
X361214Y282357D01*
X361391Y282308D01*
X361567Y282256D01*
X361585Y282254D01*
X361602Y282249D01*
X361785Y282236D01*
X361968Y282219D01*
X361986Y282221D01*
X362003Y282220D01*
X362185Y282243D01*
X362368Y282263D01*
X362385Y282268D01*
X362403Y282270D01*
X362576Y282329D01*
X362752Y282384D01*
X362768Y282393D01*
X362784Y282398D01*
X362943Y282490D01*
X363104Y282579D01*
X363118Y282590D01*
X363133Y282599D01*
X363386Y282814D01*
X363853Y283280D01*
X372747Y283280D01*
X373214Y282814D01*
X373227Y282803D01*
X373239Y282789D01*
X373383Y282675D01*
X373525Y282559D01*
X373541Y282551D01*
X373555Y282539D01*
X373719Y282456D01*
X373881Y282370D01*
X373898Y282365D01*
X373914Y282357D01*
X374091Y282308D01*
X374267Y282256D01*
X374285Y282254D01*
X374302Y282249D01*
X374485Y282236D01*
X374668Y282219D01*
X374686Y282221D01*
X374703Y282220D01*
X374885Y282243D01*
X375068Y282263D01*
X375085Y282268D01*
X375103Y282270D01*
X375276Y282329D01*
X375452Y282384D01*
X375468Y282393D01*
X375484Y282398D01*
X375643Y282490D01*
X375804Y282579D01*
X375818Y282590D01*
X375833Y282599D01*
X376086Y282814D01*
X376553Y283280D01*
X385447Y283280D01*
X385489Y283238D01*
X385500Y283230D01*
X385508Y283220D01*
X385655Y283103D01*
X385801Y282983D01*
X385813Y282977D01*
X385823Y282969D01*
X385989Y282883D01*
X386156Y282795D01*
X386169Y282791D01*
X386181Y282785D01*
X386361Y282734D01*
X386542Y282680D01*
X386556Y282679D01*
X386569Y282675D01*
X386754Y282661D01*
X386943Y282643D01*
X386957Y282645D01*
X386970Y282644D01*
X387155Y282666D01*
X387344Y282687D01*
X387356Y282691D01*
X387370Y282693D01*
X387547Y282751D01*
X387727Y282808D01*
X387739Y282815D01*
X387752Y282819D01*
X387915Y282912D01*
X388080Y283003D01*
X388090Y283012D01*
X388102Y283019D01*
X388244Y283142D01*
X388387Y283264D01*
X388395Y283274D01*
X388405Y283283D01*
X388520Y283432D01*
X388636Y283580D01*
X388642Y283592D01*
X388651Y283602D01*
X388802Y283897D01*
X389177Y284803D01*
X392612Y288237D01*
X392623Y288251D01*
X392637Y288263D01*
X392751Y288407D01*
X392867Y288549D01*
X392875Y288565D01*
X392886Y288579D01*
X392970Y288743D01*
X393055Y288905D01*
X393060Y288922D01*
X393069Y288938D01*
X393118Y289115D01*
X393170Y289290D01*
X393172Y289308D01*
X393177Y289326D01*
X393190Y289508D01*
X393207Y289691D01*
X393205Y289709D01*
X393206Y289727D01*
X393183Y289909D01*
X393163Y290092D01*
X393158Y290109D01*
X393155Y290127D01*
X393097Y290300D01*
X393042Y290476D01*
X393033Y290491D01*
X393027Y290508D01*
X392935Y290668D01*
X392847Y290828D01*
X392835Y290841D01*
X392826Y290857D01*
X392621Y291099D01*
X391498Y293810D01*
X391498Y309843D01*
X392620Y312550D01*
X412800Y332730D01*
X415507Y333852D01*
X415529Y333852D01*
X415556Y333855D01*
X415583Y333853D01*
X415756Y333875D01*
X415930Y333892D01*
X415956Y333900D01*
X415982Y333903D01*
X416148Y333959D01*
X416315Y334010D01*
X416339Y334023D01*
X416364Y334031D01*
X416516Y334119D01*
X416669Y334202D01*
X416690Y334219D01*
X416713Y334232D01*
X416877Y334372D01*
X428264Y334372D01*
X428291Y334375D01*
X428317Y334373D01*
X428491Y334395D01*
X428665Y334412D01*
X428690Y334420D01*
X428717Y334423D01*
X428883Y334479D01*
X429050Y334530D01*
X429073Y334543D01*
X429099Y334551D01*
X429250Y334639D01*
X429404Y334722D01*
X429424Y334739D01*
X429447Y334752D01*
X429700Y334967D01*
X447245Y352511D01*
X450886Y354019D01*
X454827Y354019D01*
X457318Y352987D01*
X457348Y352978D01*
X457376Y352965D01*
X457541Y352920D01*
X457704Y352871D01*
X457735Y352868D01*
X457765Y352860D01*
X458096Y352833D01*
X478259Y352833D01*
X481434Y351518D01*
X487488Y345464D01*
X487508Y345447D01*
X487526Y345427D01*
X487664Y345320D01*
X487799Y345209D01*
X487823Y345197D01*
X487844Y345180D01*
X488001Y345102D01*
X488155Y345020D01*
X488180Y345013D01*
X488204Y345001D01*
X488253Y344988D01*
X492180Y343361D01*
X521199Y314342D01*
X522707Y310701D01*
X522707Y307002D01*
X522710Y306976D01*
X522708Y306949D01*
X522730Y306776D01*
X522747Y306602D01*
X522755Y306576D01*
X522758Y306549D01*
X522814Y306384D01*
X522865Y306217D01*
X522878Y306193D01*
X522887Y306168D01*
X522974Y306016D01*
X523057Y305863D01*
X523074Y305842D01*
X523088Y305819D01*
X523113Y305789D01*
X525024Y301176D01*
X525033Y301083D01*
X525041Y301058D01*
X525044Y301031D01*
X525100Y300865D01*
X525151Y300698D01*
X525164Y300675D01*
X525173Y300649D01*
X525260Y300498D01*
X525343Y300344D01*
X525360Y300324D01*
X525374Y300300D01*
X525588Y300047D01*
X528305Y297331D01*
X529813Y293690D01*
X529813Y255204D01*
X528292Y251533D01*
X528244Y251470D01*
X528133Y251335D01*
X528120Y251311D01*
X528104Y251290D01*
X528026Y251134D01*
X527944Y250979D01*
X527937Y250954D01*
X527925Y250930D01*
X527879Y250761D01*
X527830Y250594D01*
X527827Y250567D01*
X527820Y250541D01*
X527793Y250210D01*
X527793Y245978D01*
X526454Y244638D01*
X513359Y244638D01*
X512020Y245978D01*
X512020Y250210D01*
X512017Y250237D01*
X512019Y250264D01*
X511997Y250437D01*
X511980Y250611D01*
X511972Y250636D01*
X511968Y250663D01*
X511913Y250829D01*
X511862Y250996D01*
X511849Y251019D01*
X511840Y251045D01*
X511753Y251196D01*
X511670Y251350D01*
X511653Y251370D01*
X511639Y251394D01*
X511520Y251534D01*
X510000Y255204D01*
X510000Y285430D01*
X509997Y285453D01*
X509999Y285475D01*
X509977Y285652D01*
X509960Y285831D01*
X509953Y285852D01*
X509950Y285875D01*
X509894Y286044D01*
X509841Y286216D01*
X509831Y286236D01*
X509824Y286257D01*
X509735Y286412D01*
X509650Y286570D01*
X509635Y286587D01*
X509624Y286607D01*
X509506Y286742D01*
X509392Y286879D01*
X509375Y286893D01*
X509360Y286910D01*
X509218Y287019D01*
X509078Y287132D01*
X509058Y287142D01*
X509041Y287155D01*
X508746Y287307D01*
X505894Y288488D01*
X502464Y291918D01*
X500608Y296399D01*
X500608Y301250D01*
X501747Y304001D01*
X501754Y304022D01*
X501764Y304042D01*
X501811Y304213D01*
X501864Y304386D01*
X501866Y304408D01*
X501872Y304430D01*
X501885Y304609D01*
X501902Y304787D01*
X501899Y304809D01*
X501901Y304831D01*
X501879Y305009D01*
X501860Y305187D01*
X501853Y305209D01*
X501851Y305231D01*
X501794Y305400D01*
X501740Y305572D01*
X501730Y305591D01*
X501722Y305612D01*
X501633Y305767D01*
X501547Y305925D01*
X501533Y305942D01*
X501522Y305961D01*
X501307Y306214D01*
X485205Y322316D01*
X485198Y322322D01*
X485192Y322329D01*
X485042Y322449D01*
X484893Y322571D01*
X484885Y322576D01*
X484878Y322581D01*
X484707Y322670D01*
X484537Y322760D01*
X484529Y322763D01*
X484521Y322767D01*
X484336Y322820D01*
X484152Y322875D01*
X484143Y322876D01*
X484134Y322878D01*
X483943Y322894D01*
X483751Y322911D01*
X483742Y322910D01*
X483733Y322911D01*
X483544Y322889D01*
X483350Y322868D01*
X483342Y322865D01*
X483333Y322864D01*
X483151Y322805D01*
X482966Y322746D01*
X482959Y322742D01*
X482950Y322739D01*
X482782Y322644D01*
X482614Y322551D01*
X482607Y322546D01*
X482600Y322541D01*
X482454Y322415D01*
X482307Y322291D01*
X482302Y322284D01*
X482295Y322278D01*
X482177Y322127D01*
X482058Y321975D01*
X482053Y321967D01*
X482048Y321960D01*
X481962Y321786D01*
X481875Y321616D01*
X481873Y321608D01*
X481869Y321600D01*
X481819Y321413D01*
X481767Y321228D01*
X481767Y321219D01*
X481764Y321211D01*
X481737Y320880D01*
X481737Y319177D01*
X479842Y314602D01*
X479792Y314552D01*
X479775Y314531D01*
X479755Y314514D01*
X479648Y314376D01*
X479537Y314241D01*
X479524Y314217D01*
X479508Y314196D01*
X479430Y314039D01*
X479348Y313885D01*
X479341Y313859D01*
X479329Y313835D01*
X479283Y313666D01*
X479234Y313499D01*
X479231Y313472D01*
X479224Y313447D01*
X479197Y313116D01*
X479197Y285748D01*
X479200Y285722D01*
X479198Y285695D01*
X479220Y285521D01*
X479237Y285348D01*
X479245Y285322D01*
X479248Y285296D01*
X479304Y285130D01*
X479355Y284963D01*
X479368Y284939D01*
X479376Y284914D01*
X479464Y284762D01*
X479547Y284609D01*
X479564Y284588D01*
X479577Y284565D01*
X479792Y284312D01*
X499730Y264374D01*
X500026Y263659D01*
X500036Y263640D01*
X500043Y263619D01*
X500131Y263462D01*
X500216Y263305D01*
X500230Y263287D01*
X500241Y263268D01*
X500358Y263133D01*
X500472Y262994D01*
X500490Y262980D01*
X500504Y262963D01*
X500646Y262854D01*
X500785Y262740D01*
X500805Y262730D01*
X500822Y262716D01*
X500983Y262637D01*
X501142Y262553D01*
X501163Y262547D01*
X501183Y262537D01*
X501356Y262491D01*
X501528Y262440D01*
X501550Y262438D01*
X501572Y262433D01*
X501902Y262405D01*
X503435Y262405D01*
X504774Y261066D01*
X504774Y246772D01*
X503435Y245432D01*
X490340Y245432D01*
X489001Y246772D01*
X489001Y247648D01*
X488999Y247670D01*
X489000Y247692D01*
X488979Y247869D01*
X488961Y248048D01*
X488954Y248070D01*
X488952Y248092D01*
X488896Y248261D01*
X488843Y248433D01*
X488832Y248453D01*
X488825Y248474D01*
X488736Y248630D01*
X488651Y248787D01*
X488637Y248804D01*
X488626Y248824D01*
X488507Y248959D01*
X488393Y249096D01*
X488376Y249110D01*
X488361Y249127D01*
X488219Y249236D01*
X488080Y249349D01*
X488060Y249359D01*
X488042Y249373D01*
X487747Y249524D01*
X485720Y250364D01*
X460892Y275192D01*
X459384Y278833D01*
X459384Y292832D01*
X459383Y292841D01*
X459384Y292850D01*
X459363Y293042D01*
X459344Y293233D01*
X459341Y293241D01*
X459340Y293250D01*
X459282Y293432D01*
X459226Y293618D01*
X459221Y293626D01*
X459219Y293634D01*
X459126Y293801D01*
X459034Y293972D01*
X459028Y293978D01*
X459024Y293986D01*
X458899Y294133D01*
X458776Y294281D01*
X458769Y294286D01*
X458763Y294293D01*
X458613Y294412D01*
X458462Y294533D01*
X458454Y294537D01*
X458447Y294543D01*
X458275Y294630D01*
X458105Y294719D01*
X458097Y294721D01*
X458088Y294725D01*
X457902Y294777D01*
X457718Y294830D01*
X457709Y294831D01*
X457701Y294833D01*
X457508Y294847D01*
X457317Y294863D01*
X457308Y294862D01*
X457299Y294863D01*
X457106Y294838D01*
X456917Y294816D01*
X456909Y294813D01*
X456900Y294812D01*
X456717Y294751D01*
X456534Y294691D01*
X456526Y294687D01*
X456518Y294684D01*
X456351Y294588D01*
X456184Y294493D01*
X456177Y294488D01*
X456169Y294483D01*
X455916Y294268D01*
X451699Y290051D01*
X449152Y288996D01*
X448058Y288543D01*
X425067Y288543D01*
X422053Y289792D01*
X422032Y289798D01*
X422012Y289808D01*
X421839Y289856D01*
X421668Y289908D01*
X421645Y289910D01*
X421624Y289916D01*
X421445Y289929D01*
X421267Y289946D01*
X421245Y289944D01*
X421222Y289946D01*
X421044Y289923D01*
X420866Y289905D01*
X420845Y289898D01*
X420823Y289895D01*
X420733Y289865D01*
X420572Y289865D01*
X420554Y289863D01*
X420536Y289864D01*
X420354Y289843D01*
X420171Y289825D01*
X420154Y289820D01*
X420136Y289818D01*
X419962Y289761D01*
X419786Y289707D01*
X419771Y289698D01*
X419754Y289693D01*
X419593Y289602D01*
X419432Y289515D01*
X419419Y289504D01*
X419403Y289495D01*
X419264Y289375D01*
X419123Y289257D01*
X419112Y289243D01*
X419098Y289232D01*
X418986Y289087D01*
X418871Y288943D01*
X418862Y288928D01*
X418851Y288914D01*
X418769Y288749D01*
X418685Y288586D01*
X418680Y288569D01*
X418672Y288553D01*
X418624Y288375D01*
X418574Y288199D01*
X418572Y288181D01*
X418568Y288164D01*
X418540Y287834D01*
X418540Y286732D01*
X418274Y286089D01*
X418270Y286076D01*
X418264Y286064D01*
X418212Y285884D01*
X418158Y285704D01*
X418156Y285690D01*
X418153Y285677D01*
X418137Y285489D01*
X418120Y285303D01*
X418121Y285290D01*
X418120Y285276D01*
X418142Y285088D01*
X418161Y284902D01*
X418165Y284890D01*
X418167Y284876D01*
X418225Y284698D01*
X418281Y284518D01*
X418287Y284506D01*
X418292Y284494D01*
X418384Y284329D01*
X418474Y284165D01*
X418483Y284155D01*
X418489Y284143D01*
X418612Y284001D01*
X418733Y283857D01*
X418744Y283848D01*
X418753Y283838D01*
X418901Y283723D01*
X419048Y283606D01*
X419060Y283600D01*
X419071Y283591D01*
X419239Y283508D01*
X419406Y283422D01*
X419419Y283418D01*
X419431Y283412D01*
X419613Y283363D01*
X419794Y283312D01*
X419807Y283311D01*
X419820Y283308D01*
X420151Y283280D01*
X423547Y283280D01*
X424887Y281941D01*
X424887Y260047D01*
X423547Y258707D01*
X414653Y258707D01*
X414186Y259174D01*
X414172Y259185D01*
X414161Y259198D01*
X414017Y259312D01*
X413875Y259429D01*
X413859Y259437D01*
X413845Y259448D01*
X413681Y259531D01*
X413519Y259617D01*
X413502Y259622D01*
X413486Y259630D01*
X413309Y259680D01*
X413133Y259732D01*
X413115Y259734D01*
X413098Y259738D01*
X412915Y259752D01*
X412732Y259768D01*
X412714Y259766D01*
X412697Y259768D01*
X412515Y259745D01*
X412332Y259725D01*
X412315Y259720D01*
X412297Y259717D01*
X412124Y259659D01*
X411948Y259603D01*
X411932Y259595D01*
X411916Y259589D01*
X411757Y259498D01*
X411596Y259409D01*
X411582Y259397D01*
X411567Y259388D01*
X411314Y259173D01*
X410847Y258707D01*
X401953Y258707D01*
X401486Y259174D01*
X401472Y259185D01*
X401461Y259198D01*
X401317Y259312D01*
X401175Y259429D01*
X401159Y259437D01*
X401145Y259448D01*
X400981Y259531D01*
X400819Y259617D01*
X400802Y259622D01*
X400786Y259630D01*
X400609Y259680D01*
X400433Y259732D01*
X400415Y259734D01*
X400398Y259738D01*
X400215Y259752D01*
X400032Y259768D01*
X400014Y259766D01*
X399997Y259768D01*
X399815Y259745D01*
X399632Y259725D01*
X399615Y259720D01*
X399597Y259717D01*
X399424Y259659D01*
X399248Y259603D01*
X399232Y259595D01*
X399216Y259589D01*
X399057Y259498D01*
X398896Y259409D01*
X398882Y259397D01*
X398867Y259388D01*
X398614Y259173D01*
X398147Y258707D01*
X389253Y258707D01*
X388786Y259174D01*
X388772Y259185D01*
X388761Y259198D01*
X388617Y259312D01*
X388475Y259429D01*
X388459Y259437D01*
X388445Y259448D01*
X388281Y259532D01*
X388119Y259617D01*
X388102Y259622D01*
X388086Y259630D01*
X387909Y259680D01*
X387733Y259732D01*
X387715Y259734D01*
X387698Y259738D01*
X387515Y259752D01*
X387332Y259768D01*
X387314Y259766D01*
X387297Y259768D01*
X387115Y259745D01*
X386932Y259725D01*
X386915Y259720D01*
X386897Y259717D01*
X386724Y259659D01*
X386548Y259603D01*
X386532Y259595D01*
X386516Y259589D01*
X386356Y259497D01*
X386196Y259409D01*
X386182Y259397D01*
X386167Y259388D01*
X385914Y259173D01*
X385406Y258665D01*
X385389Y258645D01*
X385368Y258627D01*
X385261Y258489D01*
X385151Y258354D01*
X385138Y258330D01*
X385122Y258309D01*
X385044Y258152D01*
X384962Y257998D01*
X384954Y257973D01*
X384942Y257949D01*
X384897Y257779D01*
X384847Y257612D01*
X384845Y257586D01*
X384838Y257560D01*
X384811Y257229D01*
X384811Y251628D01*
X372482Y239299D01*
X259423Y239299D01*
X259396Y239296D01*
X259370Y239298D01*
X259196Y239276D01*
X259022Y239259D01*
X258997Y239251D01*
X258970Y239248D01*
X258805Y239192D01*
X258637Y239141D01*
X258614Y239128D01*
X258589Y239120D01*
X258437Y239032D01*
X258283Y238949D01*
X258263Y238932D01*
X258240Y238919D01*
X257987Y238704D01*
X215339Y196057D01*
X215333Y196050D01*
X215327Y196044D01*
X215206Y195894D01*
X215084Y195745D01*
X215080Y195737D01*
X215074Y195730D01*
X214985Y195559D01*
X214895Y195389D01*
X214893Y195381D01*
X214889Y195373D01*
X214835Y195188D01*
X214781Y195003D01*
X214780Y194995D01*
X214777Y194986D01*
X214762Y194795D01*
X214744Y194602D01*
X214745Y194594D01*
X214745Y194585D01*
X214767Y194396D01*
X214788Y194202D01*
X214790Y194194D01*
X214791Y194185D01*
X214851Y194003D01*
X214909Y193818D01*
X214913Y193811D01*
X214916Y193802D01*
X215011Y193634D01*
X215104Y193466D01*
X215110Y193459D01*
X215114Y193451D01*
X215240Y193306D01*
X215364Y193159D01*
X215372Y193153D01*
X215377Y193147D01*
X215529Y193029D01*
X215680Y192909D01*
X215688Y192905D01*
X215695Y192900D01*
X215868Y192814D01*
X216039Y192727D01*
X216048Y192725D01*
X216056Y192721D01*
X216242Y192671D01*
X216427Y192619D01*
X216436Y192618D01*
X216445Y192616D01*
X216775Y192589D01*
X218902Y192589D01*
X218929Y192592D01*
X218956Y192590D01*
X219129Y192612D01*
X219303Y192629D01*
X219328Y192637D01*
X219355Y192640D01*
X219521Y192696D01*
X219610Y192723D01*
X223035Y192723D01*
X244343Y171414D01*
X244364Y171397D01*
X244382Y171377D01*
X244520Y171270D01*
X244655Y171159D01*
X244679Y171147D01*
X244700Y171130D01*
X244857Y171052D01*
X245011Y170971D01*
X245036Y170963D01*
X245060Y170951D01*
X245230Y170906D01*
X245397Y170856D01*
X245423Y170854D01*
X245449Y170847D01*
X245780Y170819D01*
X286297Y170819D01*
X286310Y170821D01*
X286324Y170820D01*
X286510Y170841D01*
X286698Y170859D01*
X286710Y170863D01*
X286724Y170865D01*
X286903Y170922D01*
X287082Y170978D01*
X287094Y170984D01*
X287107Y170988D01*
X287272Y171080D01*
X287437Y171169D01*
X287447Y171178D01*
X287458Y171184D01*
X287602Y171307D01*
X287746Y171427D01*
X287754Y171437D01*
X287764Y171446D01*
X287881Y171595D01*
X287998Y171741D01*
X288004Y171753D01*
X288013Y171763D01*
X288098Y171932D01*
X288184Y172098D01*
X288187Y172111D01*
X288193Y172123D01*
X288243Y172305D01*
X288295Y172485D01*
X288296Y172498D01*
X288300Y172511D01*
X288313Y172699D01*
X288328Y172886D01*
X288326Y172899D01*
X288327Y172913D01*
X288303Y173101D01*
X288281Y173286D01*
X288277Y173299D01*
X288275Y173312D01*
X288174Y173628D01*
X287178Y176032D01*
X287178Y179569D01*
X288532Y182836D01*
X291033Y185337D01*
X291953Y185719D01*
X291954Y185719D01*
X294300Y186691D01*
X297837Y186691D01*
X301105Y185337D01*
X303606Y182836D01*
X304959Y179569D01*
X304959Y176032D01*
X303964Y173628D01*
X303960Y173615D01*
X303954Y173603D01*
X303902Y173424D01*
X303847Y173243D01*
X303846Y173229D01*
X303842Y173216D01*
X303827Y173029D01*
X303809Y172842D01*
X303811Y172829D01*
X303810Y172815D01*
X303831Y172629D01*
X303851Y172441D01*
X303855Y172429D01*
X303857Y172415D01*
X303915Y172237D01*
X303971Y172057D01*
X303977Y172045D01*
X303981Y172033D01*
X304074Y171869D01*
X304164Y171704D01*
X304173Y171694D01*
X304179Y171682D01*
X304302Y171539D01*
X304423Y171396D01*
X304434Y171387D01*
X304442Y171377D01*
X304590Y171263D01*
X304738Y171145D01*
X304750Y171139D01*
X304761Y171130D01*
X304929Y171047D01*
X305096Y170961D01*
X305109Y170957D01*
X305121Y170951D01*
X305304Y170902D01*
X305484Y170851D01*
X305497Y170850D01*
X305510Y170847D01*
X305841Y170819D01*
X361620Y170819D01*
X372371Y160068D01*
X372385Y160057D01*
X372396Y160043D01*
X372540Y159929D01*
X372683Y159813D01*
X372698Y159805D01*
X372712Y159794D01*
X372877Y159710D01*
X373038Y159624D01*
X373055Y159619D01*
X373071Y159611D01*
X373248Y159562D01*
X373424Y159510D01*
X373442Y159508D01*
X373459Y159503D01*
X373642Y159490D01*
X373825Y159473D01*
X373843Y159475D01*
X373861Y159474D01*
X374042Y159497D01*
X374225Y159517D01*
X374243Y159522D01*
X374260Y159524D01*
X374434Y159583D01*
X374609Y159638D01*
X374625Y159647D01*
X374642Y159652D01*
X374801Y159744D01*
X374962Y159833D01*
X374975Y159844D01*
X374991Y159853D01*
X375244Y160068D01*
X375896Y160720D01*
X375913Y160741D01*
X375933Y160758D01*
X376040Y160897D01*
X376151Y161032D01*
X376163Y161055D01*
X376180Y161077D01*
X376258Y161233D01*
X376340Y161388D01*
X376347Y161413D01*
X376359Y161437D01*
X376405Y161606D01*
X376454Y161773D01*
X376457Y161800D01*
X376464Y161826D01*
X376491Y162157D01*
X376491Y164024D01*
X378386Y168598D01*
X381887Y172100D01*
X385343Y173531D01*
X386462Y173994D01*
X443866Y173994D01*
X443893Y173997D01*
X443920Y173995D01*
X444093Y174017D01*
X444267Y174034D01*
X444292Y174042D01*
X444319Y174046D01*
X444485Y174101D01*
X444652Y174153D01*
X444675Y174165D01*
X444701Y174174D01*
X444852Y174261D01*
X445006Y174344D01*
X445026Y174361D01*
X445050Y174375D01*
X445303Y174589D01*
X458190Y187477D01*
X462765Y189372D01*
X467716Y189372D01*
X472291Y187477D01*
X472976Y186792D01*
X472997Y186775D01*
X473014Y186754D01*
X473152Y186648D01*
X473288Y186537D01*
X473311Y186524D01*
X473332Y186508D01*
X473489Y186430D01*
X473643Y186348D01*
X473669Y186340D01*
X473693Y186328D01*
X473862Y186283D01*
X474029Y186233D01*
X474056Y186231D01*
X474082Y186224D01*
X474412Y186197D01*
X486537Y186197D01*
X486555Y186199D01*
X486573Y186197D01*
X486755Y186218D01*
X486938Y186237D01*
X486955Y186242D01*
X486973Y186244D01*
X487147Y186301D01*
X487323Y186355D01*
X487338Y186363D01*
X487355Y186369D01*
X487516Y186459D01*
X487677Y186547D01*
X487690Y186558D01*
X487706Y186567D01*
X487845Y186687D01*
X487986Y186804D01*
X487997Y186818D01*
X488011Y186830D01*
X488123Y186975D01*
X488238Y187118D01*
X488246Y187134D01*
X488257Y187148D01*
X488339Y187313D01*
X488424Y187475D01*
X488429Y187492D01*
X488437Y187508D01*
X488485Y187687D01*
X488535Y187862D01*
X488537Y187880D01*
X488541Y187897D01*
X488568Y188228D01*
X488568Y204601D01*
X488567Y204609D01*
X488568Y204618D01*
X488547Y204810D01*
X488528Y205001D01*
X488526Y205010D01*
X488525Y205019D01*
X488467Y205201D01*
X488410Y205386D01*
X488406Y205394D01*
X488403Y205402D01*
X488310Y205571D01*
X488219Y205740D01*
X488213Y205747D01*
X488209Y205755D01*
X488083Y205903D01*
X487961Y206049D01*
X487954Y206055D01*
X487948Y206062D01*
X487796Y206182D01*
X487647Y206302D01*
X487639Y206306D01*
X487632Y206311D01*
X487460Y206399D01*
X487290Y206487D01*
X487281Y206490D01*
X487273Y206494D01*
X487087Y206546D01*
X486903Y206599D01*
X486894Y206599D01*
X486885Y206602D01*
X486693Y206616D01*
X486502Y206632D01*
X486493Y206630D01*
X486484Y206631D01*
X486291Y206607D01*
X486102Y206585D01*
X486093Y206582D01*
X486084Y206581D01*
X485902Y206519D01*
X485719Y206460D01*
X485711Y206455D01*
X485703Y206453D01*
X485537Y206357D01*
X485368Y206262D01*
X485361Y206256D01*
X485354Y206252D01*
X485101Y206037D01*
X483487Y204423D01*
X469013Y204423D01*
X467673Y205763D01*
X467673Y220237D01*
X469013Y221577D01*
X483487Y221577D01*
X484827Y220237D01*
X484827Y210318D01*
X484827Y210313D01*
X484827Y210309D01*
X484847Y210113D01*
X484867Y209917D01*
X484868Y209913D01*
X484868Y209909D01*
X484927Y209721D01*
X484985Y209532D01*
X484987Y209529D01*
X484988Y209524D01*
X485084Y209350D01*
X485177Y209178D01*
X485179Y209175D01*
X485182Y209171D01*
X485311Y209018D01*
X485434Y208869D01*
X485438Y208866D01*
X485441Y208863D01*
X485597Y208738D01*
X485748Y208617D01*
X485752Y208615D01*
X485755Y208612D01*
X485936Y208519D01*
X486105Y208431D01*
X486110Y208430D01*
X486114Y208428D01*
X486303Y208374D01*
X486492Y208320D01*
X486497Y208320D01*
X486501Y208318D01*
X486693Y208303D01*
X486894Y208287D01*
X486898Y208288D01*
X486902Y208287D01*
X487096Y208311D01*
X487293Y208334D01*
X487298Y208335D01*
X487302Y208336D01*
X487487Y208397D01*
X487676Y208459D01*
X487680Y208461D01*
X487684Y208462D01*
X487853Y208559D01*
X488027Y208657D01*
X488030Y208660D01*
X488034Y208662D01*
X488181Y208790D01*
X488331Y208920D01*
X488334Y208923D01*
X488338Y208926D01*
X488458Y209083D01*
X488578Y209238D01*
X488580Y209242D01*
X488583Y209246D01*
X488735Y209541D01*
X489366Y211066D01*
X489375Y211096D01*
X489389Y211123D01*
X489433Y211288D01*
X489483Y211451D01*
X489486Y211482D01*
X489494Y211512D01*
X489521Y211843D01*
X489521Y215410D01*
X489518Y215437D01*
X489520Y215463D01*
X489498Y215637D01*
X489481Y215811D01*
X489473Y215836D01*
X489470Y215863D01*
X489414Y216029D01*
X489363Y216196D01*
X489350Y216219D01*
X489342Y216245D01*
X489254Y216396D01*
X489171Y216550D01*
X489154Y216570D01*
X489141Y216593D01*
X489001Y216758D01*
X489001Y231066D01*
X490340Y232405D01*
X503435Y232405D01*
X503960Y231880D01*
X503981Y231863D01*
X503998Y231843D01*
X504136Y231736D01*
X504271Y231625D01*
X504295Y231613D01*
X504316Y231596D01*
X504473Y231518D01*
X504627Y231437D01*
X504653Y231429D01*
X504677Y231417D01*
X504846Y231372D01*
X505013Y231322D01*
X505040Y231320D01*
X505065Y231313D01*
X505396Y231285D01*
X510259Y231285D01*
X510967Y230992D01*
X510988Y230986D01*
X511008Y230976D01*
X511180Y230928D01*
X511352Y230876D01*
X511374Y230874D01*
X511396Y230868D01*
X511575Y230855D01*
X511753Y230838D01*
X511775Y230840D01*
X511797Y230839D01*
X511975Y230861D01*
X512153Y230879D01*
X512175Y230886D01*
X512197Y230889D01*
X512366Y230946D01*
X512538Y230999D01*
X512557Y231010D01*
X512578Y231017D01*
X512734Y231107D01*
X512891Y231193D01*
X512908Y231207D01*
X512927Y231218D01*
X513180Y231433D01*
X513359Y231612D01*
X526454Y231612D01*
X527793Y230272D01*
X527793Y215959D01*
X527748Y215902D01*
X527632Y215760D01*
X527623Y215744D01*
X527612Y215730D01*
X527528Y215566D01*
X527443Y215404D01*
X527438Y215387D01*
X527430Y215371D01*
X527380Y215194D01*
X527328Y215018D01*
X527326Y215000D01*
X527322Y214983D01*
X527308Y214800D01*
X527292Y214617D01*
X527294Y214599D01*
X527292Y214582D01*
X527315Y214400D01*
X527335Y214217D01*
X527341Y214200D01*
X527343Y214182D01*
X527401Y214009D01*
X527457Y213833D01*
X527465Y213817D01*
X527471Y213801D01*
X527563Y213640D01*
X527651Y213481D01*
X527663Y213467D01*
X527672Y213452D01*
X527887Y213199D01*
X528305Y212780D01*
X528834Y211503D01*
X528844Y211484D01*
X528851Y211462D01*
X528939Y211306D01*
X529024Y211148D01*
X529038Y211131D01*
X529049Y211112D01*
X529166Y210976D01*
X529281Y210838D01*
X529298Y210824D01*
X529312Y210807D01*
X529454Y210697D01*
X529593Y210584D01*
X529613Y210574D01*
X529631Y210560D01*
X529791Y210480D01*
X529950Y210397D01*
X529971Y210391D01*
X529991Y210381D01*
X530165Y210334D01*
X530336Y210284D01*
X530358Y210282D01*
X530380Y210276D01*
X530711Y210249D01*
X536385Y210249D01*
X541894Y207968D01*
X566080Y183782D01*
X566100Y183765D01*
X566118Y183744D01*
X566256Y183637D01*
X566391Y183527D01*
X566415Y183514D01*
X566436Y183498D01*
X566593Y183420D01*
X566747Y183338D01*
X566772Y183330D01*
X566796Y183318D01*
X566966Y183273D01*
X567133Y183223D01*
X567159Y183221D01*
X567185Y183214D01*
X567516Y183187D01*
X568210Y183187D01*
X573719Y180905D01*
X577934Y176689D01*
X580216Y171181D01*
X580216Y165219D01*
X577934Y159711D01*
X573719Y155495D01*
X568210Y153213D01*
X557486Y153213D01*
X551977Y155495D01*
X532054Y175418D01*
X532047Y175424D01*
X532042Y175431D01*
X531892Y175551D01*
X531743Y175673D01*
X531735Y175677D01*
X531728Y175683D01*
X531557Y175772D01*
X531387Y175862D01*
X531379Y175864D01*
X531371Y175868D01*
X531185Y175922D01*
X531001Y175976D01*
X530992Y175977D01*
X530984Y175980D01*
X530792Y175995D01*
X530600Y176013D01*
X530591Y176012D01*
X530582Y176013D01*
X530393Y175990D01*
X530200Y175969D01*
X530191Y175967D01*
X530183Y175966D01*
X530001Y175906D01*
X529816Y175848D01*
X529808Y175844D01*
X529800Y175841D01*
X529631Y175746D01*
X529464Y175653D01*
X529457Y175647D01*
X529449Y175643D01*
X529303Y175517D01*
X529157Y175393D01*
X529151Y175386D01*
X529145Y175380D01*
X529027Y175228D01*
X528907Y175077D01*
X528903Y175069D01*
X528898Y175062D01*
X528812Y174890D01*
X528725Y174718D01*
X528722Y174709D01*
X528718Y174701D01*
X528668Y174515D01*
X528617Y174330D01*
X528616Y174321D01*
X528614Y174312D01*
X528587Y173982D01*
X528587Y167397D01*
X527247Y166057D01*
X514153Y166057D01*
X513628Y166582D01*
X513607Y166599D01*
X513590Y166619D01*
X513452Y166726D01*
X513316Y166837D01*
X513293Y166850D01*
X513271Y166866D01*
X513115Y166944D01*
X512961Y167026D01*
X512935Y167033D01*
X512911Y167045D01*
X512742Y167091D01*
X512575Y167141D01*
X512548Y167143D01*
X512522Y167150D01*
X512191Y167177D01*
X507777Y167177D01*
X507751Y167174D01*
X507724Y167176D01*
X507550Y167154D01*
X507377Y167137D01*
X507351Y167129D01*
X507325Y167126D01*
X507159Y167070D01*
X506992Y167019D01*
X506968Y167006D01*
X506943Y166998D01*
X506791Y166910D01*
X506638Y166827D01*
X506617Y166810D01*
X506594Y166797D01*
X506341Y166582D01*
X505816Y166057D01*
X492722Y166057D01*
X491720Y167058D01*
X491700Y167075D01*
X491682Y167096D01*
X491544Y167203D01*
X491409Y167313D01*
X491385Y167326D01*
X491364Y167342D01*
X491207Y167420D01*
X491053Y167502D01*
X491028Y167510D01*
X491003Y167522D01*
X490834Y167567D01*
X490667Y167617D01*
X490641Y167619D01*
X490615Y167626D01*
X490284Y167653D01*
X474412Y167653D01*
X474386Y167651D01*
X474359Y167653D01*
X474185Y167631D01*
X474012Y167613D01*
X473986Y167606D01*
X473960Y167602D01*
X473794Y167546D01*
X473627Y167495D01*
X473603Y167482D01*
X473578Y167474D01*
X473426Y167387D01*
X473273Y167303D01*
X473252Y167286D01*
X473229Y167273D01*
X472976Y167058D01*
X456914Y150996D01*
X452339Y149101D01*
X426918Y149101D01*
X426900Y149099D01*
X426882Y149101D01*
X426700Y149079D01*
X426517Y149061D01*
X426500Y149056D01*
X426483Y149054D01*
X426308Y148997D01*
X426132Y148943D01*
X426117Y148934D01*
X426100Y148929D01*
X425940Y148839D01*
X425778Y148751D01*
X425765Y148740D01*
X425749Y148731D01*
X425610Y148611D01*
X425469Y148493D01*
X425458Y148480D01*
X425444Y148468D01*
X425332Y148323D01*
X425217Y148180D01*
X425209Y148164D01*
X425198Y148150D01*
X425116Y147985D01*
X425031Y147822D01*
X425026Y147805D01*
X425018Y147789D01*
X424971Y147611D01*
X424920Y147435D01*
X424918Y147418D01*
X424914Y147400D01*
X424887Y147070D01*
X424887Y126047D01*
X423547Y124707D01*
X418760Y124707D01*
X418751Y124706D01*
X418742Y124707D01*
X418550Y124686D01*
X418359Y124667D01*
X418351Y124664D01*
X418342Y124664D01*
X418160Y124606D01*
X417975Y124549D01*
X417967Y124545D01*
X417958Y124542D01*
X417790Y124449D01*
X417620Y124357D01*
X417614Y124352D01*
X417606Y124347D01*
X417458Y124222D01*
X417311Y124099D01*
X417306Y124093D01*
X417299Y124087D01*
X417179Y123935D01*
X417059Y123786D01*
X417055Y123778D01*
X417049Y123771D01*
X416962Y123599D01*
X416873Y123428D01*
X416871Y123420D01*
X416867Y123412D01*
X416815Y123226D01*
X416762Y123041D01*
X416761Y123033D01*
X416759Y123024D01*
X416745Y122831D01*
X416729Y122640D01*
X416730Y122631D01*
X416729Y122622D01*
X416754Y122429D01*
X416776Y122240D01*
X416779Y122232D01*
X416780Y122223D01*
X416841Y122040D01*
X416901Y121858D01*
X416905Y121850D01*
X416908Y121841D01*
X417003Y121676D01*
X417099Y121507D01*
X417105Y121500D01*
X417109Y121492D01*
X417324Y121239D01*
X419316Y119247D01*
X420030Y117523D01*
X420041Y117504D01*
X420047Y117482D01*
X420136Y117326D01*
X420220Y117168D01*
X420234Y117151D01*
X420245Y117132D01*
X420362Y116996D01*
X420477Y116858D01*
X420494Y116844D01*
X420509Y116827D01*
X420650Y116717D01*
X420789Y116604D01*
X420809Y116594D01*
X420827Y116580D01*
X420987Y116500D01*
X421146Y116417D01*
X421167Y116411D01*
X421187Y116401D01*
X421361Y116354D01*
X421532Y116304D01*
X421554Y116302D01*
X421576Y116296D01*
X421907Y116269D01*
X487331Y116269D01*
X487349Y116271D01*
X487366Y116270D01*
X487549Y116291D01*
X487731Y116309D01*
X487748Y116314D01*
X487766Y116316D01*
X487941Y116373D01*
X488116Y116427D01*
X488132Y116436D01*
X488149Y116441D01*
X488309Y116532D01*
X488470Y116619D01*
X488484Y116630D01*
X488500Y116639D01*
X488639Y116759D01*
X488780Y116877D01*
X488791Y116891D01*
X488804Y116902D01*
X488917Y117047D01*
X489032Y117191D01*
X489040Y117206D01*
X489051Y117220D01*
X489133Y117385D01*
X489217Y117548D01*
X489222Y117565D01*
X489230Y117581D01*
X489278Y117759D01*
X489329Y117935D01*
X489330Y117953D01*
X489335Y117970D01*
X489362Y118300D01*
X489362Y136114D01*
X490883Y139786D01*
X490931Y139848D01*
X491042Y139984D01*
X491055Y140007D01*
X491071Y140029D01*
X491149Y140185D01*
X491231Y140339D01*
X491238Y140365D01*
X491250Y140389D01*
X491296Y140558D01*
X491346Y140725D01*
X491348Y140752D01*
X491355Y140778D01*
X491382Y141109D01*
X491382Y151691D01*
X492722Y153030D01*
X505816Y153030D01*
X507155Y151691D01*
X507155Y141109D01*
X507158Y141082D01*
X507156Y141055D01*
X507178Y140882D01*
X507195Y140708D01*
X507203Y140682D01*
X507207Y140656D01*
X507262Y140490D01*
X507314Y140323D01*
X507326Y140299D01*
X507335Y140274D01*
X507422Y140123D01*
X507505Y139969D01*
X507522Y139949D01*
X507536Y139925D01*
X507655Y139784D01*
X508905Y136766D01*
X508907Y136762D01*
X508909Y136758D01*
X509002Y136585D01*
X509096Y136411D01*
X509098Y136408D01*
X509101Y136404D01*
X509227Y136253D01*
X509352Y136101D01*
X509356Y136098D01*
X509358Y136095D01*
X509511Y135972D01*
X509665Y135847D01*
X509669Y135845D01*
X509672Y135842D01*
X509847Y135752D01*
X510021Y135660D01*
X510025Y135659D01*
X510029Y135657D01*
X510219Y135602D01*
X510408Y135547D01*
X510412Y135547D01*
X510416Y135546D01*
X510615Y135529D01*
X510809Y135513D01*
X510813Y135513D01*
X510818Y135513D01*
X511012Y135535D01*
X511209Y135558D01*
X511213Y135559D01*
X511217Y135560D01*
X511403Y135620D01*
X511592Y135681D01*
X511596Y135683D01*
X511600Y135684D01*
X511773Y135782D01*
X511944Y135877D01*
X511947Y135880D01*
X511951Y135882D01*
X512100Y136011D01*
X512249Y136139D01*
X512252Y136143D01*
X512256Y136145D01*
X512376Y136300D01*
X512498Y136456D01*
X512500Y136460D01*
X512502Y136464D01*
X512590Y136640D01*
X512678Y136816D01*
X512680Y136820D01*
X512682Y136824D01*
X512733Y137016D01*
X512785Y137204D01*
X512785Y137209D01*
X512786Y137213D01*
X512813Y137544D01*
X512813Y151691D01*
X514153Y153030D01*
X527247Y153030D01*
X528587Y151691D01*
X528587Y150079D01*
X528589Y150056D01*
X528587Y150034D01*
X528609Y149857D01*
X528627Y149678D01*
X528633Y149657D01*
X528636Y149634D01*
X528692Y149465D01*
X528745Y149293D01*
X528755Y149273D01*
X528762Y149252D01*
X528851Y149097D01*
X528937Y148939D01*
X528951Y148922D01*
X528962Y148902D01*
X529080Y148767D01*
X529194Y148630D01*
X529212Y148616D01*
X529226Y148599D01*
X529369Y148489D01*
X529508Y148377D01*
X529528Y148367D01*
X529546Y148354D01*
X529841Y148202D01*
X531909Y147345D01*
X545767Y133487D01*
X547275Y129846D01*
X547275Y103598D01*
X545767Y99957D01*
X542980Y97170D01*
X540288Y96055D01*
X540260Y96040D01*
X540231Y96030D01*
X540083Y95945D01*
X539933Y95865D01*
X539909Y95845D01*
X539882Y95829D01*
X539629Y95615D01*
X523211Y79197D01*
X520037Y77882D01*
X507884Y77882D01*
X507853Y77879D01*
X507822Y77881D01*
X507653Y77859D01*
X507484Y77842D01*
X507454Y77833D01*
X507423Y77829D01*
X507107Y77727D01*
X504414Y76612D01*
X482726Y76612D01*
X482699Y76609D01*
X482673Y76611D01*
X482499Y76589D01*
X482325Y76572D01*
X482300Y76564D01*
X482273Y76561D01*
X482107Y76505D01*
X481940Y76454D01*
X481917Y76441D01*
X481891Y76433D01*
X481740Y76345D01*
X481586Y76262D01*
X481566Y76245D01*
X481543Y76232D01*
X481290Y76017D01*
X479906Y74634D01*
X477669Y73707D01*
X477641Y73692D01*
X477611Y73682D01*
X477464Y73597D01*
X477314Y73517D01*
X477290Y73497D01*
X477262Y73481D01*
X477009Y73267D01*
X476439Y72696D01*
X471958Y70840D01*
X471560Y70840D01*
X471530Y70837D01*
X471498Y70839D01*
X471329Y70817D01*
X471160Y70800D01*
X471130Y70791D01*
X471099Y70787D01*
X470783Y70685D01*
X467845Y69468D01*
X436973Y69468D01*
X433252Y71009D01*
X433199Y71053D01*
X433175Y71066D01*
X433154Y71082D01*
X432998Y71160D01*
X432844Y71242D01*
X432818Y71249D01*
X432794Y71261D01*
X432625Y71307D01*
X432458Y71356D01*
X432431Y71359D01*
X432405Y71366D01*
X432074Y71393D01*
X417953Y71393D01*
X417864Y71462D01*
X417728Y71573D01*
X417705Y71586D01*
X417683Y71602D01*
X417527Y71680D01*
X417373Y71762D01*
X417347Y71769D01*
X417323Y71781D01*
X417154Y71827D01*
X417120Y71837D01*
X414229Y73035D01*
X393011Y94252D01*
X391890Y96960D01*
X391890Y111693D01*
X391887Y111720D01*
X391889Y111747D01*
X391867Y111921D01*
X391850Y112094D01*
X391842Y112120D01*
X391838Y112146D01*
X391783Y112312D01*
X391731Y112479D01*
X391719Y112503D01*
X391710Y112528D01*
X391623Y112680D01*
X391540Y112833D01*
X391523Y112853D01*
X391509Y112877D01*
X391295Y113130D01*
X390964Y113460D01*
X390964Y113461D01*
X389177Y115247D01*
X388252Y117481D01*
X388246Y117493D01*
X388242Y117505D01*
X388151Y117669D01*
X388062Y117836D01*
X388053Y117846D01*
X388047Y117858D01*
X387926Y118000D01*
X387806Y118146D01*
X387795Y118154D01*
X387786Y118165D01*
X387639Y118281D01*
X387493Y118400D01*
X387481Y118406D01*
X387471Y118414D01*
X387302Y118500D01*
X387136Y118587D01*
X387124Y118591D01*
X387112Y118597D01*
X386930Y118647D01*
X386750Y118700D01*
X386737Y118701D01*
X386724Y118705D01*
X386535Y118718D01*
X386349Y118735D01*
X386336Y118733D01*
X386322Y118734D01*
X386134Y118710D01*
X385949Y118689D01*
X385936Y118685D01*
X385923Y118684D01*
X385744Y118624D01*
X385565Y118566D01*
X385554Y118560D01*
X385541Y118555D01*
X385378Y118461D01*
X385214Y118370D01*
X385204Y118361D01*
X385192Y118354D01*
X384939Y118140D01*
X369298Y102499D01*
X368388Y102121D01*
X368387Y102121D01*
X366590Y101377D01*
X363593Y101377D01*
X363455Y101419D01*
X363423Y101422D01*
X363393Y101430D01*
X363063Y101457D01*
X350414Y101457D01*
X349074Y102797D01*
X349074Y114691D01*
X350414Y116030D01*
X361152Y116030D01*
X361179Y116033D01*
X361206Y116031D01*
X361379Y116053D01*
X361553Y116070D01*
X361578Y116078D01*
X361605Y116082D01*
X361771Y116137D01*
X361938Y116189D01*
X361961Y116201D01*
X361987Y116210D01*
X362138Y116297D01*
X362292Y116380D01*
X362312Y116397D01*
X362336Y116411D01*
X362589Y116625D01*
X367203Y121239D01*
X367208Y121246D01*
X367215Y121252D01*
X367335Y121402D01*
X367458Y121551D01*
X367462Y121559D01*
X367467Y121566D01*
X367556Y121737D01*
X367646Y121907D01*
X367649Y121915D01*
X367653Y121923D01*
X367706Y122108D01*
X367761Y122293D01*
X367762Y122301D01*
X367764Y122310D01*
X367780Y122501D01*
X367797Y122694D01*
X367796Y122702D01*
X367797Y122711D01*
X367775Y122900D01*
X367754Y123094D01*
X367751Y123102D01*
X367750Y123111D01*
X367691Y123293D01*
X367633Y123478D01*
X367628Y123485D01*
X367625Y123494D01*
X367530Y123662D01*
X367438Y123830D01*
X367432Y123837D01*
X367428Y123845D01*
X367302Y123990D01*
X367177Y124137D01*
X367170Y124143D01*
X367164Y124149D01*
X367013Y124267D01*
X366861Y124387D01*
X366853Y124391D01*
X366846Y124396D01*
X366674Y124482D01*
X366502Y124569D01*
X366494Y124571D01*
X366486Y124575D01*
X366299Y124625D01*
X366114Y124677D01*
X366106Y124678D01*
X366097Y124680D01*
X365766Y124707D01*
X363853Y124707D01*
X363386Y125173D01*
X363373Y125185D01*
X363361Y125198D01*
X363217Y125312D01*
X363075Y125429D01*
X363059Y125437D01*
X363045Y125448D01*
X362881Y125531D01*
X362719Y125617D01*
X362702Y125622D01*
X362686Y125630D01*
X362509Y125680D01*
X362333Y125732D01*
X362315Y125734D01*
X362298Y125738D01*
X362115Y125752D01*
X361932Y125768D01*
X361914Y125766D01*
X361897Y125768D01*
X361715Y125745D01*
X361532Y125725D01*
X361515Y125720D01*
X361497Y125717D01*
X361324Y125659D01*
X361148Y125603D01*
X361132Y125595D01*
X361116Y125589D01*
X360957Y125498D01*
X360796Y125409D01*
X360782Y125397D01*
X360767Y125388D01*
X360514Y125174D01*
X360047Y124707D01*
X351153Y124707D01*
X350686Y125173D01*
X350673Y125185D01*
X350661Y125198D01*
X350517Y125312D01*
X350375Y125429D01*
X350359Y125437D01*
X350345Y125448D01*
X350181Y125531D01*
X350019Y125617D01*
X350002Y125622D01*
X349986Y125630D01*
X349809Y125680D01*
X349633Y125732D01*
X349615Y125734D01*
X349598Y125738D01*
X349415Y125752D01*
X349232Y125768D01*
X349214Y125766D01*
X349197Y125768D01*
X349015Y125745D01*
X348832Y125725D01*
X348815Y125720D01*
X348797Y125717D01*
X348624Y125659D01*
X348448Y125603D01*
X348432Y125595D01*
X348416Y125589D01*
X348257Y125498D01*
X348096Y125409D01*
X348082Y125397D01*
X348067Y125388D01*
X347814Y125174D01*
X347347Y124707D01*
X338453Y124707D01*
X337113Y126047D01*
X337113Y147941D01*
X338105Y148933D01*
X338117Y148947D01*
X338130Y148958D01*
X338244Y149102D01*
X338360Y149244D01*
X338369Y149260D01*
X338380Y149274D01*
X338463Y149439D01*
X338549Y149600D01*
X338554Y149617D01*
X338562Y149633D01*
X338612Y149811D01*
X338664Y149986D01*
X338665Y150004D01*
X338670Y150021D01*
X338683Y150203D01*
X338700Y150387D01*
X338698Y150405D01*
X338699Y150423D01*
X338677Y150604D01*
X338657Y150787D01*
X338651Y150804D01*
X338649Y150822D01*
X338591Y150996D01*
X338535Y151171D01*
X338527Y151187D01*
X338521Y151204D01*
X338429Y151363D01*
X338340Y151523D01*
X338329Y151537D01*
X338320Y151553D01*
X338105Y151806D01*
X337976Y151935D01*
X337955Y151952D01*
X337938Y151972D01*
X337799Y152080D01*
X337664Y152190D01*
X337640Y152203D01*
X337619Y152219D01*
X337463Y152297D01*
X337308Y152379D01*
X337283Y152386D01*
X337259Y152398D01*
X337089Y152444D01*
X336922Y152494D01*
X336896Y152496D01*
X336870Y152503D01*
X336539Y152530D01*
X237211Y152530D01*
X234384Y155357D01*
X215021Y174721D01*
X215000Y174738D01*
X214983Y174758D01*
X214845Y174865D01*
X214709Y174976D01*
X214686Y174988D01*
X214665Y175005D01*
X214508Y175082D01*
X214354Y175164D01*
X214328Y175172D01*
X214304Y175184D01*
X214135Y175229D01*
X213968Y175279D01*
X213941Y175281D01*
X213915Y175288D01*
X213711Y175305D01*
X213681Y175321D01*
X213655Y175329D01*
X213631Y175341D01*
X213462Y175386D01*
X213295Y175436D01*
X213268Y175438D01*
X213242Y175445D01*
X212912Y175473D01*
X195618Y175473D01*
X195609Y175472D01*
X195600Y175472D01*
X195408Y175452D01*
X195217Y175433D01*
X195208Y175430D01*
X195200Y175429D01*
X195017Y175371D01*
X194832Y175314D01*
X194824Y175310D01*
X194816Y175308D01*
X194647Y175214D01*
X194478Y175123D01*
X194471Y175117D01*
X194463Y175113D01*
X194316Y174988D01*
X194169Y174865D01*
X194163Y174858D01*
X194156Y174852D01*
X194037Y174701D01*
X193916Y174551D01*
X193912Y174543D01*
X193907Y174536D01*
X193818Y174362D01*
X193731Y174194D01*
X193728Y174185D01*
X193724Y174177D01*
X193672Y173990D01*
X193620Y173807D01*
X193619Y173798D01*
X193616Y173789D01*
X193602Y173597D01*
X193587Y173406D01*
X193588Y173397D01*
X193587Y173388D01*
X193611Y173195D01*
X193634Y173006D01*
X193636Y172997D01*
X193637Y172988D01*
X193699Y172806D01*
X193758Y172623D01*
X193763Y172615D01*
X193766Y172607D01*
X193863Y172438D01*
X193956Y172272D01*
X193962Y172266D01*
X193967Y172258D01*
X194181Y172005D01*
X199897Y166289D01*
X199918Y166272D01*
X199935Y166252D01*
X200073Y166145D01*
X200209Y166034D01*
X200232Y166022D01*
X200253Y166005D01*
X200410Y165927D01*
X200564Y165845D01*
X200590Y165838D01*
X200614Y165826D01*
X200758Y165787D01*
X232128Y134418D01*
X232128Y112349D01*
X232130Y112323D01*
X232128Y112296D01*
X232150Y112122D01*
X232168Y111949D01*
X232175Y111923D01*
X232179Y111897D01*
X232234Y111731D01*
X232286Y111564D01*
X232299Y111540D01*
X232307Y111515D01*
X232394Y111363D01*
X232478Y111210D01*
X232495Y111189D01*
X232508Y111166D01*
X232723Y110913D01*
X233462Y110174D01*
X234386Y107944D01*
X234386Y105529D01*
X233652Y103757D01*
X233641Y103722D01*
X233625Y103689D01*
X233583Y103530D01*
X233535Y103372D01*
X233532Y103335D01*
X233522Y103300D01*
X233513Y103135D01*
X233497Y102971D01*
X233501Y102934D01*
X233499Y102898D01*
X233522Y102735D01*
X233539Y102570D01*
X233550Y102535D01*
X233555Y102499D01*
X233609Y102343D01*
X233659Y102186D01*
X233676Y102154D01*
X233688Y102119D01*
X233773Y101977D01*
X233852Y101833D01*
X233875Y101805D01*
X233894Y101773D01*
X234005Y101651D01*
X234111Y101525D01*
X234139Y101502D01*
X234164Y101475D01*
X234297Y101377D01*
X234426Y101274D01*
X234458Y101257D01*
X234488Y101235D01*
X234777Y101093D01*
X234784Y101090D01*
X234785Y101089D01*
X234786Y101089D01*
X235497Y100809D01*
X235571Y100789D01*
X235642Y100759D01*
X235764Y100734D01*
X235885Y100700D01*
X235961Y100694D01*
X236036Y100679D01*
X236162Y100679D01*
X236273Y100670D01*
X237036Y100230D01*
X237097Y100202D01*
X237309Y100098D01*
X238135Y99773D01*
X238164Y99730D01*
X238252Y99641D01*
X238334Y99546D01*
X238394Y99499D01*
X238448Y99445D01*
X238582Y99352D01*
X238651Y99298D01*
X238683Y99282D01*
X238721Y99256D01*
X239472Y98822D01*
X239541Y98791D01*
X239607Y98751D01*
X239724Y98708D01*
X239838Y98656D01*
X239913Y98639D01*
X239985Y98613D01*
X240109Y98594D01*
X240218Y98569D01*
X240906Y98019D01*
X240963Y97983D01*
X241157Y97848D01*
X241925Y97404D01*
X241947Y97357D01*
X242022Y97256D01*
X242088Y97150D01*
X242141Y97094D01*
X242186Y97033D01*
X242305Y96921D01*
X242365Y96857D01*
X242394Y96837D01*
X242428Y96805D01*
X243105Y96265D01*
X243169Y96223D01*
X243228Y96174D01*
X243338Y96114D01*
X243443Y96046D01*
X243514Y96018D01*
X243582Y95981D01*
X243701Y95944D01*
X243805Y95903D01*
X244404Y95257D01*
X244454Y95213D01*
X244627Y95050D01*
X245320Y94497D01*
X245335Y94447D01*
X245393Y94336D01*
X245443Y94221D01*
X245487Y94159D01*
X245523Y94091D01*
X245623Y93962D01*
X245673Y93891D01*
X245699Y93866D01*
X245728Y93830D01*
X246317Y93194D01*
X246374Y93143D01*
X246425Y93086D01*
X246525Y93011D01*
X246619Y92927D01*
X246685Y92889D01*
X246746Y92843D01*
X246858Y92789D01*
X246955Y92732D01*
X247451Y92004D01*
X247494Y91953D01*
X247640Y91767D01*
X248244Y91116D01*
X248250Y91067D01*
X248292Y90947D01*
X248324Y90825D01*
X248358Y90758D01*
X248382Y90686D01*
X248459Y90551D01*
X248490Y90485D01*
X248496Y90477D01*
X248503Y90464D01*
X248524Y90437D01*
X248546Y90398D01*
X248551Y90390D01*
X248644Y90279D01*
X248731Y90162D01*
X248746Y90149D01*
X248749Y90145D01*
X248774Y90123D01*
X248810Y90081D01*
X248922Y89990D01*
X249030Y89893D01*
X249079Y89864D01*
X249124Y89829D01*
X249252Y89762D01*
X249377Y89688D01*
X249431Y89670D01*
X249481Y89644D01*
X249620Y89604D01*
X249757Y89556D01*
X249814Y89548D01*
X249868Y89533D01*
X250013Y89521D01*
X250156Y89501D01*
X250213Y89505D01*
X250270Y89500D01*
X250414Y89517D01*
X250558Y89526D01*
X250613Y89541D01*
X250669Y89548D01*
X250807Y89593D01*
X250947Y89630D01*
X251006Y89658D01*
X251052Y89673D01*
X251124Y89714D01*
X251247Y89772D01*
X281978Y107514D01*
X282273Y106887D01*
X282291Y106864D01*
X282301Y106837D01*
X282350Y106785D01*
X282392Y106728D01*
X282417Y106713D01*
X282437Y106692D01*
X282502Y106663D01*
X282564Y106628D01*
X282593Y106624D01*
X282619Y106612D01*
X282690Y106611D01*
X282761Y106602D01*
X282789Y106610D01*
X282818Y106610D01*
X282911Y106644D01*
X282952Y106656D01*
X282961Y106663D01*
X282974Y106667D01*
X299225Y116024D01*
X315476Y106667D01*
X315504Y106658D01*
X315528Y106641D01*
X315597Y106627D01*
X315665Y106604D01*
X315694Y106607D01*
X315722Y106601D01*
X315792Y106615D01*
X315863Y106620D01*
X315889Y106634D01*
X315917Y106639D01*
X315976Y106679D01*
X316039Y106712D01*
X316058Y106734D01*
X316082Y106751D01*
X316139Y106833D01*
X316166Y106865D01*
X316169Y106876D01*
X316177Y106887D01*
X316472Y107514D01*
X432734Y40392D01*
X432314Y39784D01*
X432303Y39757D01*
X432284Y39735D01*
X432264Y39666D01*
X432236Y39601D01*
X432236Y39572D01*
X432228Y39544D01*
X432236Y39473D01*
X432236Y39402D01*
X432247Y39375D01*
X432250Y39346D01*
X432285Y39284D01*
X432313Y39219D01*
X432333Y39198D01*
X432348Y39173D01*
X432411Y39121D01*
X432415Y39116D01*
X432424Y39110D01*
X432425Y39110D01*
X432455Y39080D01*
X432465Y39076D01*
X432476Y39067D01*
X448976Y29567D01*
X449049Y29543D01*
X449119Y29512D01*
X449143Y29512D01*
X449165Y29504D01*
X449241Y29511D01*
G37*
G36*
X48305Y89507D02*
X48305Y89507D01*
X48365Y89505D01*
X48505Y89530D01*
X48646Y89546D01*
X48703Y89564D01*
X48761Y89574D01*
X48894Y89625D01*
X49030Y89669D01*
X49082Y89698D01*
X49137Y89719D01*
X49257Y89796D01*
X49381Y89865D01*
X49426Y89904D01*
X49476Y89936D01*
X49579Y90035D01*
X49687Y90127D01*
X49727Y90177D01*
X49749Y90198D01*
X49753Y90203D01*
X49766Y90216D01*
X49813Y90283D01*
X49896Y90385D01*
X49901Y90393D01*
X49939Y90462D01*
X49984Y90525D01*
X49991Y90540D01*
X49995Y90547D01*
X50027Y90622D01*
X50035Y90638D01*
X50094Y90747D01*
X50117Y90821D01*
X50149Y90892D01*
X50177Y91013D01*
X50211Y91121D01*
X50810Y91767D01*
X50850Y91820D01*
X50999Y92004D01*
X51498Y92738D01*
X51547Y92756D01*
X51654Y92823D01*
X51764Y92881D01*
X51823Y92929D01*
X51888Y92970D01*
X52009Y93081D01*
X52076Y93135D01*
X52099Y93163D01*
X52133Y93194D01*
X52722Y93830D01*
X52769Y93891D01*
X52822Y93946D01*
X52890Y94051D01*
X52966Y94151D01*
X52999Y94220D01*
X53040Y94284D01*
X53086Y94400D01*
X53135Y94501D01*
X53823Y95050D01*
X53872Y95097D01*
X54046Y95257D01*
X54649Y95908D01*
X54700Y95919D01*
X54815Y95969D01*
X54933Y96010D01*
X54999Y96049D01*
X55069Y96079D01*
X55205Y96171D01*
X55280Y96215D01*
X55307Y96239D01*
X55345Y96265D01*
X56022Y96805D01*
X56077Y96859D01*
X56138Y96905D01*
X56221Y96999D01*
X56311Y97086D01*
X56354Y97150D01*
X56404Y97207D01*
X56467Y97315D01*
X56530Y97407D01*
X57293Y97848D01*
X57347Y97887D01*
X57544Y98019D01*
X58237Y98573D01*
X58290Y98576D01*
X58411Y98608D01*
X58534Y98632D01*
X58605Y98660D01*
X58678Y98680D01*
X58826Y98750D01*
X58907Y98783D01*
X58937Y98802D01*
X58978Y98822D01*
X59729Y99256D01*
X59791Y99300D01*
X59858Y99337D01*
X59954Y99418D01*
X60056Y99491D01*
X60108Y99547D01*
X60167Y99596D01*
X60245Y99694D01*
X60321Y99775D01*
X61141Y100098D01*
X61201Y100128D01*
X61414Y100230D01*
X62183Y100673D01*
X62235Y100669D01*
X62359Y100683D01*
X62484Y100687D01*
X62559Y100705D01*
X62635Y100714D01*
X62791Y100761D01*
X62876Y100781D01*
X62908Y100796D01*
X62953Y100809D01*
X63759Y101126D01*
X63827Y101161D01*
X63899Y101187D01*
X64006Y101253D01*
X64118Y101310D01*
X64178Y101358D01*
X64243Y101398D01*
X64335Y101483D01*
X64422Y101552D01*
X65281Y101748D01*
X65345Y101770D01*
X65571Y101838D01*
X66397Y102162D01*
X66448Y102150D01*
X66573Y102145D01*
X66697Y102131D01*
X66774Y102138D01*
X66850Y102135D01*
X67011Y102158D01*
X67099Y102166D01*
X67133Y102176D01*
X67178Y102182D01*
X68024Y102375D01*
X68096Y102400D01*
X68171Y102415D01*
X68287Y102464D01*
X68405Y102504D01*
X68472Y102542D01*
X68542Y102571D01*
X68646Y102642D01*
X68742Y102698D01*
X69621Y102764D01*
X69687Y102775D01*
X69921Y102809D01*
X70786Y103007D01*
X70835Y102987D01*
X70958Y102964D01*
X71078Y102931D01*
X71155Y102926D01*
X71230Y102912D01*
X71393Y102911D01*
X71480Y102905D01*
X71516Y102910D01*
X71562Y102910D01*
X72426Y102975D01*
X72502Y102988D01*
X72578Y102992D01*
X72699Y103023D01*
X72823Y103045D01*
X72894Y103073D01*
X72968Y103092D01*
X73081Y103146D01*
X73185Y103186D01*
X74064Y103121D01*
X74131Y103123D01*
X74367Y103121D01*
X75252Y103188D01*
X75297Y103161D01*
X75415Y103119D01*
X75530Y103069D01*
X75605Y103053D01*
X75677Y103028D01*
X75838Y103002D01*
X75923Y102984D01*
X75959Y102983D01*
X76005Y102976D01*
X76869Y102912D01*
X76946Y102913D01*
X77022Y102906D01*
X77147Y102918D01*
X77272Y102922D01*
X77346Y102938D01*
X77422Y102946D01*
X77542Y102983D01*
X77651Y103008D01*
X78510Y102812D01*
X78577Y102804D01*
X78810Y102767D01*
X79695Y102701D01*
X79736Y102668D01*
X79846Y102609D01*
X79952Y102542D01*
X80024Y102515D01*
X80091Y102479D01*
X80247Y102430D01*
X80329Y102399D01*
X80364Y102393D01*
X80408Y102379D01*
X81253Y102187D01*
X81329Y102177D01*
X81403Y102158D01*
X81528Y102152D01*
X81652Y102137D01*
X81729Y102142D01*
X81805Y102138D01*
X81929Y102157D01*
X82040Y102165D01*
X82861Y101844D01*
X82926Y101825D01*
X83151Y101754D01*
X84016Y101557D01*
X84051Y101518D01*
X84152Y101444D01*
X84247Y101362D01*
X84313Y101324D01*
X84375Y101279D01*
X84521Y101207D01*
X84597Y101164D01*
X84632Y101153D01*
X84673Y101133D01*
X85480Y100817D01*
X85554Y100796D01*
X85624Y100766D01*
X85747Y100741D01*
X85867Y100707D01*
X85944Y100702D01*
X86019Y100687D01*
X86144Y100686D01*
X86255Y100678D01*
X86607Y100475D01*
X86748Y100411D01*
X86886Y100341D01*
X86932Y100328D01*
X86974Y100309D01*
X87125Y100275D01*
X87274Y100233D01*
X87321Y100230D01*
X87367Y100219D01*
X87521Y100215D01*
X87676Y100204D01*
X87722Y100210D01*
X87769Y100208D01*
X87921Y100235D01*
X88075Y100254D01*
X88120Y100269D01*
X88166Y100277D01*
X88310Y100333D01*
X88457Y100382D01*
X88498Y100406D01*
X88541Y100423D01*
X88671Y100506D01*
X88806Y100583D01*
X88846Y100618D01*
X88881Y100639D01*
X88943Y100699D01*
X89059Y100798D01*
X130428Y142167D01*
X130439Y142181D01*
X130440Y142182D01*
X130445Y142188D01*
X130465Y142205D01*
X130572Y142343D01*
X130683Y142478D01*
X130690Y142493D01*
X130692Y142495D01*
X130697Y142504D01*
X130712Y142523D01*
X130790Y142680D01*
X130871Y142834D01*
X130875Y142848D01*
X130878Y142853D01*
X130881Y142864D01*
X130891Y142884D01*
X130936Y143053D01*
X130986Y143220D01*
X130987Y143232D01*
X130989Y143240D01*
X130991Y143254D01*
X130995Y143272D01*
X131023Y143603D01*
X131023Y143605D01*
X131022Y143613D01*
X131022Y143621D01*
X131021Y143631D01*
X131022Y143641D01*
X131001Y143823D01*
X130983Y144006D01*
X130980Y144016D01*
X130979Y144021D01*
X130977Y144028D01*
X130975Y144041D01*
X130918Y144215D01*
X130864Y144391D01*
X130859Y144402D01*
X130858Y144405D01*
X130855Y144410D01*
X130850Y144423D01*
X130760Y144584D01*
X130673Y144745D01*
X130663Y144756D01*
X130663Y144757D01*
X130661Y144760D01*
X130653Y144774D01*
X130532Y144913D01*
X130415Y145054D01*
X130401Y145065D01*
X130389Y145079D01*
X130244Y145191D01*
X130101Y145306D01*
X130085Y145315D01*
X130071Y145326D01*
X129906Y145408D01*
X129744Y145492D01*
X129727Y145497D01*
X129711Y145505D01*
X129533Y145553D01*
X129357Y145603D01*
X129339Y145605D01*
X129322Y145609D01*
X128991Y145637D01*
X124458Y145637D01*
X124431Y145634D01*
X124405Y145636D01*
X124231Y145614D01*
X124057Y145597D01*
X124032Y145589D01*
X124005Y145585D01*
X123839Y145530D01*
X123672Y145478D01*
X123649Y145466D01*
X123623Y145457D01*
X123472Y145370D01*
X123318Y145287D01*
X123298Y145270D01*
X123275Y145256D01*
X123022Y145042D01*
X116504Y138525D01*
X104842Y138525D01*
X104815Y138522D01*
X104788Y138524D01*
X104614Y138502D01*
X104441Y138485D01*
X104415Y138477D01*
X104389Y138473D01*
X104223Y138418D01*
X104056Y138366D01*
X104032Y138354D01*
X104007Y138345D01*
X103856Y138258D01*
X103702Y138175D01*
X103682Y138158D01*
X103658Y138144D01*
X103405Y137930D01*
X103034Y137559D01*
X101074Y136747D01*
X67345Y136747D01*
X67318Y136744D01*
X67292Y136746D01*
X67118Y136724D01*
X66944Y136707D01*
X66919Y136699D01*
X66892Y136695D01*
X66726Y136640D01*
X66559Y136588D01*
X66536Y136576D01*
X66510Y136567D01*
X66359Y136480D01*
X66205Y136397D01*
X66185Y136380D01*
X66162Y136366D01*
X65909Y136152D01*
X59714Y129957D01*
X59697Y129936D01*
X59677Y129919D01*
X59570Y129781D01*
X59459Y129646D01*
X59447Y129622D01*
X59430Y129601D01*
X59352Y129444D01*
X59270Y129290D01*
X59263Y129264D01*
X59251Y129240D01*
X59205Y129071D01*
X59156Y128904D01*
X59153Y128877D01*
X59146Y128852D01*
X59119Y128521D01*
X59119Y125029D01*
X57611Y121388D01*
X54824Y118601D01*
X51183Y117093D01*
X47242Y117093D01*
X43601Y118601D01*
X40814Y121388D01*
X39306Y125029D01*
X39306Y128971D01*
X40814Y132612D01*
X43601Y135399D01*
X47242Y136907D01*
X50733Y136907D01*
X50760Y136909D01*
X50787Y136907D01*
X50961Y136929D01*
X51134Y136947D01*
X51160Y136954D01*
X51186Y136958D01*
X51352Y137014D01*
X51519Y137065D01*
X51542Y137077D01*
X51568Y137086D01*
X51719Y137173D01*
X51873Y137257D01*
X51893Y137274D01*
X51917Y137287D01*
X52170Y137502D01*
X54168Y139500D01*
X54171Y139503D01*
X54174Y139506D01*
X54299Y139660D01*
X54423Y139811D01*
X54425Y139815D01*
X54428Y139819D01*
X54521Y139996D01*
X54611Y140167D01*
X54613Y140171D01*
X54615Y140175D01*
X54669Y140362D01*
X54726Y140553D01*
X54727Y140557D01*
X54728Y140562D01*
X54744Y140753D01*
X54763Y140954D01*
X54762Y140958D01*
X54763Y140963D01*
X54741Y141153D01*
X54719Y141354D01*
X54718Y141358D01*
X54717Y141363D01*
X54659Y141546D01*
X54598Y141738D01*
X54596Y141742D01*
X54594Y141746D01*
X54502Y141910D01*
X54403Y142090D01*
X54400Y142094D01*
X54398Y142098D01*
X54271Y142245D01*
X54142Y142397D01*
X54139Y142400D01*
X54136Y142403D01*
X53983Y142523D01*
X53827Y142647D01*
X53822Y142649D01*
X53819Y142652D01*
X53644Y142740D01*
X53468Y142829D01*
X53463Y142830D01*
X53459Y142832D01*
X53269Y142884D01*
X53080Y142937D01*
X53075Y142938D01*
X53071Y142939D01*
X52875Y142952D01*
X52678Y142967D01*
X52674Y142966D01*
X52669Y142966D01*
X52473Y142941D01*
X52279Y142916D01*
X52274Y142915D01*
X52270Y142914D01*
X51954Y142813D01*
X51183Y142493D01*
X47242Y142493D01*
X43601Y144001D01*
X40814Y146788D01*
X39212Y150656D01*
X39206Y150668D01*
X39202Y150681D01*
X39111Y150845D01*
X39022Y151011D01*
X39013Y151021D01*
X39007Y151033D01*
X38885Y151176D01*
X38765Y151321D01*
X38755Y151330D01*
X38746Y151340D01*
X38598Y151457D01*
X38453Y151575D01*
X38441Y151581D01*
X38430Y151590D01*
X38262Y151675D01*
X38096Y151762D01*
X38083Y151766D01*
X38071Y151772D01*
X37890Y151822D01*
X37710Y151875D01*
X37696Y151876D01*
X37683Y151880D01*
X37495Y151894D01*
X37309Y151910D01*
X37295Y151908D01*
X37282Y151909D01*
X37093Y151885D01*
X36909Y151865D01*
X36896Y151861D01*
X36882Y151859D01*
X36703Y151799D01*
X36525Y151741D01*
X36514Y151735D01*
X36501Y151731D01*
X36338Y151637D01*
X36174Y151545D01*
X36164Y151536D01*
X36152Y151530D01*
X35899Y151315D01*
X34228Y149645D01*
X21334Y149645D01*
X19995Y150984D01*
X19995Y162878D01*
X21334Y164218D01*
X26682Y164218D01*
X26709Y164221D01*
X26735Y164219D01*
X26909Y164241D01*
X27083Y164258D01*
X27108Y164266D01*
X27135Y164269D01*
X27301Y164325D01*
X27468Y164376D01*
X27491Y164389D01*
X27517Y164397D01*
X27668Y164485D01*
X27822Y164568D01*
X27842Y164585D01*
X27865Y164598D01*
X28118Y164813D01*
X33722Y170416D01*
X35683Y171228D01*
X38172Y171228D01*
X38185Y171230D01*
X38198Y171229D01*
X38385Y171250D01*
X38572Y171268D01*
X38585Y171272D01*
X38598Y171274D01*
X38776Y171331D01*
X38957Y171387D01*
X38969Y171393D01*
X38982Y171397D01*
X39146Y171489D01*
X39311Y171578D01*
X39321Y171587D01*
X39333Y171593D01*
X39477Y171716D01*
X39620Y171836D01*
X39629Y171846D01*
X39639Y171855D01*
X39755Y172004D01*
X39873Y172150D01*
X39879Y172162D01*
X39887Y172172D01*
X39972Y172341D01*
X40058Y172507D01*
X40062Y172520D01*
X40068Y172532D01*
X40118Y172714D01*
X40170Y172894D01*
X40171Y172907D01*
X40174Y172920D01*
X40187Y173107D01*
X40203Y173295D01*
X40201Y173309D01*
X40202Y173322D01*
X40178Y173508D01*
X40156Y173695D01*
X40151Y173708D01*
X40150Y173721D01*
X40048Y174037D01*
X39306Y175829D01*
X39306Y179771D01*
X40814Y183412D01*
X43601Y186199D01*
X47242Y187707D01*
X51183Y187707D01*
X54824Y186199D01*
X57611Y183412D01*
X59119Y179771D01*
X59119Y175829D01*
X57611Y172188D01*
X55142Y169719D01*
X55125Y169699D01*
X55105Y169681D01*
X54998Y169543D01*
X54887Y169408D01*
X54875Y169384D01*
X54858Y169363D01*
X54780Y169207D01*
X54698Y169052D01*
X54691Y169027D01*
X54679Y169003D01*
X54633Y168834D01*
X54584Y168666D01*
X54581Y168640D01*
X54574Y168614D01*
X54547Y168283D01*
X54547Y161917D01*
X54550Y161890D01*
X54548Y161864D01*
X54570Y161690D01*
X54587Y161516D01*
X54595Y161491D01*
X54598Y161464D01*
X54654Y161298D01*
X54705Y161131D01*
X54718Y161108D01*
X54727Y161082D01*
X54814Y160931D01*
X54897Y160777D01*
X54914Y160757D01*
X54928Y160734D01*
X55142Y160481D01*
X57611Y158012D01*
X57864Y157401D01*
X57874Y157382D01*
X57881Y157360D01*
X57970Y157204D01*
X58054Y157046D01*
X58068Y157029D01*
X58079Y157010D01*
X58196Y156874D01*
X58311Y156736D01*
X58328Y156722D01*
X58342Y156705D01*
X58483Y156596D01*
X58623Y156482D01*
X58643Y156472D01*
X58661Y156458D01*
X58821Y156379D01*
X58980Y156295D01*
X59001Y156289D01*
X59021Y156279D01*
X59194Y156232D01*
X59366Y156182D01*
X59388Y156180D01*
X59410Y156174D01*
X59741Y156147D01*
X102661Y156147D01*
X104622Y155335D01*
X104993Y154964D01*
X105014Y154947D01*
X105031Y154927D01*
X105169Y154820D01*
X105304Y154709D01*
X105328Y154697D01*
X105349Y154680D01*
X105506Y154602D01*
X105660Y154520D01*
X105686Y154513D01*
X105710Y154501D01*
X105879Y154455D01*
X106046Y154406D01*
X106073Y154403D01*
X106098Y154396D01*
X106429Y154369D01*
X108986Y154369D01*
X109004Y154371D01*
X109022Y154370D01*
X109204Y154391D01*
X109387Y154409D01*
X109404Y154414D01*
X109422Y154416D01*
X109596Y154473D01*
X109772Y154527D01*
X109787Y154536D01*
X109804Y154541D01*
X109965Y154632D01*
X110126Y154719D01*
X110139Y154730D01*
X110155Y154739D01*
X110294Y154859D01*
X110435Y154977D01*
X110446Y154991D01*
X110460Y155002D01*
X110572Y155147D01*
X110687Y155291D01*
X110696Y155306D01*
X110707Y155320D01*
X110789Y155485D01*
X110873Y155648D01*
X110878Y155665D01*
X110886Y155681D01*
X110934Y155859D01*
X110984Y156035D01*
X110986Y156053D01*
X110990Y156070D01*
X111018Y156400D01*
X111018Y156998D01*
X112357Y158338D01*
X141797Y158338D01*
X143145Y156990D01*
X143159Y156979D01*
X143171Y156965D01*
X143315Y156851D01*
X143457Y156735D01*
X143473Y156727D01*
X143487Y156715D01*
X143651Y156632D01*
X143813Y156546D01*
X143830Y156541D01*
X143846Y156533D01*
X144023Y156484D01*
X144199Y156432D01*
X144216Y156430D01*
X144234Y156425D01*
X144417Y156412D01*
X144600Y156395D01*
X144617Y156397D01*
X144635Y156396D01*
X144817Y156419D01*
X145000Y156439D01*
X145017Y156444D01*
X145035Y156446D01*
X145208Y156505D01*
X145384Y156560D01*
X145399Y156569D01*
X145416Y156574D01*
X145575Y156666D01*
X145736Y156755D01*
X145750Y156766D01*
X145765Y156775D01*
X146018Y156990D01*
X147366Y158338D01*
X168243Y158338D01*
X168261Y158340D01*
X168279Y158338D01*
X168461Y158360D01*
X168644Y158378D01*
X168661Y158383D01*
X168679Y158385D01*
X168853Y158442D01*
X169029Y158496D01*
X169044Y158505D01*
X169061Y158510D01*
X169222Y158600D01*
X169383Y158688D01*
X169396Y158699D01*
X169412Y158708D01*
X169551Y158828D01*
X169692Y158946D01*
X169703Y158959D01*
X169717Y158971D01*
X169829Y159116D01*
X169944Y159259D01*
X169953Y159275D01*
X169964Y159289D01*
X170046Y159454D01*
X170130Y159617D01*
X170135Y159634D01*
X170143Y159650D01*
X170191Y159828D01*
X170241Y160004D01*
X170243Y160021D01*
X170247Y160039D01*
X170275Y160369D01*
X170275Y212693D01*
X170273Y212711D01*
X170274Y212729D01*
X170253Y212911D01*
X170235Y213094D01*
X170229Y213111D01*
X170227Y213129D01*
X170170Y213303D01*
X170116Y213479D01*
X170108Y213494D01*
X170102Y213511D01*
X170012Y213672D01*
X169925Y213833D01*
X169913Y213846D01*
X169905Y213862D01*
X169785Y214001D01*
X169667Y214142D01*
X169653Y214153D01*
X169641Y214167D01*
X169496Y214279D01*
X169353Y214394D01*
X169337Y214403D01*
X169323Y214414D01*
X169158Y214496D01*
X168996Y214580D01*
X168979Y214585D01*
X168963Y214593D01*
X168785Y214641D01*
X168609Y214691D01*
X168591Y214693D01*
X168574Y214697D01*
X168243Y214725D01*
X122360Y214725D01*
X121021Y216064D01*
X121021Y224807D01*
X121019Y224824D01*
X121020Y224842D01*
X120999Y225024D01*
X120981Y225207D01*
X120975Y225224D01*
X120973Y225242D01*
X120916Y225416D01*
X120862Y225592D01*
X120854Y225608D01*
X120848Y225625D01*
X120758Y225785D01*
X120671Y225946D01*
X120659Y225960D01*
X120651Y225975D01*
X120530Y226115D01*
X120413Y226255D01*
X120399Y226267D01*
X120387Y226280D01*
X120242Y226393D01*
X120099Y226508D01*
X120083Y226516D01*
X120069Y226527D01*
X119904Y226609D01*
X119742Y226693D01*
X119725Y226698D01*
X119709Y226706D01*
X119531Y226754D01*
X119355Y226805D01*
X119337Y226806D01*
X119320Y226811D01*
X118989Y226838D01*
X102328Y226838D01*
X100741Y227495D01*
X94818Y233418D01*
X94797Y233435D01*
X94780Y233456D01*
X94642Y233563D01*
X94507Y233673D01*
X94483Y233686D01*
X94462Y233702D01*
X94305Y233780D01*
X94151Y233862D01*
X94125Y233870D01*
X94101Y233882D01*
X93932Y233927D01*
X93765Y233977D01*
X93738Y233979D01*
X93712Y233986D01*
X93382Y234013D01*
X92209Y234013D01*
X90870Y235353D01*
X90870Y247247D01*
X91933Y248311D01*
X91950Y248331D01*
X91970Y248349D01*
X92077Y248487D01*
X92188Y248622D01*
X92200Y248646D01*
X92217Y248667D01*
X92295Y248824D01*
X92377Y248978D01*
X92384Y249003D01*
X92396Y249027D01*
X92442Y249197D01*
X92491Y249364D01*
X92494Y249390D01*
X92501Y249416D01*
X92528Y249747D01*
X92528Y253491D01*
X92525Y253517D01*
X92527Y253544D01*
X92505Y253718D01*
X92488Y253891D01*
X92480Y253917D01*
X92477Y253943D01*
X92421Y254109D01*
X92370Y254276D01*
X92357Y254300D01*
X92348Y254325D01*
X92261Y254477D01*
X92178Y254630D01*
X92161Y254651D01*
X92148Y254674D01*
X91933Y254927D01*
X90058Y256802D01*
X90038Y256819D01*
X90020Y256839D01*
X89882Y256946D01*
X89747Y257057D01*
X89723Y257069D01*
X89702Y257086D01*
X89545Y257164D01*
X89391Y257245D01*
X89366Y257253D01*
X89341Y257265D01*
X89172Y257310D01*
X89005Y257360D01*
X88979Y257362D01*
X88953Y257369D01*
X88622Y257397D01*
X87521Y257397D01*
X87490Y257393D01*
X87458Y257396D01*
X87289Y257373D01*
X87120Y257357D01*
X87090Y257347D01*
X87059Y257343D01*
X86743Y257242D01*
X85345Y256663D01*
X82930Y256663D01*
X80700Y257586D01*
X78993Y259294D01*
X78069Y261524D01*
X78069Y263938D01*
X78993Y266169D01*
X80700Y267876D01*
X82930Y268800D01*
X85345Y268800D01*
X86743Y268221D01*
X86773Y268212D01*
X86801Y268198D01*
X86966Y268153D01*
X87129Y268104D01*
X87160Y268101D01*
X87190Y268093D01*
X87521Y268066D01*
X88622Y268066D01*
X88648Y268069D01*
X88675Y268067D01*
X88849Y268089D01*
X89023Y268106D01*
X89048Y268114D01*
X89075Y268117D01*
X89240Y268173D01*
X89407Y268224D01*
X89431Y268237D01*
X89456Y268245D01*
X89608Y268333D01*
X89761Y268416D01*
X89782Y268433D01*
X89805Y268446D01*
X90058Y268661D01*
X90933Y269536D01*
X90950Y269556D01*
X90970Y269574D01*
X91077Y269712D01*
X91188Y269847D01*
X91200Y269871D01*
X91217Y269892D01*
X91295Y270049D01*
X91377Y270203D01*
X91384Y270228D01*
X91396Y270252D01*
X91442Y270422D01*
X91491Y270589D01*
X91494Y270615D01*
X91501Y270641D01*
X91528Y270972D01*
X91528Y273138D01*
X91526Y273156D01*
X91527Y273174D01*
X91506Y273356D01*
X91488Y273539D01*
X91483Y273556D01*
X91481Y273574D01*
X91424Y273748D01*
X91370Y273924D01*
X91361Y273939D01*
X91356Y273956D01*
X91266Y274116D01*
X91178Y274278D01*
X91167Y274291D01*
X91158Y274307D01*
X91038Y274446D01*
X90920Y274587D01*
X90906Y274598D01*
X90895Y274612D01*
X90750Y274724D01*
X90606Y274839D01*
X90591Y274848D01*
X90577Y274859D01*
X90412Y274941D01*
X90249Y275025D01*
X90232Y275030D01*
X90216Y275038D01*
X90038Y275086D01*
X89862Y275136D01*
X89844Y275138D01*
X89827Y275142D01*
X89497Y275170D01*
X89415Y275170D01*
X88076Y276509D01*
X88076Y293403D01*
X89415Y294743D01*
X89497Y294743D01*
X89514Y294745D01*
X89532Y294743D01*
X89714Y294765D01*
X89897Y294783D01*
X89914Y294788D01*
X89932Y294790D01*
X90106Y294847D01*
X90282Y294901D01*
X90298Y294910D01*
X90315Y294915D01*
X90475Y295005D01*
X90636Y295093D01*
X90650Y295104D01*
X90665Y295113D01*
X90805Y295233D01*
X90945Y295351D01*
X90957Y295364D01*
X90970Y295376D01*
X91083Y295521D01*
X91198Y295664D01*
X91206Y295680D01*
X91217Y295694D01*
X91299Y295859D01*
X91383Y296022D01*
X91388Y296039D01*
X91396Y296055D01*
X91444Y296233D01*
X91495Y296409D01*
X91496Y296426D01*
X91501Y296444D01*
X91528Y296774D01*
X91528Y298742D01*
X92340Y300703D01*
X94609Y302973D01*
X96570Y303785D01*
X134411Y303785D01*
X136372Y302973D01*
X142635Y296709D01*
X142697Y296559D01*
X142708Y296540D01*
X142715Y296519D01*
X142803Y296362D01*
X142887Y296205D01*
X142902Y296187D01*
X142913Y296168D01*
X143030Y296032D01*
X143144Y295894D01*
X143161Y295880D01*
X143176Y295863D01*
X143317Y295754D01*
X143456Y295640D01*
X143476Y295630D01*
X143494Y295616D01*
X143654Y295537D01*
X143813Y295453D01*
X143834Y295447D01*
X143854Y295437D01*
X144027Y295391D01*
X144199Y295340D01*
X144222Y295338D01*
X144243Y295333D01*
X144574Y295305D01*
X146560Y295305D01*
X147899Y293966D01*
X147899Y279072D01*
X147283Y278455D01*
X147271Y278441D01*
X147258Y278430D01*
X147144Y278285D01*
X147028Y278144D01*
X147019Y278128D01*
X147008Y278114D01*
X146925Y277950D01*
X146839Y277788D01*
X146834Y277771D01*
X146826Y277755D01*
X146777Y277578D01*
X146724Y277402D01*
X146723Y277384D01*
X146718Y277367D01*
X146704Y277184D01*
X146688Y277001D01*
X146690Y276983D01*
X146688Y276965D01*
X146711Y276783D01*
X146731Y276601D01*
X146737Y276584D01*
X146739Y276566D01*
X146797Y276392D01*
X146853Y276217D01*
X146861Y276201D01*
X146867Y276184D01*
X146959Y276026D01*
X147048Y275865D01*
X147059Y275851D01*
X147068Y275835D01*
X147283Y275582D01*
X147911Y274954D01*
X147921Y274873D01*
X147939Y274690D01*
X147944Y274673D01*
X147946Y274656D01*
X148003Y274481D01*
X148057Y274305D01*
X148066Y274290D01*
X148071Y274273D01*
X148162Y274113D01*
X148249Y273951D01*
X148260Y273938D01*
X148269Y273922D01*
X148389Y273783D01*
X148507Y273642D01*
X148521Y273631D01*
X148532Y273617D01*
X148677Y273505D01*
X148821Y273390D01*
X148836Y273382D01*
X148850Y273371D01*
X149015Y273289D01*
X149178Y273204D01*
X149195Y273199D01*
X149211Y273191D01*
X149389Y273144D01*
X149565Y273093D01*
X149583Y273091D01*
X149600Y273087D01*
X149930Y273060D01*
X150303Y273060D01*
X150330Y273062D01*
X150356Y273060D01*
X150530Y273082D01*
X150704Y273100D01*
X150729Y273107D01*
X150756Y273111D01*
X150922Y273166D01*
X151089Y273218D01*
X151112Y273231D01*
X151138Y273239D01*
X151289Y273326D01*
X151443Y273410D01*
X151463Y273427D01*
X151486Y273440D01*
X151739Y273655D01*
X153097Y275012D01*
X165991Y275012D01*
X167330Y273672D01*
X167330Y261778D01*
X165991Y260438D01*
X153097Y260438D01*
X151739Y261795D01*
X151719Y261812D01*
X151701Y261833D01*
X151563Y261940D01*
X151428Y262050D01*
X151404Y262063D01*
X151383Y262079D01*
X151226Y262157D01*
X151072Y262239D01*
X151047Y262247D01*
X151023Y262259D01*
X150853Y262304D01*
X150686Y262354D01*
X150660Y262356D01*
X150634Y262363D01*
X150303Y262390D01*
X149930Y262390D01*
X149913Y262388D01*
X149895Y262390D01*
X149713Y262369D01*
X149530Y262350D01*
X149513Y262345D01*
X149495Y262343D01*
X149321Y262286D01*
X149145Y262232D01*
X149129Y262224D01*
X149112Y262218D01*
X148952Y262128D01*
X148791Y262040D01*
X148777Y262029D01*
X148762Y262020D01*
X148622Y261900D01*
X148482Y261783D01*
X148470Y261769D01*
X148457Y261757D01*
X148344Y261612D01*
X148229Y261469D01*
X148221Y261453D01*
X148210Y261439D01*
X148128Y261274D01*
X148044Y261112D01*
X148039Y261095D01*
X148031Y261079D01*
X147983Y260900D01*
X147932Y260725D01*
X147931Y260707D01*
X147926Y260690D01*
X147899Y260359D01*
X147899Y260072D01*
X146560Y258732D01*
X129665Y258732D01*
X128326Y260072D01*
X128326Y260128D01*
X128324Y260146D01*
X128325Y260163D01*
X128304Y260346D01*
X128286Y260528D01*
X128281Y260545D01*
X128279Y260563D01*
X128222Y260738D01*
X128168Y260913D01*
X128159Y260929D01*
X128154Y260946D01*
X128063Y261106D01*
X127976Y261267D01*
X127965Y261281D01*
X127956Y261297D01*
X127836Y261436D01*
X127718Y261577D01*
X127704Y261588D01*
X127693Y261601D01*
X127548Y261714D01*
X127404Y261829D01*
X127389Y261837D01*
X127375Y261848D01*
X127210Y261930D01*
X127047Y262014D01*
X127030Y262019D01*
X127014Y262027D01*
X126836Y262075D01*
X126660Y262126D01*
X126642Y262127D01*
X126625Y262132D01*
X126295Y262159D01*
X124680Y262159D01*
X124663Y262157D01*
X124645Y262159D01*
X124463Y262137D01*
X124280Y262119D01*
X124263Y262114D01*
X124245Y262112D01*
X124071Y262055D01*
X123895Y262001D01*
X123879Y261992D01*
X123862Y261987D01*
X123702Y261897D01*
X123541Y261809D01*
X123527Y261798D01*
X123512Y261789D01*
X123372Y261669D01*
X123232Y261551D01*
X123220Y261538D01*
X123207Y261526D01*
X123094Y261381D01*
X122979Y261238D01*
X122971Y261222D01*
X122960Y261208D01*
X122878Y261043D01*
X122794Y260880D01*
X122789Y260863D01*
X122781Y260847D01*
X122733Y260669D01*
X122682Y260493D01*
X122681Y260476D01*
X122676Y260458D01*
X122649Y260128D01*
X122649Y256784D01*
X120792Y254927D01*
X120775Y254906D01*
X120755Y254889D01*
X120648Y254751D01*
X120537Y254615D01*
X120525Y254592D01*
X120508Y254571D01*
X120430Y254414D01*
X120348Y254260D01*
X120341Y254234D01*
X120329Y254210D01*
X120283Y254041D01*
X120234Y253874D01*
X120231Y253847D01*
X120224Y253821D01*
X120197Y253491D01*
X120197Y250618D01*
X120199Y250600D01*
X120198Y250582D01*
X120219Y250400D01*
X120237Y250217D01*
X120242Y250200D01*
X120244Y250183D01*
X120301Y250008D01*
X120355Y249832D01*
X120364Y249817D01*
X120369Y249800D01*
X120460Y249639D01*
X120547Y249478D01*
X120558Y249465D01*
X120567Y249449D01*
X120687Y249310D01*
X120805Y249169D01*
X120819Y249158D01*
X120830Y249144D01*
X120975Y249032D01*
X121119Y248917D01*
X121134Y248909D01*
X121148Y248898D01*
X121313Y248816D01*
X121476Y248731D01*
X121493Y248726D01*
X121509Y248718D01*
X121687Y248671D01*
X121863Y248620D01*
X121881Y248618D01*
X121898Y248614D01*
X122092Y248598D01*
X123443Y247247D01*
X123443Y246062D01*
X123445Y246045D01*
X123443Y246027D01*
X123465Y245845D01*
X123483Y245662D01*
X123488Y245645D01*
X123490Y245627D01*
X123547Y245453D01*
X123601Y245277D01*
X123610Y245261D01*
X123615Y245244D01*
X123706Y245083D01*
X123793Y244923D01*
X123804Y244909D01*
X123813Y244894D01*
X123933Y244754D01*
X124051Y244614D01*
X124064Y244602D01*
X124076Y244589D01*
X124221Y244476D01*
X124364Y244361D01*
X124380Y244353D01*
X124394Y244342D01*
X124559Y244260D01*
X124722Y244176D01*
X124739Y244171D01*
X124755Y244163D01*
X124933Y244115D01*
X125109Y244064D01*
X125126Y244063D01*
X125144Y244058D01*
X125474Y244031D01*
X132165Y244031D01*
X134098Y243230D01*
X134111Y243226D01*
X134123Y243220D01*
X134303Y243169D01*
X134484Y243114D01*
X134497Y243113D01*
X134510Y243109D01*
X134698Y243094D01*
X134885Y243076D01*
X134898Y243077D01*
X134911Y243076D01*
X135098Y243098D01*
X135285Y243117D01*
X135298Y243121D01*
X135311Y243123D01*
X135490Y243181D01*
X135670Y243237D01*
X135681Y243244D01*
X135694Y243248D01*
X135858Y243341D01*
X136023Y243431D01*
X136033Y243439D01*
X136045Y243446D01*
X136187Y243569D01*
X136331Y243690D01*
X136339Y243700D01*
X136349Y243709D01*
X136464Y243857D01*
X136582Y244004D01*
X136588Y244016D01*
X136596Y244027D01*
X136680Y244195D01*
X136766Y244363D01*
X136769Y244375D01*
X136775Y244387D01*
X136825Y244570D01*
X136875Y244750D01*
X136876Y244763D01*
X136880Y244776D01*
X136907Y245107D01*
X136907Y252422D01*
X138247Y253762D01*
X144141Y253762D01*
X145481Y252422D01*
X145481Y240503D01*
X145483Y240477D01*
X145481Y240450D01*
X145503Y240276D01*
X145520Y240103D01*
X145528Y240077D01*
X145532Y240051D01*
X145587Y239885D01*
X145639Y239718D01*
X145651Y239694D01*
X145660Y239669D01*
X145747Y239518D01*
X145830Y239364D01*
X145847Y239343D01*
X145861Y239320D01*
X146075Y239067D01*
X151106Y234037D01*
X151120Y234025D01*
X151131Y234012D01*
X151275Y233898D01*
X151417Y233781D01*
X151433Y233773D01*
X151447Y233762D01*
X151611Y233679D01*
X151773Y233593D01*
X151790Y233588D01*
X151806Y233580D01*
X151984Y233530D01*
X152159Y233478D01*
X152177Y233476D01*
X152194Y233472D01*
X152377Y233458D01*
X152560Y233442D01*
X152578Y233444D01*
X152596Y233442D01*
X152778Y233465D01*
X152960Y233485D01*
X152977Y233490D01*
X152995Y233493D01*
X153169Y233551D01*
X153344Y233607D01*
X153360Y233615D01*
X153377Y233621D01*
X153536Y233713D01*
X153697Y233801D01*
X153710Y233813D01*
X153726Y233822D01*
X153979Y234037D01*
X160312Y240370D01*
X160329Y240391D01*
X160349Y240408D01*
X160456Y240546D01*
X160567Y240681D01*
X160580Y240705D01*
X160596Y240726D01*
X160674Y240883D01*
X160756Y241037D01*
X160763Y241063D01*
X160775Y241087D01*
X160821Y241256D01*
X160871Y241423D01*
X160873Y241450D01*
X160880Y241476D01*
X160907Y241806D01*
X160907Y252422D01*
X162247Y253762D01*
X168141Y253762D01*
X169480Y252422D01*
X169480Y238157D01*
X169482Y238139D01*
X169481Y238121D01*
X169502Y237939D01*
X169520Y237756D01*
X169526Y237739D01*
X169528Y237721D01*
X169585Y237547D01*
X169638Y237371D01*
X169647Y237356D01*
X169653Y237339D01*
X169743Y237178D01*
X169830Y237017D01*
X169842Y237004D01*
X169850Y236988D01*
X169971Y236848D01*
X170088Y236708D01*
X170102Y236697D01*
X170114Y236683D01*
X170259Y236571D01*
X170402Y236456D01*
X170418Y236447D01*
X170432Y236436D01*
X170597Y236354D01*
X170759Y236270D01*
X170776Y236265D01*
X170792Y236257D01*
X170970Y236209D01*
X171146Y236159D01*
X171164Y236157D01*
X171181Y236153D01*
X171512Y236125D01*
X174911Y236125D01*
X174929Y236127D01*
X174946Y236126D01*
X175129Y236147D01*
X175311Y236165D01*
X175328Y236171D01*
X175346Y236173D01*
X175521Y236230D01*
X175696Y236284D01*
X175712Y236292D01*
X175729Y236298D01*
X175889Y236388D01*
X176050Y236475D01*
X176064Y236487D01*
X176080Y236495D01*
X176219Y236616D01*
X176360Y236733D01*
X176371Y236747D01*
X176384Y236759D01*
X176497Y236904D01*
X176612Y237047D01*
X176620Y237063D01*
X176631Y237077D01*
X176713Y237242D01*
X176797Y237404D01*
X176802Y237421D01*
X176810Y237437D01*
X176858Y237615D01*
X176909Y237791D01*
X176910Y237809D01*
X176915Y237826D01*
X176942Y238157D01*
X176942Y289109D01*
X176939Y289135D01*
X176941Y289162D01*
X176919Y289336D01*
X176902Y289509D01*
X176894Y289535D01*
X176891Y289561D01*
X176835Y289727D01*
X176784Y289894D01*
X176771Y289918D01*
X176763Y289943D01*
X176675Y290095D01*
X176592Y290248D01*
X176575Y290269D01*
X176562Y290292D01*
X176347Y290545D01*
X156956Y309936D01*
X156942Y309947D01*
X156931Y309961D01*
X156787Y310074D01*
X156645Y310191D01*
X156629Y310199D01*
X156615Y310210D01*
X156451Y310294D01*
X156289Y310380D01*
X156272Y310385D01*
X156256Y310393D01*
X156079Y310442D01*
X155903Y310494D01*
X155885Y310496D01*
X155868Y310501D01*
X155685Y310514D01*
X155502Y310531D01*
X155484Y310529D01*
X155467Y310530D01*
X155284Y310507D01*
X155102Y310487D01*
X155085Y310482D01*
X155067Y310480D01*
X154893Y310421D01*
X154718Y310366D01*
X154702Y310357D01*
X154685Y310352D01*
X154527Y310260D01*
X154366Y310171D01*
X154352Y310159D01*
X154337Y310151D01*
X154084Y309936D01*
X152535Y308387D01*
X144328Y308387D01*
X138525Y314190D01*
X138525Y314532D01*
X138523Y314550D01*
X138524Y314568D01*
X138503Y314750D01*
X138485Y314933D01*
X138479Y314950D01*
X138477Y314967D01*
X138421Y315141D01*
X138366Y315318D01*
X138358Y315333D01*
X138352Y315350D01*
X138262Y315510D01*
X138175Y315672D01*
X138163Y315685D01*
X138155Y315701D01*
X138034Y315840D01*
X137917Y315981D01*
X137903Y315992D01*
X137891Y316006D01*
X137746Y316118D01*
X137603Y316233D01*
X137587Y316241D01*
X137573Y316252D01*
X137408Y316334D01*
X137246Y316419D01*
X137229Y316424D01*
X137213Y316432D01*
X137035Y316479D01*
X136859Y316530D01*
X136841Y316532D01*
X136824Y316536D01*
X136493Y316563D01*
X123497Y316563D01*
X122157Y317903D01*
X122157Y329797D01*
X123497Y331137D01*
X136391Y331137D01*
X137748Y329780D01*
X137769Y329763D01*
X137786Y329742D01*
X137924Y329635D01*
X138060Y329525D01*
X138083Y329512D01*
X138104Y329496D01*
X138261Y329418D01*
X138415Y329336D01*
X138441Y329328D01*
X138465Y329316D01*
X138634Y329271D01*
X138801Y329221D01*
X138828Y329219D01*
X138854Y329212D01*
X139184Y329185D01*
X144730Y329185D01*
X146733Y328355D01*
X146763Y328346D01*
X146791Y328332D01*
X146955Y328288D01*
X147118Y328239D01*
X147149Y328236D01*
X147179Y328228D01*
X147510Y328200D01*
X152535Y328200D01*
X158338Y322397D01*
X158338Y320174D01*
X158341Y320147D01*
X158339Y320120D01*
X158361Y319947D01*
X158378Y319773D01*
X158386Y319748D01*
X158389Y319721D01*
X158445Y319555D01*
X158496Y319388D01*
X158509Y319365D01*
X158517Y319339D01*
X158605Y319188D01*
X158688Y319034D01*
X158705Y319014D01*
X158718Y318990D01*
X158933Y318737D01*
X179666Y298005D01*
X179673Y297999D01*
X179678Y297992D01*
X179828Y297872D01*
X179977Y297750D01*
X179985Y297745D01*
X179992Y297740D01*
X180163Y297651D01*
X180333Y297561D01*
X180341Y297558D01*
X180349Y297554D01*
X180535Y297501D01*
X180719Y297446D01*
X180728Y297445D01*
X180736Y297443D01*
X180928Y297427D01*
X181120Y297410D01*
X181129Y297411D01*
X181138Y297410D01*
X181327Y297432D01*
X181520Y297453D01*
X181529Y297456D01*
X181537Y297457D01*
X181719Y297516D01*
X181904Y297575D01*
X181912Y297579D01*
X181920Y297582D01*
X182089Y297677D01*
X182256Y297770D01*
X182263Y297775D01*
X182271Y297780D01*
X182417Y297906D01*
X182563Y298030D01*
X182569Y298037D01*
X182576Y298043D01*
X182693Y298194D01*
X182813Y298346D01*
X182817Y298354D01*
X182822Y298361D01*
X182908Y298533D01*
X182995Y298705D01*
X182998Y298713D01*
X183002Y298722D01*
X183052Y298908D01*
X183103Y299093D01*
X183104Y299102D01*
X183106Y299110D01*
X183133Y299441D01*
X183133Y302822D01*
X185960Y305650D01*
X189803Y309492D01*
X189817Y309510D01*
X189834Y309524D01*
X189945Y309665D01*
X190058Y309804D01*
X190069Y309824D01*
X190083Y309841D01*
X190163Y310001D01*
X190247Y310160D01*
X190253Y310181D01*
X190263Y310201D01*
X190311Y310374D01*
X190362Y310546D01*
X190364Y310568D01*
X190370Y310589D01*
X190382Y310767D01*
X190398Y310946D01*
X190396Y310969D01*
X190397Y310991D01*
X190374Y311167D01*
X190355Y311347D01*
X190348Y311368D01*
X190345Y311390D01*
X190244Y311706D01*
X189988Y312324D01*
X189988Y314738D01*
X190911Y316969D01*
X192619Y318676D01*
X195015Y319669D01*
X195037Y319673D01*
X195159Y319720D01*
X195285Y319758D01*
X195347Y319792D01*
X195413Y319817D01*
X195524Y319887D01*
X195639Y319950D01*
X195693Y319995D01*
X195753Y320033D01*
X195847Y320124D01*
X195948Y320208D01*
X195992Y320263D01*
X196043Y320312D01*
X196118Y320419D01*
X196200Y320521D01*
X196233Y320584D01*
X196273Y320642D01*
X196325Y320762D01*
X196386Y320879D01*
X196405Y320947D01*
X196433Y321012D01*
X196461Y321140D01*
X196497Y321266D01*
X196503Y321336D01*
X196518Y321405D01*
X196519Y321536D01*
X196530Y321667D01*
X196522Y321737D01*
X196523Y321808D01*
X196498Y321937D01*
X196483Y322067D01*
X196461Y322134D01*
X196448Y322203D01*
X196385Y322367D01*
X196358Y322449D01*
X196350Y322465D01*
X196347Y322473D01*
X196339Y322487D01*
X196329Y322513D01*
X196028Y323137D01*
X196037Y323188D01*
X196032Y323314D01*
X196037Y323439D01*
X196025Y323514D01*
X196022Y323591D01*
X195987Y323750D01*
X195973Y323836D01*
X195960Y323870D01*
X195950Y323915D01*
X195694Y324743D01*
X195665Y324814D01*
X195644Y324887D01*
X195587Y324999D01*
X195538Y325114D01*
X195495Y325177D01*
X195460Y325246D01*
X195382Y325343D01*
X195319Y325436D01*
X195188Y326307D01*
X195171Y326372D01*
X195120Y326603D01*
X194858Y327451D01*
X194874Y327501D01*
X194888Y327625D01*
X194912Y327748D01*
X194911Y327824D01*
X194920Y327901D01*
X194909Y328063D01*
X194908Y328150D01*
X194900Y328186D01*
X194897Y328232D01*
X194768Y329089D01*
X194749Y329163D01*
X194739Y329239D01*
X194699Y329357D01*
X194668Y329479D01*
X194635Y329548D01*
X194611Y329620D01*
X194548Y329729D01*
X194500Y329829D01*
X194500Y330711D01*
X194493Y330777D01*
X194477Y331013D01*
X194344Y331891D01*
X194367Y331937D01*
X194400Y332058D01*
X194441Y332177D01*
X194452Y332252D01*
X194472Y332326D01*
X194485Y332489D01*
X194497Y332575D01*
X194495Y332611D01*
X194499Y332657D01*
X194499Y333524D01*
X194491Y333600D01*
X194493Y333677D01*
X194471Y333800D01*
X194459Y333924D01*
X194436Y333998D01*
X194423Y334073D01*
X194377Y334190D01*
X194344Y334296D01*
X194475Y335168D01*
X194479Y335234D01*
X194498Y335470D01*
X194498Y336358D01*
X194528Y336400D01*
X194578Y336515D01*
X194637Y336626D01*
X194658Y336699D01*
X194689Y336769D01*
X194726Y336928D01*
X194751Y337012D01*
X194754Y337048D01*
X194765Y337092D01*
X194894Y337950D01*
X194898Y338026D01*
X194911Y338101D01*
X194908Y338227D01*
X194914Y338352D01*
X194903Y338427D01*
X194901Y338504D01*
X194873Y338626D01*
X194856Y338736D01*
X195116Y339578D01*
X195129Y339644D01*
X195183Y339874D01*
X195315Y340752D01*
X195351Y340790D01*
X195418Y340896D01*
X195493Y340997D01*
X195525Y341066D01*
X195566Y341131D01*
X195626Y341282D01*
X195663Y341361D01*
X195672Y341396D01*
X195689Y341439D01*
X195944Y342267D01*
X195959Y342342D01*
X195984Y342415D01*
X195999Y342539D01*
X196024Y342662D01*
X196024Y342738D01*
X196034Y342814D01*
X196024Y342939D01*
X196025Y343051D01*
X196407Y343845D01*
X196430Y343908D01*
X196517Y344127D01*
X196779Y344975D01*
X196821Y345008D01*
X196902Y345102D01*
X196990Y345191D01*
X197033Y345255D01*
X197083Y345313D01*
X197165Y345453D01*
X197214Y345526D01*
X197228Y345559D01*
X197251Y345600D01*
X197264Y345626D01*
X197312Y345760D01*
X197369Y345891D01*
X197381Y345949D01*
X197401Y346004D01*
X197423Y346145D01*
X197452Y346285D01*
X197453Y346344D01*
X197462Y346402D01*
X197455Y346545D01*
X197456Y346687D01*
X197445Y346746D01*
X197442Y346805D01*
X197407Y346943D01*
X197380Y347083D01*
X197358Y347138D01*
X197344Y347195D01*
X197282Y347324D01*
X197228Y347456D01*
X197196Y347505D01*
X197170Y347558D01*
X197084Y347672D01*
X197006Y347791D01*
X196964Y347833D01*
X196928Y347880D01*
X196822Y347975D01*
X196721Y348076D01*
X196666Y348115D01*
X196628Y348148D01*
X196557Y348190D01*
X196448Y348265D01*
X165716Y366008D01*
X166136Y366616D01*
X166147Y366643D01*
X166166Y366665D01*
X166186Y366734D01*
X166214Y366799D01*
X166214Y366828D01*
X166222Y366856D01*
X166214Y366927D01*
X166215Y366998D01*
X166203Y367025D01*
X166200Y367054D01*
X166165Y367116D01*
X166137Y367181D01*
X166117Y367202D01*
X166102Y367227D01*
X166025Y367290D01*
X165995Y367320D01*
X165985Y367324D01*
X165974Y367333D01*
X149474Y376833D01*
X149401Y376857D01*
X149331Y376888D01*
X149307Y376888D01*
X149285Y376896D01*
X149209Y376890D01*
X149132Y376891D01*
X149108Y376881D01*
X149087Y376880D01*
X149048Y376859D01*
X148976Y376833D01*
X132476Y367333D01*
X132454Y367314D01*
X132428Y367301D01*
X132380Y367248D01*
X132327Y367201D01*
X132314Y367175D01*
X132295Y367154D01*
X132272Y367086D01*
X132241Y367022D01*
X132240Y366993D01*
X132230Y366966D01*
X132235Y366894D01*
X132232Y366823D01*
X132242Y366796D01*
X132244Y366767D01*
X132286Y366677D01*
X132301Y366637D01*
X132308Y366629D01*
X132314Y366616D01*
X132734Y366008D01*
X102002Y348265D01*
X101886Y348182D01*
X101765Y348105D01*
X101723Y348064D01*
X101674Y348030D01*
X101577Y347926D01*
X101474Y347827D01*
X101441Y347779D01*
X101400Y347735D01*
X101326Y347614D01*
X101244Y347497D01*
X101221Y347443D01*
X101189Y347392D01*
X101140Y347258D01*
X101083Y347128D01*
X101071Y347070D01*
X101051Y347014D01*
X101029Y346874D01*
X100999Y346734D01*
X100998Y346675D01*
X100989Y346616D01*
X100995Y346474D01*
X100993Y346332D01*
X101004Y346273D01*
X101007Y346214D01*
X101041Y346076D01*
X101067Y345936D01*
X101092Y345873D01*
X101104Y345823D01*
X101139Y345749D01*
X101186Y345626D01*
X101199Y345600D01*
X101239Y345534D01*
X101271Y345463D01*
X101344Y345362D01*
X101408Y345256D01*
X101461Y345199D01*
X101506Y345136D01*
X101597Y345052D01*
X101673Y344969D01*
X101933Y344127D01*
X101959Y344066D01*
X102043Y343845D01*
X102428Y343045D01*
X102420Y342994D01*
X102424Y342868D01*
X102419Y342743D01*
X102431Y342668D01*
X102434Y342591D01*
X102469Y342432D01*
X102483Y342346D01*
X102496Y342312D01*
X102506Y342267D01*
X102761Y341439D01*
X102791Y341368D01*
X102811Y341294D01*
X102868Y341183D01*
X102917Y341068D01*
X102960Y341004D01*
X102995Y340936D01*
X103073Y340838D01*
X103136Y340746D01*
X103267Y339874D01*
X103283Y339810D01*
X103334Y339578D01*
X103595Y338730D01*
X103579Y338681D01*
X103565Y338556D01*
X103542Y338433D01*
X103542Y338357D01*
X103534Y338281D01*
X103545Y338118D01*
X103546Y338031D01*
X103553Y337996D01*
X103556Y337950D01*
X103685Y337092D01*
X103704Y337018D01*
X103713Y336942D01*
X103753Y336824D01*
X103784Y336702D01*
X103817Y336633D01*
X103842Y336561D01*
X103904Y336452D01*
X103952Y336352D01*
X103952Y335470D01*
X103959Y335403D01*
X103975Y335168D01*
X104107Y334290D01*
X104083Y334243D01*
X104051Y334123D01*
X104009Y334004D01*
X103998Y333928D01*
X103979Y333855D01*
X103965Y333692D01*
X103953Y333606D01*
X103955Y333570D01*
X103951Y333524D01*
X103951Y332657D01*
X103959Y332581D01*
X103957Y332504D01*
X103978Y332381D01*
X103991Y332256D01*
X104013Y332183D01*
X104027Y332108D01*
X104072Y331991D01*
X104105Y331885D01*
X103973Y331013D01*
X103970Y330946D01*
X103950Y330711D01*
X103950Y329823D01*
X103920Y329780D01*
X103870Y329666D01*
X103811Y329555D01*
X103789Y329482D01*
X103759Y329412D01*
X103721Y329253D01*
X103696Y329169D01*
X103693Y329133D01*
X103682Y329089D01*
X103553Y328232D01*
X103549Y328155D01*
X103536Y328080D01*
X103539Y327954D01*
X103533Y327829D01*
X103544Y327754D01*
X103546Y327677D01*
X103573Y327555D01*
X103590Y327445D01*
X103330Y326603D01*
X103317Y326537D01*
X103262Y326307D01*
X103130Y325430D01*
X103094Y325392D01*
X103027Y325286D01*
X102952Y325185D01*
X102920Y325116D01*
X102879Y325051D01*
X102818Y324900D01*
X102781Y324821D01*
X102773Y324786D01*
X102756Y324743D01*
X102500Y323915D01*
X102485Y323840D01*
X102460Y323767D01*
X102445Y323643D01*
X102420Y323520D01*
X102420Y323444D01*
X102410Y323368D01*
X102419Y323243D01*
X102419Y323131D01*
X102036Y322338D01*
X102013Y322274D01*
X101925Y322055D01*
X101664Y321207D01*
X101622Y321175D01*
X101541Y321080D01*
X101452Y320992D01*
X101409Y320928D01*
X101359Y320870D01*
X101277Y320730D01*
X101228Y320657D01*
X101215Y320624D01*
X101191Y320584D01*
X100815Y319803D01*
X100789Y319732D01*
X100754Y319663D01*
X100720Y319543D01*
X100677Y319425D01*
X100666Y319349D01*
X100645Y319276D01*
X100635Y319151D01*
X100618Y319041D01*
X100122Y318313D01*
X100089Y318253D01*
X99970Y318050D01*
X99586Y317254D01*
X99565Y317242D01*
X99555Y317234D01*
X99539Y317225D01*
X99444Y317143D01*
X99343Y317069D01*
X99298Y317020D01*
X99256Y316984D01*
X99249Y316976D01*
X99234Y316963D01*
X99131Y316836D01*
X99072Y316771D01*
X99054Y316741D01*
X99025Y316705D01*
X98536Y315989D01*
X98500Y315921D01*
X98455Y315859D01*
X98404Y315746D01*
X98343Y315635D01*
X98321Y315562D01*
X98289Y315493D01*
X98261Y315370D01*
X98228Y315264D01*
X97629Y314618D01*
X97588Y314565D01*
X97439Y314381D01*
X96939Y313648D01*
X96890Y313629D01*
X96784Y313563D01*
X96673Y313505D01*
X96614Y313456D01*
X96549Y313416D01*
X96429Y313305D01*
X96361Y313250D01*
X96338Y313223D01*
X96304Y313192D01*
X95714Y312556D01*
X95668Y312495D01*
X95615Y312441D01*
X95547Y312336D01*
X95471Y312236D01*
X95438Y312167D01*
X95396Y312103D01*
X95350Y311986D01*
X95302Y311886D01*
X94613Y311336D01*
X94565Y311290D01*
X94390Y311130D01*
X93786Y310480D01*
X93735Y310469D01*
X93620Y310419D01*
X93502Y310378D01*
X93436Y310339D01*
X93366Y310308D01*
X93231Y310217D01*
X93155Y310173D01*
X93129Y310149D01*
X93090Y310123D01*
X92413Y309583D01*
X92358Y309530D01*
X92297Y309483D01*
X92214Y309390D01*
X92124Y309302D01*
X92081Y309239D01*
X92030Y309182D01*
X91968Y309073D01*
X91904Y308981D01*
X91141Y308541D01*
X91087Y308502D01*
X90890Y308370D01*
X90196Y307817D01*
X90144Y307814D01*
X90023Y307781D01*
X89900Y307758D01*
X89829Y307730D01*
X89755Y307710D01*
X89608Y307640D01*
X89527Y307608D01*
X89497Y307588D01*
X89455Y307568D01*
X88704Y307135D01*
X88655Y307099D01*
X88630Y307086D01*
X88622Y307079D01*
X88575Y307054D01*
X88479Y306973D01*
X88377Y306900D01*
X88325Y306844D01*
X88267Y306795D01*
X88188Y306697D01*
X88112Y306616D01*
X87292Y306294D01*
X87232Y306263D01*
X87018Y306162D01*
X86250Y305719D01*
X86198Y305723D01*
X86073Y305710D01*
X85948Y305705D01*
X85874Y305687D01*
X85798Y305679D01*
X85641Y305632D01*
X85556Y305612D01*
X85524Y305597D01*
X85480Y305583D01*
X84673Y305267D01*
X84641Y305251D01*
X84627Y305246D01*
X84592Y305228D01*
X84533Y305206D01*
X84426Y305141D01*
X84314Y305084D01*
X84289Y305063D01*
X84273Y305055D01*
X84240Y305027D01*
X84189Y304996D01*
X84097Y304911D01*
X84010Y304842D01*
X83151Y304646D01*
X83087Y304624D01*
X82861Y304556D01*
X82035Y304232D01*
X81984Y304245D01*
X81859Y304250D01*
X81734Y304264D01*
X81658Y304257D01*
X81581Y304260D01*
X81420Y304237D01*
X81333Y304230D01*
X81299Y304220D01*
X81253Y304213D01*
X80408Y304021D01*
X80335Y303996D01*
X80260Y303981D01*
X80145Y303932D01*
X80026Y303893D01*
X79960Y303855D01*
X79889Y303825D01*
X79785Y303754D01*
X79689Y303699D01*
X78810Y303633D01*
X78744Y303622D01*
X78510Y303588D01*
X77645Y303391D01*
X77596Y303411D01*
X77474Y303434D01*
X77353Y303467D01*
X77276Y303472D01*
X77201Y303486D01*
X77038Y303487D01*
X76951Y303493D01*
X76915Y303488D01*
X76869Y303488D01*
X76005Y303424D01*
X75929Y303411D01*
X75853Y303407D01*
X75732Y303376D01*
X75608Y303354D01*
X75537Y303327D01*
X75463Y303308D01*
X75350Y303253D01*
X75246Y303213D01*
X74367Y303279D01*
X74299Y303277D01*
X74064Y303279D01*
X73179Y303213D01*
X73134Y303240D01*
X73016Y303281D01*
X72901Y303332D01*
X72826Y303348D01*
X72754Y303373D01*
X72592Y303399D01*
X72508Y303417D01*
X72472Y303418D01*
X72426Y303425D01*
X71562Y303490D01*
X71485Y303488D01*
X71409Y303496D01*
X71285Y303484D01*
X71159Y303480D01*
X71085Y303464D01*
X71009Y303456D01*
X70889Y303419D01*
X70780Y303395D01*
X69921Y303591D01*
X69854Y303599D01*
X69621Y303636D01*
X68496Y303721D01*
X68395Y303750D01*
X68287Y303791D01*
X68202Y303805D01*
X68120Y303829D01*
X68004Y303839D01*
X67889Y303858D01*
X67804Y303855D01*
X67719Y303862D01*
X67603Y303848D01*
X67487Y303845D01*
X67404Y303825D01*
X67319Y303815D01*
X67209Y303779D01*
X67095Y303752D01*
X67018Y303717D01*
X66936Y303690D01*
X66835Y303633D01*
X66729Y303585D01*
X66660Y303534D01*
X66586Y303492D01*
X66498Y303416D01*
X66403Y303348D01*
X66346Y303285D01*
X66281Y303229D01*
X66210Y303137D01*
X66131Y303052D01*
X66087Y302979D01*
X66034Y302911D01*
X65982Y302807D01*
X65922Y302707D01*
X65893Y302627D01*
X65855Y302551D01*
X65825Y302438D01*
X65785Y302329D01*
X65773Y302244D01*
X65750Y302162D01*
X65738Y302015D01*
X65726Y301931D01*
X65728Y301887D01*
X65723Y301831D01*
X65723Y244948D01*
X65726Y244922D01*
X65724Y244895D01*
X65746Y244721D01*
X65763Y244548D01*
X65771Y244522D01*
X65774Y244495D01*
X65830Y244330D01*
X65881Y244163D01*
X65894Y244139D01*
X65903Y244114D01*
X65990Y243962D01*
X66073Y243809D01*
X66090Y243788D01*
X66103Y243765D01*
X66318Y243512D01*
X91640Y218190D01*
X91661Y218173D01*
X91678Y218153D01*
X91816Y218046D01*
X91952Y217935D01*
X91975Y217922D01*
X91996Y217906D01*
X92153Y217828D01*
X92307Y217746D01*
X92333Y217739D01*
X92357Y217727D01*
X92526Y217681D01*
X92693Y217631D01*
X92720Y217629D01*
X92746Y217622D01*
X93076Y217595D01*
X112548Y217595D01*
X113888Y216255D01*
X113888Y166810D01*
X112548Y165471D01*
X102526Y165471D01*
X101187Y166810D01*
X101187Y168440D01*
X101185Y168458D01*
X101186Y168476D01*
X101165Y168658D01*
X101147Y168841D01*
X101141Y168858D01*
X101139Y168876D01*
X101082Y169050D01*
X101028Y169226D01*
X101020Y169241D01*
X101014Y169258D01*
X100924Y169419D01*
X100837Y169580D01*
X100825Y169593D01*
X100817Y169609D01*
X100696Y169748D01*
X100579Y169889D01*
X100565Y169900D01*
X100553Y169914D01*
X100408Y170026D01*
X100265Y170141D01*
X100249Y170150D01*
X100235Y170161D01*
X100070Y170243D01*
X99908Y170327D01*
X99891Y170332D01*
X99875Y170340D01*
X99697Y170388D01*
X99521Y170438D01*
X99503Y170440D01*
X99486Y170444D01*
X99155Y170472D01*
X97502Y170472D01*
X97475Y170469D01*
X97449Y170471D01*
X97275Y170449D01*
X97101Y170432D01*
X97076Y170424D01*
X97049Y170420D01*
X96883Y170365D01*
X96716Y170313D01*
X96693Y170301D01*
X96667Y170292D01*
X96538Y170218D01*
X93250Y170218D01*
X69435Y194032D01*
X69415Y194049D01*
X69397Y194069D01*
X69259Y194176D01*
X69124Y194287D01*
X69100Y194299D01*
X69079Y194316D01*
X68922Y194394D01*
X68768Y194476D01*
X68743Y194483D01*
X68718Y194495D01*
X68549Y194541D01*
X68382Y194590D01*
X68356Y194593D01*
X68330Y194600D01*
X67999Y194627D01*
X29350Y194627D01*
X29184Y194610D01*
X29017Y194599D01*
X28984Y194590D01*
X28949Y194587D01*
X28790Y194538D01*
X28629Y194495D01*
X28597Y194479D01*
X28564Y194469D01*
X28418Y194389D01*
X28268Y194315D01*
X28241Y194294D01*
X28210Y194277D01*
X28082Y194170D01*
X27950Y194068D01*
X27928Y194042D01*
X27901Y194019D01*
X27796Y193889D01*
X27687Y193763D01*
X27668Y193729D01*
X27648Y193705D01*
X27609Y193629D01*
X27520Y193477D01*
X27026Y192452D01*
X27003Y192389D01*
X26915Y192169D01*
X26654Y191321D01*
X26612Y191289D01*
X26531Y191195D01*
X26442Y191106D01*
X26399Y191042D01*
X26349Y190985D01*
X26267Y190844D01*
X26218Y190771D01*
X26205Y190738D01*
X26181Y190698D01*
X25806Y189919D01*
X25780Y189847D01*
X25745Y189779D01*
X25711Y189659D01*
X25668Y189541D01*
X25657Y189465D01*
X25636Y189392D01*
X25627Y189267D01*
X25610Y189156D01*
X25114Y188428D01*
X25081Y188369D01*
X24962Y188165D01*
X24577Y187366D01*
X24531Y187341D01*
X24436Y187259D01*
X24335Y187185D01*
X24284Y187128D01*
X24226Y187078D01*
X24123Y186952D01*
X24065Y186887D01*
X24046Y186856D01*
X24017Y186820D01*
X23530Y186106D01*
X23493Y186039D01*
X23449Y185977D01*
X23397Y185862D01*
X23337Y185752D01*
X23315Y185679D01*
X23283Y185610D01*
X23255Y185487D01*
X23222Y185381D01*
X22623Y184735D01*
X22582Y184681D01*
X22434Y184498D01*
X21934Y183764D01*
X21885Y183746D01*
X21779Y183679D01*
X21668Y183621D01*
X21609Y183573D01*
X21544Y183532D01*
X21424Y183422D01*
X21356Y183367D01*
X21333Y183339D01*
X21299Y183308D01*
X20711Y182674D01*
X20665Y182613D01*
X20611Y182559D01*
X20543Y182453D01*
X20468Y182353D01*
X20434Y182285D01*
X20393Y182220D01*
X20347Y182104D01*
X20298Y182003D01*
X19609Y181454D01*
X19561Y181407D01*
X19387Y181247D01*
X18783Y180597D01*
X18732Y180586D01*
X18618Y180536D01*
X18499Y180495D01*
X18433Y180456D01*
X18363Y180425D01*
X18228Y180335D01*
X18153Y180290D01*
X18126Y180266D01*
X18088Y180240D01*
X17412Y179701D01*
X17357Y179648D01*
X17296Y179602D01*
X17213Y179508D01*
X17123Y179420D01*
X17080Y179357D01*
X17030Y179300D01*
X16967Y179191D01*
X16904Y179099D01*
X16141Y178659D01*
X16086Y178619D01*
X15890Y178488D01*
X15196Y177934D01*
X15144Y177931D01*
X15023Y177899D01*
X14900Y177876D01*
X14829Y177847D01*
X14755Y177827D01*
X14607Y177757D01*
X14527Y177725D01*
X14497Y177705D01*
X14455Y177685D01*
X13706Y177253D01*
X13644Y177208D01*
X13577Y177172D01*
X13481Y177091D01*
X13379Y177018D01*
X13327Y176962D01*
X13269Y176913D01*
X13190Y176815D01*
X13114Y176734D01*
X12294Y176412D01*
X12234Y176381D01*
X12021Y176280D01*
X11252Y175836D01*
X11200Y175841D01*
X11076Y175827D01*
X10950Y175822D01*
X10876Y175805D01*
X10800Y175796D01*
X10644Y175749D01*
X10559Y175729D01*
X10526Y175714D01*
X10482Y175701D01*
X9677Y175385D01*
X9609Y175350D01*
X9537Y175324D01*
X9431Y175258D01*
X9319Y175201D01*
X9259Y175153D01*
X9194Y175114D01*
X9102Y175029D01*
X9014Y174959D01*
X8155Y174763D01*
X8092Y174742D01*
X7865Y174674D01*
X7039Y174349D01*
X6989Y174362D01*
X6863Y174366D01*
X6739Y174381D01*
X6663Y174374D01*
X6586Y174377D01*
X6425Y174354D01*
X6338Y174346D01*
X6303Y174336D01*
X6258Y174330D01*
X5415Y174137D01*
X5342Y174113D01*
X5267Y174098D01*
X5152Y174049D01*
X5033Y174009D01*
X4967Y173971D01*
X4896Y173942D01*
X4793Y173871D01*
X4696Y173815D01*
X3817Y173750D01*
X3751Y173738D01*
X3517Y173704D01*
X2652Y173507D01*
X2605Y173526D01*
X2481Y173550D01*
X2360Y173583D01*
X2284Y173587D01*
X2210Y173602D01*
X2045Y173603D01*
X2020Y173605D01*
X1975Y173608D01*
X1971Y173608D01*
X1958Y173609D01*
X1923Y173604D01*
X1878Y173604D01*
X1861Y173603D01*
X1719Y173578D01*
X1576Y173561D01*
X1521Y173543D01*
X1464Y173533D01*
X1330Y173481D01*
X1193Y173436D01*
X1143Y173408D01*
X1089Y173387D01*
X968Y173309D01*
X842Y173239D01*
X798Y173201D01*
X750Y173170D01*
X647Y173070D01*
X537Y172975D01*
X502Y172930D01*
X461Y172890D01*
X379Y172771D01*
X291Y172657D01*
X265Y172606D01*
X232Y172558D01*
X175Y172426D01*
X111Y172297D01*
X96Y172241D01*
X74Y172188D01*
X44Y172047D01*
X7Y171908D01*
X1Y171842D01*
X-9Y171794D01*
X-9Y171711D01*
X-20Y171577D01*
X-20Y136078D01*
X-753Y136137D01*
X-782Y136134D01*
X-810Y136138D01*
X-880Y136122D01*
X-951Y136113D01*
X-976Y136099D01*
X-1004Y136092D01*
X-1061Y136050D01*
X-1123Y136014D01*
X-1141Y135991D01*
X-1164Y135974D01*
X-1200Y135913D01*
X-1243Y135856D01*
X-1250Y135828D01*
X-1265Y135803D01*
X-1282Y135704D01*
X-1292Y135663D01*
X-1290Y135652D01*
X-1293Y135639D01*
X-1270Y116599D01*
X-1254Y116524D01*
X-1246Y116448D01*
X-1235Y116427D01*
X-1230Y116405D01*
X-1186Y116341D01*
X-1149Y116274D01*
X-1129Y116258D01*
X-1117Y116241D01*
X-1080Y116217D01*
X-1021Y116168D01*
X15457Y106629D01*
X15484Y106619D01*
X15508Y106603D01*
X15577Y106588D01*
X15645Y106565D01*
X15674Y106567D01*
X15702Y106561D01*
X15772Y106575D01*
X15843Y106580D01*
X15869Y106594D01*
X15897Y106599D01*
X15957Y106639D01*
X16020Y106672D01*
X16038Y106694D01*
X16062Y106710D01*
X16120Y106792D01*
X16147Y106825D01*
X16150Y106835D01*
X16158Y106847D01*
X16474Y107513D01*
X47203Y89772D01*
X47333Y89714D01*
X47459Y89648D01*
X47516Y89631D01*
X47570Y89606D01*
X47709Y89575D01*
X47845Y89535D01*
X47904Y89530D01*
X47962Y89516D01*
X48105Y89512D01*
X48246Y89500D01*
X48305Y89507D01*
G37*
G36*
X149241Y29511D02*
X149241Y29511D01*
X149318Y29510D01*
X149342Y29519D01*
X149363Y29520D01*
X149402Y29541D01*
X149474Y29567D01*
X165974Y39067D01*
X165996Y39086D01*
X166022Y39099D01*
X166056Y39137D01*
X166059Y39139D01*
X166062Y39143D01*
X166070Y39152D01*
X166123Y39199D01*
X166136Y39225D01*
X166155Y39247D01*
X166178Y39314D01*
X166209Y39378D01*
X166211Y39407D01*
X166220Y39434D01*
X166215Y39506D01*
X166218Y39577D01*
X166208Y39604D01*
X166206Y39633D01*
X166164Y39723D01*
X166149Y39763D01*
X166142Y39771D01*
X166136Y39784D01*
X165716Y40392D01*
X196448Y58135D01*
X196564Y58218D01*
X196685Y58295D01*
X196727Y58336D01*
X196776Y58370D01*
X196873Y58474D01*
X196976Y58573D01*
X197009Y58621D01*
X197050Y58665D01*
X197124Y58786D01*
X197206Y58903D01*
X197229Y58957D01*
X197261Y59008D01*
X197310Y59142D01*
X197367Y59272D01*
X197379Y59330D01*
X197399Y59386D01*
X197421Y59526D01*
X197451Y59666D01*
X197452Y59725D01*
X197461Y59784D01*
X197455Y59926D01*
X197457Y60068D01*
X197446Y60127D01*
X197443Y60186D01*
X197409Y60324D01*
X197383Y60464D01*
X197358Y60527D01*
X197346Y60577D01*
X197311Y60651D01*
X197264Y60774D01*
X197251Y60800D01*
X197211Y60866D01*
X197179Y60937D01*
X197106Y61038D01*
X197042Y61144D01*
X196989Y61201D01*
X196944Y61264D01*
X196853Y61348D01*
X196777Y61431D01*
X196517Y62273D01*
X196491Y62335D01*
X196460Y62417D01*
X196442Y62473D01*
X196432Y62491D01*
X196407Y62555D01*
X196022Y63355D01*
X196030Y63406D01*
X196026Y63532D01*
X196031Y63657D01*
X196019Y63732D01*
X196016Y63809D01*
X195981Y63968D01*
X195967Y64054D01*
X195954Y64088D01*
X195944Y64133D01*
X195689Y64961D01*
X195659Y65032D01*
X195639Y65106D01*
X195582Y65217D01*
X195533Y65332D01*
X195490Y65396D01*
X195455Y65464D01*
X195377Y65562D01*
X195314Y65654D01*
X195183Y66526D01*
X195167Y66590D01*
X195116Y66822D01*
X194855Y67670D01*
X194871Y67719D01*
X194885Y67844D01*
X194908Y67967D01*
X194908Y68043D01*
X194916Y68119D01*
X194905Y68282D01*
X194904Y68369D01*
X194897Y68404D01*
X194894Y68450D01*
X194765Y69308D01*
X194746Y69382D01*
X194737Y69458D01*
X194697Y69576D01*
X194666Y69698D01*
X194633Y69767D01*
X194608Y69839D01*
X194546Y69948D01*
X194498Y70048D01*
X194498Y70930D01*
X194491Y70997D01*
X194475Y71232D01*
X194344Y72110D01*
X194367Y72157D01*
X194399Y72277D01*
X194441Y72396D01*
X194452Y72472D01*
X194472Y72545D01*
X194485Y72708D01*
X194497Y72794D01*
X194495Y72830D01*
X194499Y72876D01*
X194499Y73743D01*
X194491Y73819D01*
X194493Y73896D01*
X194472Y74019D01*
X194459Y74144D01*
X194437Y74217D01*
X194423Y74292D01*
X194378Y74409D01*
X194345Y74515D01*
X194477Y75387D01*
X194480Y75454D01*
X194500Y75689D01*
X194500Y76577D01*
X194530Y76619D01*
X194580Y76734D01*
X194639Y76845D01*
X194661Y76918D01*
X194691Y76988D01*
X194729Y77147D01*
X194754Y77231D01*
X194757Y77266D01*
X194768Y77311D01*
X194897Y78168D01*
X194901Y78245D01*
X194914Y78320D01*
X194911Y78446D01*
X194917Y78570D01*
X194906Y78646D01*
X194904Y78723D01*
X194876Y78845D01*
X194860Y78955D01*
X195120Y79797D01*
X195133Y79863D01*
X195188Y80093D01*
X195320Y80970D01*
X195356Y81008D01*
X195423Y81114D01*
X195498Y81215D01*
X195530Y81284D01*
X195571Y81349D01*
X195632Y81500D01*
X195669Y81579D01*
X195677Y81614D01*
X195694Y81657D01*
X195950Y82485D01*
X195965Y82560D01*
X195990Y82633D01*
X196005Y82757D01*
X196030Y82880D01*
X196030Y82956D01*
X196040Y83032D01*
X196031Y83157D01*
X196031Y83269D01*
X196414Y84063D01*
X196437Y84126D01*
X196525Y84345D01*
X196786Y85193D01*
X196828Y85225D01*
X196909Y85320D01*
X196998Y85408D01*
X197041Y85472D01*
X197091Y85530D01*
X197173Y85670D01*
X197222Y85743D01*
X197235Y85776D01*
X197259Y85816D01*
X197635Y86597D01*
X197661Y86668D01*
X197696Y86737D01*
X197730Y86857D01*
X197773Y86975D01*
X197784Y87051D01*
X197805Y87124D01*
X197815Y87249D01*
X197832Y87359D01*
X198328Y88087D01*
X198361Y88147D01*
X198480Y88350D01*
X198865Y89149D01*
X198911Y89175D01*
X199006Y89257D01*
X199107Y89331D01*
X199158Y89387D01*
X199216Y89437D01*
X199319Y89564D01*
X199378Y89629D01*
X199396Y89659D01*
X199425Y89695D01*
X199914Y90411D01*
X199950Y90479D01*
X199995Y90541D01*
X200046Y90654D01*
X200107Y90765D01*
X200129Y90838D01*
X200161Y90907D01*
X200189Y91030D01*
X200222Y91136D01*
X200821Y91782D01*
X200862Y91836D01*
X201011Y92019D01*
X201511Y92752D01*
X201560Y92771D01*
X201666Y92837D01*
X201777Y92895D01*
X201836Y92944D01*
X201901Y92984D01*
X202021Y93095D01*
X202089Y93150D01*
X202112Y93177D01*
X202146Y93208D01*
X202736Y93844D01*
X202782Y93905D01*
X202835Y93959D01*
X202903Y94064D01*
X202979Y94164D01*
X203012Y94233D01*
X203054Y94297D01*
X203100Y94414D01*
X203148Y94514D01*
X203837Y95064D01*
X203885Y95110D01*
X204060Y95270D01*
X204664Y95920D01*
X204715Y95931D01*
X204830Y95981D01*
X204948Y96022D01*
X205014Y96061D01*
X205084Y96092D01*
X205220Y96183D01*
X205295Y96227D01*
X205321Y96251D01*
X205360Y96277D01*
X206037Y96817D01*
X206092Y96870D01*
X206153Y96917D01*
X206236Y97010D01*
X206326Y97098D01*
X206369Y97161D01*
X206420Y97218D01*
X206483Y97327D01*
X206545Y97419D01*
X207309Y97859D01*
X207363Y97898D01*
X207560Y98030D01*
X208254Y98583D01*
X208306Y98586D01*
X208427Y98619D01*
X208550Y98642D01*
X208621Y98670D01*
X208695Y98690D01*
X208842Y98760D01*
X208923Y98792D01*
X208953Y98812D01*
X208995Y98832D01*
X209746Y99265D01*
X209808Y99310D01*
X209875Y99346D01*
X209971Y99427D01*
X210073Y99500D01*
X210125Y99556D01*
X210183Y99605D01*
X210262Y99703D01*
X210338Y99784D01*
X211158Y100106D01*
X211218Y100137D01*
X211432Y100238D01*
X212200Y100681D01*
X212252Y100677D01*
X212377Y100690D01*
X212502Y100695D01*
X212576Y100713D01*
X212652Y100721D01*
X212809Y100768D01*
X212894Y100788D01*
X212926Y100803D01*
X212970Y100817D01*
X213777Y101133D01*
X213845Y101168D01*
X213917Y101194D01*
X214024Y101259D01*
X214136Y101316D01*
X214196Y101364D01*
X214261Y101404D01*
X214353Y101489D01*
X214440Y101558D01*
X215299Y101754D01*
X215363Y101775D01*
X215589Y101844D01*
X215625Y101857D01*
X215658Y101874D01*
X215681Y101882D01*
X215683Y101883D01*
X215701Y101889D01*
X215840Y101968D01*
X215983Y102041D01*
X216016Y102067D01*
X216052Y102087D01*
X216173Y102192D01*
X216298Y102291D01*
X216325Y102323D01*
X216357Y102350D01*
X216455Y102477D01*
X216558Y102599D01*
X216578Y102636D01*
X216603Y102668D01*
X216675Y102812D01*
X216752Y102952D01*
X216764Y102992D01*
X216783Y103029D01*
X216824Y103184D01*
X216872Y103336D01*
X216876Y103377D01*
X216887Y103418D01*
X216910Y103697D01*
X216914Y103737D01*
X216914Y103742D01*
X216914Y103748D01*
X216914Y130433D01*
X216912Y130460D01*
X216914Y130486D01*
X216892Y130660D01*
X216874Y130834D01*
X216867Y130859D01*
X216863Y130886D01*
X216808Y131051D01*
X216756Y131219D01*
X216743Y131242D01*
X216735Y131268D01*
X216648Y131419D01*
X216564Y131573D01*
X216547Y131593D01*
X216534Y131616D01*
X216319Y131869D01*
X212372Y135817D01*
X212362Y135825D01*
X212353Y135835D01*
X212206Y135953D01*
X212061Y136072D01*
X212049Y136078D01*
X212038Y136086D01*
X211871Y136172D01*
X211705Y136260D01*
X211692Y136264D01*
X211680Y136270D01*
X211500Y136321D01*
X211319Y136375D01*
X211306Y136376D01*
X211293Y136380D01*
X211107Y136394D01*
X210918Y136412D01*
X210905Y136410D01*
X210891Y136411D01*
X210707Y136389D01*
X210518Y136368D01*
X210505Y136364D01*
X210492Y136363D01*
X210315Y136304D01*
X210134Y136247D01*
X210122Y136240D01*
X210109Y136236D01*
X209946Y136143D01*
X209782Y136052D01*
X209771Y136043D01*
X209760Y136037D01*
X209618Y135913D01*
X209475Y135791D01*
X209466Y135781D01*
X209456Y135772D01*
X209342Y135623D01*
X209225Y135475D01*
X209219Y135463D01*
X209211Y135453D01*
X209059Y135158D01*
X207630Y131707D01*
X204843Y128920D01*
X201202Y127412D01*
X197261Y127412D01*
X193620Y128920D01*
X190833Y131707D01*
X189325Y135348D01*
X189325Y139289D01*
X190833Y142930D01*
X193620Y145717D01*
X197070Y147147D01*
X197082Y147153D01*
X197095Y147157D01*
X197259Y147248D01*
X197425Y147337D01*
X197436Y147345D01*
X197447Y147352D01*
X197590Y147473D01*
X197735Y147593D01*
X197744Y147604D01*
X197754Y147612D01*
X197871Y147760D01*
X197989Y147906D01*
X197995Y147918D01*
X198004Y147928D01*
X198089Y148097D01*
X198176Y148262D01*
X198180Y148275D01*
X198186Y148287D01*
X198236Y148468D01*
X198289Y148649D01*
X198291Y148662D01*
X198294Y148675D01*
X198308Y148864D01*
X198324Y149050D01*
X198322Y149063D01*
X198323Y149077D01*
X198300Y149265D01*
X198279Y149450D01*
X198275Y149463D01*
X198273Y149476D01*
X198213Y149655D01*
X198156Y149833D01*
X198149Y149845D01*
X198145Y149858D01*
X198051Y150020D01*
X197959Y150185D01*
X197951Y150195D01*
X197944Y150207D01*
X197729Y150460D01*
X188315Y159874D01*
X188294Y159891D01*
X188277Y159911D01*
X188139Y160018D01*
X188004Y160129D01*
X187980Y160141D01*
X187959Y160158D01*
X187802Y160236D01*
X187648Y160317D01*
X187622Y160325D01*
X187598Y160337D01*
X187429Y160382D01*
X187262Y160432D01*
X187235Y160434D01*
X187210Y160441D01*
X186879Y160469D01*
X185007Y160469D01*
X184989Y160467D01*
X184972Y160468D01*
X184789Y160447D01*
X184607Y160429D01*
X184590Y160423D01*
X184572Y160421D01*
X184397Y160364D01*
X184222Y160310D01*
X184206Y160302D01*
X184189Y160296D01*
X184029Y160206D01*
X183868Y160119D01*
X183854Y160107D01*
X183838Y160099D01*
X183699Y159978D01*
X183558Y159861D01*
X183547Y159847D01*
X183534Y159835D01*
X183421Y159690D01*
X183306Y159547D01*
X183298Y159531D01*
X183287Y159517D01*
X183205Y159352D01*
X183121Y159190D01*
X183116Y159173D01*
X183108Y159157D01*
X183060Y158978D01*
X183009Y158803D01*
X183008Y158785D01*
X183003Y158768D01*
X182976Y158437D01*
X182976Y156807D01*
X181636Y155468D01*
X175176Y155468D01*
X175158Y155466D01*
X175141Y155467D01*
X174958Y155446D01*
X174776Y155428D01*
X174759Y155422D01*
X174741Y155420D01*
X174566Y155363D01*
X174391Y155309D01*
X174375Y155301D01*
X174358Y155295D01*
X174198Y155205D01*
X174037Y155118D01*
X174023Y155106D01*
X174007Y155098D01*
X173868Y154977D01*
X173727Y154860D01*
X173716Y154846D01*
X173703Y154834D01*
X173590Y154689D01*
X173475Y154546D01*
X173467Y154530D01*
X173456Y154516D01*
X173374Y154351D01*
X173290Y154189D01*
X173285Y154172D01*
X173277Y154156D01*
X173229Y153978D01*
X173178Y153802D01*
X173177Y153784D01*
X173172Y153767D01*
X173145Y153436D01*
X173145Y146976D01*
X171805Y145637D01*
X155346Y145637D01*
X155328Y145635D01*
X155311Y145636D01*
X155128Y145615D01*
X154946Y145597D01*
X154929Y145591D01*
X154911Y145589D01*
X154736Y145532D01*
X154561Y145478D01*
X154545Y145470D01*
X154528Y145464D01*
X154368Y145374D01*
X154207Y145287D01*
X154193Y145275D01*
X154177Y145267D01*
X154038Y145146D01*
X153897Y145029D01*
X153886Y145015D01*
X153873Y145003D01*
X153760Y144858D01*
X153645Y144715D01*
X153637Y144699D01*
X153626Y144685D01*
X153544Y144520D01*
X153460Y144358D01*
X153455Y144341D01*
X153447Y144325D01*
X153399Y144147D01*
X153348Y143971D01*
X153347Y143953D01*
X153342Y143936D01*
X153315Y143605D01*
X153315Y143145D01*
X153317Y143123D01*
X153315Y143101D01*
X153337Y142923D01*
X153355Y142744D01*
X153361Y142723D01*
X153364Y142701D01*
X153420Y142532D01*
X153473Y142360D01*
X153484Y142340D01*
X153491Y142319D01*
X153579Y142163D01*
X153665Y142006D01*
X153679Y141988D01*
X153690Y141969D01*
X153808Y141834D01*
X153923Y141696D01*
X153940Y141682D01*
X153955Y141665D01*
X154097Y141556D01*
X154236Y141444D01*
X154256Y141434D01*
X154274Y141420D01*
X154569Y141268D01*
X156062Y140650D01*
X157769Y138943D01*
X158693Y136712D01*
X158693Y134298D01*
X157769Y132068D01*
X156062Y130360D01*
X153831Y129437D01*
X151417Y129437D01*
X149187Y130360D01*
X147479Y132068D01*
X147045Y133117D01*
X147043Y133121D01*
X147041Y133125D01*
X146948Y133298D01*
X146855Y133472D01*
X146852Y133475D01*
X146850Y133479D01*
X146726Y133628D01*
X146598Y133782D01*
X146595Y133785D01*
X146592Y133788D01*
X146439Y133911D01*
X146286Y134036D01*
X146282Y134038D01*
X146278Y134041D01*
X146105Y134131D01*
X145929Y134223D01*
X145925Y134224D01*
X145921Y134226D01*
X145733Y134280D01*
X145543Y134336D01*
X145538Y134336D01*
X145534Y134338D01*
X145336Y134354D01*
X145142Y134371D01*
X145137Y134370D01*
X145133Y134370D01*
X144938Y134348D01*
X144742Y134325D01*
X144737Y134324D01*
X144733Y134323D01*
X144547Y134263D01*
X144358Y134202D01*
X144354Y134200D01*
X144350Y134199D01*
X144179Y134102D01*
X144007Y134006D01*
X144003Y134003D01*
X143999Y134001D01*
X143851Y133873D01*
X143701Y133744D01*
X143698Y133740D01*
X143695Y133738D01*
X143575Y133583D01*
X143453Y133427D01*
X143451Y133423D01*
X143448Y133419D01*
X143359Y133242D01*
X143272Y133067D01*
X143271Y133063D01*
X143269Y133059D01*
X143217Y132867D01*
X143166Y132679D01*
X143165Y132674D01*
X143164Y132670D01*
X143137Y132339D01*
X143137Y128351D01*
X141963Y127177D01*
X141946Y127156D01*
X141926Y127139D01*
X141819Y127001D01*
X141708Y126865D01*
X141695Y126842D01*
X141679Y126820D01*
X141601Y126664D01*
X141519Y126510D01*
X141512Y126484D01*
X141500Y126460D01*
X141454Y126291D01*
X141404Y126124D01*
X141402Y126097D01*
X141395Y126071D01*
X141368Y125740D01*
X141368Y117878D01*
X140028Y116538D01*
X139153Y116538D01*
X139136Y116536D01*
X139118Y116538D01*
X138936Y116517D01*
X138753Y116498D01*
X138736Y116493D01*
X138718Y116491D01*
X138544Y116434D01*
X138368Y116380D01*
X138352Y116372D01*
X138335Y116366D01*
X138175Y116276D01*
X138014Y116188D01*
X138000Y116177D01*
X137985Y116168D01*
X137845Y116048D01*
X137705Y115931D01*
X137693Y115917D01*
X137680Y115905D01*
X137567Y115760D01*
X137452Y115617D01*
X137444Y115601D01*
X137433Y115587D01*
X137351Y115422D01*
X137267Y115260D01*
X137262Y115243D01*
X137254Y115227D01*
X137206Y115048D01*
X137155Y114873D01*
X137154Y114855D01*
X137149Y114838D01*
X137122Y114507D01*
X137122Y114212D01*
X137124Y114194D01*
X137123Y114176D01*
X137144Y113994D01*
X137162Y113811D01*
X137167Y113794D01*
X137169Y113776D01*
X137226Y113602D01*
X137280Y113426D01*
X137289Y113411D01*
X137294Y113394D01*
X137385Y113233D01*
X137472Y113072D01*
X137483Y113059D01*
X137492Y113043D01*
X137612Y112904D01*
X137730Y112763D01*
X137744Y112752D01*
X137755Y112738D01*
X137900Y112626D01*
X138044Y112511D01*
X138059Y112502D01*
X138073Y112491D01*
X138238Y112409D01*
X138401Y112325D01*
X138418Y112320D01*
X138434Y112312D01*
X138612Y112264D01*
X138788Y112214D01*
X138806Y112212D01*
X138823Y112208D01*
X139153Y112180D01*
X139235Y112180D01*
X140574Y110841D01*
X140574Y93947D01*
X139235Y92607D01*
X139153Y92607D01*
X139136Y92605D01*
X139118Y92607D01*
X138936Y92585D01*
X138753Y92567D01*
X138736Y92562D01*
X138718Y92560D01*
X138544Y92503D01*
X138368Y92449D01*
X138352Y92440D01*
X138335Y92435D01*
X138175Y92345D01*
X138014Y92257D01*
X138000Y92246D01*
X137985Y92237D01*
X137845Y92117D01*
X137705Y91999D01*
X137693Y91986D01*
X137680Y91974D01*
X137567Y91829D01*
X137452Y91686D01*
X137444Y91670D01*
X137433Y91656D01*
X137351Y91491D01*
X137267Y91328D01*
X137262Y91311D01*
X137254Y91295D01*
X137206Y91116D01*
X137155Y90941D01*
X137154Y90924D01*
X137149Y90906D01*
X137122Y90576D01*
X137122Y88254D01*
X137125Y88223D01*
X137123Y88192D01*
X137145Y88022D01*
X137162Y87853D01*
X137171Y87824D01*
X137175Y87793D01*
X137277Y87477D01*
X137831Y86138D01*
X137831Y83724D01*
X136907Y81494D01*
X135200Y79786D01*
X132970Y78863D01*
X130555Y78863D01*
X128325Y79786D01*
X126618Y81494D01*
X125694Y83724D01*
X125694Y86138D01*
X126298Y87597D01*
X126307Y87627D01*
X126321Y87655D01*
X126365Y87820D01*
X126415Y87983D01*
X126418Y88014D01*
X126426Y88044D01*
X126453Y88375D01*
X126453Y90576D01*
X126451Y90594D01*
X126452Y90611D01*
X126431Y90794D01*
X126413Y90976D01*
X126408Y90993D01*
X126406Y91011D01*
X126349Y91186D01*
X126295Y91361D01*
X126286Y91377D01*
X126281Y91394D01*
X126190Y91554D01*
X126103Y91715D01*
X126092Y91729D01*
X126083Y91745D01*
X125963Y91884D01*
X125845Y92025D01*
X125831Y92036D01*
X125820Y92049D01*
X125675Y92162D01*
X125531Y92277D01*
X125516Y92285D01*
X125502Y92296D01*
X125337Y92378D01*
X125174Y92462D01*
X125157Y92467D01*
X125141Y92475D01*
X124963Y92523D01*
X124787Y92574D01*
X124769Y92575D01*
X124752Y92580D01*
X124422Y92607D01*
X124340Y92607D01*
X123001Y93947D01*
X123001Y110841D01*
X124340Y112180D01*
X124422Y112180D01*
X124439Y112182D01*
X124457Y112181D01*
X124639Y112202D01*
X124822Y112220D01*
X124839Y112226D01*
X124857Y112228D01*
X125031Y112285D01*
X125207Y112339D01*
X125223Y112347D01*
X125240Y112353D01*
X125400Y112443D01*
X125561Y112530D01*
X125575Y112542D01*
X125590Y112550D01*
X125730Y112671D01*
X125870Y112788D01*
X125882Y112802D01*
X125895Y112814D01*
X126008Y112959D01*
X126123Y113102D01*
X126131Y113118D01*
X126142Y113132D01*
X126224Y113297D01*
X126308Y113459D01*
X126313Y113476D01*
X126321Y113492D01*
X126369Y113670D01*
X126420Y113846D01*
X126421Y113864D01*
X126426Y113881D01*
X126453Y114212D01*
X126453Y116378D01*
X126450Y116405D01*
X126452Y116431D01*
X126430Y116605D01*
X126413Y116779D01*
X126405Y116804D01*
X126402Y116831D01*
X126346Y116997D01*
X126295Y117164D01*
X126282Y117187D01*
X126273Y117213D01*
X126186Y117364D01*
X126103Y117518D01*
X126086Y117538D01*
X126073Y117561D01*
X125858Y117814D01*
X125795Y117878D01*
X125795Y121851D01*
X125794Y121860D01*
X125794Y121869D01*
X125773Y122063D01*
X125755Y122252D01*
X125752Y122261D01*
X125751Y122270D01*
X125693Y122454D01*
X125636Y122637D01*
X125632Y122645D01*
X125630Y122653D01*
X125536Y122822D01*
X125445Y122991D01*
X125439Y122998D01*
X125435Y123006D01*
X125310Y123153D01*
X125187Y123300D01*
X125180Y123306D01*
X125174Y123313D01*
X125023Y123432D01*
X124873Y123553D01*
X124865Y123557D01*
X124858Y123562D01*
X124686Y123650D01*
X124516Y123738D01*
X124507Y123741D01*
X124499Y123745D01*
X124313Y123797D01*
X124129Y123850D01*
X124120Y123850D01*
X124111Y123853D01*
X123919Y123867D01*
X123728Y123882D01*
X123719Y123881D01*
X123710Y123882D01*
X123518Y123858D01*
X123328Y123836D01*
X123319Y123833D01*
X123311Y123832D01*
X123128Y123770D01*
X122945Y123711D01*
X122937Y123706D01*
X122929Y123703D01*
X122762Y123607D01*
X122594Y123513D01*
X122588Y123507D01*
X122580Y123502D01*
X122327Y123288D01*
X95760Y96721D01*
X95671Y96612D01*
X95575Y96508D01*
X95544Y96456D01*
X95505Y96409D01*
X95439Y96285D01*
X95366Y96165D01*
X95345Y96107D01*
X95316Y96054D01*
X95276Y95919D01*
X95228Y95786D01*
X95219Y95726D01*
X95202Y95668D01*
X95189Y95527D01*
X95168Y95388D01*
X95170Y95319D01*
X95165Y95267D01*
X95174Y95185D01*
X95178Y95057D01*
X95185Y94998D01*
X95201Y94923D01*
X95207Y94847D01*
X95243Y94727D01*
X95269Y94604D01*
X95300Y94534D01*
X95321Y94461D01*
X95380Y94350D01*
X95430Y94235D01*
X95474Y94172D01*
X95509Y94104D01*
X95610Y93976D01*
X95660Y93905D01*
X95686Y93880D01*
X95714Y93844D01*
X96304Y93208D01*
X96362Y93158D01*
X96412Y93100D01*
X96512Y93025D01*
X96606Y92942D01*
X96672Y92904D01*
X96733Y92857D01*
X96846Y92803D01*
X96943Y92747D01*
X97439Y92019D01*
X97482Y91968D01*
X97629Y91782D01*
X98232Y91132D01*
X98240Y91080D01*
X98281Y90961D01*
X98313Y90841D01*
X98347Y90772D01*
X98372Y90700D01*
X98453Y90558D01*
X98492Y90480D01*
X98514Y90451D01*
X98536Y90411D01*
X99025Y89695D01*
X99074Y89636D01*
X99116Y89572D01*
X99203Y89483D01*
X99284Y89387D01*
X99343Y89339D01*
X99397Y89284D01*
X99500Y89213D01*
X99587Y89144D01*
X99970Y88350D01*
X100005Y88293D01*
X100122Y88087D01*
X100622Y87354D01*
X100621Y87302D01*
X100645Y87179D01*
X100658Y87054D01*
X100682Y86982D01*
X100696Y86906D01*
X100754Y86754D01*
X100781Y86671D01*
X100799Y86640D01*
X100815Y86597D01*
X101191Y85816D01*
X101231Y85751D01*
X101263Y85681D01*
X101336Y85579D01*
X101401Y85472D01*
X101453Y85416D01*
X101498Y85354D01*
X101590Y85269D01*
X101666Y85187D01*
X101925Y84345D01*
X101952Y84283D01*
X102036Y84062D01*
X102422Y83263D01*
X102413Y83212D01*
X102418Y83086D01*
X102413Y82961D01*
X102425Y82886D01*
X102428Y82809D01*
X102463Y82650D01*
X102477Y82564D01*
X102490Y82530D01*
X102500Y82485D01*
X102756Y81657D01*
X102785Y81586D01*
X102806Y81513D01*
X102863Y81401D01*
X102912Y81286D01*
X102955Y81223D01*
X102990Y81154D01*
X103068Y81057D01*
X103131Y80964D01*
X103262Y80093D01*
X103279Y80028D01*
X103330Y79797D01*
X103592Y78949D01*
X103576Y78900D01*
X103562Y78775D01*
X103538Y78652D01*
X103539Y78575D01*
X103530Y78499D01*
X103542Y78337D01*
X103542Y78249D01*
X103550Y78214D01*
X103553Y78168D01*
X103682Y77311D01*
X103701Y77237D01*
X103711Y77161D01*
X103751Y77043D01*
X103782Y76921D01*
X103815Y76852D01*
X103839Y76780D01*
X103902Y76671D01*
X103950Y76571D01*
X103950Y75689D01*
X103957Y75623D01*
X103973Y75387D01*
X104106Y74509D01*
X104083Y74462D01*
X104050Y74342D01*
X104009Y74223D01*
X103998Y74148D01*
X103978Y74074D01*
X103965Y73911D01*
X103953Y73825D01*
X103955Y73789D01*
X103951Y73743D01*
X103951Y72876D01*
X103959Y72800D01*
X103957Y72724D01*
X103979Y72600D01*
X103991Y72475D01*
X104014Y72402D01*
X104027Y72327D01*
X104073Y72211D01*
X104106Y72104D01*
X103975Y71232D01*
X103971Y71165D01*
X103952Y70930D01*
X103952Y70042D01*
X103922Y69999D01*
X103872Y69885D01*
X103813Y69774D01*
X103792Y69701D01*
X103761Y69631D01*
X103724Y69472D01*
X103699Y69388D01*
X103696Y69352D01*
X103685Y69308D01*
X103556Y68450D01*
X103552Y68374D01*
X103539Y68299D01*
X103542Y68173D01*
X103536Y68048D01*
X103547Y67973D01*
X103549Y67896D01*
X103577Y67774D01*
X103594Y67664D01*
X103334Y66822D01*
X103321Y66756D01*
X103267Y66526D01*
X103135Y65648D01*
X103099Y65610D01*
X103032Y65504D01*
X102958Y65404D01*
X102925Y65334D01*
X102884Y65269D01*
X102824Y65118D01*
X102787Y65039D01*
X102778Y65004D01*
X102761Y64961D01*
X102506Y64133D01*
X102491Y64058D01*
X102466Y63985D01*
X102451Y63861D01*
X102426Y63738D01*
X102426Y63662D01*
X102416Y63586D01*
X102426Y63461D01*
X102425Y63349D01*
X102043Y62555D01*
X102020Y62492D01*
X102005Y62453D01*
X101981Y62407D01*
X101967Y62359D01*
X101933Y62273D01*
X101671Y61425D01*
X101629Y61392D01*
X101548Y61298D01*
X101460Y61209D01*
X101417Y61145D01*
X101367Y61087D01*
X101285Y60947D01*
X101236Y60874D01*
X101222Y60841D01*
X101199Y60800D01*
X101186Y60774D01*
X101138Y60640D01*
X101081Y60509D01*
X101069Y60451D01*
X101049Y60396D01*
X101027Y60255D01*
X100998Y60115D01*
X100997Y60056D01*
X100988Y59998D01*
X100995Y59855D01*
X100994Y59713D01*
X101005Y59654D01*
X101008Y59595D01*
X101043Y59457D01*
X101070Y59317D01*
X101092Y59262D01*
X101106Y59205D01*
X101168Y59076D01*
X101222Y58944D01*
X101254Y58895D01*
X101280Y58842D01*
X101366Y58728D01*
X101444Y58609D01*
X101486Y58567D01*
X101522Y58520D01*
X101628Y58425D01*
X101729Y58324D01*
X101784Y58285D01*
X101822Y58252D01*
X101893Y58210D01*
X102002Y58135D01*
X132734Y40392D01*
X132314Y39784D01*
X132303Y39757D01*
X132284Y39735D01*
X132264Y39666D01*
X132236Y39601D01*
X132236Y39572D01*
X132228Y39544D01*
X132236Y39473D01*
X132236Y39402D01*
X132247Y39375D01*
X132250Y39346D01*
X132285Y39284D01*
X132313Y39219D01*
X132333Y39198D01*
X132348Y39173D01*
X132411Y39121D01*
X132415Y39116D01*
X132424Y39110D01*
X132425Y39110D01*
X132455Y39080D01*
X132465Y39076D01*
X132476Y39067D01*
X148976Y29567D01*
X149049Y29543D01*
X149119Y29512D01*
X149143Y29512D01*
X149165Y29504D01*
X149241Y29511D01*
G37*
G36*
X68020Y207805D02*
X68020Y207805D01*
X68029Y207805D01*
X68223Y207826D01*
X68412Y207844D01*
X68421Y207847D01*
X68430Y207848D01*
X68615Y207907D01*
X68797Y207963D01*
X68805Y207967D01*
X68814Y207969D01*
X68982Y208062D01*
X69151Y208154D01*
X69158Y208160D01*
X69166Y208164D01*
X69313Y208289D01*
X69460Y208412D01*
X69466Y208419D01*
X69473Y208425D01*
X69593Y208576D01*
X69713Y208726D01*
X69717Y208734D01*
X69722Y208741D01*
X69810Y208913D01*
X69898Y209083D01*
X69901Y209092D01*
X69905Y209100D01*
X69957Y209286D01*
X70010Y209470D01*
X70010Y209479D01*
X70013Y209488D01*
X70027Y209680D01*
X70043Y209871D01*
X70042Y209880D01*
X70042Y209889D01*
X70018Y210082D01*
X69996Y210271D01*
X69993Y210280D01*
X69992Y210289D01*
X69930Y210471D01*
X69871Y210654D01*
X69866Y210662D01*
X69864Y210670D01*
X69768Y210837D01*
X69673Y211005D01*
X69667Y211011D01*
X69663Y211019D01*
X69448Y211272D01*
X47671Y233049D01*
X47650Y233066D01*
X47633Y233086D01*
X47495Y233193D01*
X47360Y233304D01*
X47336Y233316D01*
X47315Y233333D01*
X47158Y233411D01*
X47004Y233493D01*
X46978Y233500D01*
X46954Y233512D01*
X46785Y233558D01*
X46618Y233607D01*
X46591Y233610D01*
X46566Y233617D01*
X46235Y233644D01*
X44830Y233644D01*
X42600Y234568D01*
X40893Y236275D01*
X39969Y238505D01*
X39969Y240920D01*
X40893Y243150D01*
X42600Y244857D01*
X44830Y245781D01*
X47562Y245781D01*
X47579Y245783D01*
X47597Y245782D01*
X47779Y245803D01*
X47962Y245821D01*
X47979Y245826D01*
X47997Y245828D01*
X48171Y245885D01*
X48347Y245939D01*
X48363Y245948D01*
X48380Y245953D01*
X48540Y246044D01*
X48701Y246131D01*
X48715Y246142D01*
X48730Y246151D01*
X48870Y246271D01*
X49010Y246389D01*
X49022Y246403D01*
X49035Y246414D01*
X49148Y246559D01*
X49263Y246703D01*
X49271Y246718D01*
X49282Y246732D01*
X49364Y246897D01*
X49448Y247060D01*
X49453Y247077D01*
X49461Y247093D01*
X49509Y247271D01*
X49560Y247447D01*
X49561Y247465D01*
X49566Y247482D01*
X49593Y247812D01*
X49593Y281848D01*
X49590Y281874D01*
X49592Y281901D01*
X49570Y282075D01*
X49553Y282248D01*
X49545Y282274D01*
X49542Y282300D01*
X49486Y282466D01*
X49435Y282633D01*
X49422Y282657D01*
X49413Y282682D01*
X49326Y282834D01*
X49243Y282987D01*
X49226Y283008D01*
X49213Y283031D01*
X49201Y283044D01*
X48252Y285337D01*
X48252Y287751D01*
X49176Y289981D01*
X50883Y291689D01*
X53113Y292612D01*
X55614Y292612D01*
X55678Y292593D01*
X55692Y292592D01*
X55705Y292588D01*
X55893Y292573D01*
X56079Y292555D01*
X56092Y292556D01*
X56106Y292555D01*
X56293Y292577D01*
X56479Y292597D01*
X56492Y292601D01*
X56506Y292602D01*
X56685Y292661D01*
X56864Y292716D01*
X56876Y292723D01*
X56889Y292727D01*
X57053Y292820D01*
X57217Y292909D01*
X57227Y292918D01*
X57239Y292925D01*
X57381Y293048D01*
X57525Y293169D01*
X57534Y293179D01*
X57544Y293188D01*
X57659Y293336D01*
X57776Y293483D01*
X57783Y293495D01*
X57791Y293506D01*
X57875Y293675D01*
X57960Y293841D01*
X57964Y293854D01*
X57970Y293867D01*
X58019Y294049D01*
X58070Y294229D01*
X58071Y294242D01*
X58075Y294255D01*
X58102Y294586D01*
X58102Y306912D01*
X58093Y307002D01*
X58094Y307093D01*
X58073Y307202D01*
X58062Y307313D01*
X58035Y307399D01*
X58018Y307489D01*
X57976Y307591D01*
X57944Y307698D01*
X57901Y307777D01*
X57866Y307861D01*
X57805Y307954D01*
X57752Y308052D01*
X57694Y308121D01*
X57644Y308197D01*
X57565Y308276D01*
X57494Y308361D01*
X57424Y308418D01*
X57359Y308482D01*
X57246Y308561D01*
X57180Y308613D01*
X57138Y308635D01*
X57087Y308671D01*
X56525Y308996D01*
X56503Y309043D01*
X56428Y309144D01*
X56362Y309250D01*
X56309Y309306D01*
X56264Y309367D01*
X56145Y309479D01*
X56085Y309543D01*
X56056Y309563D01*
X56022Y309595D01*
X55345Y310135D01*
X55281Y310177D01*
X55222Y310226D01*
X55112Y310286D01*
X55007Y310354D01*
X54936Y310382D01*
X54868Y310419D01*
X54749Y310456D01*
X54645Y310497D01*
X54046Y311143D01*
X53996Y311187D01*
X53823Y311350D01*
X53130Y311903D01*
X53115Y311953D01*
X53057Y312064D01*
X53007Y312179D01*
X52963Y312242D01*
X52927Y312309D01*
X52826Y312438D01*
X52777Y312509D01*
X52751Y312534D01*
X52722Y312570D01*
X52133Y313206D01*
X52076Y313256D01*
X52025Y313314D01*
X51925Y313389D01*
X51831Y313472D01*
X51765Y313511D01*
X51704Y313557D01*
X51592Y313611D01*
X51495Y313668D01*
X50999Y314396D01*
X50956Y314447D01*
X50810Y314633D01*
X50206Y315284D01*
X50200Y315333D01*
X50158Y315453D01*
X50126Y315575D01*
X50092Y315642D01*
X50068Y315714D01*
X49991Y315849D01*
X49960Y315915D01*
X49954Y315923D01*
X49947Y315936D01*
X49926Y315963D01*
X49904Y316002D01*
X49899Y316010D01*
X49806Y316121D01*
X49719Y316238D01*
X49704Y316251D01*
X49701Y316255D01*
X49676Y316277D01*
X49640Y316319D01*
X49528Y316410D01*
X49420Y316507D01*
X49371Y316536D01*
X49326Y316571D01*
X49198Y316638D01*
X49073Y316712D01*
X49019Y316730D01*
X48969Y316756D01*
X48830Y316796D01*
X48693Y316844D01*
X48636Y316852D01*
X48582Y316867D01*
X48437Y316879D01*
X48294Y316899D01*
X48237Y316895D01*
X48180Y316900D01*
X48036Y316883D01*
X47892Y316874D01*
X47837Y316859D01*
X47781Y316852D01*
X47643Y316807D01*
X47503Y316770D01*
X47444Y316742D01*
X47398Y316727D01*
X47326Y316686D01*
X47203Y316628D01*
X16474Y298887D01*
X16158Y299553D01*
X16140Y299577D01*
X16130Y299604D01*
X16081Y299656D01*
X16038Y299713D01*
X16013Y299727D01*
X15993Y299748D01*
X15928Y299777D01*
X15866Y299812D01*
X15838Y299816D01*
X15811Y299828D01*
X15740Y299828D01*
X15669Y299837D01*
X15641Y299829D01*
X15612Y299830D01*
X15519Y299795D01*
X15478Y299783D01*
X15469Y299776D01*
X15457Y299771D01*
X-1021Y290232D01*
X-1078Y290181D01*
X-1140Y290136D01*
X-1152Y290116D01*
X-1170Y290100D01*
X-1203Y290031D01*
X-1242Y289965D01*
X-1246Y289939D01*
X-1255Y289921D01*
X-1257Y289876D01*
X-1270Y289801D01*
X-1293Y270761D01*
X-1287Y270733D01*
X-1289Y270704D01*
X-1267Y270636D01*
X-1253Y270566D01*
X-1237Y270542D01*
X-1228Y270515D01*
X-1181Y270461D01*
X-1141Y270402D01*
X-1117Y270387D01*
X-1098Y270365D01*
X-1033Y270333D01*
X-973Y270295D01*
X-945Y270290D01*
X-919Y270277D01*
X-819Y270269D01*
X-777Y270262D01*
X-767Y270264D01*
X-753Y270263D01*
X-20Y270322D01*
X-20Y234823D01*
X-6Y234680D01*
X0Y234535D01*
X14Y234479D01*
X20Y234422D01*
X62Y234285D01*
X96Y234144D01*
X121Y234092D01*
X138Y234037D01*
X206Y233910D01*
X268Y233780D01*
X302Y233734D01*
X330Y233683D01*
X422Y233572D01*
X508Y233457D01*
X550Y233418D01*
X587Y233374D01*
X700Y233284D01*
X807Y233187D01*
X856Y233158D01*
X901Y233122D01*
X1029Y233055D01*
X1153Y232982D01*
X1207Y232963D01*
X1258Y232936D01*
X1397Y232896D01*
X1533Y232849D01*
X1598Y232838D01*
X1645Y232825D01*
X1728Y232818D01*
X1861Y232797D01*
X1878Y232796D01*
X1954Y232798D01*
X2029Y232790D01*
X2046Y232792D01*
X2047Y232792D01*
X2055Y232793D01*
X2154Y232803D01*
X2280Y232806D01*
X2354Y232823D01*
X2430Y232830D01*
X2550Y232867D01*
X2658Y232892D01*
X3517Y232696D01*
X3583Y232687D01*
X3817Y232650D01*
X4702Y232584D01*
X4743Y232551D01*
X4854Y232492D01*
X4959Y232426D01*
X5031Y232398D01*
X5099Y232363D01*
X5254Y232313D01*
X5336Y232282D01*
X5371Y232276D01*
X5415Y232263D01*
X6258Y232070D01*
X6334Y232061D01*
X6408Y232042D01*
X6533Y232036D01*
X6657Y232020D01*
X6733Y232025D01*
X6810Y232022D01*
X6934Y232040D01*
X7045Y232048D01*
X7865Y231726D01*
X7930Y231708D01*
X8155Y231637D01*
X9021Y231440D01*
X9056Y231401D01*
X9156Y231326D01*
X9251Y231244D01*
X9318Y231207D01*
X9379Y231161D01*
X9526Y231090D01*
X9602Y231047D01*
X9636Y231036D01*
X9677Y231015D01*
X10482Y230699D01*
X10556Y230679D01*
X10626Y230649D01*
X10749Y230624D01*
X10870Y230590D01*
X10946Y230584D01*
X11021Y230569D01*
X11146Y230569D01*
X11257Y230561D01*
X12021Y230120D01*
X12082Y230092D01*
X12294Y229988D01*
X13120Y229664D01*
X13149Y229621D01*
X13238Y229532D01*
X13319Y229437D01*
X13379Y229390D01*
X13433Y229336D01*
X13568Y229243D01*
X13636Y229189D01*
X13668Y229173D01*
X13706Y229147D01*
X14455Y228715D01*
X14525Y228683D01*
X14590Y228643D01*
X14708Y228600D01*
X14822Y228549D01*
X14896Y228532D01*
X14968Y228505D01*
X15092Y228487D01*
X15201Y228462D01*
X15890Y227912D01*
X15946Y227876D01*
X16141Y227741D01*
X16909Y227298D01*
X16931Y227250D01*
X17006Y227149D01*
X17072Y227043D01*
X17125Y226988D01*
X17170Y226926D01*
X17289Y226814D01*
X17349Y226751D01*
X17378Y226730D01*
X17412Y226699D01*
X18088Y226160D01*
X18152Y226118D01*
X18211Y226069D01*
X18320Y226009D01*
X18426Y225941D01*
X18497Y225913D01*
X18564Y225876D01*
X18684Y225839D01*
X18788Y225798D01*
X19387Y225153D01*
X19438Y225108D01*
X19609Y224946D01*
X20303Y224393D01*
X20318Y224343D01*
X20376Y224232D01*
X20426Y224117D01*
X20470Y224054D01*
X20506Y223987D01*
X20607Y223858D01*
X20657Y223787D01*
X20682Y223762D01*
X20711Y223726D01*
X21299Y223092D01*
X21356Y223041D01*
X21407Y222984D01*
X21507Y222908D01*
X21601Y222825D01*
X21667Y222787D01*
X21728Y222741D01*
X21841Y222686D01*
X21937Y222630D01*
X22434Y221902D01*
X22477Y221851D01*
X22623Y221665D01*
X23226Y221014D01*
X23234Y220963D01*
X23275Y220845D01*
X23307Y220723D01*
X23341Y220655D01*
X23366Y220583D01*
X23447Y220441D01*
X23485Y220362D01*
X23507Y220334D01*
X23530Y220294D01*
X24017Y219580D01*
X24066Y219521D01*
X24108Y219457D01*
X24195Y219367D01*
X24276Y219271D01*
X24336Y219223D01*
X24389Y219169D01*
X24492Y219098D01*
X24580Y219028D01*
X24962Y218235D01*
X24997Y218178D01*
X25114Y217972D01*
X25613Y217238D01*
X25613Y217186D01*
X25636Y217063D01*
X25650Y216938D01*
X25673Y216865D01*
X25687Y216790D01*
X25746Y216638D01*
X25772Y216555D01*
X25790Y216524D01*
X25806Y216481D01*
X26181Y215702D01*
X26221Y215636D01*
X26253Y215567D01*
X26326Y215465D01*
X26391Y215358D01*
X26443Y215302D01*
X26488Y215240D01*
X26580Y215154D01*
X26655Y215073D01*
X26915Y214231D01*
X26941Y214169D01*
X27026Y213948D01*
X27411Y213149D01*
X27403Y213097D01*
X27407Y212972D01*
X27402Y212847D01*
X27414Y212771D01*
X27417Y212695D01*
X27452Y212535D01*
X27466Y212449D01*
X27479Y212416D01*
X27489Y212371D01*
X27638Y211886D01*
X27680Y211786D01*
X27713Y211683D01*
X27758Y211601D01*
X27795Y211515D01*
X27856Y211425D01*
X27908Y211330D01*
X27968Y211259D01*
X28021Y211182D01*
X28098Y211106D01*
X28168Y211023D01*
X28242Y210965D01*
X28308Y210900D01*
X28399Y210841D01*
X28484Y210774D01*
X28568Y210731D01*
X28646Y210680D01*
X28747Y210640D01*
X28843Y210591D01*
X28933Y210566D01*
X29020Y210532D01*
X29127Y210512D01*
X29231Y210483D01*
X29324Y210476D01*
X29416Y210460D01*
X29524Y210462D01*
X29633Y210454D01*
X29725Y210466D01*
X29819Y210467D01*
X29925Y210491D01*
X30032Y210504D01*
X30121Y210534D01*
X30212Y210554D01*
X30311Y210598D01*
X30414Y210633D01*
X30495Y210679D01*
X30580Y210717D01*
X30669Y210779D01*
X30763Y210833D01*
X30848Y210906D01*
X30909Y210949D01*
X30951Y210993D01*
X31016Y211048D01*
X31487Y211520D01*
X33718Y212444D01*
X36132Y212444D01*
X38363Y211520D01*
X40070Y209813D01*
X40382Y209058D01*
X40393Y209039D01*
X40400Y209018D01*
X40488Y208861D01*
X40572Y208704D01*
X40587Y208686D01*
X40598Y208667D01*
X40714Y208532D01*
X40829Y208393D01*
X40846Y208379D01*
X40861Y208362D01*
X41002Y208253D01*
X41141Y208139D01*
X41161Y208129D01*
X41179Y208115D01*
X41340Y208035D01*
X41498Y207952D01*
X41519Y207946D01*
X41539Y207936D01*
X41713Y207889D01*
X41884Y207839D01*
X41907Y207837D01*
X41928Y207832D01*
X42259Y207804D01*
X68012Y207804D01*
X68020Y207805D01*
G37*
G36*
X200891Y59310D02*
X200891Y59310D01*
X200919Y59310D01*
X201017Y59346D01*
X201056Y59358D01*
X201064Y59364D01*
X201075Y59368D01*
X247875Y86368D01*
X247895Y86386D01*
X247920Y86397D01*
X247969Y86451D01*
X248024Y86499D01*
X248035Y86524D01*
X248054Y86544D01*
X248078Y86613D01*
X248109Y86679D01*
X248111Y86706D01*
X248120Y86731D01*
X248115Y86804D01*
X248118Y86877D01*
X248109Y86903D01*
X248107Y86930D01*
X248063Y87026D01*
X248049Y87064D01*
X248042Y87071D01*
X248038Y87081D01*
X245764Y90418D01*
X245741Y90440D01*
X245718Y90476D01*
X242972Y93437D01*
X242946Y93456D01*
X242918Y93488D01*
X239762Y96006D01*
X239733Y96021D01*
X239700Y96048D01*
X236204Y98068D01*
X236174Y98078D01*
X236137Y98101D01*
X232379Y99577D01*
X232347Y99582D01*
X232307Y99599D01*
X228371Y100499D01*
X228339Y100499D01*
X228297Y100510D01*
X224271Y100813D01*
X224240Y100809D01*
X224197Y100813D01*
X220170Y100512D01*
X220139Y100504D01*
X220096Y100501D01*
X216160Y99604D01*
X216131Y99591D01*
X216088Y99582D01*
X212329Y98108D01*
X212302Y98091D01*
X212262Y98076D01*
X208765Y96058D01*
X208741Y96037D01*
X208703Y96016D01*
X205545Y93500D01*
X205525Y93475D01*
X205491Y93449D01*
X202743Y90490D01*
X202727Y90463D01*
X202697Y90432D01*
X200421Y87096D01*
X200409Y87067D01*
X200384Y87032D01*
X198631Y83395D01*
X198623Y83364D01*
X198604Y83325D01*
X197412Y79467D01*
X197409Y79435D01*
X197396Y79394D01*
X196793Y75402D01*
X196794Y75370D01*
X196787Y75328D01*
X196786Y71290D01*
X196789Y71276D01*
X196787Y71266D01*
X196792Y71246D01*
X196791Y71216D01*
X197392Y67223D01*
X197403Y67193D01*
X197408Y67150D01*
X198597Y63291D01*
X198612Y63263D01*
X198624Y63222D01*
X200375Y59584D01*
X200392Y59562D01*
X200401Y59536D01*
X200451Y59483D01*
X200495Y59425D01*
X200519Y59412D01*
X200538Y59392D01*
X200604Y59362D01*
X200668Y59326D01*
X200695Y59323D01*
X200720Y59312D01*
X200793Y59311D01*
X200865Y59302D01*
X200891Y59310D01*
G37*
G36*
X224228Y305591D02*
X224228Y305591D01*
X224271Y305587D01*
X228297Y305890D01*
X228328Y305899D01*
X228371Y305901D01*
X232307Y306801D01*
X232336Y306814D01*
X232379Y306823D01*
X236137Y308299D01*
X236164Y308317D01*
X236204Y308332D01*
X239700Y310352D01*
X239724Y310373D01*
X239762Y310394D01*
X242918Y312912D01*
X242938Y312937D01*
X242972Y312963D01*
X245718Y315924D01*
X245734Y315951D01*
X245764Y315982D01*
X248038Y319319D01*
X248048Y319344D01*
X248065Y319365D01*
X248086Y319435D01*
X248115Y319502D01*
X248115Y319530D01*
X248122Y319556D01*
X248114Y319628D01*
X248114Y319701D01*
X248103Y319726D01*
X248100Y319753D01*
X248064Y319817D01*
X248036Y319884D01*
X248016Y319903D01*
X248003Y319926D01*
X247922Y319994D01*
X247892Y320022D01*
X247883Y320025D01*
X247875Y320032D01*
X201075Y347032D01*
X201049Y347041D01*
X201026Y347057D01*
X200955Y347072D01*
X200886Y347096D01*
X200859Y347093D01*
X200832Y347099D01*
X200761Y347086D01*
X200688Y347080D01*
X200663Y347067D01*
X200637Y347062D01*
X200576Y347022D01*
X200511Y346988D01*
X200494Y346967D01*
X200471Y346952D01*
X200410Y346866D01*
X200385Y346835D01*
X200382Y346826D01*
X200375Y346816D01*
X198624Y343178D01*
X198617Y343147D01*
X198597Y343109D01*
X197408Y339250D01*
X197405Y339218D01*
X197392Y339177D01*
X196791Y335184D01*
X196793Y335153D01*
X196786Y335110D01*
X196787Y331072D01*
X196793Y331043D01*
X196791Y331031D01*
X196793Y331023D01*
X196793Y330998D01*
X197396Y327006D01*
X197407Y326976D01*
X197412Y326933D01*
X198604Y323075D01*
X198619Y323047D01*
X198631Y323006D01*
X200384Y319368D01*
X200403Y319343D01*
X200421Y319304D01*
X202697Y315968D01*
X202720Y315946D01*
X202743Y315910D01*
X205491Y312951D01*
X205516Y312932D01*
X205545Y312900D01*
X208703Y310384D01*
X208731Y310369D01*
X208765Y310342D01*
X212262Y308324D01*
X212292Y308314D01*
X212329Y308292D01*
X216088Y306818D01*
X216120Y306812D01*
X216160Y306796D01*
X220096Y305899D01*
X220128Y305898D01*
X220170Y305888D01*
X224197Y305587D01*
X224228Y305591D01*
G37*
G36*
X97689Y59314D02*
X97689Y59314D01*
X97762Y59320D01*
X97787Y59333D01*
X97813Y59338D01*
X97874Y59378D01*
X97939Y59412D01*
X97956Y59433D01*
X97979Y59448D01*
X98040Y59534D01*
X98065Y59565D01*
X98068Y59574D01*
X98075Y59584D01*
X99826Y63222D01*
X99833Y63253D01*
X99853Y63291D01*
X101042Y67150D01*
X101045Y67182D01*
X101058Y67223D01*
X101659Y71216D01*
X101657Y71247D01*
X101664Y71290D01*
X101663Y75328D01*
X101657Y75359D01*
X101657Y75402D01*
X101054Y79394D01*
X101043Y79424D01*
X101038Y79467D01*
X99846Y83325D01*
X99831Y83353D01*
X99819Y83395D01*
X98066Y87032D01*
X98047Y87057D01*
X98029Y87096D01*
X95753Y90432D01*
X95730Y90454D01*
X95707Y90490D01*
X92959Y93449D01*
X92934Y93468D01*
X92905Y93500D01*
X89747Y96016D01*
X89719Y96031D01*
X89685Y96058D01*
X86188Y98076D01*
X86158Y98086D01*
X86121Y98108D01*
X82362Y99582D01*
X82330Y99588D01*
X82290Y99604D01*
X78354Y100501D01*
X78322Y100502D01*
X78280Y100512D01*
X74254Y100813D01*
X74222Y100809D01*
X74179Y100813D01*
X70153Y100510D01*
X70122Y100501D01*
X70079Y100499D01*
X66143Y99599D01*
X66114Y99586D01*
X66071Y99577D01*
X62313Y98101D01*
X62286Y98083D01*
X62246Y98068D01*
X58750Y96048D01*
X58726Y96027D01*
X58688Y96006D01*
X55532Y93488D01*
X55512Y93463D01*
X55478Y93437D01*
X52732Y90476D01*
X52716Y90449D01*
X52686Y90418D01*
X50412Y87081D01*
X50402Y87056D01*
X50385Y87035D01*
X50364Y86965D01*
X50335Y86898D01*
X50336Y86870D01*
X50328Y86844D01*
X50336Y86772D01*
X50336Y86699D01*
X50347Y86674D01*
X50350Y86647D01*
X50386Y86583D01*
X50414Y86516D01*
X50434Y86497D01*
X50447Y86474D01*
X50528Y86407D01*
X50558Y86378D01*
X50567Y86375D01*
X50576Y86368D01*
X97376Y59368D01*
X97401Y59359D01*
X97424Y59343D01*
X97495Y59328D01*
X97564Y59304D01*
X97591Y59307D01*
X97618Y59301D01*
X97689Y59314D01*
G37*
G36*
X78280Y305888D02*
X78280Y305888D01*
X78311Y305896D01*
X78354Y305899D01*
X82290Y306796D01*
X82319Y306809D01*
X82362Y306818D01*
X86121Y308292D01*
X86148Y308309D01*
X86188Y308324D01*
X89685Y310342D01*
X89709Y310363D01*
X89747Y310384D01*
X92905Y312900D01*
X92925Y312925D01*
X92959Y312951D01*
X95707Y315910D01*
X95723Y315937D01*
X95753Y315968D01*
X98029Y319304D01*
X98041Y319333D01*
X98066Y319368D01*
X99819Y323006D01*
X99827Y323036D01*
X99846Y323075D01*
X101038Y326933D01*
X101041Y326965D01*
X101054Y327006D01*
X101657Y330998D01*
X101656Y331030D01*
X101663Y331072D01*
X101664Y335110D01*
X101658Y335141D01*
X101659Y335184D01*
X101058Y339177D01*
X101047Y339207D01*
X101042Y339250D01*
X99853Y343109D01*
X99838Y343137D01*
X99826Y343178D01*
X98075Y346816D01*
X98058Y346838D01*
X98049Y346864D01*
X97999Y346917D01*
X97955Y346975D01*
X97931Y346988D01*
X97912Y347008D01*
X97846Y347038D01*
X97782Y347074D01*
X97755Y347077D01*
X97730Y347088D01*
X97657Y347089D01*
X97585Y347098D01*
X97559Y347090D01*
X97531Y347090D01*
X97433Y347054D01*
X97394Y347042D01*
X97386Y347036D01*
X97376Y347032D01*
X50576Y320032D01*
X50555Y320014D01*
X50530Y320003D01*
X50481Y319949D01*
X50427Y319901D01*
X50415Y319876D01*
X50396Y319856D01*
X50372Y319787D01*
X50341Y319721D01*
X50340Y319694D01*
X50330Y319669D01*
X50335Y319596D01*
X50332Y319523D01*
X50341Y319497D01*
X50343Y319470D01*
X50387Y319374D01*
X50401Y319336D01*
X50408Y319329D01*
X50412Y319319D01*
X52686Y315982D01*
X52709Y315960D01*
X52732Y315924D01*
X55478Y312963D01*
X55504Y312944D01*
X55532Y312912D01*
X58688Y310394D01*
X58717Y310379D01*
X58750Y310352D01*
X62246Y308332D01*
X62276Y308322D01*
X62313Y308299D01*
X66071Y306823D01*
X66103Y306818D01*
X66143Y306801D01*
X70079Y305901D01*
X70111Y305901D01*
X70153Y305890D01*
X74179Y305587D01*
X74210Y305591D01*
X74254Y305587D01*
X78280Y305888D01*
G37*
G36*
X-749Y175703D02*
X-749Y175703D01*
X-738Y175702D01*
X3286Y176004D01*
X3317Y176012D01*
X3360Y176015D01*
X7294Y176913D01*
X7323Y176926D01*
X7366Y176935D01*
X11122Y178409D01*
X11149Y178426D01*
X11190Y178441D01*
X14684Y180459D01*
X14708Y180480D01*
X14746Y180501D01*
X17901Y183017D01*
X17921Y183042D01*
X17956Y183068D01*
X20700Y186026D01*
X20717Y186053D01*
X20747Y186085D01*
X23020Y189419D01*
X23033Y189448D01*
X23058Y189483D01*
X24808Y193119D01*
X24816Y193150D01*
X24836Y193189D01*
X26025Y197045D01*
X26028Y197076D01*
X26042Y197118D01*
X26643Y201108D01*
X26642Y201140D01*
X26649Y201182D01*
X26649Y205218D01*
X26642Y205249D01*
X26643Y205292D01*
X26042Y209282D01*
X26031Y209312D01*
X26025Y209355D01*
X24836Y213211D01*
X24820Y213239D01*
X24808Y213281D01*
X23058Y216917D01*
X23038Y216942D01*
X23020Y216981D01*
X20747Y220315D01*
X20724Y220338D01*
X20700Y220374D01*
X17956Y223332D01*
X17930Y223351D01*
X17901Y223383D01*
X14746Y225899D01*
X14718Y225913D01*
X14684Y225941D01*
X11190Y227959D01*
X11159Y227969D01*
X11122Y227991D01*
X7366Y229465D01*
X7334Y229471D01*
X7294Y229487D01*
X3360Y230385D01*
X3328Y230386D01*
X3286Y230396D01*
X-738Y230698D01*
X-765Y230694D01*
X-792Y230699D01*
X-862Y230682D01*
X-935Y230673D01*
X-959Y230659D01*
X-985Y230653D01*
X-1044Y230610D01*
X-1107Y230573D01*
X-1123Y230551D01*
X-1145Y230535D01*
X-1182Y230472D01*
X-1226Y230414D01*
X-1233Y230387D01*
X-1247Y230364D01*
X-1264Y230260D01*
X-1274Y230221D01*
X-1272Y230211D01*
X-1274Y230200D01*
X-1274Y176200D01*
X-1269Y176173D01*
X-1271Y176146D01*
X-1249Y176077D01*
X-1235Y176005D01*
X-1219Y175983D01*
X-1211Y175957D01*
X-1163Y175901D01*
X-1122Y175841D01*
X-1099Y175827D01*
X-1081Y175806D01*
X-1016Y175774D01*
X-955Y175734D01*
X-928Y175730D01*
X-903Y175718D01*
X-799Y175708D01*
X-758Y175701D01*
X-749Y175703D01*
G37*
%LPC*%
G36*
X563084Y227413D02*
X563084Y227413D01*
X559119Y229055D01*
X556085Y232090D01*
X554443Y236054D01*
X554443Y240346D01*
X556085Y244310D01*
X559119Y247345D01*
X562361Y248687D01*
X563084Y248987D01*
X567375Y248987D01*
X571339Y247345D01*
X574374Y244310D01*
X576016Y240346D01*
X576016Y236054D01*
X574374Y232090D01*
X571339Y229055D01*
X567375Y227413D01*
X563084Y227413D01*
G37*
%LPD*%
%LPC*%
G36*
X197261Y102012D02*
X197261Y102012D01*
X193620Y103520D01*
X190833Y106307D01*
X189325Y109948D01*
X189325Y113889D01*
X190833Y117530D01*
X193620Y120317D01*
X194589Y120719D01*
X197261Y121825D01*
X201202Y121825D01*
X204843Y120317D01*
X207630Y117530D01*
X209138Y113889D01*
X209138Y109948D01*
X207630Y106307D01*
X204843Y103520D01*
X201202Y102012D01*
X197261Y102012D01*
G37*
%LPD*%
G36*
X139750Y217119D02*
X139750Y217119D01*
X139801Y217121D01*
X139833Y217138D01*
X139869Y217147D01*
X139908Y217179D01*
X139953Y217204D01*
X139974Y217234D01*
X140002Y217257D01*
X140023Y217304D01*
X140053Y217345D01*
X140061Y217387D01*
X140073Y217415D01*
X140072Y217446D01*
X140080Y217488D01*
X140080Y224631D01*
X140069Y224681D01*
X140067Y224732D01*
X140049Y224764D01*
X140041Y224800D01*
X140008Y224839D01*
X139984Y224884D01*
X139954Y224905D01*
X139931Y224934D01*
X139884Y224955D01*
X139842Y224984D01*
X139800Y224992D01*
X139772Y225005D01*
X139742Y225003D01*
X139700Y225012D01*
X129381Y225012D01*
X129332Y225000D01*
X129281Y224998D01*
X129248Y224980D01*
X129213Y224972D01*
X129173Y224940D01*
X129128Y224915D01*
X129107Y224885D01*
X129079Y224862D01*
X129058Y224815D01*
X129029Y224774D01*
X129021Y224732D01*
X129008Y224704D01*
X129009Y224673D01*
X129001Y224631D01*
X129001Y217488D01*
X129013Y217438D01*
X129015Y217387D01*
X129032Y217355D01*
X129040Y217319D01*
X129073Y217279D01*
X129097Y217235D01*
X129127Y217214D01*
X129151Y217185D01*
X129197Y217164D01*
X129239Y217135D01*
X129281Y217127D01*
X129309Y217114D01*
X129339Y217115D01*
X129381Y217107D01*
X139700Y217107D01*
X139750Y217119D01*
G37*
D10*
X165194Y244475D03*
X153194Y244475D03*
X141194Y244475D03*
D11*
X149225Y368400D03*
X299945Y280720D03*
X299945Y125680D03*
X149225Y38000D03*
X77725Y327100D03*
X220725Y327100D03*
X220725Y79300D03*
X77725Y79300D03*
X449225Y368400D03*
X592325Y285800D03*
X592325Y120600D03*
X449225Y38000D03*
X6158Y285800D03*
X6158Y120600D03*
X6125Y203200D03*
D12*
X114574Y221075D03*
X119575Y221075D03*
X124577Y221075D03*
X129578Y221075D03*
X134579Y221075D03*
X139580Y221075D03*
X144582Y221075D03*
X149583Y221075D03*
X154584Y221075D03*
X159585Y221075D03*
X164587Y221075D03*
X169588Y221075D03*
D13*
X176625Y214038D03*
X176625Y209037D03*
X176625Y204035D03*
X176625Y199034D03*
X176625Y194033D03*
X176625Y189032D03*
X176625Y184030D03*
X176625Y179029D03*
X176625Y174028D03*
X176625Y169027D03*
X176625Y164025D03*
X176625Y159024D03*
D12*
X169588Y151987D03*
X164587Y151987D03*
X159585Y151987D03*
X154584Y151987D03*
X149583Y151987D03*
X144582Y151987D03*
X139580Y151987D03*
X134579Y151987D03*
X129578Y151987D03*
X124577Y151987D03*
X119575Y151987D03*
X114574Y151987D03*
D13*
X107537Y159024D03*
X107537Y164025D03*
X107537Y169027D03*
X107537Y174028D03*
X107537Y179029D03*
X107537Y184030D03*
X107537Y189032D03*
X107537Y194033D03*
X107537Y199034D03*
X107537Y204035D03*
X107537Y209037D03*
X107537Y214038D03*
D14*
X142081Y186531D03*
D15*
X148431Y318294D03*
D16*
X27781Y139931D03*
X27781Y156931D03*
X159544Y267725D03*
X159544Y284725D03*
X129944Y323850D03*
X112944Y323850D03*
X97863Y262731D03*
X114863Y262731D03*
X98656Y241300D03*
X115656Y241300D03*
X133581Y123825D03*
X150581Y123825D03*
D17*
X138113Y286519D03*
X138113Y267519D03*
D18*
X96863Y284956D03*
X115863Y284956D03*
X131788Y102394D03*
X150788Y102394D03*
D19*
X49213Y177800D03*
X49213Y152400D03*
X49213Y127000D03*
D20*
X444500Y136994D03*
X431800Y136994D03*
X419100Y136994D03*
X406400Y136994D03*
X393700Y136994D03*
X381000Y136994D03*
X368300Y136994D03*
X355600Y136994D03*
X342900Y136994D03*
X330200Y136994D03*
X330200Y270994D03*
X342900Y270994D03*
X355600Y270994D03*
X368300Y270994D03*
X381000Y270994D03*
X393700Y270994D03*
X406400Y270994D03*
X419100Y270994D03*
X431800Y270994D03*
X444500Y270994D03*
D21*
X387350Y203994D03*
D22*
X450350Y203994D03*
X324350Y203994D03*
D23*
X499269Y174544D03*
X499269Y144544D03*
D24*
X565229Y168200D03*
X565229Y203200D03*
X565229Y238200D03*
D19*
X199231Y111919D03*
X199231Y137319D03*
D16*
X356067Y298164D03*
X339067Y298164D03*
X356861Y108744D03*
X339861Y108744D03*
D23*
X496888Y223919D03*
X496888Y253919D03*
X519906Y223125D03*
X519906Y253125D03*
X520700Y174544D03*
X520700Y144544D03*
D25*
X425112Y79280D03*
X395112Y79280D03*
X413206Y297752D03*
X383206Y297752D03*
X424038Y326485D03*
X394038Y326485D03*
X414793Y105569D03*
X384793Y105569D03*
D26*
X469532Y83033D03*
X513130Y108102D03*
X512801Y298825D03*
X469290Y324047D03*
D27*
X296069Y228600D03*
D28*
X296069Y177800D03*
D29*
X476250Y213000D03*
D30*
X476250Y193000D03*
D31*
X139580Y151987D02*
X139580Y129824D01*
X134656Y124900D01*
X133581Y123825D01*
D32*
X131788Y122031D02*
X131788Y102394D01*
D33*
X131788Y122031D02*
X134656Y124900D01*
D32*
X131788Y102394D02*
X131788Y84956D01*
D33*
X131763Y84931D01*
D34*
X131763Y84931D03*
D31*
X144582Y129824D02*
X144582Y151987D01*
X144582Y129824D02*
X150581Y123825D01*
D33*
X150581Y102600D01*
X150788Y102394D01*
D35*
X153194Y244475D02*
X153194Y253206D01*
X162243Y284725D02*
X167713Y284725D01*
X160338Y284725D02*
X159544Y284725D01*
D33*
X123028Y307960D02*
X116729Y314259D01*
X139009Y307960D02*
X162243Y284725D01*
X116729Y320065D02*
X112944Y323850D01*
X116729Y320065D02*
X116729Y314259D01*
X123028Y307960D02*
X139009Y307960D01*
D34*
X58738Y213519D03*
X182563Y307975D03*
X206375Y301625D03*
D31*
X144406Y152163D02*
X144582Y151987D01*
X144406Y152163D02*
X144406Y157524D01*
X142081Y159849D02*
X142081Y186531D01*
X142081Y159849D02*
X144406Y157524D01*
D34*
X85725Y169069D03*
D35*
X158395Y258407D02*
X166832Y258407D01*
X169362Y260936D01*
X169362Y283076D01*
X158395Y258407D02*
X153194Y253206D01*
X169362Y283076D02*
X167713Y284725D01*
D32*
X431800Y270994D02*
X444500Y270994D01*
D34*
X186531Y153194D03*
X131064Y166116D03*
X203200Y170656D03*
D32*
X203994Y170656D01*
D34*
X274638Y266700D03*
X275431Y232569D03*
X272256Y175419D03*
X246063Y148431D03*
D32*
X97863Y242094D02*
X97863Y262731D01*
X97863Y242094D02*
X98656Y241300D01*
D33*
X97863Y262731D02*
X96863Y263731D01*
D32*
X96863Y284956D01*
X96863Y297681D01*
D33*
X97631Y298450D01*
D32*
X133350Y298450D01*
X138113Y293688D02*
X138113Y286519D01*
X138113Y293688D02*
X133350Y298450D01*
D34*
X84138Y262731D03*
D32*
X97863Y262731D01*
D35*
X134579Y226577D02*
X134579Y221075D01*
X130000Y231157D02*
X103188Y231157D01*
X130000Y231157D02*
X134579Y226577D01*
X103188Y231157D02*
X98656Y235688D01*
X98656Y241300D01*
D31*
X115656Y241300D02*
X117244Y239713D01*
X144406Y221251D02*
X144582Y221075D01*
X144406Y221251D02*
X144406Y226612D01*
X131306Y239713D01*
D35*
X117244Y239713D01*
D32*
X115863Y267494D02*
X115863Y284956D01*
X117450Y267494D02*
X117450Y265319D01*
D33*
X114863Y262731D01*
D32*
X114863Y242094D01*
X115656Y241300D01*
D33*
X138088Y267494D02*
X138113Y267519D01*
D32*
X138088Y267494D02*
X117450Y267494D01*
X115863Y267494D01*
D33*
X138113Y267519D02*
X138319Y267725D01*
D32*
X159544Y267725D01*
D31*
X159761Y221251D02*
X159585Y221075D01*
X159761Y221251D02*
X159761Y226612D01*
X165718Y232569D01*
X180753Y232569D01*
D36*
X180753Y291529D01*
X153988Y318294D01*
X149225Y318294D01*
X148431Y318294D01*
D33*
X149225Y318294D02*
X143669Y323850D01*
D32*
X129944Y323850D01*
D31*
X114574Y151987D02*
X113400Y150813D01*
X101600Y150813D01*
D32*
X50800Y150813D01*
X49213Y152400D01*
X49213Y165894D02*
X49213Y177800D01*
X49213Y165894D02*
X49213Y152400D01*
X36744Y165894D02*
X27781Y156931D01*
X36744Y165894D02*
X49213Y165894D01*
D36*
X196056Y310356D02*
X196056Y313531D01*
X196056Y310356D02*
X186944Y301244D01*
D34*
X196056Y313531D03*
D36*
X186944Y301244D02*
X186944Y220663D01*
D31*
X180320Y214038D01*
X176625Y214038D01*
D36*
X193072Y299447D02*
X220725Y327100D01*
D31*
X192881Y212725D02*
X189194Y209037D01*
D36*
X192881Y212725D02*
X193096Y212940D01*
X193096Y230981D01*
D31*
X189194Y209037D02*
X176625Y209037D01*
D36*
X193072Y231006D02*
X193072Y299447D01*
X193072Y231006D02*
X193096Y230981D01*
X220725Y132494D02*
X220725Y79300D01*
D31*
X189194Y164025D02*
X176625Y164025D01*
X189194Y164025D02*
X220725Y132494D01*
D36*
X228317Y132839D02*
X199273Y161884D01*
X228317Y132839D02*
X228317Y106736D01*
D34*
X228317Y106736D03*
D31*
X192129Y169027D02*
X176625Y169027D01*
X192129Y169027D02*
X199273Y161884D01*
X154759Y221250D02*
X154759Y229787D01*
X154759Y221250D02*
X154584Y221075D01*
X165194Y240222D02*
X165194Y244475D01*
X165194Y240222D02*
X154759Y229787D01*
X141194Y238919D02*
X141194Y244475D01*
X149583Y230529D02*
X149583Y221075D01*
X149583Y230529D02*
X141194Y238919D01*
X119575Y151987D02*
X119400Y151812D01*
X119400Y146450D01*
X115031Y142081D01*
X100013Y142081D01*
D32*
X64294Y142081D01*
X49213Y127000D01*
D36*
X37306Y203994D02*
X73263Y203994D01*
X37306Y203994D02*
X34925Y206375D01*
D34*
X34925Y206375D03*
D31*
X98012Y179029D02*
X107537Y179029D01*
X98012Y179029D02*
X95036Y182006D01*
X95250Y182006D01*
D36*
X73263Y203994D01*
X10888Y198438D02*
X6125Y203200D01*
X10888Y198438D02*
X70419Y198438D01*
D31*
X94828Y174028D02*
X107537Y174028D01*
D36*
X94828Y174028D02*
X70419Y198438D01*
X133350Y139700D02*
X77725Y84075D01*
X77725Y79300D01*
D31*
X133350Y139700D02*
X134579Y140929D01*
X134579Y151987D01*
D34*
X152624Y135505D03*
D31*
X149758Y138371D02*
X149758Y151812D01*
X149583Y151987D01*
X149758Y138371D02*
X152624Y135505D01*
D34*
X54321Y286544D03*
D36*
X53404Y285627D01*
X53404Y242888D01*
D31*
X87254Y209037D02*
X107537Y209037D01*
X87254Y209037D02*
X53404Y242888D01*
D36*
X61913Y311288D02*
X77725Y327100D01*
X61913Y311288D02*
X61913Y242888D01*
D31*
X90762Y214038D02*
X107537Y214038D01*
X90762Y214038D02*
X61913Y242888D01*
D34*
X46038Y239713D03*
D31*
X81539Y204211D02*
X107361Y204211D01*
X81539Y204211D02*
X46038Y239713D01*
X107361Y204211D02*
X107537Y204035D01*
D36*
X368300Y254794D02*
X368300Y270994D01*
X255588Y249238D02*
X205559Y199209D01*
D31*
X176800Y199209D02*
X176625Y199034D01*
X176800Y199209D02*
X205559Y199209D01*
D36*
X362744Y249238D02*
X368300Y254794D01*
X362744Y249238D02*
X255588Y249238D01*
D31*
X176745Y184150D02*
X176625Y184030D01*
D36*
X355600Y157163D02*
X355600Y136994D01*
X240999Y161675D02*
X218722Y183952D01*
D31*
X176943Y183952D02*
X176745Y184150D01*
D36*
X351088Y161675D02*
X355600Y157163D01*
X351088Y161675D02*
X240999Y161675D01*
D31*
X218722Y183952D02*
X176943Y183952D01*
D36*
X368300Y158750D02*
X368300Y136994D01*
X243284Y167084D02*
X243209Y167009D01*
X243284Y167084D02*
X221456Y188913D01*
D31*
X221337Y189032D01*
X176625Y189032D01*
D36*
X360041Y167009D02*
X368300Y158750D01*
X360041Y167009D02*
X243209Y167009D01*
X342900Y152400D02*
X342900Y136994D01*
X238790Y156341D02*
X217409Y177722D01*
X338959Y156341D02*
X342900Y152400D01*
X338959Y156341D02*
X238790Y156341D01*
D31*
X215383Y178872D02*
X215226Y179029D01*
X215383Y178872D02*
X216258Y178872D01*
X217409Y177722D01*
X215226Y179029D02*
X176625Y179029D01*
D36*
X355600Y261613D02*
X355600Y270994D01*
X355600Y261613D02*
X350369Y256381D01*
X253206Y256381D01*
X201114Y204289D01*
X200860Y204289D01*
D31*
X200860Y204035D02*
X176625Y204035D01*
X200860Y204035D02*
X201114Y204289D01*
D36*
X381000Y253206D02*
X381000Y270994D01*
X257003Y243110D02*
X208006Y194112D01*
D31*
X207927Y194033D01*
X176625Y194033D01*
D36*
X370904Y243110D02*
X381000Y253206D01*
X370904Y243110D02*
X257003Y243110D01*
D32*
X342900Y286725D02*
X342909Y286734D01*
X342900Y286725D02*
X342900Y270994D01*
D34*
X342909Y286734D03*
D32*
X351822Y286734D01*
X356067Y290980D02*
X356067Y298164D01*
X356067Y290980D02*
X351822Y286734D01*
D37*
X519906Y223125D02*
X519906Y207169D01*
D32*
X381000Y136994D02*
X381000Y124619D01*
X365125Y108744D02*
X356861Y108744D01*
D37*
X365125Y108744D02*
X381000Y124619D01*
D38*
X388938Y161548D02*
X449863Y161548D01*
D37*
X388938Y161548D02*
X381000Y153610D01*
D39*
X381000Y136994D01*
D38*
X449863Y161548D02*
X465241Y176925D01*
D40*
X560467Y168200D02*
X565229Y168200D01*
D37*
X508794Y223919D02*
X496888Y223919D01*
X508794Y223125D02*
X519906Y223125D01*
X496888Y223919D02*
X496888Y208756D01*
X498475Y207169D01*
X496888Y176925D02*
X499269Y174544D01*
D41*
X496888Y176925D02*
X465241Y176925D01*
D37*
X499269Y174544D02*
X499269Y186531D01*
X520700Y186531D02*
X520700Y174544D01*
X520700Y186531D02*
X520700Y186531D01*
D42*
X498475Y187325D02*
X498475Y207169D01*
X498475Y187325D02*
X499269Y186531D01*
X519906Y195263D02*
X519906Y207169D01*
X519906Y195263D02*
X519906Y187325D01*
X520700Y186531D01*
D40*
X519906Y195263D02*
X533404Y195263D01*
X560467Y168200D01*
D42*
X508794Y181769D02*
X508794Y216775D01*
D37*
X508794Y223125D02*
X508794Y223919D01*
X508794Y223125D02*
X508794Y216775D01*
X499269Y174544D02*
X520700Y174544D01*
X514350Y180894D01*
X514350Y182563D01*
X509588Y182563D01*
X508794Y181769D01*
X399256Y112713D02*
X399256Y98425D01*
X418402Y79280D01*
D32*
X425112Y79280D01*
X393700Y118269D02*
X393700Y136994D01*
D37*
X425207Y79375D02*
X425112Y79280D01*
X425207Y79375D02*
X438944Y79375D01*
D42*
X465875Y79375D01*
X469532Y83033D01*
D32*
X399256Y112713D02*
X393700Y118269D01*
D37*
X520700Y144544D02*
X526297Y138947D01*
D42*
X537369Y127875D02*
X537369Y105569D01*
X537369Y127875D02*
X526297Y138947D01*
X502444Y86519D02*
X477781Y86519D01*
X474295Y83033D01*
X469532Y83033D01*
D39*
X502444Y86519D02*
X518319Y86519D01*
X537369Y105569D01*
D37*
X398865Y295275D02*
X398865Y308377D01*
D32*
X416973Y326485D02*
X424038Y326485D01*
D37*
X416973Y326485D02*
X398865Y308377D01*
X519906Y253125D02*
X519906Y253125D01*
X519906Y257175D01*
D42*
X519906Y291719D01*
X512801Y298825D01*
D37*
X435229Y326485D02*
X424038Y326485D01*
X435229Y326485D02*
X435769Y327025D01*
D42*
X452856Y344113D01*
D39*
X476541Y344196D02*
X485775Y334963D01*
X486569Y334963D01*
D42*
X512801Y308731D01*
X512801Y298825D01*
D39*
X476541Y344196D02*
X452940Y344196D01*
X452856Y344113D01*
D32*
X393700Y281781D02*
X393700Y270994D01*
X398865Y286946D02*
X398865Y295275D01*
X398865Y286946D02*
X393700Y281781D01*
X414793Y116226D02*
X414793Y105569D01*
X406400Y124619D02*
X406400Y136994D01*
X406400Y124619D02*
X414793Y116226D01*
D37*
X415587Y106363D02*
X414793Y105569D01*
X415587Y106363D02*
X423863Y106363D01*
X499269Y134144D02*
X499269Y144544D01*
D42*
X499269Y134144D02*
X499269Y120312D01*
X511390Y106363D02*
X423863Y106363D01*
X511390Y106363D02*
X513130Y108102D01*
X511479Y108102D01*
X499269Y120312D01*
D37*
X471857Y324274D02*
X469290Y324047D01*
X469424Y323374D01*
D32*
X406400Y280988D02*
X406400Y270994D01*
X413206Y287793D02*
X413206Y297752D01*
X413206Y287793D02*
X406400Y280988D01*
D37*
X496175Y253919D02*
X496888Y253919D01*
X496175Y253919D02*
X491331Y258763D01*
D42*
X469290Y280803D01*
X469290Y324047D01*
D37*
X426339Y297752D02*
X413206Y297752D01*
X426339Y297752D02*
X427038Y298450D01*
D42*
X446088Y298450D01*
X469290Y321653D01*
D38*
X469290Y324047D01*
M02*
